<svg xmlns="http://www.w3.org/2000/svg" width="190" height="200" viewBox="0 0 190 200">
  <g id="Grupo_14379" data-name="Grupo 14379" transform="translate(-1232 -6663)">
    <g id="Grupo_14371" data-name="Grupo 14371">
      <g id="Grupo_13884" data-name="Grupo 13884" transform="translate(-21 -122)">
        <g id="Elipse_646" data-name="Elipse 646" transform="translate(1280 6785)" fill="#fdf8eb" stroke="#6278aa" stroke-width="3">
          <circle cx="68" cy="68" r="68" stroke="none"/>
          <circle cx="68" cy="68" r="66.5" fill="none"/>
        </g>
        <g id="Grupo_9737" data-name="Grupo 9737" transform="translate(-2768.707 5340.359)">
          <g id="Grupo_9735" data-name="Grupo 9735" transform="translate(4096.324 1475.475)">
            <path id="Trazado_19966" data-name="Trazado 19966" d="M4286.368,1774.211h-12.75a2.96,2.96,0,0,1-2.93-2.58l-.59-4.616a1.18,1.18,0,0,1,2.341-.3l.59,4.617a.6.6,0,0,0,.589.52h12.75a.595.595,0,0,0,.59-.671l-2.306-18.811a.6.6,0,0,0-.588-.514h-12.751a.594.594,0,0,0-.589.67l.856,7.14a1.18,1.18,0,0,1-2.343.281l-.854-7.131a2.954,2.954,0,0,1,2.931-3.319h12.751a2.959,2.959,0,0,1,2.929,2.58l2.307,18.811a2.954,2.954,0,0,1-2.931,3.322Z" transform="translate(-4267.13 -1718.854)" fill="#6278aa"/>
            <path id="Trazado_19967" data-name="Trazado 19967" d="M4264.715,1838.134a2.45,2.45,0,0,1-.328-.022l-4.016-.556a2.347,2.347,0,0,1-2.014-2.083l-.39-3.743a2.35,2.35,0,0,1,2.659-2.573h0l4.015.557a2.347,2.347,0,0,1,2.015,2.083l.389,3.743a2.35,2.35,0,0,1-2.331,2.594Zm-4.414-6.64.4,3.732,4.009.548-.4-3.731Z" transform="translate(-4257.955 -1789.097)" fill="#6278aa"/>
            <path id="Trazado_19968" data-name="Trazado 19968" d="M4447.941,1511.686c-5.678,0-9.347-4.31-9.347-10.98s3.668-10.979,9.347-10.979,9.346,4.309,9.346,10.979S4453.619,1511.686,4447.941,1511.686Zm0-19.6c-5.152,0-6.987,4.453-6.987,8.62s1.835,8.62,6.987,8.62,6.987-4.453,6.987-8.62S4453.093,1492.086,4447.941,1492.086Z" transform="translate(-4417.286 -1489.727)" fill="#6278aa"/>
            <g id="Grupo_9733" data-name="Grupo 9733" transform="translate(12.605 25.697)">
              <g id="Grupo_9732" data-name="Grupo 9732">
                <path id="Trazado_19969" data-name="Trazado 19969" d="M4500.813,1709.923h-2.73a1.18,1.18,0,0,1,0-2.359h2.73a1.18,1.18,0,0,1,0,2.359Z" transform="translate(-4481.322 -1707.564)" fill="#6278aa"/>
                <path id="Trazado_19970" data-name="Trazado 19970" d="M4509.657,1720.843a1.179,1.179,0,0,1-1.18-1.18v-10.92a1.18,1.18,0,0,1,2.359,0v10.92A1.179,1.179,0,0,1,4509.657,1720.843Z" transform="translate(-4491.53 -1707.564)" fill="#6278aa"/>
                <path id="Trazado_19971" data-name="Trazado 19971" d="M4402.049,1737.225H4384.3a2.547,2.547,0,0,1-2.544-2.545v-4.071a3.549,3.549,0,0,1,3.481-3.539c2.22-.031,6.148-.068,9.72-.009l-1.593-3.745a1.179,1.179,0,1,1,2.17-.924l2.309,5.427a1.176,1.176,0,0,1-.111,1.127,1.142,1.142,0,0,1-1.008.514c-3.931-.112-8.865-.067-11.454-.031a1.18,1.18,0,0,0-1.154,1.18v4.071a.185.185,0,0,0,.186.185h17.745a2.428,2.428,0,0,0,2.091-.883,4.617,4.617,0,0,0,.2-3.981l-4.219-13.068c-1.7-4.773-4.247-7.01-8.015-7.01h-.314l-6.644,10.854a2.51,2.51,0,0,1-2.206,1.281h0a2.538,2.538,0,0,1-2.241-1.337l-6.612-10.8h-.314c-2.966,0-5.113,1.341-6.757,4.22a1.179,1.179,0,1,1-2.048-1.17c2.049-3.589,5.012-5.409,8.8-5.409h.976a1.18,1.18,0,0,1,1.005.564l6.988,11.418c.046.08.085.154.2.154a.17.17,0,0,0,.162-.1l7.021-11.475a1.178,1.178,0,0,1,1.005-.564h.976c4.771,0,8.219,2.9,10.248,8.613l4.232,13.107a6.814,6.814,0,0,1-.542,6.093A4.673,4.673,0,0,1,4402.049,1737.225Z" transform="translate(-4364.813 -1707.564)" fill="#6278aa"/>
              </g>
            </g>
            <path id="Trazado_19972" data-name="Trazado 19972" d="M4319.065,1942.916h-53.237a1.18,1.18,0,1,1,0-2.359h53.237a1.18,1.18,0,1,1,0,2.359Z" transform="translate(-4263.859 -1887.376)" fill="#6278aa"/>
            <g id="Grupo_9734" data-name="Grupo 9734" transform="translate(11.982 53.33)">
              <path id="Trazado_19973" data-name="Trazado 19973" d="M4388.353,1964.652h-27.644a1.18,1.18,0,0,1-1.134-1.5l5.841-20.477a1.181,1.181,0,0,1,1.134-.856h16.38a1.18,1.18,0,0,1,1.14.878l5.422,20.477a1.181,1.181,0,0,1-1.14,1.481Zm-26.08-2.359h24.548l-4.8-18.117h-14.582Z" transform="translate(-4359.53 -1941.816)" fill="#6278aa"/>
            </g>
          </g>
          <path id="Trazado_19974" data-name="Trazado 19974" d="M4507.827,2082.545" transform="translate(-382.028 -537.139)" fill="none" stroke="#1d1d1b" stroke-linecap="round" stroke-linejoin="round" stroke-width="2"/>
          <path id="Trazado_19975" data-name="Trazado 19975" d="M4467.827,2082.545" transform="translate(-346.747 -537.139)" fill="none" stroke="#1d1d1b" stroke-linecap="round" stroke-linejoin="round" stroke-width="2"/>
          <path id="Trazado_19976" data-name="Trazado 19976" d="M4440.808,2064.9h-11.8a1.18,1.18,0,0,1,0-2.359h11.8a1.18,1.18,0,0,1,0,2.359Z" transform="translate(-311.469 -519.498)" fill="#6278aa"/>
          <path id="Trazado_19977" data-name="Trazado 19977" d="M4448.448,2014.9h-9.437a1.18,1.18,0,1,1,0-2.359h9.437a1.18,1.18,0,1,1,0,2.359Z" transform="translate(-320.29 -475.396)" fill="#6278aa"/>
          <g id="Grupo_9736" data-name="Grupo 9736" transform="translate(4074.707 1473.569)">
            <path id="Trazado_19978" data-name="Trazado 19978" d="M4089.793,1503.743a15.087,15.087,0,1,1,6.405-28.75,1.18,1.18,0,0,1-1,2.136,12.73,12.73,0,1,0,7.326,11.528q0-.612-.057-1.209a1.179,1.179,0,1,1,2.348-.224q.067.708.068,1.433A15.1,15.1,0,0,1,4089.793,1503.743Z" transform="translate(-4074.707 -1473.569)" fill="#ff5a5a"/>
            <path id="Trazado_19979" data-name="Trazado 19979" d="M4135.523,1514.869a1.178,1.178,0,0,1-.738-.259l-7.9-6.337a1.179,1.179,0,0,1-.117-1.732l3.065-3.235a1.178,1.178,0,0,1,1.585-.116l3.767,2.964,10.727-11.464a1.182,1.182,0,0,1,.843-.374,1.112,1.112,0,0,1,.853.346l3.091,3.091a1.18,1.18,0,0,1,.022,1.646l-14.341,15.1A1.179,1.179,0,0,1,4135.523,1514.869Zm-6.163-7.635,6.055,4.857,12.8-13.483-1.416-1.416-10.633,11.364a1.18,1.18,0,0,1-1.591.122l-3.772-2.968Z" transform="translate(-4120.34 -1491.866)" fill="#ff5a5a"/>
          </g>
        </g>
      </g>
      <g id="Trazado_25222" data-name="Trazado 25222" transform="translate(1232 6818)" fill="#ffd571">
        <path d="M 167.5 44 L 22.5 44 C 19.59707450866699 44 16.78152465820312 43.43167495727539 14.13154983520508 42.31082534790039 C 11.57145023345947 41.22800064086914 9.272049903869629 39.67765045166016 7.297200202941895 37.70280075073242 C 5.322350025177002 35.72795104980469 3.772000074386597 33.42855072021484 2.689174890518188 30.86845016479492 C 1.568325042724609 28.21847534179688 1 25.40292549133301 1 22.5 C 1 19.59707450866699 1.568325042724609 16.78152465820312 2.689174890518188 14.13154983520508 C 3.772000074386597 11.57145023345947 5.322350025177002 9.272049903869629 7.297200202941895 7.297200202941895 C 9.272049903869629 5.322350025177002 11.57145023345947 3.772000074386597 14.13154983520508 2.689174890518188 C 16.78152465820312 1.568325042724609 19.59707450866699 1 22.5 1 L 167.5 1 C 170.4029235839844 1 173.2184753417969 1.568325042724609 175.8684539794922 2.689174890518188 C 178.4285430908203 3.772000074386597 180.7279510498047 5.322350025177002 182.7028045654297 7.297200202941895 C 184.6776428222656 9.272049903869629 186.2279968261719 11.57145023345947 187.3108215332031 14.13154983520508 C 188.4316711425781 16.78152465820312 189 19.59707450866699 189 22.5 C 189 25.40292549133301 188.4316711425781 28.21847534179688 187.3108215332031 30.86845016479492 C 186.2279968261719 33.42855072021484 184.6776428222656 35.72795104980469 182.7028045654297 37.70280075073242 C 180.7279510498047 39.67765045166016 178.4285430908203 41.22800064086914 175.8684539794922 42.31082534790039 C 173.2184753417969 43.43167495727539 170.4029235839844 44 167.5 44 Z" stroke="none"/>
        <path d="M 22.5 2 C 19.73164367675781 2 17.04714965820312 2.541751861572266 14.52110290527344 3.610176086425781 C 12.0802001953125 4.642574310302734 9.887649536132812 6.120975494384766 8.004318237304688 8.004325866699219 C 6.1209716796875 9.887649536132812 4.642578125 12.0802001953125 3.61016845703125 14.52109909057617 C 2.541748046875 17.04714965820312 2 19.73164939880371 2 22.5 C 2 25.26835060119629 2.541748046875 27.95285034179688 3.61016845703125 30.47890090942383 C 4.642578125 32.9197998046875 6.1209716796875 35.11235046386719 8.004318237304688 36.99567413330078 C 9.887649536132812 38.87902450561523 12.0802001953125 40.35742568969727 14.52110290527344 41.38982391357422 C 17.04714965820312 42.458251953125 19.73164367675781 43 22.5 43 L 167.5 43 C 170.2683563232422 43 172.9528503417969 42.458251953125 175.4788970947266 41.38982391357422 C 177.9197998046875 40.35742568969727 180.1123504638672 38.87902450561523 181.9956817626953 36.99567413330078 C 183.8790283203125 35.11235046386719 185.357421875 32.9197998046875 186.3898315429688 30.47890090942383 C 187.458251953125 27.95285034179688 188 25.26835060119629 188 22.5 C 188 19.73164939880371 187.458251953125 17.04714965820312 186.3898315429688 14.52109909057617 C 185.357421875 12.0802001953125 183.8790283203125 9.887649536132812 181.9956817626953 8.004325866699219 C 180.1123504638672 6.120975494384766 177.9197998046875 4.642574310302734 175.4788970947266 3.610176086425781 C 172.9528503417969 2.541751861572266 170.2683563232422 2 167.5 2 L 22.5 2 M 22.5 0 L 167.5 0 C 179.9264068603516 0 190 10.07360076904297 190 22.5 C 190 34.92639923095703 179.9264068603516 45 167.5 45 L 22.5 45 C 10.07359313964844 45 0 34.92639923095703 0 22.5 C 0 10.07360076904297 10.07359313964844 0 22.5 0 Z" stroke="none" fill="#6278aa"/>
      </g>
    </g>
    <path id="Trazado_25227" data-name="Trazado 25227" d="M14.087,0,12.805-3.638H5.4L4.114,0H.366L6.86-17.639h4.48L17.834,0ZM6.47-6.7h5.261L9.106-14.185ZM24.438.244a7.013,7.013,0,0,1-3.662-.879,3.715,3.715,0,0,1-1.794-2.612l2.942-.83a2.364,2.364,0,0,0,2.515,1.868A2.6,2.6,0,0,0,25.72-2.5a1,1,0,0,0,.5-.97,1.027,1.027,0,0,0-.208-.647,1.644,1.644,0,0,0-.641-.464,7.984,7.984,0,0,0-.854-.33Q24.1-5.042,23.4-5.231t-1.16-.36a7.768,7.768,0,0,1-1.1-.47,4.712,4.712,0,0,1-.916-.647,2.608,2.608,0,0,1-.684-.983A3.545,3.545,0,0,1,19.3-9.033a3.206,3.206,0,0,1,1.361-2.808,6.081,6.081,0,0,1,3.558-.952,6.235,6.235,0,0,1,3.284.806,3.646,3.646,0,0,1,1.685,2.515l-2.722.61a2.132,2.132,0,0,0-2.234-1.587A2.446,2.446,0,0,0,23-10.168a.9.9,0,0,0-.488.83.951.951,0,0,0,.073.378.749.749,0,0,0,.256.305,3.739,3.739,0,0,0,.354.232,2.671,2.671,0,0,0,.5.2q.33.1.549.159t.641.165l.653.171q.671.183,1.178.366a6.9,6.9,0,0,1,1.08.513,3.877,3.877,0,0,1,.946.739,3.294,3.294,0,0,1,.616,1.038,3.832,3.832,0,0,1,.244,1.4,3.775,3.775,0,0,1-.421,1.819A3.161,3.161,0,0,1,28.027-.629,5.615,5.615,0,0,1,26.4.031,8.454,8.454,0,0,1,24.438.244Zm9.485-14.673a1.974,1.974,0,0,1-1.44-.592,1.943,1.943,0,0,1-.6-1.434,1.92,1.92,0,0,1,.6-1.422,1.98,1.98,0,0,1,1.434-.592,1.945,1.945,0,0,1,1.416.592,1.929,1.929,0,0,1,.6,1.422,1.943,1.943,0,0,1-.6,1.434A1.945,1.945,0,0,1,33.923-14.429ZM32.129,0V-12.549h3.54V0Zm11.6.244a7.013,7.013,0,0,1-3.662-.879,3.715,3.715,0,0,1-1.794-2.612l2.942-.83a2.364,2.364,0,0,0,2.515,1.868A2.6,2.6,0,0,0,45.007-2.5a1,1,0,0,0,.5-.97,1.027,1.027,0,0,0-.208-.647,1.644,1.644,0,0,0-.641-.464,7.984,7.984,0,0,0-.854-.33q-.421-.134-1.117-.323t-1.16-.36a7.768,7.768,0,0,1-1.1-.47,4.712,4.712,0,0,1-.916-.647,2.608,2.608,0,0,1-.684-.983,3.545,3.545,0,0,1-.238-1.343,3.206,3.206,0,0,1,1.361-2.808,6.081,6.081,0,0,1,3.558-.952,6.235,6.235,0,0,1,3.284.806,3.646,3.646,0,0,1,1.685,2.515l-2.722.61a2.132,2.132,0,0,0-2.234-1.587,2.446,2.446,0,0,0-1.233.281.9.9,0,0,0-.488.83.951.951,0,0,0,.073.378.749.749,0,0,0,.256.305,3.739,3.739,0,0,0,.354.232,2.671,2.671,0,0,0,.5.2q.33.1.549.159t.641.165l.653.171q.671.183,1.178.366a6.9,6.9,0,0,1,1.08.513,3.877,3.877,0,0,1,.946.739,3.294,3.294,0,0,1,.616,1.038,3.832,3.832,0,0,1,.244,1.4,3.775,3.775,0,0,1-.421,1.819A3.161,3.161,0,0,1,47.314-.629a5.615,5.615,0,0,1-1.63.659A8.454,8.454,0,0,1,43.726.244ZM56.091,0a3.79,3.79,0,0,1-2.832-1.019,3.964,3.964,0,0,1-1-2.9V-9.851H49.792v-2.7h.793a2.07,2.07,0,0,0,1.563-.525,2.7,2.7,0,0,0,.5-1.868V-16.6h3.174v4.053h2.588v2.7H55.823V-4.3q0,1.624,1.453,1.624h1.135V0Zm16.8-6.458-.037.842h-9.3a3.249,3.249,0,0,0,1,2.295,3.2,3.2,0,0,0,2.209.793,3.085,3.085,0,0,0,1.654-.433A2.664,2.664,0,0,0,69.47-4.224l3.223.476A5.479,5.479,0,0,1,70.5-.806,6.533,6.533,0,0,1,66.785.244,6.794,6.794,0,0,1,61.9-1.483a6.3,6.3,0,0,1-1.813-4.791A6.34,6.34,0,0,1,61.9-11.066a6.592,6.592,0,0,1,4.773-1.752,6.3,6.3,0,0,1,4.5,1.6A6.273,6.273,0,0,1,72.888-6.458ZM66.7-10.327A2.778,2.778,0,0,0,63.647-7.91h5.762A2.643,2.643,0,0,0,68.542-9.7,2.747,2.747,0,0,0,66.7-10.327Zm16.272-2.466a4.892,4.892,0,0,1,3.467,1.129,4.187,4.187,0,0,1,1.208,3.217V0H84.119V-7.69a2.186,2.186,0,0,0-.629-1.733,2.369,2.369,0,0,0-1.617-.549,3.3,3.3,0,0,0-1.05.159,2.7,2.7,0,0,0-.879.494,2.185,2.185,0,0,0-.629.946,4.375,4.375,0,0,0-.238,1.453V0H75.562V-12.549h3.516v1.392A4.835,4.835,0,0,1,82.971-12.793ZM96.729.232a6.7,6.7,0,0,1-4.846-1.807A6.24,6.24,0,0,1,90-6.287,6.226,6.226,0,0,1,91.876-11a6.725,6.725,0,0,1,4.852-1.794,6.687,6.687,0,0,1,4.065,1.208,5.4,5.4,0,0,1,2.1,3.406l-3.247.354A2.782,2.782,0,0,0,98.6-9.473a3.192,3.192,0,0,0-1.9-.549A2.878,2.878,0,0,0,94.4-9a4.02,4.02,0,0,0-.879,2.71,4.025,4.025,0,0,0,.879,2.7,2.871,2.871,0,0,0,2.295,1.031,3.164,3.164,0,0,0,1.9-.549,2.847,2.847,0,0,0,1.056-1.648l3.247.354a5.41,5.41,0,0,1-2.118,3.406A6.659,6.659,0,0,1,96.729.232ZM107.19-14.429a1.974,1.974,0,0,1-1.44-.592,1.943,1.943,0,0,1-.6-1.434,1.92,1.92,0,0,1,.6-1.422,1.98,1.98,0,0,1,1.434-.592,1.945,1.945,0,0,1,1.416.592,1.929,1.929,0,0,1,.6,1.422,1.943,1.943,0,0,1-.6,1.434A1.945,1.945,0,0,1,107.19-14.429ZM105.4,0V-12.549h3.54V0Zm17.468-3.406a11.74,11.74,0,0,0,.305,3.064V0h-3.284L119.6-1.367a4.08,4.08,0,0,1-1.758,1.208,6.478,6.478,0,0,1-2.271.4A5.97,5.97,0,0,1,114.4.134a3.984,3.984,0,0,1-1.056-.372,3.2,3.2,0,0,1-.873-.653,2.864,2.864,0,0,1-.586-.995,3.963,3.963,0,0,1-.22-1.361,3.774,3.774,0,0,1,.232-1.361,3.19,3.19,0,0,1,.61-1.019,3.7,3.7,0,0,1,.989-.745,7.565,7.565,0,0,1,1.245-.537,14.877,14.877,0,0,1,1.489-.391l2.063-.464a2.275,2.275,0,0,0,.934-.4.791.791,0,0,0,.275-.629A1.3,1.3,0,0,0,118.89-10a2.878,2.878,0,0,0-1.5-.366,2.152,2.152,0,0,0-2.454,1.917l-3.113-.562a4.214,4.214,0,0,1,1.819-2.863,7.229,7.229,0,0,1,3.943-.922q5.273,0,5.273,4.529Zm-6.189,1.27a2.827,2.827,0,0,0,2.173-.909,3.832,3.832,0,0,0,.842-2.692l-2.979.842a3.52,3.52,0,0,0-1.251.513,1.053,1.053,0,0,0-.433.9,1.169,1.169,0,0,0,.464.995A1.92,1.92,0,0,0,116.675-2.136ZM126.282,0V-18.75h3.552V0Z" transform="translate(1266 6849)" fill="#00223d"/>
  </g>
</svg>
