<svg xmlns="http://www.w3.org/2000/svg" width="444.645" height="257.372" viewBox="0 0 444.645 257.372">
  <g id="Grupo_14163" data-name="Grupo 14163" transform="translate(-47.644 -40.465)">
    <g id="Grupo_14115" data-name="Grupo 14115" transform="translate(48.053 233.578)">
      <g id="Grupo_14111" data-name="Grupo 14111">
        <g id="Grupo_14105" data-name="Grupo 14105" transform="translate(376.581)">
          <g id="Grupo_14101" data-name="Grupo 14101" transform="translate(30.035 23.932)">
            <path id="Trazado_24266" data-name="Trazado 24266" d="M647.235,392.042c1.052-2.5,2.785-4.715,3.421-7.348.927-3.844-.629-7.97.339-11.8.442-1.75,1.905-3.6,3.672-3.23,1.278.27,2.036,1.571,3.126,2.291,2.068,1.365,4.954.363,6.743-1.353s2.9-4.014,4.506-5.9a14.327,14.327,0,0,1,9.186-4.879,5.825,5.825,0,0,1,4.346.9,4.658,4.658,0,0,1,1.238,4.9,9.526,9.526,0,0,1-3.092,4.286,20.654,20.654,0,0,1-7.44,4.118,4.731,4.731,0,0,0-2.093,1,1.42,1.42,0,0,0-.036,2.062c.777.551,1.82-.187,2.772-.16a2.178,2.178,0,0,1,1.814,1.326,4.283,4.283,0,0,1,.249,2.323,8.617,8.617,0,0,1-3.937,6.148c-.489.3-1.06.624-1.184,1.186a1.476,1.476,0,0,0,.74,1.429c.471.321,1.029.494,1.505.808,1.622,1.071,1.776,3.572.724,5.206a7.734,7.734,0,0,1-4.849,2.973c-5.073,1.217-10.284-.054-15.416.224-1.766.1-4.99,1.635-6.227.266C645.815,397.121,646.456,393.893,647.235,392.042Z" transform="translate(-646.412 -359.755)" fill="#b9b8f1"/>
            <path id="Trazado_24267" data-name="Trazado 24267" d="M649.116,401.831s9.315-20.813,29.861-34.2" transform="translate(-647.278 -362.278)" fill="none" stroke="#fff" stroke-linecap="round" stroke-linejoin="round" stroke-width="0.79"/>
          </g>
          <g id="Grupo_14102" data-name="Grupo 14102" transform="translate(0 23.052)">
            <path id="Trazado_24268" data-name="Trazado 24268" d="M638.185,384.91a33.8,33.8,0,0,0,1.752-5.044,5.326,5.326,0,0,0-1.3-4.948c-1.786-1.595-4.728-1.17-6.588-2.679-3.1-2.516-1-8.18-3.783-11.048-1.445-1.491-3.77-1.7-5.828-1.425s-4.085.935-6.158.831c-2.472-.125-4.75-1.323-7.159-1.887-2.776-.649-6.68-.177-6.88,3.3-.22,3.822,1.589,6.944,4.116,9.633,1.5,1.6,2.861,3.612,2.678,5.8-.142,1.7-1.185,3.165-2,4.666s-1.406,3.352-.637,4.874a4.875,4.875,0,0,0,3.73,2.251,38.722,38.722,0,0,0,6.5-.021c4.25-.051,7.1,2.109,9.912,5.009,1.774,1.826,4.878,5.711,7.857,4.357,1.878-.854,2.489-3.5,2.642-5.333C637.289,390.355,637.193,387.7,638.185,384.91Z" transform="translate(-602.228 -358.462)" fill="#cecef4"/>
            <path id="Trazado_24269" data-name="Trazado 24269" d="M638.112,401.549s0-17.469-24.309-33.8" transform="translate(-605.935 -361.436)" fill="none" stroke="#fff" stroke-linecap="round" stroke-linejoin="round" stroke-width="0.79"/>
          </g>
          <g id="Grupo_14104" data-name="Grupo 14104" transform="translate(28.416)">
            <path id="Trazado_24270" data-name="Trazado 24270" d="M650.033,393.7s8.159-29.417,23.287-49.464c.223-.3,1.472-1.726,1.7-2.018" transform="translate(-645.953 -330.207)" fill="none" stroke="#a1a1e5" stroke-linecap="round" stroke-linejoin="round" stroke-width="0.79"/>
            <g id="Grupo_14103" data-name="Grupo 14103">
              <path id="Trazado_24271" data-name="Trazado 24271" d="M651.825,409.294s13.923-5.239,15.533-3.22C670.767,410.348,652.745,409.762,651.825,409.294Z" transform="translate(-646.527 -350.508)" fill="#a1a1e5"/>
              <path id="Trazado_24272" data-name="Trazado 24272" d="M657.731,392.833s13.636-5.848,15.357-3.923C676.732,392.985,658.677,393.248,657.731,392.833Z" transform="translate(-648.418 -345.035)" fill="#a1a1e5"/>
              <path id="Trazado_24273" data-name="Trazado 24273" d="M662.677,381s13.031-6,14.752-4.074C681.072,381,663.623,381.418,662.677,381Z" transform="translate(-650.002 -341.201)" fill="#a1a1e5"/>
              <path id="Trazado_24274" data-name="Trazado 24274" d="M668.274,369.4s13.139-5.987,14.86-4.062C686.777,369.411,669.22,369.813,668.274,369.4Z" transform="translate(-651.794 -337.488)" fill="#a1a1e5"/>
              <path id="Trazado_24275" data-name="Trazado 24275" d="M675.984,354.9s12.483-7,14.381-5.248C694.385,353.358,676.965,355.224,675.984,354.9Z" transform="translate(-654.263 -332.499)" fill="#a1a1e5"/>
              <path id="Trazado_24276" data-name="Trazado 24276" d="M674.512,350.409s1.531-14.228-.825-15.287C668.7,332.882,673.83,349.634,674.512,350.409Z" transform="translate(-652.837 -327.869)" fill="#a1a1e5"/>
              <path id="Trazado_24277" data-name="Trazado 24277" d="M668.2,362.149s1.532-14.228-.824-15.287C662.395,344.622,667.523,361.374,668.2,362.149Z" transform="translate(-650.817 -331.629)" fill="#a1a1e5"/>
              <path id="Trazado_24278" data-name="Trazado 24278" d="M660.967,376.594s.7-14.294-1.716-15.213C654.143,359.436,660.241,375.86,660.967,376.594Z" transform="translate(-648.257 -336.293)" fill="#a1a1e5"/>
              <path id="Trazado_24279" data-name="Trazado 24279" d="M655.453,388.226s-1.2-14.26-3.711-14.852C646.421,372.121,654.636,387.595,655.453,388.226Z" transform="translate(-645.929 -340.162)" fill="#a1a1e5"/>
              <path id="Trazado_24280" data-name="Trazado 24280" d="M649.523,403.822s-1.2-14.26-3.711-14.852C640.491,387.716,648.706,403.191,649.523,403.822Z" transform="translate(-644.03 -345.156)" fill="#a1a1e5"/>
              <path id="Trazado_24281" data-name="Trazado 24281" d="M685.281,337.7s6.04-13.42,8.608-13.142C699.324,325.141,686.261,337.372,685.281,337.7Z" transform="translate(-657.24 -324.55)" fill="#a1a1e5"/>
            </g>
          </g>
        </g>
        <g id="Grupo_14110" data-name="Grupo 14110">
          <g id="Grupo_14106" data-name="Grupo 14106" transform="translate(0 23.932)">
            <path id="Trazado_24282" data-name="Trazado 24282" d="M85.043,392.042c-1.052-2.5-2.785-4.715-3.421-7.348-.927-3.844.629-7.97-.339-11.8-.442-1.75-1.905-3.6-3.672-3.23-1.279.27-2.036,1.571-3.126,2.291-2.068,1.365-4.954.363-6.743-1.353s-2.9-4.014-4.506-5.9a14.326,14.326,0,0,0-9.186-4.879,5.825,5.825,0,0,0-4.346.9,4.656,4.656,0,0,0-1.238,4.9,9.526,9.526,0,0,0,3.092,4.286A20.654,20.654,0,0,0,59,374.025a4.731,4.731,0,0,1,2.093,1,1.419,1.419,0,0,1,.036,2.062c-.777.551-1.82-.187-2.772-.16a2.18,2.18,0,0,0-1.814,1.326,4.289,4.289,0,0,0-.249,2.323,8.617,8.617,0,0,0,3.937,6.148c.489.3,1.06.624,1.184,1.186a1.475,1.475,0,0,1-.74,1.429c-.47.321-1.029.494-1.5.808-1.622,1.071-1.776,3.572-.724,5.206a7.734,7.734,0,0,0,4.849,2.973c5.073,1.217,10.284-.054,15.416.224,1.766.1,4.99,1.635,6.227.266C86.464,397.121,85.823,393.893,85.043,392.042Z" transform="translate(-48.246 -359.755)" fill="#b9b8f1"/>
            <path id="Trazado_24283" data-name="Trazado 24283" d="M86.817,401.831s-9.315-20.813-29.861-34.2" transform="translate(-51.035 -362.278)" fill="none" stroke="#fff" stroke-linecap="round" stroke-linejoin="round" stroke-width="0.79"/>
          </g>
          <g id="Grupo_14107" data-name="Grupo 14107" transform="translate(29.824 23.052)">
            <path id="Trazado_24284" data-name="Trazado 24284" d="M93.994,384.91a33.8,33.8,0,0,1-1.752-5.044,5.326,5.326,0,0,1,1.3-4.948c1.786-1.595,4.728-1.17,6.588-2.679,3.1-2.516,1-8.18,3.783-11.048,1.445-1.491,3.77-1.7,5.828-1.425s4.085.935,6.158.831c2.472-.125,4.75-1.323,7.159-1.887,2.776-.649,6.68-.177,6.88,3.3.22,3.822-1.589,6.944-4.116,9.633-1.5,1.6-2.86,3.612-2.678,5.8.142,1.7,1.185,3.165,2,4.666s1.406,3.352.637,4.874a4.875,4.875,0,0,1-3.73,2.251,38.731,38.731,0,0,1-6.5-.021c-4.249-.051-7.095,2.109-9.912,5.009-1.773,1.826-4.877,5.711-7.856,4.357-1.878-.854-2.489-3.5-2.642-5.333C94.889,390.355,94.985,387.7,93.994,384.91Z" transform="translate(-92.12 -358.462)" fill="#cecef4"/>
            <path id="Trazado_24285" data-name="Trazado 24285" d="M100.436,401.549s0-17.469,24.309-33.8" transform="translate(-94.783 -361.436)" fill="none" stroke="#fff" stroke-linecap="round" stroke-linejoin="round" stroke-width="0.79"/>
          </g>
          <g id="Grupo_14109" data-name="Grupo 14109" transform="translate(1.271)">
            <path id="Trazado_24286" data-name="Trazado 24286" d="M88.2,393.7s-8.159-29.417-23.287-49.464c-.223-.3-1.472-1.726-1.7-2.018" transform="translate(-54.31 -330.207)" fill="none" stroke="#a1a1e5" stroke-linecap="round" stroke-linejoin="round" stroke-width="0.79"/>
            <g id="Grupo_14108" data-name="Grupo 14108">
              <path id="Trazado_24287" data-name="Trazado 24287" d="M90.656,409.294s-13.923-5.239-15.533-3.22C71.714,410.348,89.735,409.762,90.656,409.294Z" transform="translate(-57.987 -350.508)" fill="#a1a1e5"/>
              <path id="Trazado_24288" data-name="Trazado 24288" d="M84.805,392.833s-13.636-5.848-15.357-3.923C65.805,392.985,83.86,393.248,84.805,392.833Z" transform="translate(-56.152 -345.035)" fill="#a1a1e5"/>
              <path id="Trazado_24289" data-name="Trazado 24289" d="M80.138,381s-13.031-6-14.752-4.074C61.744,381,79.193,381.418,80.138,381Z" transform="translate(-54.847 -341.201)" fill="#a1a1e5"/>
              <path id="Trazado_24290" data-name="Trazado 24290" d="M74.492,369.4s-13.139-5.987-14.86-4.062C55.988,369.411,73.546,369.813,74.492,369.4Z" transform="translate(-53.005 -337.488)" fill="#a1a1e5"/>
              <path id="Trazado_24291" data-name="Trazado 24291" d="M66.958,354.9s-12.483-7-14.381-5.248C48.557,353.358,65.977,355.224,66.958,354.9Z" transform="translate(-50.712 -332.499)" fill="#a1a1e5"/>
              <path id="Trazado_24292" data-name="Trazado 24292" d="M73.854,350.409s-1.531-14.228.825-15.287C79.664,332.882,74.535,349.634,73.854,350.409Z" transform="translate(-57.561 -327.869)" fill="#a1a1e5"/>
              <path id="Trazado_24293" data-name="Trazado 24293" d="M80.16,362.149s-1.532-14.228.824-15.287C85.97,344.622,80.842,361.374,80.16,362.149Z" transform="translate(-59.581 -331.629)" fill="#a1a1e5"/>
              <path id="Trazado_24294" data-name="Trazado 24294" d="M87.229,376.594s-.7-14.294,1.716-15.213C94.052,359.436,87.955,375.86,87.229,376.594Z" transform="translate(-61.971 -336.293)" fill="#a1a1e5"/>
              <path id="Trazado_24295" data-name="Trazado 24295" d="M91.96,388.226s1.2-14.26,3.711-14.852C100.991,372.121,92.776,387.595,91.96,388.226Z" transform="translate(-63.516 -340.162)" fill="#a1a1e5"/>
              <path id="Trazado_24296" data-name="Trazado 24296" d="M97.89,403.822s1.2-14.26,3.711-14.852C106.921,387.716,98.706,403.191,97.89,403.822Z" transform="translate(-65.415 -345.156)" fill="#a1a1e5"/>
              <path id="Trazado_24297" data-name="Trazado 24297" d="M60.043,337.7s-6.04-13.42-8.608-13.142C46,325.141,59.063,337.372,60.043,337.7Z" transform="translate(-50.117 -324.55)" fill="#a1a1e5"/>
            </g>
          </g>
        </g>
      </g>
      <g id="Grupo_14114" data-name="Grupo 14114" transform="translate(213.147 16.874)">
        <g id="Grupo_14112" data-name="Grupo 14112" transform="translate(31.792 11.915)">
          <path id="Trazado_24298" data-name="Trazado 24298" d="M409.293,395.211c.922-2.188,2.442-4.134,3-6.443.814-3.37-.551-6.988.3-10.35.387-1.535,1.671-3.16,3.22-2.833,1.121.237,1.785,1.377,2.742,2.008,1.813,1.2,4.344.319,5.912-1.186s2.541-3.52,3.952-5.172a12.563,12.563,0,0,1,8.055-4.279,5.109,5.109,0,0,1,3.81.791,4.084,4.084,0,0,1,1.086,4.294,8.342,8.342,0,0,1-2.712,3.758,18.107,18.107,0,0,1-6.523,3.612,4.138,4.138,0,0,0-1.835.874,1.245,1.245,0,0,0-.032,1.807c.682.483,1.6-.164,2.431-.14a1.911,1.911,0,0,1,1.591,1.162,3.751,3.751,0,0,1,.218,2.037,7.553,7.553,0,0,1-3.452,5.391c-.428.266-.929.548-1.038,1.04a1.294,1.294,0,0,0,.648,1.253c.413.281.9.434,1.319.709,1.422.939,1.558,3.132.635,4.565a6.784,6.784,0,0,1-4.251,2.607c-4.448,1.068-9.019-.047-13.518.2-1.549.084-4.376,1.433-5.46.232C408.048,399.664,408.61,396.834,409.293,395.211Z" transform="translate(-408.572 -366.9)" fill="#b9b8f1"/>
          <path id="Trazado_24299" data-name="Trazado 24299" d="M410.943,403.795s8.167-18.25,26.183-29.987" transform="translate(-409.331 -369.112)" fill="none" stroke="#fff" stroke-linecap="round" stroke-linejoin="round" stroke-width="0.79"/>
        </g>
        <g id="Grupo_14113" data-name="Grupo 14113">
          <path id="Trazado_24300" data-name="Trazado 24300" d="M387.165,393.815a19.338,19.338,0,0,1-3.338-6.13,14.643,14.643,0,0,0-2.207-4.393,27.429,27.429,0,0,0-3.2-2.629,29.621,29.621,0,0,0-8.727-4.737c-1.851-.629-3.978-1.244-4.858-2.99-.808-1.6-.223-3.538.535-5.162s1.7-3.282,1.592-5.071a7.789,7.789,0,0,0-1.92-4.129c-1.68-2.157-4.7-5.006-2.407-7.819a3.893,3.893,0,0,1,4.2-1.18c1.481.521,2.471,1.875,3.55,3.015a16.236,16.236,0,0,0,7.471,4.48c3.77,1.031,8.146.8,11.066,3.4,2.7,2.4,3.171,6.362,3.543,9.952.329,3.177.825,7.121,3.429,9.324a12.245,12.245,0,0,1,3.9,9.015C399.834,395.967,392.107,399.149,387.165,393.815Z" transform="translate(-361.803 -349.373)" fill="#cecef4"/>
          <path id="Trazado_24301" data-name="Trazado 24301" d="M400,400.873s-.861-17.376-24.061-35.315" transform="translate(-366.33 -354.556)" fill="none" stroke="#fff" stroke-linecap="round" stroke-linejoin="round" stroke-width="0.79"/>
        </g>
      </g>
    </g>
    <g id="Grupo_14116" data-name="Grupo 14116" transform="translate(143.499 80.626)">
      <path id="Trazado_24302" data-name="Trazado 24302" d="M193.679,102.057a2.512,2.512,0,1,1-2.512-2.512A2.512,2.512,0,0,1,193.679,102.057Z" transform="translate(-188.655 -99.545)" fill="#fafafa"/>
      <path id="Trazado_24303" data-name="Trazado 24303" d="M212.087,102.057a2.512,2.512,0,1,1-2.512-2.512A2.511,2.511,0,0,1,212.087,102.057Z" transform="translate(-194.55 -99.545)" fill="#fafafa"/>
      <path id="Trazado_24304" data-name="Trazado 24304" d="M230.5,102.057a2.511,2.511,0,1,1-2.512-2.512A2.511,2.511,0,0,1,230.5,102.057Z" transform="translate(-200.445 -99.545)" fill="#fafafa"/>
    </g>
    <rect id="Rectángulo_2690" data-name="Rectángulo 2690" width="48.061" height="38.455" rx="7" transform="translate(143.499 200.852)" fill="#fafafa"/>
    <g id="Grupo_14118" data-name="Grupo 14118" transform="translate(58.184 41.508)">
      <path id="Trazado_24305" data-name="Trazado 24305" d="M83.011,156.675H67.376a2.719,2.719,0,0,0-2.719,2.719v6.8a2.719,2.719,0,0,0,2.719,2.719h6.118l5.013,5.013v-5.013h4.5a2.719,2.719,0,0,0,2.719-2.719v-6.8A2.719,2.719,0,0,0,83.011,156.675Z" transform="translate(-63.632 -78.722)" fill="none" stroke="#b9b8f1" stroke-linecap="round" stroke-linejoin="round" stroke-width="2"/>
      <rect id="Rectángulo_2691" data-name="Rectángulo 2691" width="5.439" height="5.439" transform="translate(295.449 219.535)" fill="none" stroke="#b9b8f1" stroke-linecap="round" stroke-linejoin="round" stroke-width="2"/>
      <rect id="Rectángulo_2692" data-name="Rectángulo 2692" width="2.72" height="2.72" transform="translate(179.72 1.466)" fill="#b9b8f1"/>
      <rect id="Rectángulo_2693" data-name="Rectángulo 2693" width="4.04" height="4.04" transform="translate(422.719 98.726)" fill="#b9b8f1"/>
      <rect id="Rectángulo_2694" data-name="Rectángulo 2694" width="2.02" height="2.02" transform="translate(0 137.896)" fill="#b9b8f1"/>
      <rect id="Rectángulo_2695" data-name="Rectángulo 2695" width="2.748" height="2.748" transform="translate(24.067 58.67)" fill="#b9b8f1"/>
      <rect id="Rectángulo_2696" data-name="Rectángulo 2696" width="5.439" height="5.439" transform="translate(10.686 158.003) rotate(-24.606)" fill="none" stroke="#b9b8f1" stroke-linecap="round" stroke-linejoin="round" stroke-width="2"/>
      <circle id="Elipse_694" data-name="Elipse 694" cx="6.174" cy="6.174" r="6.174" transform="translate(399.868 119.954)" fill="none" stroke="#b9b8f1" stroke-linecap="round" stroke-linejoin="round" stroke-width="2"/>
      <path id="Trazado_24306" data-name="Trazado 24306" d="M273.633,45.523A3.523,3.523,0,1,1,270.11,42,3.523,3.523,0,0,1,273.633,45.523Z" transform="translate(-128.296 -42)" fill="none" stroke="#b9b8f1" stroke-linecap="round" stroke-linejoin="round" stroke-width="2"/>
      <g id="Grupo_14117" data-name="Grupo 14117" transform="translate(396.748 67.251)">
        <rect id="Rectángulo_2697" data-name="Rectángulo 2697" width="24.989" height="13.813" rx="4.181" fill="#cecef4"/>
        <path id="Trazado_24307" data-name="Trazado 24307" d="M666.412,149.825l-4.661-2.691v5.383Z" transform="translate(-651.587 -142.918)" fill="#f0f3ff"/>
      </g>
    </g>
    <g id="Grupo_14122" data-name="Grupo 14122" transform="translate(51.626 40.465)" opacity="0.32">
      <g id="Grupo_14119" data-name="Grupo 14119" transform="translate(119.416 212.186)">
        <path id="Trazado_24308" data-name="Trazado 24308" d="M231.682,353.862a1.255,1.255,0,1,1-1.254-1.254A1.255,1.255,0,0,1,231.682,353.862Z" transform="translate(-229.173 -352.608)" fill="#b9b8f1"/>
        <path id="Trazado_24309" data-name="Trazado 24309" d="M245.118,353.862a1.255,1.255,0,1,1-1.254-1.254A1.255,1.255,0,0,1,245.118,353.862Z" transform="translate(-233.476 -352.608)" fill="#b9b8f1"/>
        <circle id="Elipse_695" data-name="Elipse 695" cx="1.255" cy="1.255" r="1.255" transform="translate(18.267)" fill="#b9b8f1"/>
        <circle id="Elipse_696" data-name="Elipse 696" cx="1.255" cy="1.255" r="1.255" transform="translate(27.401)" fill="#b9b8f1"/>
        <path id="Trazado_24310" data-name="Trazado 24310" d="M285.427,353.862a1.255,1.255,0,1,1-1.254-1.254A1.255,1.255,0,0,1,285.427,353.862Z" transform="translate(-246.384 -352.608)" fill="#b9b8f1"/>
        <path id="Trazado_24311" data-name="Trazado 24311" d="M231.682,367.3a1.255,1.255,0,1,1-1.254-1.254A1.254,1.254,0,0,1,231.682,367.3Z" transform="translate(-229.173 -356.91)" fill="#b9b8f1"/>
        <path id="Trazado_24312" data-name="Trazado 24312" d="M245.118,367.3a1.255,1.255,0,1,1-1.254-1.254A1.254,1.254,0,0,1,245.118,367.3Z" transform="translate(-233.476 -356.91)" fill="#b9b8f1"/>
        <circle id="Elipse_697" data-name="Elipse 697" cx="1.255" cy="1.255" r="1.255" transform="translate(18.267 9.134)" fill="#b9b8f1"/>
        <circle id="Elipse_698" data-name="Elipse 698" cx="1.255" cy="1.255" r="1.255" transform="translate(27.401 9.134)" fill="#b9b8f1"/>
        <path id="Trazado_24313" data-name="Trazado 24313" d="M285.427,367.3a1.255,1.255,0,1,1-1.254-1.254A1.254,1.254,0,0,1,285.427,367.3Z" transform="translate(-246.384 -356.91)" fill="#b9b8f1"/>
        <path id="Trazado_24314" data-name="Trazado 24314" d="M231.682,380.735a1.255,1.255,0,1,1-1.254-1.255A1.254,1.254,0,0,1,231.682,380.735Z" transform="translate(-229.173 -361.213)" fill="#b9b8f1"/>
        <path id="Trazado_24315" data-name="Trazado 24315" d="M245.118,380.735a1.255,1.255,0,1,1-1.254-1.255A1.254,1.254,0,0,1,245.118,380.735Z" transform="translate(-233.476 -361.213)" fill="#b9b8f1"/>
        <circle id="Elipse_699" data-name="Elipse 699" cx="1.255" cy="1.255" r="1.255" transform="translate(18.267 18.267)" fill="#b9b8f1"/>
        <circle id="Elipse_700" data-name="Elipse 700" cx="1.255" cy="1.255" r="1.255" transform="translate(27.401 18.267)" fill="#b9b8f1"/>
        <path id="Trazado_24316" data-name="Trazado 24316" d="M285.427,380.735a1.255,1.255,0,1,1-1.254-1.255A1.254,1.254,0,0,1,285.427,380.735Z" transform="translate(-246.384 -361.213)" fill="#b9b8f1"/>
        <path id="Trazado_24317" data-name="Trazado 24317" d="M231.682,394.171a1.255,1.255,0,1,1-1.254-1.254A1.255,1.255,0,0,1,231.682,394.171Z" transform="translate(-229.173 -365.516)" fill="#b9b8f1"/>
        <path id="Trazado_24318" data-name="Trazado 24318" d="M245.118,394.171a1.255,1.255,0,1,1-1.254-1.254A1.255,1.255,0,0,1,245.118,394.171Z" transform="translate(-233.476 -365.516)" fill="#b9b8f1"/>
        <circle id="Elipse_701" data-name="Elipse 701" cx="1.255" cy="1.255" r="1.255" transform="translate(18.267 27.401)" fill="#b9b8f1"/>
        <circle id="Elipse_702" data-name="Elipse 702" cx="1.255" cy="1.255" r="1.255" transform="translate(27.401 27.401)" fill="#b9b8f1"/>
        <path id="Trazado_24319" data-name="Trazado 24319" d="M285.427,394.171a1.255,1.255,0,1,1-1.254-1.254A1.255,1.255,0,0,1,285.427,394.171Z" transform="translate(-246.384 -365.516)" fill="#b9b8f1"/>
      </g>
      <g id="Grupo_14120" data-name="Grupo 14120">
        <circle id="Elipse_703" data-name="Elipse 703" cx="1.255" cy="1.255" r="1.255" transform="translate(27.401 0)" fill="#b9b8f1"/>
        <path id="Trazado_24320" data-name="Trazado 24320" d="M95.066,56.41a1.255,1.255,0,1,1,1.254-1.254A1.255,1.255,0,0,1,95.066,56.41Z" transform="translate(-66.41 -44.768)" fill="#b9b8f1"/>
        <circle id="Elipse_704" data-name="Elipse 704" cx="1.255" cy="1.255" r="1.255" transform="translate(27.401 18.267)" fill="#b9b8f1"/>
        <circle id="Elipse_705" data-name="Elipse 705" cx="1.255" cy="1.255" r="1.255" transform="translate(27.401 27.401)" fill="#b9b8f1"/>
        <circle id="Elipse_706" data-name="Elipse 706" cx="1.255" cy="1.255" r="1.255" transform="translate(27.401 36.535)" fill="#b9b8f1"/>
        <path id="Trazado_24321" data-name="Trazado 24321" d="M81.629,42.974a1.255,1.255,0,1,1,1.255-1.254A1.254,1.254,0,0,1,81.629,42.974Z" transform="translate(-62.108 -40.465)" fill="#b9b8f1"/>
        <path id="Trazado_24322" data-name="Trazado 24322" d="M81.629,56.41a1.255,1.255,0,1,1,1.255-1.254A1.254,1.254,0,0,1,81.629,56.41Z" transform="translate(-62.108 -44.768)" fill="#b9b8f1"/>
        <path id="Trazado_24323" data-name="Trazado 24323" d="M81.629,69.847a1.255,1.255,0,1,1,1.255-1.255A1.254,1.254,0,0,1,81.629,69.847Z" transform="translate(-62.108 -49.071)" fill="#b9b8f1"/>
        <path id="Trazado_24324" data-name="Trazado 24324" d="M81.629,83.283a1.255,1.255,0,1,1,1.255-1.254A1.254,1.254,0,0,1,81.629,83.283Z" transform="translate(-62.108 -53.373)" fill="#b9b8f1"/>
        <path id="Trazado_24325" data-name="Trazado 24325" d="M81.629,96.719a1.255,1.255,0,1,1,1.255-1.254A1.254,1.254,0,0,1,81.629,96.719Z" transform="translate(-62.108 -57.676)" fill="#b9b8f1"/>
        <circle id="Elipse_707" data-name="Elipse 707" cx="1.255" cy="1.255" r="1.255" transform="translate(9.134 0)" fill="#b9b8f1"/>
        <path id="Trazado_24326" data-name="Trazado 24326" d="M68.193,56.41a1.255,1.255,0,1,1,1.255-1.254A1.254,1.254,0,0,1,68.193,56.41Z" transform="translate(-57.805 -44.768)" fill="#b9b8f1"/>
        <circle id="Elipse_708" data-name="Elipse 708" cx="1.255" cy="1.255" r="1.255" transform="translate(9.134 18.267)" fill="#b9b8f1"/>
        <circle id="Elipse_709" data-name="Elipse 709" cx="1.255" cy="1.255" r="1.255" transform="translate(9.134 27.401)" fill="#b9b8f1"/>
        <circle id="Elipse_710" data-name="Elipse 710" cx="1.255" cy="1.255" r="1.255" transform="translate(9.134 36.535)" fill="#b9b8f1"/>
        <path id="Trazado_24327" data-name="Trazado 24327" d="M54.757,42.974a1.255,1.255,0,1,1,1.254-1.254A1.255,1.255,0,0,1,54.757,42.974Z" transform="translate(-53.502 -40.465)" fill="#b9b8f1"/>
        <path id="Trazado_24328" data-name="Trazado 24328" d="M54.757,56.41a1.255,1.255,0,1,1,1.254-1.254A1.255,1.255,0,0,1,54.757,56.41Z" transform="translate(-53.502 -44.768)" fill="#b9b8f1"/>
        <path id="Trazado_24329" data-name="Trazado 24329" d="M54.757,69.847a1.255,1.255,0,1,1,1.254-1.255A1.255,1.255,0,0,1,54.757,69.847Z" transform="translate(-53.502 -49.071)" fill="#b9b8f1"/>
        <path id="Trazado_24330" data-name="Trazado 24330" d="M54.757,83.283a1.255,1.255,0,1,1,1.254-1.254A1.255,1.255,0,0,1,54.757,83.283Z" transform="translate(-53.502 -53.373)" fill="#b9b8f1"/>
        <path id="Trazado_24331" data-name="Trazado 24331" d="M54.757,96.719a1.255,1.255,0,1,1,1.254-1.254A1.255,1.255,0,0,1,54.757,96.719Z" transform="translate(-53.502 -57.676)" fill="#b9b8f1"/>
      </g>
      <g id="Grupo_14121" data-name="Grupo 14121" transform="translate(406.426 153.72)">
        <circle id="Elipse_711" data-name="Elipse 711" cx="1.255" cy="1.255" r="1.255" transform="translate(27.401)" fill="#b9b8f1"/>
        <path id="Trazado_24332" data-name="Trazado 24332" d="M692.952,282.545a1.255,1.255,0,1,1,1.255-1.254A1.254,1.254,0,0,1,692.952,282.545Z" transform="translate(-664.297 -270.903)" fill="#b9b8f1"/>
        <circle id="Elipse_712" data-name="Elipse 712" cx="1.255" cy="1.255" r="1.255" transform="translate(27.401 18.267)" fill="#b9b8f1"/>
        <circle id="Elipse_713" data-name="Elipse 713" cx="1.255" cy="1.255" r="1.255" transform="translate(27.401 27.401)" fill="#b9b8f1"/>
        <circle id="Elipse_714" data-name="Elipse 714" cx="1.255" cy="1.255" r="1.255" transform="translate(27.401 36.535)" fill="#b9b8f1"/>
        <path id="Trazado_24333" data-name="Trazado 24333" d="M679.516,269.109a1.255,1.255,0,1,1,1.254-1.255A1.254,1.254,0,0,1,679.516,269.109Z" transform="translate(-659.994 -266.6)" fill="#b9b8f1"/>
        <path id="Trazado_24334" data-name="Trazado 24334" d="M679.516,282.545a1.255,1.255,0,1,1,1.254-1.254A1.254,1.254,0,0,1,679.516,282.545Z" transform="translate(-659.994 -270.903)" fill="#b9b8f1"/>
        <path id="Trazado_24335" data-name="Trazado 24335" d="M679.516,295.982a1.255,1.255,0,1,1,1.254-1.255A1.255,1.255,0,0,1,679.516,295.982Z" transform="translate(-659.994 -275.206)" fill="#b9b8f1"/>
        <path id="Trazado_24336" data-name="Trazado 24336" d="M679.516,309.418a1.255,1.255,0,1,1,1.254-1.255A1.254,1.254,0,0,1,679.516,309.418Z" transform="translate(-659.994 -279.508)" fill="#b9b8f1"/>
        <path id="Trazado_24337" data-name="Trazado 24337" d="M679.516,322.854a1.255,1.255,0,1,1,1.254-1.254A1.254,1.254,0,0,1,679.516,322.854Z" transform="translate(-659.994 -283.811)" fill="#b9b8f1"/>
        <circle id="Elipse_715" data-name="Elipse 715" cx="1.255" cy="1.255" r="1.255" transform="translate(9.134)" fill="#b9b8f1"/>
        <path id="Trazado_24338" data-name="Trazado 24338" d="M666.079,282.545a1.255,1.255,0,1,1,1.255-1.254A1.254,1.254,0,0,1,666.079,282.545Z" transform="translate(-655.691 -270.903)" fill="#b9b8f1"/>
        <circle id="Elipse_716" data-name="Elipse 716" cx="1.255" cy="1.255" r="1.255" transform="translate(9.134 18.267)" fill="#b9b8f1"/>
        <circle id="Elipse_717" data-name="Elipse 717" cx="1.255" cy="1.255" r="1.255" transform="translate(9.134 27.401)" fill="#b9b8f1"/>
        <circle id="Elipse_718" data-name="Elipse 718" cx="1.255" cy="1.255" r="1.255" transform="translate(9.134 36.535)" fill="#b9b8f1"/>
        <circle id="Elipse_719" data-name="Elipse 719" cx="1.255" cy="1.255" r="1.255" fill="#b9b8f1"/>
        <path id="Trazado_24339" data-name="Trazado 24339" d="M652.643,282.545a1.255,1.255,0,1,1,1.254-1.254A1.254,1.254,0,0,1,652.643,282.545Z" transform="translate(-651.389 -270.903)" fill="#b9b8f1"/>
        <circle id="Elipse_720" data-name="Elipse 720" cx="1.255" cy="1.255" r="1.255" transform="translate(0 18.267)" fill="#b9b8f1"/>
        <circle id="Elipse_721" data-name="Elipse 721" cx="1.255" cy="1.255" r="1.255" transform="translate(0 27.401)" fill="#b9b8f1"/>
        <circle id="Elipse_722" data-name="Elipse 722" cx="1.255" cy="1.255" r="1.255" transform="translate(0 36.535)" fill="#b9b8f1"/>
      </g>
    </g>
    <g id="Grupo_14147" data-name="Grupo 14147" transform="translate(119.934 52.263)">
      <rect id="Rectángulo_2698" data-name="Rectángulo 2698" width="276.003" height="173.21" rx="14.288" transform="translate(0 16.008)" fill="none" stroke="#b9b8f1" stroke-linecap="round" stroke-linejoin="round" stroke-width="2"/>
      <rect id="Rectángulo_2699" data-name="Rectángulo 2699" width="276.003" height="173.21" rx="14.288" transform="translate(12.236 4.046)" fill="#b9b8f1"/>
      <g id="Grupo_14132" data-name="Grupo 14132" transform="translate(23.569 17.211)">
        <path id="Trazado_24340" data-name="Trazado 24340" d="M347.958,87.9v90.457a4.755,4.755,0,0,1-4.758,4.758H193.418a4.755,4.755,0,0,1-4.758-4.758V87.9a4.759,4.759,0,0,1,4.758-4.758H343.2A4.759,4.759,0,0,1,347.958,87.9Z" transform="translate(-188.66 -83.14)" fill="#fafafa"/>
        <path id="Trazado_24341" data-name="Trazado 24341" d="M325.836,178.568a60.234,60.234,0,0,1-2.08,15.757H207.066a60.429,60.429,0,1,1,118.77-15.757Z" transform="translate(-193.888 -94.351)" fill="#e9e8f9"/>
        <g id="Grupo_14131" data-name="Grupo 14131" transform="translate(21.124 5.734)">
          <path id="Trazado_24342" data-name="Trazado 24342" d="M280.856,148.848s-16.78,2.049-21.133,2.945-5.89,6.145-5.633,15.62-.027,36.744-.027,36.744h53.159s.249-50.3-.519-50.682C302.348,151.3,286.754,149.745,280.856,148.848Z" transform="translate(-230.727 -109.915)" fill="#5b4daf"/>
          <path id="Trazado_24343" data-name="Trazado 24343" d="M254.062,196.038l7.385-13.2-3.692,32.205h-3.692Z" transform="translate(-230.727 -120.799)" fill="#493b91"/>
          <path id="Trazado_24344" data-name="Trazado 24344" d="M248.255,153.55s-5.792,1.029-9.889,7.686-17.412,32.9-17.412,32.9.64,7.938,10.242,4.994,21.253-29.062,21.253-29.062S257.858,154.431,248.255,153.55Z" transform="translate(-220.125 -111.421)" fill="#6254b6"/>
          <path id="Trazado_24345" data-name="Trazado 24345" d="M292.947,152.912h0a6.393,6.393,0,0,1-6.393-6.393v-8.971h12.785v8.971A6.393,6.393,0,0,1,292.947,152.912Z" transform="translate(-241.132 -106.297)" fill="#fec9cf"/>
          <path id="Trazado_24346" data-name="Trazado 24346" d="M274.443,214.767s8.674.8,11.17.512,7.49,1.153,8.162,6.146H276.107Z" transform="translate(-237.254 -131.025)" fill="#fec9cf"/>
          <path id="Trazado_24347" data-name="Trazado 24347" d="M220.564,212.1s-4.225,11.523,6.4,11.523h33.948l2.289-12.232s-9.937-.553-20.031-.971C232.717,209.984,222.682,208.193,220.564,212.1Z" transform="translate(-219.735 -129.38)" fill="#6254b6"/>
          <g id="Grupo_14123" data-name="Grupo 14123" transform="translate(57.542 42.758)">
            <path id="Trazado_24348" data-name="Trazado 24348" d="M325.386,154.476s4.61.4,8.707,7.057,17.412,32.9,17.412,32.9-.64,7.938-10.242,4.994-21.252-29.062-21.252-29.062S315.783,155.357,325.386,154.476Z" transform="translate(-309.091 -154.476)" fill="#6254b6"/>
            <path id="Trazado_24349" data-name="Trazado 24349" d="M347.022,212.1s4.225,11.523-6.4,11.523H306.672l-2.289-12.232s9.937-.553,20.031-.971C334.868,209.984,344.9,208.193,347.022,212.1Z" transform="translate(-304.383 -172.138)" fill="#6254b6"/>
          </g>
          <path id="Trazado_24350" data-name="Trazado 24350" d="M286.554,140.824s2.511,4.773,12.785,3.429V138.4Z" transform="translate(-241.132 -106.568)" fill="#ee84aa"/>
          <g id="Grupo_14126" data-name="Grupo 14126" transform="translate(38.058)">
            <g id="Grupo_14124" data-name="Grupo 14124" transform="translate(1.169 5.325)">
              <path id="Trazado_24351" data-name="Trazado 24351" d="M281.746,99.409s-2.89.524-4.114,4.594c-.946,3.145,1.933,11.541,1.933,11.541S280.4,100.754,281.746,99.409Z" transform="translate(-277.441 -99.409)" fill="#2d2056"/>
              <path id="Trazado_24352" data-name="Trazado 24352" d="M308.116,99.409s2.869.686,4.151,5.217c.894,3.16-1.969,10.918-1.969,10.918S309.461,100.754,308.116,99.409Z" transform="translate(-287.264 -99.409)" fill="#2d2056"/>
            </g>
            <g id="Grupo_14125" data-name="Grupo 14125" transform="translate(0 19.581)">
              <path id="Trazado_24353" data-name="Trazado 24353" d="M279.315,120.816a2.352,2.352,0,0,0-3.2.48c-1.372,1.729,1.048,5.855,3.818,4.992Z" transform="translate(-275.722 -120.38)" fill="#ffcad0"/>
              <path id="Trazado_24354" data-name="Trazado 24354" d="M310.59,120.816a2.352,2.352,0,0,1,3.2.48c1.372,1.729-1.048,5.855-3.818,4.992Z" transform="translate(-286.689 -120.38)" fill="#ffcad0"/>
            </g>
            <path id="Trazado_24355" data-name="Trazado 24355" d="M297.45,100.987c-4.481-2.049-6.4-2.049-6.4-2.049s-1.92,0-6.4,2.049c-3.791,1.733-4.481,9.474-3.713,19.46s10.114,10.114,10.114,10.114,9.346-.128,10.114-10.114S301.242,102.72,297.45,100.987Z" transform="translate(-277.302 -93.933)" fill="#ffcad0"/>
            <path id="Trazado_24356" data-name="Trazado 24356" d="M282.055,97.313s.868,3.668,5.977,2.9,7.1,7.125,14.356,3.538a4.467,4.467,0,0,0,2.856-3.6c.887-3.872-2.142-8.773-6.877-8.568C291.727,91.869,283.812,90.674,282.055,97.313Z" transform="translate(-277.75 -91.575)" fill="#2d2056"/>
            <path id="Trazado_24357" data-name="Trazado 24357" d="M283.928,101.891s1.542,2.291-1.339,5.075c-2.209,2.135-1.878,8.947-1.878,8.947s-.222-.513-.567-1.578-2.074-9.227-.3-11.58S282.967,99.682,283.928,101.891Z" transform="translate(-276.79 -94.453)" fill="#2d2056"/>
            <path id="Trazado_24358" data-name="Trazado 24358" d="M305.71,101.891s-1.542,2.291,1.339,5.075c2.209,2.135,1.878,8.947,1.878,8.947s.222-.513.567-1.578,2.074-9.227.3-11.58S306.67,99.682,305.71,101.891Z" transform="translate(-285.193 -94.453)" fill="#2d2056"/>
          </g>
          <g id="Grupo_14127" data-name="Grupo 14127" transform="translate(46.534 20.216)">
            <path id="Trazado_24359" data-name="Trazado 24359" d="M289.765,122.1a.788.788,0,1,1-.788-.788A.787.787,0,0,1,289.765,122.1Z" transform="translate(-288.19 -121.314)" fill="#2d2056"/>
            <circle id="Elipse_723" data-name="Elipse 723" cx="0.788" cy="0.788" r="0.788" transform="translate(9.794)" fill="#2d2056"/>
          </g>
          <path id="Trazado_24360" data-name="Trazado 24360" d="M285.9,117.454a5.3,5.3,0,0,1,3.713-1.024" transform="translate(-240.923 -99.527)" fill="none" stroke="#2d2056" stroke-linecap="round" stroke-linejoin="round" stroke-width="1.06"/>
          <path id="Trazado_24361" data-name="Trazado 24361" d="M305.608,116.686a5.3,5.3,0,0,0-3.712-1.024" transform="translate(-246.045 -99.281)" fill="none" stroke="#2d2056" stroke-linecap="round" stroke-linejoin="round" stroke-width="1.06"/>
          <path id="Trazado_24362" data-name="Trazado 24362" d="M296.241,120.014a19.772,19.772,0,0,0,1.024,4.1c.64,1.408-1.595,2.177-1.595,2.177" transform="translate(-244.052 -100.682)" fill="none" stroke="#ee84aa" stroke-linecap="round" stroke-linejoin="round" stroke-width="0.864"/>
          <path id="Trazado_24363" data-name="Trazado 24363" d="M311.891,124.591s.427-2.241,1.835-2.112" transform="translate(-249.246 -101.469)" fill="none" stroke="#ee84aa" stroke-linecap="round" stroke-linejoin="round" stroke-width="0.864"/>
          <path id="Trazado_24364" data-name="Trazado 24364" d="M278.147,122.473a3.5,3.5,0,0,1,1.706,2.438" transform="translate(-238.44 -101.469)" fill="none" stroke="#ee84aa" stroke-linecap="round" stroke-linejoin="round" stroke-width="0.864"/>
          <g id="Grupo_14128" data-name="Grupo 14128" transform="translate(43.064 38.933)">
            <path id="Trazado_24365" data-name="Trazado 24365" d="M285.443,148.848s-.052,5.555,4.639,7.435c0,0-1.191,3.545-3.532,3.545s-4.154-8.547-3.21-10.12Z" transform="translate(-283.085 -148.848)" fill="#fafafa"/>
            <path id="Trazado_24366" data-name="Trazado 24366" d="M303.177,148.848s.052,5.555-4.639,7.435c0,0,1.191,3.545,3.531,3.545s4.34-8.021,3.4-9.594Z" transform="translate(-288.033 -148.848)" fill="#fafafa"/>
          </g>
          <path id="Trazado_24367" data-name="Trazado 24367" d="M291.756,133.59a3.11,3.11,0,0,0,6.072,0Z" transform="translate(-242.798 -105.029)" fill="#ee84aa"/>
          <g id="Grupo_14129" data-name="Grupo 14129" transform="translate(41.327 19.251)">
            <path id="Trazado_24368" data-name="Trazado 24368" d="M289.993,124.314h-4.955a.624.624,0,0,1-.617-.529l-.487-3.17a.624.624,0,0,1,.617-.719h5.93a.624.624,0,0,1,.617.719l-.487,3.17A.624.624,0,0,1,289.993,124.314Z" transform="translate(-281.618 -119.895)" fill="none" stroke="#2d2056" stroke-linecap="round" stroke-linejoin="round" stroke-width="0.75"/>
            <path id="Trazado_24369" data-name="Trazado 24369" d="M304.543,124.314h-4.955a.624.624,0,0,1-.617-.529l-.487-3.17a.624.624,0,0,1,.617-.719h5.93a.624.624,0,0,1,.617.719l-.487,3.17A.624.624,0,0,1,304.543,124.314Z" transform="translate(-286.277 -119.895)" fill="none" stroke="#2d2056" stroke-linecap="round" stroke-linejoin="round" stroke-width="0.75"/>
            <path id="Trazado_24370" data-name="Trazado 24370" d="M294.362,121.519s1.746-.844,2.893,0" transform="translate(-284.96 -120.295)" fill="none" stroke="#2d2056" stroke-linecap="round" stroke-linejoin="round" stroke-width="0.75"/>
            <line id="Línea_13" data-name="Línea 13" x2="2.315" y2="0.39" transform="translate(0 0.33)" fill="none" stroke="#2d2056" stroke-linecap="round" stroke-linejoin="round" stroke-width="0.75"/>
            <line id="Línea_14" data-name="Línea 14" y1="0.635" x2="1.64" transform="translate(19.477 0.33)" fill="none" stroke="#2d2056" stroke-linecap="round" stroke-linejoin="round" stroke-width="0.75"/>
          </g>
          <g id="Grupo_14130" data-name="Grupo 14130" transform="translate(35.554 63.322)">
            <path id="Trazado_24371" data-name="Trazado 24371" d="M332.018,228.4H274.53a2.492,2.492,0,0,1-2.492-2.492v-1.349H334.51v1.349A2.492,2.492,0,0,1,332.018,228.4Z" transform="translate(-272.038 -197.483)" fill="#302855"/>
            <path id="Trazado_24372" data-name="Trazado 24372" d="M346.775,184.727h-38.5a2.3,2.3,0,0,0-2.239,1.782l-6.049,26.325a2.3,2.3,0,0,0,2.238,2.812h38.5a2.3,2.3,0,0,0,2.238-1.782l6.05-26.325A2.3,2.3,0,0,0,346.775,184.727Z" transform="translate(-280.97 -184.727)" fill="#3b2e64"/>
            <path id="Trazado_24373" data-name="Trazado 24373" d="M336.073,202.516l-2.514,3.391a.5.5,0,0,0,.4.8h3.916a.5.5,0,0,0,.462-.691l-1.4-3.392A.5.5,0,0,0,336.073,202.516Z" transform="translate(-291.707 -190.359)" fill="#e1defb"/>
          </g>
        </g>
      </g>
      <g id="Grupo_14136" data-name="Grupo 14136" transform="translate(190.931 17.212)">
        <rect id="Rectángulo_2700" data-name="Rectángulo 2700" width="88.693" height="146.878" rx="7" fill="#fafafa"/>
        <g id="Grupo_14135" data-name="Grupo 14135" transform="translate(12.51 8.464)">
          <g id="Grupo_14134" data-name="Grupo 14134" transform="translate(6.732)">
            <path id="Trazado_24374" data-name="Trazado 24374" d="M520.454,118.136l-18.673,4.935V103.643A23.283,23.283,0,0,1,520.454,118.136Z" transform="translate(-475.535 -98.171)" fill="#e1defb"/>
            <path id="Trazado_24375" data-name="Trazado 24375" d="M509.735,126.645a23.282,23.282,0,1,1-23.282-23.282v23.282l22.514-5.941A23.146,23.146,0,0,1,509.735,126.645Z" transform="translate(-463.171 -98.081)" fill="#e1defb"/>
            <path id="Trazado_24376" data-name="Trazado 24376" d="M525.743,114.164l-5.289,1.394-18.673,4.935v-24.9A28.722,28.722,0,0,1,525.743,114.164Z" transform="translate(-475.535 -95.593)" fill="#e1defb"/>
            <g id="Grupo_14133" data-name="Grupo 14133" transform="translate(26.246)">
              <path id="Trazado_24377" data-name="Trazado 24377" d="M525.743,114.164l-5.289,1.394-18.673,4.935v-24.9A28.722,28.722,0,0,1,525.743,114.164Z" transform="translate(-501.781 -95.593)" fill="#ffa3e2"/>
            </g>
          </g>
          <path id="Trazado_24378" data-name="Trazado 24378" d="M515.58,216.952H454.627a1.36,1.36,0,0,1-1.359-1.36h0a1.36,1.36,0,0,1,1.359-1.36H515.58a1.36,1.36,0,0,1,1.36,1.36h0A1.359,1.359,0,0,1,515.58,216.952Z" transform="translate(-453.267 -133.585)" fill="#e1defb"/>
          <path id="Trazado_24379" data-name="Trazado 24379" d="M493.267,191.983H469.127a1.36,1.36,0,0,1-1.36-1.36h0a1.36,1.36,0,0,1,1.36-1.36h24.141a1.36,1.36,0,0,1,1.359,1.36h0A1.359,1.359,0,0,1,493.267,191.983Z" transform="translate(-457.91 -125.589)" fill="#e1defb"/>
          <path id="Trazado_24380" data-name="Trazado 24380" d="M515.58,230.264H454.627a1.36,1.36,0,0,1-1.359-1.36h0a1.36,1.36,0,0,1,1.359-1.36H515.58a1.359,1.359,0,0,1,1.36,1.36h0A1.359,1.359,0,0,1,515.58,230.264Z" transform="translate(-453.267 -137.848)" fill="#e1defb"/>
          <path id="Trazado_24381" data-name="Trazado 24381" d="M515.58,243.576H454.627a1.36,1.36,0,0,1-1.359-1.36h0a1.36,1.36,0,0,1,1.359-1.36H515.58a1.359,1.359,0,0,1,1.36,1.36h0A1.359,1.359,0,0,1,515.58,243.576Z" transform="translate(-453.267 -142.111)" fill="#e1defb"/>
          <path id="Trazado_24382" data-name="Trazado 24382" d="M515.58,256.888H454.627a1.36,1.36,0,0,1-1.359-1.36h0a1.36,1.36,0,0,1,1.359-1.36H515.58a1.359,1.359,0,0,1,1.36,1.36h0A1.36,1.36,0,0,1,515.58,256.888Z" transform="translate(-453.267 -146.374)" fill="#e1defb"/>
          <path id="Trazado_24383" data-name="Trazado 24383" d="M515.58,270.2H454.627a1.36,1.36,0,0,1-1.359-1.36h0a1.36,1.36,0,0,1,1.359-1.36H515.58a1.36,1.36,0,0,1,1.36,1.36h0A1.359,1.359,0,0,1,515.58,270.2Z" transform="translate(-453.267 -150.636)" fill="#e1defb"/>
          <rect id="Rectángulo_2701" data-name="Rectángulo 2701" width="5.055" height="5.055" rx="1.787" transform="translate(0 62.507)" fill="#e1defb"/>
          <path id="Trazado_24384" data-name="Trazado 24384" d="M493.267,205.752H469.127a1.36,1.36,0,0,1-1.36-1.36h0a1.36,1.36,0,0,1,1.36-1.36h24.141a1.359,1.359,0,0,1,1.359,1.36h0A1.36,1.36,0,0,1,493.267,205.752Z" transform="translate(-457.91 -129.998)" fill="#e1defb"/>
          <rect id="Rectángulo_2702" data-name="Rectángulo 2702" width="5.055" height="5.055" rx="1.787" transform="translate(0 71.867)" fill="#e1defb"/>
        </g>
      </g>
      <path id="Trazado_24385" data-name="Trazado 24385" d="M297.735,251.343H192.573a3.918,3.918,0,0,1-3.918-3.918h0a3.918,3.918,0,0,1,3.918-3.918H297.735a3.918,3.918,0,0,1,3.918,3.918h0A3.918,3.918,0,0,1,297.735,251.343Z" transform="translate(-165.09 -117.283)" fill="#fafafa"/>
      <path id="Trazado_24386" data-name="Trazado 24386" d="M402.517,251.343H369.7a3.917,3.917,0,0,1-3.918-3.918h0a3.918,3.918,0,0,1,3.918-3.918h32.819a3.918,3.918,0,0,1,3.918,3.918h0A3.918,3.918,0,0,1,402.517,251.343Z" transform="translate(-221.81 -117.283)" fill="#fafafa"/>
      <g id="Grupo_14137" data-name="Grupo 14137" transform="translate(24.5 143.697)">
        <path id="Trazado_24387" data-name="Trazado 24387" d="M221.3,271.93H191.39a1.359,1.359,0,0,1-1.36-1.36h0a1.359,1.359,0,0,1,1.36-1.36H221.3a1.359,1.359,0,0,1,1.36,1.36h0A1.359,1.359,0,0,1,221.3,271.93Z" transform="translate(-190.03 -269.211)" fill="#fafafa"/>
        <path id="Trazado_24388" data-name="Trazado 24388" d="M246.677,290.719H191.39a1.359,1.359,0,0,1-1.36-1.36h0a1.359,1.359,0,0,1,1.36-1.36h55.288a1.359,1.359,0,0,1,1.36,1.36h0A1.359,1.359,0,0,1,246.677,290.719Z" transform="translate(-190.03 -275.228)" fill="#fafafa"/>
        <path id="Trazado_24389" data-name="Trazado 24389" d="M298.617,290.719H281.057a1.359,1.359,0,0,1-1.36-1.36h0a1.359,1.359,0,0,1,1.36-1.36h17.561a1.359,1.359,0,0,1,1.36,1.36h0A1.359,1.359,0,0,1,298.617,290.719Z" transform="translate(-218.744 -275.228)" fill="#fafafa"/>
        <path id="Trazado_24390" data-name="Trazado 24390" d="M311.727,271.93H244.515a1.359,1.359,0,0,1-1.36-1.36h0a1.359,1.359,0,0,1,1.36-1.36h67.212a1.359,1.359,0,0,1,1.36,1.36h0A1.359,1.359,0,0,1,311.727,271.93Z" transform="translate(-207.042 -269.211)" fill="#fafafa"/>
      </g>
      <g id="Grupo_14141" data-name="Grupo 14141" transform="translate(32.165 109.044)">
        <g id="Grupo_14138" data-name="Grupo 14138">
          <line id="Línea_15" data-name="Línea 15" x2="142.105" fill="none" stroke="#d1d1f2" stroke-linecap="round" stroke-linejoin="round" stroke-width="1"/>
          <line id="Línea_16" data-name="Línea 16" x2="76.93" fill="none" stroke="#f15b9a" stroke-linecap="round" stroke-linejoin="round" stroke-width="1"/>
        </g>
        <g id="Grupo_14139" data-name="Grupo 14139" transform="translate(0 3.018)">
          <path id="Trazado_24391" data-name="Trazado 24391" d="M211.718,223.523l-1.356-.783a.27.27,0,0,0-.4.234v1.566a.27.27,0,0,0,.4.233l1.356-.783A.269.269,0,0,0,211.718,223.523Z" transform="translate(-204.076 -222.683)" fill="#f15b9a"/>
          <path id="Trazado_24392" data-name="Trazado 24392" d="M219.834,223.492l-1.356-.783a.27.27,0,0,0-.4.234v1.566a.269.269,0,0,0,.4.233l1.356-.783A.27.27,0,0,0,219.834,223.492Z" transform="translate(-206.675 -222.673)" fill="#f15b9a"/>
          <line id="Línea_17" data-name="Línea 17" y2="1.903" transform="translate(13.657 0.102)" fill="none" stroke="#f15b9a" stroke-linecap="round" stroke-linejoin="round" stroke-width="0.626"/>
          <path id="Trazado_24393" data-name="Trazado 24393" d="M201.977,223.492l1.356-.783a.27.27,0,0,1,.4.234v1.566a.269.269,0,0,1-.4.233l-1.356-.783A.27.27,0,0,1,201.977,223.492Z" transform="translate(-201.478 -222.673)" fill="#f15b9a"/>
          <line id="Línea_18" data-name="Línea 18" y2="1.903" transform="translate(0 0.102)" fill="none" stroke="#f15b9a" stroke-linecap="round" stroke-linejoin="round" stroke-width="0.626"/>
        </g>
        <g id="Grupo_14140" data-name="Grupo 14140" transform="translate(139.88 2.967)">
          <path id="Trazado_24394" data-name="Trazado 24394" d="M407.081,223.216V222.6h.614" transform="translate(-407.081 -222.597)" fill="none" stroke="#f15b9a" stroke-linecap="round" stroke-linejoin="round" stroke-width="0.75"/>
          <path id="Trazado_24395" data-name="Trazado 24395" d="M407.7,225.588h-.614v-.614" transform="translate(-407.081 -223.358)" fill="none" stroke="#f15b9a" stroke-linecap="round" stroke-linejoin="round" stroke-width="0.75"/>
          <path id="Trazado_24396" data-name="Trazado 24396" d="M409.451,222.6h.614v.619" transform="translate(-407.84 -222.597)" fill="none" stroke="#f15b9a" stroke-linecap="round" stroke-linejoin="round" stroke-width="0.75"/>
          <path id="Trazado_24397" data-name="Trazado 24397" d="M410.065,224.974v.614h-.614" transform="translate(-407.84 -223.358)" fill="none" stroke="#f15b9a" stroke-linecap="round" stroke-linejoin="round" stroke-width="0.75"/>
        </g>
      </g>
      <g id="Grupo_14146" data-name="Grupo 14146" transform="translate(115.023)">
        <path id="Trazado_24398" data-name="Trazado 24398" d="M327.672,57.821h52.406a4.475,4.475,0,0,1,4.476,4.475V79.517a4.476,4.476,0,0,1-4.476,4.476H343.335l-8.25,8.25v-8.25h-7.412a4.475,4.475,0,0,1-4.475-4.476V62.3A4.475,4.475,0,0,1,327.672,57.821Z" transform="translate(-323.197 -57.821)" fill="#6254b6"/>
        <g id="Grupo_14145" data-name="Grupo 14145" transform="translate(5.667 5.794)">
          <g id="Grupo_14142" data-name="Grupo 14142">
            <line id="Línea_19" data-name="Línea 19" x2="21.05" fill="none" stroke="#b9b8f1" stroke-linecap="round" stroke-linejoin="round" stroke-width="2"/>
            <line id="Línea_20" data-name="Línea 20" x2="8.091" transform="translate(25.545)" fill="none" stroke="#b9b8f1" stroke-linecap="round" stroke-linejoin="round" stroke-width="2"/>
            <line id="Línea_21" data-name="Línea 21" x2="12.357" transform="translate(37.666)" fill="none" stroke="#b9b8f1" stroke-linecap="round" stroke-linejoin="round" stroke-width="2"/>
          </g>
          <g id="Grupo_14143" data-name="Grupo 14143" transform="translate(0 7.292)">
            <line id="Línea_22" data-name="Línea 22" x2="7.811" fill="none" stroke="#b9b8f1" stroke-linecap="round" stroke-linejoin="round" stroke-width="2"/>
            <line id="Línea_23" data-name="Línea 23" x2="16.176" transform="translate(11.96)" fill="none" stroke="#b9b8f1" stroke-linecap="round" stroke-linejoin="round" stroke-width="2"/>
            <line id="Línea_24" data-name="Línea 24" x2="17.878" transform="translate(32.145)" fill="none" stroke="#b9b8f1" stroke-linecap="round" stroke-linejoin="round" stroke-width="2"/>
          </g>
          <g id="Grupo_14144" data-name="Grupo 14144" transform="translate(0 14.584)">
            <line id="Línea_25" data-name="Línea 25" x2="14.524" fill="none" stroke="#b9b8f1" stroke-linecap="round" stroke-linejoin="round" stroke-width="2"/>
            <line id="Línea_26" data-name="Línea 26" x2="7.385" transform="translate(18.16)" fill="none" stroke="#b9b8f1" stroke-linecap="round" stroke-linejoin="round" stroke-width="2"/>
          </g>
        </g>
      </g>
    </g>
    <g id="Grupo_14155" data-name="Grupo 14155" transform="translate(372.08 101.583)">
      <g id="Grupo_14153" data-name="Grupo 14153">
        <path id="Trazado_24399" data-name="Trazado 24399" d="M572.883,136.919s2.467-6.083,11.317-6.526c6.351-.318,12.14,3.4,12.586,10.9.471,7.923-1.848,7.308,4.652,9.645s-2.41,11.247,4.017,12.342,6.792,10.589-1.387,13.219-34.549,1.232-35.718-4.173,6.664-12.576,4.6-16.958S568.575,140.351,572.883,136.919Z" transform="translate(-538.787 -130.374)" fill="#2d2056"/>
        <path id="Trazado_24400" data-name="Trazado 24400" d="M551.255,206.249l-2.663,7.478s-8.912-17.208-9.322-18.745.051-8.809,0-9.629a1.643,1.643,0,0,0-1.742,1.588,9.134,9.134,0,0,0,0,2.407s-3.124-1.741-4.507-2.458a46.242,46.242,0,0,0-7.734-2.663s-1.178.461.666,1.844,5.736,8.144,7.17,8.707,9.424,25.506,12.138,29.245,8.093,3.175,10.4-2.612a104.669,104.669,0,0,0,4.047-14.033Z" transform="translate(-524.917 -147.619)" fill="#ffcad0"/>
        <path id="Trazado_24401" data-name="Trazado 24401" d="M568.027,185.484a114.987,114.987,0,0,0-8.747,24.653s.859,4.672,11.375,4.782C570.655,214.918,579,191.159,568.027,185.484Z" transform="translate(-535.921 -148.022)" fill="#e55395"/>
        <g id="Grupo_14148" data-name="Grupo 14148" transform="translate(21.222 172.881)">
          <path id="Trazado_24402" data-name="Trazado 24402" d="M578.119,385.783l-1.426,17.4h7.415l3.2-18.482Z" transform="translate(-562.719 -384.697)" fill="#fec9cf"/>
          <path id="Trazado_24403" data-name="Trazado 24403" d="M578.331,406.354s3.222,5.853.8,6.778-18.326.358-22.251-.23,8.762-5.97,11.663-6.811S572.384,409.659,578.331,406.354Z" transform="translate(-556.137 -391.513)" fill="#f15b9a"/>
        </g>
        <path id="Trazado_24404" data-name="Trazado 24404" d="M631.526,386.295l1.426,17.4h-7.415l-3.85-17.4Z" transform="translate(-555.906 -212.327)" fill="#fec9cf"/>
        <path id="Trazado_24405" data-name="Trazado 24405" d="M625.838,406.629s-1.88,4.581.539,5.506a39.1,39.1,0,0,0,14.045,1.219c5.094-.849-3.092-6.148-5.992-6.988S627.584,408.955,625.838,406.629Z" transform="translate(-557.012 -218.711)" fill="#f15b9a"/>
        <path id="Trazado_24406" data-name="Trazado 24406" d="M574.422,246.4l-3.364,104.279h15.663L590.1,281.22l13.419,71.449,17.053-2.842s-15.4-77.939-18.014-103.427Z" transform="translate(-539.692 -167.529)" fill="#39337d"/>
        <path id="Trazado_24407" data-name="Trazado 24407" d="M585.72,175.357s-7.01,1.534-10.955,3.834-5.039,3.724-5.367,8.873-2.475,13.364.811,15.884,3.824,8.873,3.056,13.912-1.432,8.118-.621,10.7c1,3.19,7.556,3.784,17.673,3.359,10.441-.438,15.373-1.5,12.415-9.275s4.02-37.428,2.7-39.51S594.264,175.028,585.72,175.357Z" transform="translate(-538.843 -144.775)" fill="#f15b9a"/>
        <path id="Rectángulo_2703" data-name="Rectángulo 2703" d="M0,0H8.986a0,0,0,0,1,0,0V13.765a4.493,4.493,0,0,1-4.493,4.493h0A4.493,4.493,0,0,1,0,13.765V0A0,0,0,0,1,0,0Z" transform="translate(42.2 18.349)" fill="#ffcad0"/>
        <path id="Trazado_24408" data-name="Trazado 24408" d="M586.994,172.009s3.633.786,8.985-2.124v-5.552l-8.993,5.934S586.992,171.387,586.994,172.009Z" transform="translate(-544.793 -141.249)" fill="#ee84aa"/>
        <path id="Trazado_24409" data-name="Trazado 24409" d="M577.41,143.948s-1.653,20.906,6.363,20.908a9.957,9.957,0,0,0,10.135-8.076s2.945-1.663,2.279-3.54c-.471-1.328-1.9-.548-1.9-.548S598.151,140.3,577.41,143.948Z" transform="translate(-541.681 -134.506)" fill="#ffcad0"/>
        <path id="Trazado_24410" data-name="Trazado 24410" d="M576.9,140.455s1.476,8.481,8.467,7.153,5.327,3.846,8.607,2.992c0,0,8.057-5.2,1.978-10.441S580.631,136.251,576.9,140.455Z" transform="translate(-541.564 -132.413)" fill="#2d2056"/>
        <path id="Trazado_24411" data-name="Trazado 24411" d="M583.722,177.34s1.659,5.109,4.827,6.059c0,0,4.995-.485,8.974-7.18a25.286,25.286,0,0,0-7.563-.9S586.174,176.34,583.722,177.34Z" transform="translate(-543.748 -144.747)" fill="#ffcad0"/>
        <path id="Trazado_24412" data-name="Trazado 24412" d="M616.309,197.587s-3.333,13.487.576,25.383l1.529-28.72Z" transform="translate(-553.759 -150.829)" fill="#e55395"/>
        <g id="Grupo_14152" data-name="Grupo 14152" transform="translate(37.691 38.359)">
          <g id="Grupo_14151" data-name="Grupo 14151" transform="translate(0 11.85)">
            <g id="Grupo_14149" data-name="Grupo 14149" transform="translate(0 0.995)">
              <path id="Trazado_24413" data-name="Trazado 24413" d="M594.2,223.008H587.25a1.7,1.7,0,0,1-1.635-1.241l-3.873-13.915a1.7,1.7,0,0,1,1.635-2.151h6.951a1.7,1.7,0,0,1,1.634,1.241l3.873,13.915A1.7,1.7,0,0,1,594.2,223.008Z" transform="translate(-580.784 -205.7)" fill="#2f2a62"/>
              <path id="Trazado_24414" data-name="Trazado 24414" d="M592.886,223.008h-6.952a1.7,1.7,0,0,1-1.634-1.241l-3.873-13.915a1.7,1.7,0,0,1,1.634-2.151h6.951a1.7,1.7,0,0,1,1.635,1.241l3.873,13.915A1.7,1.7,0,0,1,592.886,223.008Z" transform="translate(-580.363 -205.7)" fill="#39337d"/>
              <path id="Trazado_24415" data-name="Trazado 24415" d="M593.3,211.307h-1.178a.3.3,0,0,1-.284-.217l-.873-3.183a.3.3,0,0,1,.284-.373h1.177a.3.3,0,0,1,.285.217l.873,3.184A.294.294,0,0,1,593.3,211.307Z" transform="translate(-583.756 -206.287)" fill="#2f2a62"/>
            </g>
            <g id="Grupo_14150" data-name="Grupo 14150" transform="translate(0.749)">
              <path id="Trazado_24416" data-name="Trazado 24416" d="M618.131,206.226s3.482,21.9,4.645,26.033c.751,2.669,6.237,4.492,7.959.959a8.371,8.371,0,0,0,.249-3.4c-.264-8.167-4.759-25.585-4.759-25.585Z" transform="translate(-593.207 -204.237)" fill="#ffcad0"/>
              <path id="Trazado_24417" data-name="Trazado 24417" d="M612.961,229.122s-11.638-4.66-13.395-7.439c-2.387-3.775-3.629-3.294-5.361-4.788-2.784-2.4-2.759-1.58-2.759-1.58s-.786,1.914,1.556,3.393c1.179.744,2.357,1.337,1.805,1.443,0,0-10.025-2.838-12.1-3.669s-1.213,1.606.128,2.725c0,0,.17,2.076,1.807,2.465,0,0-1,.707,2.793,2.629s8.537.461,10.021,2.313,8.484,9.188,15.559,11.6c3.382,1.151,4.885.018,5.7-1.585C620.108,233.868,617.371,231.7,612.961,229.122Z" transform="translate(-581.465 -207.741)" fill="#ffcad0"/>
            </g>
          </g>
          <path id="Trazado_24418" data-name="Trazado 24418" d="M620.651,186.8s-7.416,6.463-3.691,24.977a11.068,11.068,0,0,0,11.722-2.52S627.772,194.473,620.651,186.8Z" transform="translate(-591.747 -186.804)" fill="#f15b9a"/>
        </g>
        <path id="Trazado_24419" data-name="Trazado 24419" d="M597.092,290.219,592.9,274.5l3.5,29.964Z" transform="translate(-546.687 -176.528)" fill="#2c2b6d"/>
      </g>
      <g id="Grupo_14154" data-name="Grupo 14154" transform="translate(37.026 16.993)">
        <circle id="Elipse_724" data-name="Elipse 724" cx="0.652" cy="0.652" r="0.652" transform="translate(6.496 2.731)" fill="#171d51"/>
        <circle id="Elipse_725" data-name="Elipse 725" cx="0.652" cy="0.652" r="0.652" transform="translate(0.6 2.731)" fill="#171d51"/>
        <path id="Trazado_24420" data-name="Trazado 24420" d="M591.968,157.027a2.65,2.65,0,0,0-3.026-1.018" transform="translate(-582.445 -155.536)" fill="none" stroke="#171d51" stroke-linecap="round" stroke-linejoin="round" stroke-width="1.152"/>
        <path id="Trazado_24421" data-name="Trazado 24421" d="M582.333,155.938a2.082,2.082,0,0,0-2.948.131" transform="translate(-579.385 -155.372)" fill="none" stroke="#171d51" stroke-linecap="round" stroke-linejoin="round" stroke-width="1.152"/>
        <path id="Trazado_24422" data-name="Trazado 24422" d="M584.94,158.584a9.6,9.6,0,0,1-1.3,2.922c-.781,1,1.174,1.617,1.174,1.617" transform="translate(-580.687 -156.401)" fill="none" stroke="#ee84aa" stroke-linecap="round" stroke-linejoin="round" stroke-width="0.864"/>
        <path id="Trazado_24423" data-name="Trazado 24423" d="M589.909,167.145a3.085,3.085,0,0,1-3.15,1.193" transform="translate(-581.746 -159.142)" fill="none" stroke="#ee84aa" stroke-linecap="round" stroke-linejoin="round" stroke-width="0.864"/>
        <path id="Trazado_24424" data-name="Trazado 24424" d="M601.77,159.834s.022-1.648,1.533-1.1" transform="translate(-586.553 -156.414)" fill="none" stroke="#ee84aa" stroke-linecap="round" stroke-linejoin="round" stroke-width="0.864"/>
      </g>
      <path id="Trazado_24425" data-name="Trazado 24425" d="M569.373,395.669l.235,2.23a1.025,1.025,0,0,0,1.02.918h15.358a1.024,1.024,0,0,0,1.021-.936l.165-1.889a1.026,1.026,0,0,0-1-1.113l-15.757-.341A1.025,1.025,0,0,0,569.373,395.669Z" transform="translate(-539.151 -214.967)" fill="#403e87"/>
      <path id="Trazado_24426" data-name="Trazado 24426" d="M616.993,396.662l.56,2.726a.724.724,0,0,0,.827.568l16.7-2.77a.723.723,0,0,0,.6-.806l-.381-2.96a.723.723,0,0,0-.844-.62l-16.875,3A.723.723,0,0,0,616.993,396.662Z" transform="translate(-554.397 -214.407)" fill="#403e87"/>
    </g>
    <g id="Grupo_14162" data-name="Grupo 14162" transform="translate(47.644 92.96)">
      <path id="Trazado_24427" data-name="Trazado 24427" d="M178.268,189.969s4.053,10.441,4.6,10.808,10.817-11.08,12.679-14.366c.383-3.451,2.829-6.16,3.533-9.887.34-1.8,1.132-1.014,1.279.446a7.762,7.762,0,0,1-.365,2.922,52.91,52.91,0,0,1,7.522-1.242,14.555,14.555,0,0,1,4.893.8s2.337.657,2.41,1.022-.8,1.1-3.578,1.022-2.848.763-4.629,1.17a10.814,10.814,0,0,0-5.879,4.565c-1.876,2.856-5.514,11.5-9.275,17.2-3.7,5.607-9.231,11.869-13.274,6.409a80.979,80.979,0,0,1-8.757-15.523Z" transform="translate(-86.642 -136.196)" fill="#ffcad0"/>
      <path id="Trazado_24428" data-name="Trazado 24428" d="M171.922,175.113a57.292,57.292,0,0,1,7.115,16.563s-2.912,4.88-10.877,6.311C168.16,197.987,163.055,182.5,171.922,175.113Z" transform="translate(-85.768 -136.078)" fill="#f4a258"/>
      <path id="Trazado_24429" data-name="Trazado 24429" d="M193.23,200.5" transform="translate(-94.265 -144.208)" fill="none" stroke="#171d51" stroke-miterlimit="10" stroke-width="1.152"/>
      <g id="Grupo_14159" data-name="Grupo 14159" transform="translate(22.763 94.525)">
        <g id="Grupo_14156" data-name="Grupo 14156" transform="translate(56.139 88.238)">
          <path id="Trazado_24430" data-name="Trazado 24430" d="M174.145,386.548l.09,18.441h-7.86l-2.659-18.441Z" transform="translate(-163.715 -386.548)" fill="#fec9cf"/>
          <path id="Trazado_24431" data-name="Trazado 24431" d="M165.521,407.813s-3.415,5.514-.851,6.495,19.427,1.07,23.587.446-9.288-6.329-12.364-7.22S171.825,411.317,165.521,407.813Z" transform="translate(-163.715 -393.232)" fill="#feb161"/>
        </g>
        <g id="Grupo_14157" data-name="Grupo 14157" transform="translate(0 88.238)">
          <path id="Trazado_24432" data-name="Trazado 24432" d="M104.776,386.548l-1.855,18.441h7.86l4.425-18.441Z" transform="translate(-88.108 -386.548)" fill="#fec9cf"/>
          <path id="Trazado_24433" data-name="Trazado 24433" d="M104.657,407.813s3.415,5.514.851,6.495-19.426,1.07-23.587.446,9.288-6.329,12.363-7.22S98.353,411.317,104.657,407.813Z" transform="translate(-81.13 -393.232)" fill="#feb161"/>
        </g>
        <g id="Grupo_14158" data-name="Grupo 14158" transform="translate(11.96)">
          <path id="Trazado_24434" data-name="Trazado 24434" d="M111.167,256.743,101.052,354.2l13.73,1.607,16.654-74.163,10.728,74.163,14.8-2.125-10.23-96.94Z" transform="translate(-99.469 -256.743)" fill="#212a6b"/>
          <path id="Trazado_24435" data-name="Trazado 24435" d="M158.493,395.92l.63,3.219a1.006,1.006,0,0,0,1.122.8l15.347-2.052a1.006,1.006,0,0,0,.871-1.065l-.207-3.1a1.007,1.007,0,0,0-1.127-.933l-15.771,1.93A1.007,1.007,0,0,0,158.493,395.92Z" transform="translate(-117.857 -300.309)" fill="#283577"/>
          <path id="Trazado_24436" data-name="Trazado 24436" d="M116.7,396.67l-.629,3.219a1.007,1.007,0,0,1-1.122.8L99.6,398.642a1.006,1.006,0,0,1-.871-1.065l.206-3.1a1.007,1.007,0,0,1,1.127-.933l15.771,1.93A1.007,1.007,0,0,1,116.7,396.67Z" transform="translate(-98.724 -300.55)" fill="#283577"/>
        </g>
        <path id="Trazado_24437" data-name="Trazado 24437" d="M145.748,286.919l3.688-13.708-1.323,30.056Z" transform="translate(-101.822 -262.017)" fill="#222259"/>
      </g>
      <path id="Trazado_24438" data-name="Trazado 24438" d="M141.042,117.814c3.143-.638,6.238,1.389,9.439,1.418,1.262.012,2.509-.29,3.77-.332a4.505,4.505,0,0,1,3.5,1.168,5.374,5.374,0,0,1,.963,4.3,14.509,14.509,0,0,1-5.353,9.644,6.1,6.1,0,0,1-4.317,1.56,7.9,7.9,0,0,1-3.375-1.6c-3.294-2.267-6.842-4.7-8.923-8.309C134.923,122.5,137.9,118.451,141.042,117.814Z" transform="translate(-75.999 -117.69)" fill="#2d2056"/>
      <path id="Trazado_24439" data-name="Trazado 24439" d="M90.963,194.718l-9.982,15.6s-19.958-1.273-22.381-1.264-6.109-1.644-6.091-1.039.84,2.16,3.128,2.644a65.168,65.168,0,0,0-5.508,3.765c-1.251,1.122-2.439,4.441-2.485,5.858s5.554-1.5,7.9-3.1,3.47-3.737,5.759-2.952,21.555,6.55,23.655,5.034,13.759-18.137,13.759-18.137S93.484,195.786,90.963,194.718Z" transform="translate(-47.644 -142.356)" fill="#ffcad0"/>
      <path id="Trazado_24440" data-name="Trazado 24440" d="M117.348,170.571s7.246-6.167,19.4-5.7,19.454,5.257,18.87,8.031-5.988,27.752-4.82,39.291,5.573,16.422-2.329,16.86-31.74.744-32.836-.79,3.177-23.739,3.177-31.845S114.792,175.61,117.348,170.571Z" transform="translate(-69.358 -132.792)" fill="#feb161"/>
      <path id="Trazado_24441" data-name="Trazado 24441" d="M137.136,145.784s-12.387-11.327-7.02-19.652,11.014.375,11.014.375S143.518,140.788,137.136,145.784Z" transform="translate(-73.622 -119.238)" fill="#2d2056"/>
      <g id="Grupo_14160" data-name="Grupo 14160" transform="translate(56.989 7.219)">
        <path id="Trazado_24442" data-name="Trazado 24442" d="M151.679,144.154l-.572,11.043-.166,3.153a5.04,5.04,0,0,1-10.072-.387l.141-5.622.24-9.341Z" transform="translate(-134.485 -133.013)" fill="#fec9cf"/>
        <path id="Trazado_24443" data-name="Trazado 24443" d="M151.746,147.4l-.572,10.4c-4.892.2-8.462-1.793-10.1-4.44l.24-7.115Z" transform="translate(-134.553 -134.052)" fill="#ee84aa"/>
        <path id="Trazado_24444" data-name="Trazado 24444" d="M152.554,133.1a37.583,37.583,0,0,1-.143,7.581c-.587,4.6-.375,10.014-7.164,10.374-7.242.384-9.641-7.719-9.641-7.719s-3.846-.716-4.109-3.316A2.086,2.086,0,0,1,134.8,138s.994-9.694,9.951-9.694C152.659,128.309,152.554,133.1,152.554,133.1Z" transform="translate(-131.478 -128.309)" fill="#ffcad0"/>
      </g>
      <g id="Grupo_14161" data-name="Grupo 14161" transform="translate(59.348 15.31)">
        <path id="Trazado_24445" data-name="Trazado 24445" d="M149.325,146.152a.717.717,0,1,1-.718-.717A.718.718,0,0,1,149.325,146.152Z" transform="translate(-139.094 -141.884)" fill="#171d51"/>
        <path id="Trazado_24446" data-name="Trazado 24446" d="M158.868,146.152a.718.718,0,1,1-.718-.717A.718.718,0,0,1,158.868,146.152Z" transform="translate(-142.149 -141.884)" fill="#171d51"/>
        <path id="Trazado_24447" data-name="Trazado 24447" d="M145.1,142.225a2.915,2.915,0,0,1,3.33-1.12" transform="translate(-138.201 -140.454)" fill="none" stroke="#171d51" stroke-linecap="round" stroke-linejoin="round" stroke-width="1.152"/>
        <path id="Trazado_24448" data-name="Trazado 24448" d="M155.743,140.835a2.291,2.291,0,0,1,3.244.143" transform="translate(-141.609 -140.212)" fill="none" stroke="#171d51" stroke-linecap="round" stroke-linejoin="round" stroke-width="1.152"/>
        <path id="Trazado_24449" data-name="Trazado 24449" d="M153.632,143.746s.775,1.98,1.435,3.215-1.292,1.779-1.292,1.779" transform="translate(-140.933 -141.343)" fill="none" stroke="#ee84aa" stroke-linecap="round" stroke-linejoin="round" stroke-width="0.864"/>
        <path id="Trazado_24450" data-name="Trazado 24450" d="M149.809,154.35a3.393,3.393,0,0,0,3.656.6" transform="translate(-139.708 -144.739)" fill="none" stroke="#ee84aa" stroke-linecap="round" stroke-linejoin="round" stroke-width="0.864"/>
        <path id="Trazado_24451" data-name="Trazado 24451" d="M136.637,146.872s-.024-2.229-1.687-1.621" transform="translate(-134.95 -141.792)" fill="none" stroke="#ee84aa" stroke-linecap="round" stroke-linejoin="round" stroke-width="0.864"/>
      </g>
      <path id="Trazado_24452" data-name="Trazado 24452" d="M135.372,137.552a7.707,7.707,0,0,0,4.191-8.834s-3.724-5.73-6.9-3.634S135.372,137.552,135.372,137.552Z" transform="translate(-74.567 -119.91)" fill="#2d2056"/>
      <path id="Trazado_24453" data-name="Trazado 24453" d="M101.386,195.368a33.131,33.131,0,0,0,9.859,7.01s4.593-6.427,5.907-10.808-1.425-17.526-3.178-18.987S104.234,188.8,101.386,195.368Z" transform="translate(-64.853 -135.241)" fill="#feb161"/>
      <path id="Trazado_24454" data-name="Trazado 24454" d="M146.044,127.981c1.637.376,3.036,1.578,4.537,2.436s3.364,1.351,4.784.318a4.825,4.825,0,0,0,1.463-4.724,6.633,6.633,0,0,0-2.79-4.063,11.418,11.418,0,0,0-4.315-1.615,14.257,14.257,0,0,0-5.918-.13c-1.737.394-6.634,2.79-5.628,5.824.381,1.148,1.969,1.479,2.854,1.68C142.69,128.085,144.388,127.6,146.044,127.981Z" transform="translate(-76.592 -118.412)" fill="#2d2056"/>
    </g>
    <line id="Línea_27" data-name="Línea 27" x2="423.136" transform="translate(58.603 296.836)" fill="none" stroke="#2a246e" stroke-linecap="round" stroke-linejoin="round" stroke-width="2"/>
  </g>
</svg>
