<svg xmlns="http://www.w3.org/2000/svg" width="663.5" height="383.14" viewBox="0 0 663.5 383.14">
  <g id="Grupo_14322" data-name="Grupo 14322" transform="translate(-397.606 -412.76)">
    <path id="Trazado_24961" data-name="Trazado 24961" d="M1033.89,1420.129s-114.24-7.765-257.452-1.1c-9.494.442-363.437,1.546-363.437,1.546s-26.054-68.448-10.375-123.9c15.446-54.63,71.566-94.889,128.212-98.676,25.019-1.674,49.877,3.972,74.388,9.267,63.524,13.723,132.429,24.792,191.389-2.544,21.318-9.883,40.358-24.449,62.314-32.824,54.959-20.965,122.671-1.267,161.336,43.065C1061.711,1262.478,1047.708,1380.526,1033.89,1420.129Z" transform="translate(0 -634.827)" fill="#f0f9ff"/>
    <path id="Trazado_24962" data-name="Trazado 24962" d="M1126.684,2790.772c0,4.7-122.364,10.6-299.184,10.6s-320.16-3.806-320.16-8.5,143.34-8.5,320.16-8.5S1126.684,2786.078,1126.684,2790.772Z" transform="translate(-92.794 -2005.471)" fill="#daeffa"/>
    <path id="Trazado_24963" data-name="Trazado 24963" d="M3630.758,1328.619l-.911,1.656a.21.21,0,0,1-.163.108l-1.88.189a.21.21,0,0,0-.132.353l1.294,1.377a.21.21,0,0,1,.052.189l-.4,1.846a.21.21,0,0,0,.295.235l1.71-.8a.209.209,0,0,1,.2.009l1.632.952a.21.21,0,0,0,.314-.208l-.237-1.875a.211.211,0,0,1,.069-.183l1.41-1.258a.21.21,0,0,0-.1-.363l-1.856-.354a.211.211,0,0,1-.153-.122l-.761-1.73A.21.21,0,0,0,3630.758,1328.619Z" transform="translate(-2731.348 -774.373)" fill="#febb5e"/>
    <path id="Trazado_24964" data-name="Trazado 24964" d="M2580.8,1098.54c12.215-12.685,10.142-27.213,5.6-31.522-6.293-5.968-18.413-4.444-28.279,10.065-2.528,3.717-15.9,23.888-24.8,31.8s-20.67,13.253-32.539,12.223C2500.782,1121.11,2540.021,1140.888,2580.8,1098.54Z" transform="translate(-1778.48 -550.479)" fill="#f0f9ff"/>
    <path id="Trazado_24965" data-name="Trazado 24965" d="M3586.153,773.611c-22.578-5.93-57.708-2.413-65.985,10.159-11.754,17.851,7.189,33.8,33.695,37.029,36.459,4.437,53.087,5.548,80.281,24.9,12.254,8.721,29.523,22.386,41.6,46.929C3668.325,860.592,3655.926,791.937,3586.153,773.611Z" transform="translate(-2637.48 -302.77)" fill="#f0f9ff"/>
    <path id="Trazado_24966" data-name="Trazado 24966" d="M791.467,1082.36c.221-18.547-.626-29.576,11.131-37.425,3.912-2.611,14.482-4.307,19.419,5.568,5.363,10.726.19,28.506-7.366,37.818s-35.621,21.89-39.461,22.915C775.19,1111.236,791.217,1103.359,791.467,1082.36Z" transform="translate(-319.291 -532.873)" fill="#f0f9ff"/>
    <path id="Trazado_24967" data-name="Trazado 24967" d="M3130.29,1074.989c.11-9.278-.313-14.8,5.568-18.722,1.958-1.306,7.245-2.155,9.715,2.785,2.683,5.366.1,14.26-3.685,18.918s-17.819,10.95-19.74,11.463A16.317,16.317,0,0,0,3130.29,1074.989Z" transform="translate(-2303.916 -543.307)" fill="#f0f9ff"/>
    <path id="Trazado_24968" data-name="Trazado 24968" d="M659.229,1335.869c-3.058-8.76-5.337-13.8-1.146-19.5,1.394-1.9,6.076-4.495,10.082-.692,4.351,4.13,4.95,13.374,2.983,19.042s-13.021,16.368-14.652,17.5A16.318,16.318,0,0,0,659.229,1335.869Z" transform="translate(-218.328 -761.872)" fill="#f0f9ff"/>
    <path id="Trazado_24969" data-name="Trazado 24969" d="M4584.491,1522.246c5.655-7.356,9.4-11.427,7.213-18.151-.729-2.237-4.357-6.176-9.355-3.824-5.428,2.554-8.9,11.142-8.813,17.141s7.219,19.629,8.411,21.221A16.319,16.319,0,0,1,4584.491,1522.246Z" transform="translate(-3531.232 -919.004)" fill="#f0f9ff"/>
    <path id="Trazado_24970" data-name="Trazado 24970" d="M3230.354,1245.2l-9.732,24.82a2.967,2.967,0,0,0,.3,2.743l14.929,22.088a2.966,2.966,0,0,1-2.633,4.621l-26.613-1.586a2.965,2.965,0,0,0-2.515,1.137l-16.394,21.024a2.965,2.965,0,0,1-5.208-1.077l-6.716-25.8a2.965,2.965,0,0,0-1.858-2.041l-25.061-9.094a2.965,2.965,0,0,1-.586-5.286l22.462-14.36a2.964,2.964,0,0,0,1.367-2.4l.9-26.645a2.965,2.965,0,0,1,4.846-2.19l20.6,16.925a2.966,2.966,0,0,0,2.7.559l25.62-7.373A2.965,2.965,0,0,1,3230.354,1245.2Z" transform="translate(-2324.85 -691.473)" fill="#febb5e"/>
    <path id="Trazado_24971" data-name="Trazado 24971" d="M3144.066,2781.389v6.1h3.919v-6.532Z" transform="translate(-2322.451 -2002.583)" fill="#e8b081"/>
    <path id="Trazado_24972" data-name="Trazado 24972" d="M3088.137,2806.341h6.532v5.692h-3.049V2810.7L3087.7,2812h-8.709s-.436-1.742,1.742-2.178a33.529,33.529,0,0,0,6.533-2.613C3088.137,2806.777,3088.137,2806.341,3088.137,2806.341Z" transform="translate(-2267.393 -2024.051)" fill="#2c2c57"/>
    <path id="Trazado_24973" data-name="Trazado 24973" d="M3149.1,2174.469h-13.5v94.938h7.4l12.194-80.131Z" transform="translate(-2315.295 -1489.73)" fill="#376ae6"/>
    <path id="Trazado_24974" data-name="Trazado 24974" d="M3342.115,2775.538l.913,6.028,3.875-.587-.979-6.458Z" transform="translate(-2489.925 -1997.143)" fill="#e8b081"/>
    <path id="Trazado_24975" data-name="Trazado 24975" d="M3299.671,2799.273l6.169-2.149,2.005,5.758-2.879,1-.573-1.645-3.272,2.523-8.226,2.865s-.984-1.5.929-2.63a33.489,33.489,0,0,0,5.31-4.616C3299.814,2799.684,3299.671,2799.273,3299.671,2799.273Z" transform="translate(-2448.09 -2016.257)" fill="#2c2c57"/>
    <path id="Trazado_24976" data-name="Trazado 24976" d="M3183.558,2149.1s.871,25.258,4.355,38.323,18.727,55.743,18.727,55.743h6.1s-8.71-53.566-8.71-61.84-.436-33.969-.436-33.969l-17.42-3.919Z" transform="translate(-2355.846 -1463.491)" fill="#4d86f4"/>
    <path id="Trazado_24977" data-name="Trazado 24977" d="M3259.314,1792.574l.257-12.537,6.366-1.041,2.955-2.5-3.406,17.378Z" transform="translate(-2419.907 -1153.196)" fill="#e8b081"/>
    <path id="Trazado_24978" data-name="Trazado 24978" d="M3250.661,1690.193c-3.317,5.314-8.4,8.28-11.88,6.314s-2.861-7.549-.718-13.435c3.253-8.935,8.4-8.28,11.88-6.314S3254.019,1684.814,3250.661,1690.193Z" transform="translate(-2400.457 -1067.819)" fill="#e8b081"/>
    <path id="Trazado_24979" data-name="Trazado 24979" d="M3221.144,1758.128s-9.1,8.248,3.529,11.275c6.788,1.627,12.971-11.135,7.041-7.088C3227.933,1764.9,3221.144,1758.128,3221.144,1758.128Z" transform="translate(-2384.948 -1137.665)" fill="#413c30"/>
    <path id="Trazado_24980" data-name="Trazado 24980" d="M3266.446,1656.221c-1.372-2.236,1.755-4.747-.387-9-.948-1.88-8.073-.281-10.214-4.611-1.263-2.552.926-9.7,3.822-7.987s3.311,4.228,5.326,4.838,5.547,1.132,6.606,3.746C3273.6,1648.142,3266.446,1656.221,3266.446,1656.221Z" transform="translate(-2416.664 -1033.01)" fill="#413c30"/>
    <path id="Trazado_24981" data-name="Trazado 24981" d="M3632.331,1673.573c.868-2.964,3.189-5.27,5.62-7.175a12.279,12.279,0,0,1,5.467-2.791,2.5,2.5,0,0,1,2.07.4c.912.819.485,2.354-.262,3.325a14.407,14.407,0,0,1-3.966,3.189L3635.7,1674a4.362,4.362,0,0,1-2.046.834C3632.908,1674.861,3632.331,1673.573,3632.331,1673.573Z" transform="translate(-2735.336 -1057.689)" fill="#f6c596"/>
    <path id="Trazado_24982" data-name="Trazado 24982" d="M3115.521,1534.237c.868-2.964,3.188-5.27,5.62-7.175a12.282,12.282,0,0,1,5.466-2.791,2.5,2.5,0,0,1,2.07.4c.911.819.485,2.354-.262,3.325a14.4,14.4,0,0,1-3.966,3.189l-5.561,3.476a4.361,4.361,0,0,1-2.046.834C3116.1,1535.525,3115.521,1534.237,3115.521,1534.237Z" transform="translate(-2298.313 -939.864)" fill="#f6c596"/>
    <path id="Trazado_24983" data-name="Trazado 24983" d="M3072.082,1675.812s26.883,4.764,30.4,2.027,5.176-38.725,8.305-41.854,17.4-2.933,23.467-7.431c4.906-3.64,20.729-26.987,20.729-26.987l-5.867-3.129-19.556,21.9-27.378,2.738-12.907-2.738s-14.164-12.475-16.036-16.427c-3.52-7.431.989-20.244,1.956-23.467,1.173-3.911-4.693-3.911-4.693-3.911s-14.08,20.338-5.084,35.2,12.516,17.209,12.125,23.466S3072.082,1675.812,3072.082,1675.812Z" transform="translate(-2253.408 -984.107)" fill="#ced7f2"/>
    <ellipse id="Elipse_741" data-name="Elipse 741" cx="2.23" cy="1.419" rx="2.23" ry="1.419" transform="matrix(0.616, -0.788, 0.788, 0.616, 846.586, 622.863)" fill="#e8b081"/>
    <path id="Trazado_24984" data-name="Trazado 24984" d="M2624.1,1176.464l-19.135,18.564a2.964,2.964,0,0,0-.859,2.623l4.444,26.287a2.965,2.965,0,0,1-4.31,3.116l-23.569-12.462a2.965,2.965,0,0,0-2.76-.006l-23.627,12.35a2.965,2.965,0,0,1-4.3-3.136l4.569-26.266a2.965,2.965,0,0,0-.846-2.627l-19.047-18.654a2.965,2.965,0,0,1,1.656-5.054l26.392-3.771a2.965,2.965,0,0,0,2.237-1.617l11.855-23.879a2.965,2.965,0,0,1,5.318.013l11.742,23.935a2.966,2.966,0,0,0,2.229,1.628l26.374,3.9A2.965,2.965,0,0,1,2624.1,1176.464Z" transform="translate(-1806.377 -615.206)" fill="#febb5e"/>
    <path id="Trazado_24985" data-name="Trazado 24985" d="M2396.849,2393.639c-2.05,18-12.854,49.686-12.854,49.686l-1.185-1.481-2.025.145,5.048-53.771S2398.9,2375.641,2396.849,2393.639Z" transform="translate(-1677.008 -1666.865)" fill="#ff8a5c"/>
    <path id="Trazado_24986" data-name="Trazado 24986" d="M2230.15,2394.721l-17.255,50.485s-.125,3.406.178,3.892c.36.579,1.877,5.456,2.017,5.325.064-.06,2.39.3,2.415.22.2-.675.463-1.106.219-1.756-.658-1.755-2.634-4.609-1.8-6.608,1.947-4.646,18.8-27.694,23.113-44.447C2243.55,2384.289,2230.15,2394.721,2230.15,2394.721Z" transform="translate(-1535.016 -1673.375)" fill="#ff8a5c"/>
    <path id="Trazado_24987" data-name="Trazado 24987" d="M2384.207,2755.873c-.551-.261-1.733-2.575-2.071-4.356l.018-.032a.4.4,0,0,1,.024.036l.125-1a8.512,8.512,0,0,1,3.576-.666c-.22,2.414.439,4.169,1.1,4.828.9.9,2.634,1.975,2.853,3.731C2389.916,2759.123,2384.823,2756.163,2384.207,2755.873Z" transform="translate(-1678.15 -1976.272)" fill="#ff8a5c"/>
    <path id="Trazado_24988" data-name="Trazado 24988" d="M2388.854,2766.223s-4.326.62-5.726.317c-1.159-.245-4.652-4.174-4.652-4.174l.455,3.679-1.5-.094-1.891-5.476a5.123,5.123,0,0,1,.227-3.876l.432-.9.027-.049s.013.017.036.053c.009.009.013.022.027.035.571.839,3.778,7.373,6.5,6.917.73-.122-.437-2-.437-2l.076.067Z" transform="translate(-1672.337 -1981.185)"/>
    <path id="Trazado_24989" data-name="Trazado 24989" d="M2209.052,2749.131s-4.274-.909-5.484-1.677c-1-.63-2.927-5.522-2.927-5.522l-.841,3.611-1.378-.606.112-5.792a5.125,5.125,0,0,1,1.55-3.559l.717-.7.042-.036a.625.625,0,0,1,.015.063c.006.011.006.025.013.042.247.984,1,8.223,3.719,8.734.728.137.279-2.026.279-2.026l.048.089Z" transform="translate(-1522.799 -1963.598)"/>
    <path id="Trazado_24990" data-name="Trazado 24990" d="M2282.527,2012.8l31.165-.658s5.707,21.214,3.292,37.311-8.937,38.283-8.937,38.283l-24.891-10.075s-5.428-30.324-5.831-38.373S2282.527,2012.8,2282.527,2012.8Z" transform="translate(-1589.505 -1352.466)" fill="#ffed6a"/>
    <path id="Trazado_24991" data-name="Trazado 24991" d="M2736.533,1572.608c.836-1.988,1.417-4.1,2.151-6.135a17.038,17.038,0,0,1,3-5.575c1.351-1.519,3.207-2.468,4.848-2.031a4.629,4.629,0,0,1,2.114,1.384,6.074,6.074,0,0,1,1.455,2.482,5.154,5.154,0,0,1-.1,3.189,7.015,7.015,0,0,1-3.334,3.309l-4.637,2.764a7.888,7.888,0,0,1-1.175.615,6.2,6.2,0,0,1-4.126-.294Z" transform="translate(-1977.835 -969.075)" fill="#fc8773"/>
    <path id="Trazado_24992" data-name="Trazado 24992" d="M1944.176,2138.591a24.165,24.165,0,0,1-8.581,4.291c-1.2.324-2.578.662-3.17,1.757a2.754,2.754,0,0,0,.286,2.783,6.2,6.2,0,0,0,2.259,1.841c2.363,1.28,5.3,1.979,7.714.794a7.96,7.96,0,0,0,3.594-4.226,4.708,4.708,0,0,0,.37-3.244c-.437-1.3-1.749-2.124-2.334-3.366Z" transform="translate(-1297.648 -1459.391)" fill="#fc8773"/>
    <path id="Trazado_24993" data-name="Trazado 24993" d="M2004.292,1665.41c-7.756-1.815-15.1-6.537-16.692-8.411-.466-.547-1.163-1.564-1.023-2.032.471-1.579,2.985-1.187,4.631-1.109,6.161.3,19.108-3.54,23.407-7.963,3.019-3.105,11.293-20.877,21.5-25.271,3.681-1.585,12.3-3.106,17.461,2.092,3.489,3.51,2,8.756.784,13.552l-4.486-2.85c-1.605,1.527-.357-1.265-2.514-.76-3.09.724-4.464,4.578-3.859,7.693.335,1.722,1.1,3.481.781,5.169l.072.039c-.766,4.635-2.913,9.386-7.019,11.67-3.577,1.99-7.793,5.278-11.69,6.53C2022.557,1664.751,2017.461,1668.492,2004.292,1665.41Z" transform="translate(-1343.644 -1020.119)" fill="#08192c"/>
    <path id="Trazado_24994" data-name="Trazado 24994" d="M2324.067,1796.244c-4.449-1.44-7.362-.925-11.587.08-2.535.6-11.71,1.9-11.627,3.661.095,2.008,1.667,5.077,3.525,5.844a12.689,12.689,0,0,0,5.943.584,17.245,17.245,0,0,0,8.3-2.507c2.416-1.646,5.16-3.716,4.8-6.617Z" transform="translate(-1609.416 -1169.143)" fill="#fc8773"/>
    <path id="Trazado_24995" data-name="Trazado 24995" d="M2086.874,1634.329c-4.74,8.27-17.475,27.569-17.475,27.569s-26.416-3.241-27.037-2.937-2.7,6.512-6.952,7.548c-3.954.963-6.26-2.083-12.971-4.233-10.533,7.508-16.861,20.294-24.309,28.018-7.378,7.651-27.995,21.493-27.552,22.273a11.78,11.78,0,0,0,8.481,6.373c2.431.569,9.963-1.09,12.118-2.349,13.149-7.684,18.317-16.835,28.818-27.864,1.566,2.864-1.408,14.159-2.116,17.185,13.049,4.557,29.95,3.2,41.042-5.048-2.691-4.726-8.215-19.605-7.574-24.953,6.48-.366,16.515,4.707,29.078-3.091,11.437-7.1,16.761-25.734,16.247-34.726a3.2,3.2,0,0,0-.813-2.052,3.806,3.806,0,0,0-1.7-.857,34.837,34.837,0,0,0-6.63-1.274Z" transform="translate(-1330.125 -1032.625)" fill="#95d5de"/>
    <path id="Trazado_24996" data-name="Trazado 24996" d="M2318.93,1674.971c-.368,2.543-2.139,5.064-4.675,5.478-1.1.179-8.63-4.067-9.934-5.177-1.2-1.022-2.758-1.607-3.8-2.786a5.469,5.469,0,0,1-.844-5.531,7.3,7.3,0,0,1,4.136-3.958,11.075,11.075,0,0,1,5.8-.508c3.269.515,6.158,1.71,7.672,4.652C2318.185,1668.906,2319.3,1672.427,2318.93,1674.971Z" transform="translate(-1608.086 -1056.65)" fill="#fc8773"/>
    <path id="Trazado_24997" data-name="Trazado 24997" d="M2333.872,1744.882c2.142,3.684,3.782,13.043,4.553,13.91.525.591,5.536,1.716,5.928.214s-.79-8.02-.746-9.572Z" transform="translate(-1637.338 -1126.464)" fill="#fc8773"/>
    <path id="Trazado_24998" data-name="Trazado 24998" d="M2253.06,1644.553c-.556,3.174-3.862,7.024-6.53,8.83s-2.359,3.572-4.24,6.188c-.611.849-3.672.13-4.318.952-1.871,2.38-4.955,3.533-7.97,3.8a4.308,4.308,0,0,1-1.689-.1c-1.379-.441,1-.649,1.013-2.1.028-2.761-1.066-6.487,1.1-8.2s4.639-3.118,6.323-5.306a25.8,25.8,0,0,1,2.8-3.752c2.261-2.031,5.659-1.938,8.691-1.726l4.921.344Z" transform="translate(-1547.712 -1040.334)" fill="#08192c"/>
    <path id="Trazado_24999" data-name="Trazado 24999" d="M704.954,414.413l11.8,23.907a2.966,2.966,0,0,0,2.233,1.622l26.383,3.834a2.965,2.965,0,0,1,1.643,5.058l-19.091,18.609a2.965,2.965,0,0,0-.853,2.625l4.507,26.276a2.965,2.965,0,0,1-4.3,3.126l-23.6-12.406a2.965,2.965,0,0,0-2.76,0l-23.6,12.406a2.965,2.965,0,0,1-4.3-3.126l4.507-26.276a2.965,2.965,0,0,0-.853-2.625l-19.091-18.609a2.965,2.965,0,0,1,1.643-5.058l26.383-3.834a2.965,2.965,0,0,0,2.233-1.622l11.8-23.907A2.965,2.965,0,0,1,704.954,414.413Z" transform="translate(-219.077)" fill="#d8d8d8"/>
    <path id="Trazado_25000" data-name="Trazado 25000" d="M1506.067,414.413l11.8,23.907a2.966,2.966,0,0,0,2.233,1.622l26.383,3.834a2.965,2.965,0,0,1,1.643,5.058l-19.091,18.609a2.965,2.965,0,0,0-.853,2.625l4.507,26.276a2.965,2.965,0,0,1-4.3,3.126l-23.6-12.406a2.966,2.966,0,0,0-2.76,0l-23.6,12.406a2.965,2.965,0,0,1-4.3-3.126l4.507-26.276a2.965,2.965,0,0,0-.853-2.625l-19.091-18.609a2.965,2.965,0,0,1,1.644-5.058l26.383-3.834a2.965,2.965,0,0,0,2.233-1.622l11.8-23.907A2.965,2.965,0,0,1,1506.067,414.413Z" transform="translate(-896.51)" fill="#d8d8d8"/>
    <path id="Trazado_25001" data-name="Trazado 25001" d="M2307.179,414.413l11.8,23.907a2.967,2.967,0,0,0,2.233,1.622l26.383,3.834a2.966,2.966,0,0,1,1.643,5.058l-19.091,18.609a2.964,2.964,0,0,0-.853,2.625l4.507,26.276a2.966,2.966,0,0,1-4.3,3.126l-23.6-12.406a2.965,2.965,0,0,0-2.76,0l-23.6,12.406a2.965,2.965,0,0,1-4.3-3.126l4.506-26.276a2.965,2.965,0,0,0-.853-2.625L2259.8,448.834a2.966,2.966,0,0,1,1.644-5.058l26.383-3.834a2.966,2.966,0,0,0,2.233-1.622l11.8-23.907A2.966,2.966,0,0,1,2307.179,414.413Z" transform="translate(-1573.944)" fill="#d8d8d8"/>
    <path id="Trazado_25002" data-name="Trazado 25002" d="M3108.291,414.413l11.8,23.907a2.965,2.965,0,0,0,2.233,1.622l26.383,3.834a2.965,2.965,0,0,1,1.643,5.058l-19.091,18.609a2.967,2.967,0,0,0-.853,2.625l4.507,26.276a2.966,2.966,0,0,1-4.3,3.126l-23.6-12.406a2.966,2.966,0,0,0-2.76,0l-23.6,12.406a2.965,2.965,0,0,1-4.3-3.126l4.506-26.276a2.964,2.964,0,0,0-.853-2.625l-19.091-18.609a2.965,2.965,0,0,1,1.643-5.058l26.383-3.834a2.965,2.965,0,0,0,2.233-1.622l11.8-23.907A2.965,2.965,0,0,1,3108.291,414.413Z" transform="translate(-2251.378)" fill="#d8d8d8"/>
    <path id="Trazado_25003" data-name="Trazado 25003" d="M3909.4,414.413l11.8,23.907a2.966,2.966,0,0,0,2.233,1.622l26.384,3.834a2.965,2.965,0,0,1,1.643,5.058l-19.091,18.609a2.966,2.966,0,0,0-.853,2.625l4.507,26.276a2.965,2.965,0,0,1-4.3,3.126l-23.6-12.406a2.966,2.966,0,0,0-2.76,0l-23.6,12.406a2.965,2.965,0,0,1-4.3-3.126l4.507-26.276a2.966,2.966,0,0,0-.854-2.625l-19.091-18.609a2.966,2.966,0,0,1,1.644-5.058l26.382-3.834a2.964,2.964,0,0,0,2.233-1.622l11.8-23.907A2.966,2.966,0,0,1,3909.4,414.413Z" transform="translate(-2928.811)" fill="#d8d8d8"/>
    <path id="Trazado_25004" data-name="Trazado 25004" d="M779.455,1715.488a10.713,10.713,0,0,1-8.785-3.33,5.12,5.12,0,0,1-1.486-2.853,5.467,5.467,0,0,1,1.935-4.183c6.379-6.379,17.9-4.122,25.754-8.562,5.766-3.26,12.258-11.325,18.694-20.558.81-1.162-.278-4.6,1.146-4.328,1.966.378,2.937-6,4.3-2,.4,1.175-1.541,3.938-2.7,6.7-3.654,8.7-10.027,24.419-16.274,29.178C795.2,1710.763,779.455,1715.488,779.455,1715.488Z" transform="translate(-314.198 -1061.75)" fill="#ff9e95"/>
    <path id="Trazado_25005" data-name="Trazado 25005" d="M877.568,1486.1l25.283,8.459a2.965,2.965,0,0,1,1.909,1.993l7.365,25.622a2.965,2.965,0,0,0,5.234.945l15.857-21.432a2.966,2.966,0,0,1,2.486-1.2l26.644.913a2.965,2.965,0,0,0,2.516-4.686l-15.482-21.7a2.967,2.967,0,0,1-.373-2.735l9.1-25.058a2.966,2.966,0,0,0-3.679-3.841L929,1451.393a2.966,2.966,0,0,1-2.716-.49l-21.019-16.4a2.966,2.966,0,0,0-4.789,2.313l-.232,26.659a2.966,2.966,0,0,1-1.305,2.432l-22.092,14.922A2.965,2.965,0,0,0,877.568,1486.1Z" transform="translate(-404.151 -863.467)" fill="#febb5e"/>
    <path id="Trazado_25006" data-name="Trazado 25006" d="M862.033,2718.15a10.141,10.141,0,0,1-.687,2.34,28.206,28.206,0,0,0-1.31,6.052c-.02.16.289,1.471.271,1.632-.135,1.141-.574,1.135-.7,2.274a.81.81,0,0,1-.122.405c-.187.245-2.429-3.16-3.162-3.983s-1.008-5.963-.055-8.743c.445-1.3.615-3.666,1.5-4.714.073-.085,1.622,1.609,1.734,1.6a.428.428,0,0,1,.248.084,10.105,10.105,0,0,1,3.3,3.179.521.521,0,0,1-.59.1Z" transform="translate(-387.334 -1945.465)" fill="#ff9e95"/>
    <path id="Trazado_25007" data-name="Trazado 25007" d="M839.232,2761.293l-1.446-.727.441-6.209a5.5,5.5,0,0,1,1.862-3.735l.851-.745s1.856,9.6,3.533,9.689c.794.043.413-2.154.413-2.154l4.076,8.239s-4.534-1.211-5.793-2.1c-1.043-.735-2.837-6.089-2.837-6.089Z" transform="translate(-372.224 -1976.304)"/>
    <path id="Trazado_25008" data-name="Trazado 25008" d="M708.852,2740.822a28.223,28.223,0,0,0,.706,6.152c.033.158.747,1.3.781,1.457.24,1.124-.178,1.26.066,2.379a.8.8,0,0,1,.015.423c-.1.293-3.316-2.21-4.275-2.754s-2.872-5.322-2.865-8.261c0-1.372,6.153-1.729,5.942-1.758A15.753,15.753,0,0,0,708.852,2740.822Z" transform="translate(-258.484 -1966.65)" fill="#ff9e95"/>
    <path id="Trazado_25009" data-name="Trazado 25009" d="M698.777,2767.251l-1.6-.223-1.579-6.021a5.5,5.5,0,0,1,.561-4.135l.566-.979s4.845,8.491,6.462,8.037c.766-.215-.3-2.172-.3-2.172l6.509,6.49s-4.682.311-6.16-.125c-1.224-.361-4.645-4.853-4.645-4.853Z" transform="translate(-251.835 -1981.39)"/>
    <path id="Trazado_25010" data-name="Trazado 25010" d="M697.273,2135.123s-1.9-3.476-2.844-3.16-5.064-.03-7.85,9.4c-4.215,14.267,7.309,37.688,6.993,41.48s-.564,4.284-.564,5.232-4.612,9.29-4.928,13.714-.6,25.927-.6,25.927h6.952s3.589-22.753,4.853-26.545,5.576-14.221,6.84-22.437,1.264-31.285,1.264-31.285Z" transform="translate(-243.576 -1453.768)" fill="#376ae6"/>
    <path id="Trazado_25011" data-name="Trazado 25011" d="M762.909,2211.651l-7.268-2.529s1.107-7.65,2.952-16.971a56.986,56.986,0,0,1,5.785-16.285l-.318-4.033s-23.681-32.823-25.824-38.822c-2.257-6.321-1.241-13.636,4.131-17.112s13.145-3.539,14.725-1.959.76,9.859,1.392,11.439,5.056,4.424,11.376,25.281,8.532,21.489,3.476,34.445S762.909,2211.651,762.909,2211.651Z" transform="translate(-287.091 -1437.705)" fill="#4d86f4"/>
    <path id="Trazado_25012" data-name="Trazado 25012" d="M719.945,1820.724c1.433,1.272,1.433,4.972.817,6.205-.723,1.446,1.379,1.62,2.412,2.863a4.816,4.816,0,0,0,4.25,1.86,3.787,3.787,0,0,0,3.094-3.129c.271-1.936-1.4-2.136-1.741-4.061-.2-1.167.349-3.962.441-5.143a.631.631,0,0,0-.059-.405c-.134-.2-.431-.183-.669-.143l-8.751,1.5Z" transform="translate(-272.401 -1188.924)" fill="#ff9e95"/>
    <path id="Trazado_25013" data-name="Trazado 25013" d="M679.214,1915.963c-5.912.313-11.285-3.332-11.285-3.332s8.9-13.8,1.384-24.325c-3.214-4.5-2.82-11.889-1.929-14.785a5.769,5.769,0,0,1,6.428-3.857c8.571,1.714,7.472-.9,12.857-.429,5.892.519,10.753,8.974,10.714,12.428-.214,18.857,1.589,12.844,3.214,27.642C700.6,1909.305,695.55,1915.1,679.214,1915.963Z" transform="translate(-227.595 -1231.57)" fill="#9a78ff"/>
    <path id="Trazado_25014" data-name="Trazado 25014" d="M690.144,1902.319a11.37,11.37,0,0,1-3.422-9.593,5.686,5.686,0,0,1,1.444-3.267c1.26-1.236,3.216-1.418,4.97-1.223,9.956,1.109,15.988,12.666,25.284,16.4,6.825,2.74,18.322,2.778,30.792,1.958,1.57-.1,3.8-3.432,4.548-2.008,1.036,1.967,7.238-1.611,4.715,2.35-.741,1.163-4.484,1.394-7.678,2.3-10.082,2.867-28.131,8.237-36.59,6.119C704.943,1913.037,690.144,1902.319,690.144,1902.319Z" transform="translate(-244.386 -1247.631)" fill="#ff9e95"/>
    <path id="Trazado_25015" data-name="Trazado 25015" d="M640.72,1645.442c1.233-.616,3.484-4.238,3.515-6.333a6.126,6.126,0,0,0-3.377-5.32,7.476,7.476,0,0,1-1.415-.619c-1.119-.792-1.076-2.508-.5-3.755a37.22,37.22,0,0,0,1.966-3.605c.921-2.788-1.032-5.934-3.722-7.111s-5.828-.767-8.6.215c-1.117.4-2.332,1.026-2.625,2.174-.258,1.01.3,2.043.322,3.086a4.346,4.346,0,0,1-2.393,3.581,27.626,27.626,0,0,1-4.206,1.629,13.3,13.3,0,0,0-7.769,7.365,10,10,0,0,0,1.8,10.3c2.944,3.086,11.043,5.7,13.64,2.455-.471-3.632-2.529-7.208-.315-10.126a7.277,7.277,0,0,1,8.147-2.335c3.2,1.216,3.663,5.042,4.3,8.4Z" transform="translate(-180.644 -1019.152)" fill="#11235d"/>
    <path id="Trazado_25016" data-name="Trazado 25016" d="M697.406,1743.27a23.964,23.964,0,0,1-3.176-3.64,14.085,14.085,0,0,1-1.894-5.481,9.294,9.294,0,0,1,.014-4.038,6.246,6.246,0,0,1,3.889-4.009,8.473,8.473,0,0,1,5.685.074c4.73,1.679,6.886,6.924,7.01,9.2.187,3.424-1.1,6.7-4.278,8.157Z" transform="translate(-249.046 -1110.198)" fill="#ff9e95"/>
    <ellipse id="Elipse_742" data-name="Elipse 742" cx="1.85" cy="2.466" rx="1.85" ry="2.466" transform="translate(440.984 626.658) rotate(-60)" fill="#ff9e95"/>
    <path id="Trazado_25017" data-name="Trazado 25017" d="M3946.424,1865.466s21.233-27.491,27.893-22.731c6.521,4.661-3.936,14.178-12.512,21.066-8.795,7.063-13.993,12.678-22.464,5.781s-10.381-12.177-13.976-13.3c-4.266-1.33-7.336-6.963-5.6-5.9.842.515,3.035,2.46,4,2.271.919-.179-1.77-1.9-1.6-2.5s7.516,6.012,12.464,9.286A87.5,87.5,0,0,0,3946.424,1865.466Z" transform="translate(-2977.976 -1208.741)" fill="#f9755b"/>
    <path id="Trazado_25018" data-name="Trazado 25018" d="M4159.982,2758.35l-.713,5.915,4.657.561.764-6.337Z" transform="translate(-3180.923 -1983.469)" fill="#f9755b"/>
    <path id="Trazado_25019" data-name="Trazado 25019" d="M4115.642,2782.088h6.383v5.561h-2.188v-1.306l-4.62,1.277-6.93-.158s-.426-1.7,1.7-2.128a17.315,17.315,0,0,0,4.4-1.443A3.348,3.348,0,0,0,4115.642,2782.088Z" transform="translate(-3137.782 -2003.542)" fill="#2c2c57"/>
    <path id="Trazado_25020" data-name="Trazado 25020" d="M4349.274,2756.224l1.006,5.872,4.623-.792-1.078-6.292Z" transform="translate(-3341.594 -1980.646)" fill="#f9755b"/>
    <path id="Trazado_25021" data-name="Trazado 25021" d="M4306.092,2782.088h6.383v5.561h-2.187v-1.306l-4.621,1.277-6.93-.158s-.425-1.7,1.7-2.128a17.289,17.289,0,0,0,4.4-1.443A3.347,3.347,0,0,0,4306.092,2782.088Z" transform="translate(-3298.83 -2003.542)" fill="#2c2c57"/>
    <path id="Trazado_25022" data-name="Trazado 25022" d="M4166.555,2164.681h-13.191v92.764h7.234l11.916-78.3Z" transform="translate(-3175.929 -1481.452)" fill="#376ae6"/>
    <path id="Trazado_25023" data-name="Trazado 25023" d="M4200.221,2139.894s.851,24.681,4.255,37.446,17.981,54.468,17.981,54.468h6.59s-8.827-52.34-8.827-60.425-.426-33.191-.426-33.191l-17.021-3.83Z" transform="translate(-3215.553 -1455.815)" fill="#4d86f4"/>
    <path id="Trazado_25024" data-name="Trazado 25024" d="M4156.811,1670.793l13.728.729s1.264-17.863-8.358-22.509c-7.838-3.784-12.192,1.168-12.192,1.168a4.272,4.272,0,0,0-3.162,1.265c-6.183,6.183,1.265,23.7,1.265,23.7Z" transform="translate(-3168.326 -1044.191)" fill="#0e2669"/>
    <path id="Trazado_25025" data-name="Trazado 25025" d="M4220.05,1773.914l-3.061-10.828-1.87-5.167-5.908,3.988.307,10.418Z" transform="translate(-3223.155 -1137.488)" fill="#f9755b"/>
    <ellipse id="Elipse_743" data-name="Elipse 743" cx="6.607" cy="8.582" rx="6.607" ry="8.582" transform="translate(978.282 608.416) rotate(-8.169)" fill="#f9755b"/>
    <path id="Trazado_25026" data-name="Trazado 25026" d="M4155.146,1836.4l-13.437,1.265-7.746,7.45s-5.059,4.206-4.584,8.632c.625,5.835,4.22,7.952,4.378,9.058.7,4.881-2.956,33.348-2.956,33.348l31.458-.948-1.423-50.585Z" transform="translate(-3155.622 -1203.853)" fill="#1130b3"/>
    <path id="Trazado_25027" data-name="Trazado 25027" d="M4201.158,1686.452c-.352.046-12.657,1.989-12.657,1.989s1.846-7.744,1.616-9.5a20.722,20.722,0,0,0-.81-3.467s-8.423-5.411-8.7-7.518,1.7-2.284,4.862-2.7,11.075,8.2,11.075,8.2Z" transform="translate(-3198.947 -1059.121)" fill="#0e2669"/>
    <path id="Trazado_25028" data-name="Trazado 25028" d="M4160.264,1673.016a5.555,5.555,0,0,1-2.351,3.88c-3.4,2.578-.027,10.721-.027,10.721l-1.94-1.175-1.65-4.428.624-6.155,2.443-3.177,3.161-.413Z" transform="translate(-3176.717 -1065.06)" fill="#0e2669"/>
    <ellipse id="Elipse_744" data-name="Elipse 744" cx="1.594" cy="2.125" rx="1.594" ry="2.125" transform="translate(988.488 615.114) rotate(-5.433)" fill="#f9755b"/>
    <path id="Trazado_25029" data-name="Trazado 25029" d="M3658.116,1707.858l-1.555,26.615a2.964,2.964,0,0,1-1.425,2.364l-22.806,13.807a2.966,2.966,0,0,0,.456,5.3l24.832,9.7a2.965,2.965,0,0,1,1.808,2.085l6.084,25.956a2.965,2.965,0,0,0,5.18,1.2l16.9-20.617a2.966,2.966,0,0,1,2.542-1.075l26.566,2.235a2.966,2.966,0,0,0,2.745-4.555l-14.386-22.446a2.967,2.967,0,0,1-.237-2.75l10.335-24.575a2.965,2.965,0,0,0-3.483-4.019l-25.793,6.745a2.963,2.963,0,0,1-2.688-.624l-20.179-17.423A2.966,2.966,0,0,0,3658.116,1707.858Z" transform="translate(-2734.126 -1092.79)" fill="#febb5e"/>
    <path id="Trazado_25030" data-name="Trazado 25030" d="M3979.062,1870.843s12.945-37.636,21.656-34.461c4.616,1.682,6.23,7.042,4.269,12.962-1.665,5.023-6.306,11.639-9.643,16.282-7.457,10.375-11.428,16.815-22.764,11.856s-15.021-10.142-19.285-10.275c-5.059-.158-10.117-5.375-7.9-4.742,1.075.307,4.059,1.765,5.059,1.265.948-.474-2.508-1.537-2.508-2.246s10.025,4.282,16.419,6.356A99.078,99.078,0,0,0,3979.062,1870.843Z" transform="translate(-2999.613 -1203.677)" fill="#f9755b"/>
    <path id="Trazado_25031" data-name="Trazado 25031" d="M1518.519,1746.988c-3.05.608-4.794,17.643-7.291,15.45-.84-.737.508-18.539.762-21.079a12.579,12.579,0,0,1,1.745-5.257c5.107-6.955,16.53-5.71,23.362-10.852,5.016-3.775,8.586-20.229,8.586-20.229l4.5,1.438s-1.448,22.028-6.687,27.348C1537.76,1739.633,1518.519,1746.988,1518.519,1746.988Z" transform="translate(-941.466 -1092.757)" fill="#453f87"/>
    <path id="Trazado_25032" data-name="Trazado 25032" d="M1715.67,2760.712v5.967h3.615l.516-7.344Z" transform="translate(-1114.576 -1984.301)" fill="#ff9e95"/>
    <path id="Trazado_25033" data-name="Trazado 25033" d="M1504.562,2757.739v5.967h3.615l.516-7.345Z" transform="translate(-936.06 -1981.787)" fill="#ff9e95"/>
    <path id="Trazado_25034" data-name="Trazado 25034" d="M1709.34,2794.224l.174,5.506,15.4-.487a.129.129,0,0,0,.112-.186h0a10.151,10.151,0,0,0-6.675-5.378l-4.007-.991-2.365.726Z" transform="translate(-1109.224 -2012.505)" fill="#1e1e76"/>
    <path id="Trazado_25035" data-name="Trazado 25035" d="M1498.376,2785.027l.108,5.507,15.4-.3a.13.13,0,0,0,.115-.185h0a10.151,10.151,0,0,0-6.61-5.458l-3.995-1.038-2.374.7Z" transform="translate(-930.829 -2004.779)" fill="#1e1e76"/>
    <path id="Trazado_25036" data-name="Trazado 25036" d="M1503.395,2284.513c4.163-6.2,3.7-6.446,6.283-13.455,2.542-6.891,12.874-47.283,13.565-53.168.47-4,.233-15.118-.472-16.444-.984-1.85-2.925-2.968-4.824-3.854-3.308-1.542-6.936-2.7-10.564-2.3s-8.232.156-9.329,3.638c-.512,1.625-.457,5.374-.332,7.073.527,7.189,3.948,22.837,4.942,29.977s-3.531,41.49-5.638,47.523C1496.572,2284.8,1503.395,2284.513,1503.395,2284.513Z" transform="translate(-929.668 -1507.271)" fill="#82bfc4"/>
    <path id="Trazado_25037" data-name="Trazado 25037" d="M1604.795,1727.355c2.432,1.535,4.125,5.573,4.662,8.4a6.21,6.21,0,0,1,.008,2.635c-.677,2.748-2.325,3.416-4.67,5-.629.426-.363,3.764-.5,4.51-.149.81-1.92-.348-2.437.293s-2.693,2.1-3.354,1.64c-2.309-1.6-1.715-6.492-1.617-9.3a5.143,5.143,0,0,1,.665-2.729,2.037,2.037,0,0,1,2.462-.846,1.139,1.139,0,0,0,.61.22.7.7,0,0,0,.4-.245,3.971,3.971,0,0,0,.822-2.951,13.531,13.531,0,0,1-.041-3.141,2.551,2.551,0,0,1,1.976-2.178Z" transform="translate(-1014.011 -1111.643)" fill="#ff9e95"/>
    <path id="Trazado_25038" data-name="Trazado 25038" d="M1550.955,1671.242a9.823,9.823,0,0,0,1-6.013c-.375-1.878-.732-3.573-2.162-4.846a4.621,4.621,0,0,0-7.491,2.1,2.038,2.038,0,0,1-.4.894c-.453.45-1.2.248-1.832.161a4.232,4.232,0,0,0-4.6,3.636,1.5,1.5,0,0,1-1.226,1.771c-2.719,1.2-3.211,6.369-2.827,9.318.312,2.4,3.77,6.619,6.013,7.517,7.516,3.006,6.178-.666,7.015-1.5a15.632,15.632,0,0,0,4.479-10.1,4.08,4.08,0,0,1,1.211-2.6Z" transform="translate(-958.668 -1054.026)" fill="#1e1e76"/>
    <path id="Trazado_25039" data-name="Trazado 25039" d="M1566.005,2266.455a114.533,114.533,0,0,0-8.023-54.285c-.707-1.721-1.577-3.556-3.239-4.392a8.125,8.125,0,0,0-3.324-.618c-4.9-.213-9.909-.412-14.586,1.049-2.4.751-5.291-.461-6.546,1.722-1.881,3.274-.175,9.96,1.635,13.272,2.382,4.361,5.7,8.128,8.464,12.259,4.266,6.383,9.022,14.742,10.525,22.271,2.01,10.069,3.824,37.175,4.578,37.869.381.351,5.454.66,7.239-.231Z" transform="translate(-957.121 -1517.248)" fill="#95d5de"/>
    <path id="Trazado_25040" data-name="Trazado 25040" d="M1632.494,1765.967a1.81,1.81,0,1,0,1.076-2.646A2.052,2.052,0,0,0,1632.494,1765.967Z" transform="translate(-1044.15 -1142.012)" fill="#ff9e95"/>
    <path id="Trazado_25041" data-name="Trazado 25041" d="M1527.212,1870.188a10.174,10.174,0,0,0-1,3.262c-.677,13.414.933,25.1,1.6,38.511-9.521,2-22.533,1.442-32.987,1.077a1.335,1.335,0,0,1-1.013-.328,1.307,1.307,0,0,1-.219-.777c-.507-8.407,1.628-17.875,2.546-26.137,1.443-12.987-.01-22.577,4.659-26.528,6.6-5.587,27.174-4.063,32.523-4.228C1533.323,1855.039,1529.5,1866.748,1527.212,1870.188Z" transform="translate(-926.721 -1219.554)" fill="#453f87"/>
    <path id="Trazado_25042" data-name="Trazado 25042" d="M1631.341,1179.335l11.8,23.907a2.965,2.965,0,0,0,2.233,1.622l26.383,3.834a2.965,2.965,0,0,1,1.643,5.058l-19.091,18.609a2.966,2.966,0,0,0-.853,2.625l4.507,26.276a2.965,2.965,0,0,1-4.3,3.126l-23.6-12.406a2.965,2.965,0,0,0-2.76,0l-23.6,12.406a2.965,2.965,0,0,1-4.3-3.126l4.507-26.276a2.966,2.966,0,0,0-.853-2.625l-19.091-18.609a2.965,2.965,0,0,1,1.643-5.058l26.383-3.834a2.966,2.966,0,0,0,2.233-1.622l11.8-23.907A2.965,2.965,0,0,1,1631.341,1179.335Z" transform="translate(-1002.445 -646.831)" fill="#febb5e"/>
    <path id="Trazado_25043" data-name="Trazado 25043" d="M1931.332,1681.9a26.372,26.372,0,0,1,1.647-4.966,8.846,8.846,0,0,1,3.4-3.889,2.044,2.044,0,0,1,1.707-.309,1.973,1.973,0,0,1,.955,2.017c-.1,2.119-1.518,3.921-2.923,5.51a13.645,13.645,0,0,1-2.859,2.63,1.72,1.72,0,0,1-1.08.344.7.7,0,0,1-.641-.791Z" transform="translate(-1296.944 -1065.387)" fill="#ff9e95"/>
    <path id="Trazado_25044" data-name="Trazado 25044" d="M1675.88,1757.441c-3.11,0-1.418-1.885-3.435-4.526a5.714,5.714,0,0,1-1.309-3.045,5.3,5.3,0,0,1,2.025-4.043c6.375-5.815,17.33-2.347,25.04-6.044,5.661-2.715,12.4-18.146,12.4-18.146l4.131,2.3s-5.752,21.313-11.935,25.5C1696.024,1754.014,1675.88,1757.441,1675.88,1757.441Z" transform="translate(-1076.913 -1106.807)" fill="#453f87"/>
  </g>
</svg>
