<svg xmlns="http://www.w3.org/2000/svg" width="423.11" height="302.477" viewBox="0 0 423.11 302.477">
  <g id="Grupo_14344" data-name="Grupo 14344" transform="translate(-92.621 -79.149)">
    <g id="Grupo_14324" data-name="Grupo 14324" transform="translate(139.934 93.753)">
      <path id="Trazado_25046" data-name="Trazado 25046" d="M200.359,373.56H452.967c67.959-39.524,78.71-88.753,69.506-111.342-15.924-39.083-29.539-38.227-52.127-53.732-27.159-18.643,1.292-51.784-3.475-77.268-7.558-40.439-70.447-34.665-101.058,13.678-26.215,41.4-62.657,20.327-88.42,8.021-45.756-21.856-117.866,38.434-48.074,105.844C254.514,283.1,141.579,299.1,200.359,373.56Z" transform="translate(-178.04 -104.364)" fill="#f8f7ff"/>
      <path id="Trazado_25047" data-name="Trazado 25047" d="M196.486,365.215c-27.46-4.362-29.349,45.99-6.055,29.626S206.7,366.838,196.486,365.215Z" transform="translate(-174.309 -214.019)" fill="#f8f7ff"/>
    </g>
    <path id="Trazado_25048" data-name="Trazado 25048" d="M512.989,417.722c-10.721,18.117-29.377,37.514-59.211,55.046H199.727C186.782,456.2,182.27,442.65,182.791,431.3c38.791-4.455,43.69-25.021,74.122-64.059,38.747-49.7,103.569-16.3,115.686,7.634s21.7,55.307,64.117,48.021C467.227,417.658,489.2,413.87,512.989,417.722Z" transform="translate(-37.927 -110.401)" fill="#f2f0ff"/>
    <path id="Trazado_25049" data-name="Trazado 25049" d="M144.182,494.218s-15.638-16.273,4.054-25.749,58.872,13.152,77.9-32.568c10.286-24.712,21.72-40.9,38.821-44.124,22.5-4.246,60.755,10.855,90.629,56.935S469.5,431.83,503.089,453.2c18.817,11.969-3.861,41.022-3.861,41.022Z" transform="translate(-19.219 -131.268)" fill="#fff"/>
    <path id="Trazado_25050" data-name="Trazado 25050" d="M112.794,503.6a34.391,34.391,0,0,1,31.662-19.682c17.281,0,38.293,11.176,61.781-12.571,32.135-32.49,24.953-50.853,61.827-57.421,23.923-4.262,25.3,17.331,79.87,50.937s64.715,20.437,108.734,7.669,63.9,18.117,45.949,31.069Z" transform="translate(-8.489 -140.652)" fill="#e9e6ff"/>
    <path id="Trazado_25051" data-name="Trazado 25051" d="M270.69,539.917c26.353,0,35.123-35.344,53.17-38.156,43.422-6.767,38.148,38.738,143.333,38.738S270.69,539.917,270.69,539.917Z" transform="translate(-74.932 -177.549)" fill="#ddd6ff"/>
    <g id="Grupo_14331" data-name="Grupo 14331" transform="translate(326.025 79.149)">
      <g id="Grupo_14325" data-name="Grupo 14325" transform="translate(9.087 0)">
        <rect id="Rectángulo_2774" data-name="Rectángulo 2774" width="3.249" height="1.159" transform="matrix(0.147, -0.989, 0.989, 0.147, 2.869, 3.214)" fill="#ddd6ff"/>
        <rect id="Rectángulo_2775" data-name="Rectángulo 2775" width="3.249" height="1.159" transform="matrix(0.147, -0.989, 0.989, 0.147, 0, 22.496)" fill="#ddd6ff"/>
      </g>
      <g id="Grupo_14326" data-name="Grupo 14326" transform="translate(6.62 0.543)">
        <rect id="Rectángulo_2776" data-name="Rectángulo 2776" width="1.158" height="3.249" transform="matrix(0.93, -0.367, 0.367, 0.93, 0, 0.425)" fill="#ddd6ff"/>
        <rect id="Rectángulo_2777" data-name="Rectángulo 2777" width="1.158" height="3.249" transform="translate(7.157 18.559) rotate(-21.536)" fill="#ddd6ff"/>
      </g>
      <g id="Grupo_14327" data-name="Grupo 14327" transform="translate(2.069 3.807)">
        <rect id="Rectángulo_2778" data-name="Rectángulo 2778" width="1.159" height="3.249" transform="translate(0 0.907) rotate(-51.537)" fill="#ddd6ff"/>
        <rect id="Rectángulo_2779" data-name="Rectángulo 2779" width="1.159" height="3.249" transform="translate(15.265 13.033) rotate(-51.539)" fill="#ddd6ff"/>
      </g>
      <g id="Grupo_14328" data-name="Grupo 14328" transform="translate(0 9.087)">
        <rect id="Rectángulo_2780" data-name="Rectángulo 2780" width="1.159" height="3.249" transform="matrix(0.147, -0.989, 0.989, 0.147, 0, 1.146)" fill="#ddd6ff"/>
        <rect id="Rectángulo_2781" data-name="Rectángulo 2781" width="1.159" height="3.249" transform="translate(19.282 4.015) rotate(-81.542)" fill="#ddd6ff"/>
      </g>
      <g id="Grupo_14329" data-name="Grupo 14329" transform="translate(0.543 6.62)">
        <rect id="Rectángulo_2782" data-name="Rectángulo 2782" width="3.249" height="1.158" transform="translate(0 8.351) rotate(-21.552)" fill="#ddd6ff"/>
        <rect id="Rectángulo_2783" data-name="Rectángulo 2783" width="3.249" height="1.158" transform="translate(18.133 1.193) rotate(-21.542)" fill="#ddd6ff"/>
      </g>
      <g id="Grupo_14330" data-name="Grupo 14330" transform="translate(3.807 2.069)">
        <rect id="Rectángulo_2784" data-name="Rectángulo 2784" width="3.249" height="1.159" transform="matrix(0.622, -0.783, 0.783, 0.622, 0, 17.809)" fill="#ddd6ff"/>
        <rect id="Rectángulo_2785" data-name="Rectángulo 2785" width="3.249" height="1.159" transform="translate(12.126 2.544) rotate(-51.542)" fill="#ddd6ff"/>
      </g>
    </g>
    <path id="Trazado_25052" data-name="Trazado 25052" d="M146.938,325.906H145.78a6.527,6.527,0,0,0-6.52-6.519v-1.158a6.527,6.527,0,0,0,6.52-6.52h1.158a6.527,6.527,0,0,0,6.52,6.52v1.158A6.527,6.527,0,0,0,146.938,325.906Zm-4.753-7.1a7.721,7.721,0,0,1,4.174,4.173,7.722,7.722,0,0,1,4.173-4.173,7.724,7.724,0,0,1-4.173-4.174A7.723,7.723,0,0,1,142.186,318.807Z" transform="translate(-19.626 -97.862)" fill="#ddd6ff"/>
    <path id="Trazado_25053" data-name="Trazado 25053" d="M718.307,235.94a4.086,4.086,0,1,1,4.086-4.086A4.091,4.091,0,0,1,718.307,235.94Zm0-7.014a2.928,2.928,0,1,0,2.927,2.928A2.931,2.931,0,0,0,718.307,228.926Z" transform="translate(-261.573 -62.54)" fill="#ddd6ff"/>
    <path id="Trazado_25054" data-name="Trazado 25054" d="M605.063,341.009A25.6,25.6,0,0,1,587.168,316.6V300.52H495.886V316.6a25.6,25.6,0,0,1-17.895,24.412h0v14.58a110.359,110.359,0,0,0,63.536,99.933h0a110.358,110.358,0,0,0,63.536-99.933v-14.58Z" transform="translate(-162.166 -93.154)" fill="#c4b8ff"/>
    <path id="Trazado_25055" data-name="Trazado 25055" d="M637.139,341.007v14.578a110.35,110.35,0,0,1-63.532,99.934s-19.385-21.534-19.385-72.214v-82.79h65.026v16.078A25.593,25.593,0,0,0,637.139,341.007Z" transform="translate(-194.245 -93.153)" fill="#ddd6ff"/>
    <path id="Trazado_25056" data-name="Trazado 25056" d="M541.529,455.52a110.353,110.353,0,0,1-63.537-99.934V341.007a25.6,25.6,0,0,0,17.9-24.413V300.516h26.255v82.79C522.144,433.985,541.529,455.52,541.529,455.52Z" transform="translate(-162.166 -93.153)" fill="#b3a4f5"/>
    <path id="Trazado_25057" data-name="Trazado 25057" d="M602.678,378.809l-1.132-.247a110.005,110.005,0,0,0,2.518-23.394V341.009a26.074,26.074,0,0,1-17.895-24.833v-15.5H496.044v15.5a26.075,26.075,0,0,1-17.895,24.833v14.159q0,1.014.019,2.024l-1.158.021q-.018-1.02-.018-2.046v-15l.4-.128a24.923,24.923,0,0,0,17.49-23.859V299.52h92.442v16.656a24.923,24.923,0,0,0,17.489,23.859l.405.128v15A111.186,111.186,0,0,1,602.678,378.809Z" transform="translate(-161.745 -92.733)" fill="#40327a"/>
    <path id="Trazado_25058" data-name="Trazado 25058" d="M546.479,516.909l-.246-.115a110.455,110.455,0,0,1-56.475-60.626l1.081-.416a109.3,109.3,0,0,0,55.64,59.878,109.575,109.575,0,0,0,59.186-70.752l1.118.3a110.729,110.729,0,0,1-60.059,71.616Z" transform="translate(-167.118 -153.901)" fill="#40327a"/>
    <path id="Trazado_25059" data-name="Trazado 25059" d="M539.165,447.091A101.677,101.677,0,0,1,492.992,361.9v-8.862a34.142,34.142,0,0,0,17.9-30.13v-7.391h17.567v5.792H516.68v1.6a40,40,0,0,1-17.9,33.4V361.9a95.835,95.835,0,0,0,36.6,75.359A103.576,103.576,0,0,0,539.165,447.091Z" transform="translate(-168.479 -99.465)" fill="#ffaa45"/>
    <path id="Trazado_25060" data-name="Trazado 25060" d="M558.133,532.067l0,0c-.348-.278-.7-.562-1.048-.846C557.428,531.511,557.782,531.787,558.133,532.067Z" transform="translate(-195.448 -190.237)" fill="#ffaa45"/>
    <path id="Trazado_25061" data-name="Trazado 25061" d="M601.1,360.517v5.589a95.877,95.877,0,0,1-49.052,83.67,94.887,94.887,0,0,1-12.453-8.311,95.834,95.834,0,0,1-36.6-75.359v-5.589a40,40,0,0,0,17.9-33.4v-1.6H583.21v1.6A40.005,40.005,0,0,0,601.1,360.517Z" transform="translate(-172.687 -103.673)" fill="#ffc159"/>
    <path id="Trazado_25062" data-name="Trazado 25062" d="M552.048,449.778a95.883,95.883,0,0,1-49.057-83.669v-5.592a39.995,39.995,0,0,0,17.895-33.4v-1.6h62.323v1.6a40,40,0,0,0,17.895,33.4v5.592a95.881,95.881,0,0,1-49.056,83.669Z" transform="translate(-172.686 -103.674)" fill="#ffc159"/>
    <path id="Trazado_25063" data-name="Trazado 25063" d="M601.1,360.517v5.589a95.877,95.877,0,0,1-49.052,83.67,94.887,94.887,0,0,1-12.453-8.311,95.834,95.834,0,0,1-36.6-75.359v-5.589a40,40,0,0,0,17.9-33.4v-1.6H583.21v1.6A40.005,40.005,0,0,0,601.1,360.517Z" transform="translate(-172.687 -103.673)" fill="#ffc159"/>
    <g id="Grupo_14332" data-name="Grupo 14332" transform="translate(329.058 371.641)">
      <path id="Trazado_25064" data-name="Trazado 25064" d="M500.838,585.148h0Z" transform="translate(-500.838 -584.569)" fill="#ddd6ff"/>
      <rect id="Rectángulo_2786" data-name="Rectángulo 2786" width="123.451" height="1.158" transform="translate(0)" fill="#c4b8ff"/>
    </g>
    <g id="Grupo_14333" data-name="Grupo 14333" transform="translate(379.164 380.468)">
      <path id="Trazado_25065" data-name="Trazado 25065" d="M587.348,600.387h0Z" transform="translate(-587.348 -599.808)" fill="#ddd6ff"/>
      <rect id="Rectángulo_2787" data-name="Rectángulo 2787" width="14.516" height="1.158" transform="translate(0)" fill="#c4b8ff"/>
    </g>
    <g id="Grupo_14334" data-name="Grupo 14334" transform="translate(223.664 380.468)">
      <path id="Trazado_25066" data-name="Trazado 25066" d="M318.872,600.387h0Z" transform="translate(-318.872 -599.808)" fill="#ddd6ff"/>
      <rect id="Rectángulo_2788" data-name="Rectángulo 2788" width="145.652" height="1.158" transform="translate(0)" fill="#c4b8ff"/>
    </g>
    <g id="Grupo_14335" data-name="Grupo 14335" transform="translate(170.946 371.641)">
      <path id="Trazado_25067" data-name="Trazado 25067" d="M227.852,585.148h0Z" transform="translate(-227.852 -584.569)" fill="#ddd6ff"/>
      <rect id="Rectángulo_2789" data-name="Rectángulo 2789" width="138.689" height="1.158" fill="#c4b8ff"/>
    </g>
    <rect id="Rectángulo_2790" data-name="Rectángulo 2790" width="423.11" height="1.158" transform="translate(92.621 362.37)" fill="#b3a4f5"/>
    <rect id="Rectángulo_2791" data-name="Rectángulo 2791" width="5.322" height="1.158" transform="translate(138.273 362.37)" fill="#40327a"/>
    <rect id="Rectángulo_2792" data-name="Rectángulo 2792" width="64.622" height="1.158" transform="translate(334.674 362.371)" fill="#40327a"/>
    <rect id="Rectángulo_2793" data-name="Rectángulo 2793" width="5.322" height="1.158" transform="translate(312.863 362.37)" fill="#40327a"/>
    <rect id="Rectángulo_2794" data-name="Rectángulo 2794" width="72.191" height="1.158" transform="translate(195.758 362.37)" fill="#40327a"/>
    <path id="Trazado_25068" data-name="Trazado 25068" d="M482.72,441.573c-.613-2.215-1.164-4.482-1.638-6.738l1.133-.239c.469,2.233,1.015,4.476,1.621,6.668Z" transform="translate(-163.467 -149.574)" fill="#40327a"/>
    <path id="Trazado_25069" data-name="Trazado 25069" d="M628.451,353.036V361.9a101.677,101.677,0,0,1-54.845,90.25c-.5-.255-.99-.521-1.482-.788-.51-.272-1.02-.55-1.524-.834q-1.251-.7-2.485-1.442l-.608-.365c-.337-.208-.678-.417-1.014-.631-.528-.324-1.049-.66-1.564-1a103.608,103.608,0,0,1-3.776-9.835,94.884,94.884,0,0,0,12.453,8.311,95.876,95.876,0,0,0,49.052-83.67v-5.589a40.005,40.005,0,0,1-17.891-33.4v-1.6H554.221v-5.792H610.56v7.391A34.148,34.148,0,0,0,628.451,353.036Z" transform="translate(-194.244 -99.465)" fill="#ffc159"/>
    <path id="Trazado_25070" data-name="Trazado 25070" d="M622.659,360.517v5.589a95.876,95.876,0,0,1-49.052,83.67,94.89,94.89,0,0,1-12.453-8.311c-3.77-11.456-6.933-27.17-6.933-47.639v-68.31h50.547v1.6A40.005,40.005,0,0,0,622.659,360.517Z" transform="translate(-194.244 -103.673)" fill="#ffd259"/>
    <path id="Trazado_25071" data-name="Trazado 25071" d="M640.269,315.516v1.106l-5.769,7.651c-.018-.458-.023-.909-.023-1.367v-1.6h-9.655l4.367-5.792Z" transform="translate(-223.954 -99.465)" fill="#ffd259"/>
    <path id="Trazado_25072" data-name="Trazado 25072" d="M604.791,328.481l-50.558,67.036c-.012-.562-.012-1.124-.012-1.691V379.734l40.892-54.218h9.655v1.6C604.768,327.572,604.773,328.024,604.791,328.481Z" transform="translate(-194.244 -103.673)" fill="#ffe159"/>
    <path id="Trazado_25073" data-name="Trazado 25073" d="M554.231,445.136l.284.353-.278.365C554.231,445.617,554.231,445.379,554.231,445.136Z" transform="translate(-194.248 -154.01)" fill="#ffd4cc"/>
    <path id="Trazado_25074" data-name="Trazado 25074" d="M520.9,475.345l-3.729,4.946c-.1-.151-.2-.307-.3-.463-.886-1.4-1.738-2.8-2.548-4.234-.145-.249-.29-.5-.429-.759q-.686-1.234-1.343-2.485c-.168-.324-.336-.654-.5-.985-.005-.017-.017-.029-.023-.046l3.909-5.184A96.089,96.089,0,0,0,520.9,475.345Z" transform="translate(-176.486 -162.847)" fill="#ffc159"/>
    <path id="Trazado_25075" data-name="Trazado 25075" d="M539.315,434.909,523.74,455.563a96.107,96.107,0,0,1-4.969-9.209L539.3,419.126v14.092C539.3,433.785,539.3,434.347,539.315,434.909Z" transform="translate(-179.327 -143.064)" fill="#ffd259"/>
    <path id="Trazado_25076" data-name="Trazado 25076" d="M664.03,363.53l-1.649,2.185c-.336.445-1.269,2.247-1.809,2.4-.332.092-1.808-1.288-2.12-1.542q-1.212-.988-2.345-2.068a39.892,39.892,0,0,1-7.871-10.5c-.288-.556-1.527-2.386-1.42-3.044.028-.177.3-.348.384-.51.9-1.776,2.576-3.415,3.78-5.01A33.993,33.993,0,0,0,664.03,363.53Z" transform="translate(-233.207 -112.055)" fill="#ffd259"/>
    <path id="Trazado_25077" data-name="Trazado 25077" d="M654.695,347.469c-.255-.666-.48-1.344-.683-2.033Q654.324,346.47,654.695,347.469Z" transform="translate(-236.237 -112.055)" fill="#ffe159"/>
    <path id="Trazado_25078" data-name="Trazado 25078" d="M622.253,372.168l-60.775,80.595a139.086,139.086,0,0,1-5.647-27.923l52.7-69.874A39.887,39.887,0,0,0,622.253,372.168Z" transform="translate(-194.922 -116.066)" fill="#ffe159"/>
    <path id="Trazado_25079" data-name="Trazado 25079" d="M551.3,513.589l-3.493,4.634a101.559,101.559,0,0,1-12.823-12.233c-.451-.513-2.481-2.345-2.429-2.951.031-.36.8-1.055,1.016-1.346l2.548-3.377A95.714,95.714,0,0,0,551.3,513.589Z" transform="translate(-185.128 -176.388)" fill="#ffc159"/>
    <path id="Trazado_25080" data-name="Trazado 25080" d="M554.274,503.529l-.382.5a95.594,95.594,0,0,1-15.181-15.273l9.916-13.153A139.077,139.077,0,0,0,554.274,503.529Z" transform="translate(-187.717 -166.832)" fill="#ffd259"/>
    <path id="Trazado_25081" data-name="Trazado 25081" d="M645,502.652l-.911-.716q.806-1.027,1.587-2.076l.93.692Q645.813,501.613,645,502.652Z" transform="translate(-232.06 -177.038)" fill="#fff"/>
    <path id="Trazado_25082" data-name="Trazado 25082" d="M597.567,418.818l-.959-.649c.546-.806,1.087-1.63,1.608-2.449A100.932,100.932,0,0,0,614,361.48v-8.523A34.771,34.771,0,0,1,596.1,322.489v-6.81H523.355v6.81a35.282,35.282,0,0,1-.982,8.278l-1.127-.273a34.081,34.081,0,0,0,.951-8.005V314.52h75.066v7.969A33.612,33.612,0,0,0,614.853,352.1l.3.164v9.211a102.082,102.082,0,0,1-15.964,54.859C598.667,417.169,598.119,418,597.567,418.818Z" transform="translate(-180.368 -99.046)" fill="#fff"/>
    <path id="Trazado_25083" data-name="Trazado 25083" d="M517.567,353.447l-1.032-.527c.436-.854.839-1.736,1.2-2.621l1.073.435C518.435,351.651,518.018,352.564,517.567,353.447Z" transform="translate(-178.386 -114.102)" fill="#fff"/>
    <path id="Trazado_25084" data-name="Trazado 25084" d="M547.419,473.284l-.267-.139a102.253,102.253,0,0,1-55.161-90.762v-9.211l.3-.164a33.358,33.358,0,0,0,10.447-8.815l.912.715a34.5,34.5,0,0,1-10.5,8.953v8.523a101.092,101.092,0,0,0,54.269,89.6,100.822,100.822,0,0,0,24.505-17.95l.817.821a102.008,102.008,0,0,1-25.056,18.3Z" transform="translate(-168.057 -119.948)" fill="#fff"/>
    <path id="Trazado_25085" data-name="Trazado 25085" d="M608.722,380.262,574.452,425.7H567.1l-.22-.272,36.883-48.9Z" transform="translate(-199.572 -125.138)" fill="#fff"/>
    <path id="Trazado_25086" data-name="Trazado 25086" d="M561.71,423.694l-7.2,9.545-.284-.353c-.005-.324-.005-.649-.005-.973V417.821l1.355-1.8Z" transform="translate(-194.245 -141.76)" fill="#fff"/>
    <path id="Trazado_25087" data-name="Trazado 25087" d="M555.577,415.306l-1.355,1.8v-2.334l.562-.452Z" transform="translate(-194.244 -141.04)" fill="#f8f7ff"/>
    <path id="Trazado_25088" data-name="Trazado 25088" d="M598.648,374.173l-36.883,48.9-7.043-8.81,7.2-9.545L565.5,409.2l28.855-38.262Z" transform="translate(-194.455 -122.786)" fill="#f8f7ff"/>
    <path id="Trazado_25089" data-name="Trazado 25089" d="M548.062,432.495l-5.849-7.315-2.641-3.3,8.485-6.782v16.426C548.057,431.846,548.057,432.171,548.062,432.495Z" transform="translate(-188.08 -141.369)" fill="#e9e6ff"/>
    <path id="Trazado_25090" data-name="Trazado 25090" d="M549.981,434.191l-5.849-7.315,5.844-7.75v14.092C549.976,433.542,549.976,433.866,549.981,434.191Z" transform="translate(-189.999 -143.064)" fill="#f2f0ff"/>
    <path id="Trazado_25091" data-name="Trazado 25091" d="M573.554,436.4h-7.917l-1.574-1.966.9-.724,1.227,1.532h6.783l26.142-34.66.925.7Z" transform="translate(-198.386 -135.261)" fill="#8b77e8"/>
    <rect id="Rectángulo_2795" data-name="Rectángulo 2795" width="1.853" height="1.159" transform="matrix(0.602, -0.798, 0.798, 0.602, 401.634, 264.127)" fill="#8b77e8"/>
    <rect id="Rectángulo_2796" data-name="Rectángulo 2796" width="7.699" height="1.159" transform="matrix(0.602, -0.798, 0.798, 0.602, 404.051, 260.921)" fill="#8b77e8"/>
    <rect id="Rectángulo_2797" data-name="Rectángulo 2797" width="1.158" height="16.821" transform="translate(360.086 273.637) rotate(-38.654)" fill="#8b77e8"/>
    <path id="Trazado_25092" data-name="Trazado 25092" d="M640.06,298.049l2.417,9.738,9.738,2.417-9.738,2.417-2.417,9.738-2.417-9.738-9.738-2.417,9.738-2.417Z" transform="translate(-225.251 -92.115)" fill="#fff"/>
    <path id="Trazado_25093" data-name="Trazado 25093" d="M626.956,325.52l1.139,4.588,4.588,1.139-4.588,1.139-1.139,4.588-1.139-4.588-4.588-1.139,4.588-1.139Z" transform="translate(-222.442 -103.675)" fill="#fff"/>
    <path id="Trazado_25094" data-name="Trazado 25094" d="M644.49,349.453l.635,2.558,2.558.635-2.558.635-.635,2.558-.635-2.558-2.558-.635,2.558-.635Z" transform="translate(-230.886 -113.745)" fill="#fff"/>
    <rect id="Rectángulo_2798" data-name="Rectángulo 2798" width="6.354" height="1.158" transform="translate(404.193 362.37)" fill="#40327a"/>
    <g id="Grupo_14336" data-name="Grupo 14336" transform="translate(197.487 187.733)">
      <path id="Trazado_25095" data-name="Trazado 25095" d="M315.757,317.522h0a4.864,4.864,0,0,0-6.877,0l-2.713,2.712a3.441,3.441,0,0,1-5.874-2.433h0a3.443,3.443,0,0,1,1.008-2.434l14.457-14.457a4.864,4.864,0,0,0,0-6.879h0a4.864,4.864,0,0,0-6.877,0l-2.713,2.712a3.441,3.441,0,0,1-5.874-2.434V271.487a4.864,4.864,0,0,0-4.863-4.863h0a4.864,4.864,0,0,0-4.864,4.863V294.31a3.442,3.442,0,0,1-5.875,2.434l-2.712-2.712a4.864,4.864,0,0,0-6.877,0h0a4.863,4.863,0,0,0,0,6.879l14.457,14.457a3.443,3.443,0,0,1,1.008,2.434h0a3.441,3.441,0,0,1-5.874,2.433l-2.712-2.712a4.864,4.864,0,0,0-6.877,0h0a4.863,4.863,0,0,0,0,6.879l14.457,14.457a3.441,3.441,0,0,1,1.008,2.433h0a3.441,3.441,0,0,1-5.874,2.434l-2.712-2.712a4.863,4.863,0,0,0-6.877,0h0a4.863,4.863,0,0,0,0,6.879l14.457,14.457a3.441,3.441,0,0,1,1.008,2.433h0a3.441,3.441,0,0,1-5.874,2.434l-2.712-2.712a4.864,4.864,0,0,0-6.877,0h0a4.864,4.864,0,0,0,0,6.88l20.329,20.328,20.328-20.328a4.865,4.865,0,0,0,0-6.88h0a4.864,4.864,0,0,0-6.877,0l-2.713,2.712a3.441,3.441,0,0,1-5.874-2.434h0a3.441,3.441,0,0,1,1.008-2.433l14.457-14.457a4.864,4.864,0,0,0,0-6.879h0a4.863,4.863,0,0,0-6.877,0l-2.713,2.712a3.441,3.441,0,0,1-5.874-2.434h0a3.441,3.441,0,0,1,1.008-2.433L315.758,324.4A4.864,4.864,0,0,0,315.757,317.522Z" transform="translate(-273.676 -266.624)" fill="#ddd6ff"/>
      <rect id="Rectángulo_2799" data-name="Rectángulo 2799" width="1.158" height="135.923" transform="translate(21.174 39.293)" fill="#b3a4f5"/>
    </g>
    <g id="Grupo_14340" data-name="Grupo 14340" transform="translate(152.868 315.684)">
      <g id="Grupo_14339" data-name="Grupo 14339" transform="translate(0.579)">
        <path id="Trazado_25096" data-name="Trazado 25096" d="M239.495,504.451a8.458,8.458,0,1,1,8.457-8.458A8.468,8.468,0,0,1,239.495,504.451Zm0-15.757a7.3,7.3,0,1,0,7.3,7.3A7.307,7.307,0,0,0,239.495,488.694Z" transform="translate(-211.693 -487.536)" fill="#40327a"/>
        <g id="Grupo_14338" data-name="Grupo 14338" transform="translate(0 8.457)">
          <g id="Grupo_14337" data-name="Grupo 14337">
            <rect id="Rectángulo_2800" data-name="Rectángulo 2800" width="55.603" height="38.227" fill="#ffd259"/>
          </g>
        </g>
        <rect id="Rectángulo_2801" data-name="Rectángulo 2801" width="5.792" height="38.227" transform="translate(49.811 8.457)" fill="#40327a"/>
        <rect id="Rectángulo_2802" data-name="Rectángulo 2802" width="49.811" height="1.158" transform="translate(0 26.992)" fill="#40327a"/>
        <rect id="Rectángulo_2803" data-name="Rectángulo 2803" width="8.109" height="5.213" transform="translate(20.851 26.992)" fill="#fff"/>
      </g>
      <path id="Trazado_25097" data-name="Trazado 25097" d="M197.8,539.944h-1.158V501.138h56.182V502.3H197.8Z" transform="translate(-196.639 -493.26)" fill="#fff"/>
    </g>
    <g id="Grupo_14341" data-name="Grupo 14341" transform="translate(147.117 362.37)">
      <path id="Trazado_25098" data-name="Trazado 25098" d="M217.337,569.141h0Z" transform="translate(-186.71 -568.561)" fill="#f8f7ff"/>
      <rect id="Rectángulo_2804" data-name="Rectángulo 2804" width="30.627" height="1.158" transform="translate(0)" fill="#40327a"/>
    </g>
    <path id="Trazado_25099" data-name="Trazado 25099" d="M387,227.016c1.838-2.436,3.674-4.811,3.775-8.408.248-8.862-3.693-9.315-3.089-18.166s7.168-8.319,7.772-17.171a10.978,10.978,0,0,0-.191-3.052,22.39,22.39,0,0,1-1.646-3.724c-.079-.226-.151-.458-.217-.683a22.811,22.811,0,1,1,43.263,1.213c-.079.221-.163.436-.248.657l-.007.006a22.617,22.617,0,0,1-1.859,3.645,11.19,11.19,0,0,0-.354,3.023c.107,8.872,6.684,8.708,6.79,17.579s-3.854,9.1-4.1,17.965c-.1,3.6,1.6,6.071,3.3,8.606s3.389,5.141,3.282,8.967a19.877,19.877,0,0,1-20.431,19.316l-20.511-.575a19.873,19.873,0,0,1-19.31-20.43C383.325,231.959,385.165,229.457,387,227.016Z" transform="translate(-122.282 -28.291)" fill="#40327a"/>
    <path id="Trazado_25100" data-name="Trazado 25100" d="M566.676,297.413a2.9,2.9,0,1,0-3.267,2.47A2.9,2.9,0,0,0,566.676,297.413Z" transform="translate(-197.059 -90.46)" fill="#ff95a9"/>
    <path id="Trazado_25101" data-name="Trazado 25101" d="M571.778,291.864v0a4.053,4.053,0,1,1,.217,7.992l-6.884-.957-.155-5.712Z" transform="translate(-198.761 -89.481)" fill="#ff95a9"/>
    <path id="Trazado_25102" data-name="Trazado 25102" d="M499.813,282.018a5.471,5.471,0,1,1-4.666-6.172A5.471,5.471,0,0,1,499.813,282.018Z" transform="translate(-166.766 -82.749)" fill="#ffc7bd"/>
    <path id="Trazado_25103" data-name="Trazado 25103" d="M460.672,238.435l21.495,23.414-7.555,7.884-24.337-20.448Z" transform="translate(-150.503 -67.029)" fill="#ffc7bd"/>
    <path id="Trazado_25104" data-name="Trazado 25104" d="M499.274,276.131l38.437,10.521-1.167,5.661-39.474-5.487Z" transform="translate(-170.194 -82.891)" fill="#ff95a9"/>
    <circle id="Elipse_745" data-name="Elipse 745" cx="7.53" cy="7.53" r="7.53" transform="translate(294.03 175.336) rotate(-38.768)" fill="#ffc7bd"/>
    <path id="Trazado_25105" data-name="Trazado 25105" d="M532.511,285.227l-1.309,6.344-34.134-4.745,2.206-10.7Z" transform="translate(-170.194 -82.89)" fill="#ffc7bd"/>
    <path id="Trazado_25106" data-name="Trazado 25106" d="M456.18,168.327l-2.891-9.587Z" transform="translate(-151.771 -33.492)" fill="none"/>
    <circle id="Elipse_746" data-name="Elipse 746" cx="13.467" cy="13.467" r="13.467" transform="matrix(0.856, -0.517, 0.517, 0.856, 274.813, 213.6)" fill="#ffc7bd"/>
    <circle id="Elipse_747" data-name="Elipse 747" cx="3.765" cy="3.765" r="3.765" transform="translate(251.157 353.391)" fill="#8b77e8"/>
    <circle id="Elipse_748" data-name="Elipse 748" cx="3.765" cy="3.765" r="3.765" transform="translate(294.028 353.391)" fill="#8b77e8"/>
    <path id="Trazado_25107" data-name="Trazado 25107" d="M442.62,241.015l-5.348,41.824-26.845-2.178-7.518-44.988a4.634,4.634,0,0,1,4.945-5.382l27.906,2.264A7.529,7.529,0,0,1,442.62,241.015Z" transform="translate(-130.544 -63.595)" fill="#ffc7bd"/>
    <path id="Trazado_25108" data-name="Trazado 25108" d="M436.108,319.131H409.175l-1.452,1.128a20.057,20.057,0,0,0-7.75,15.837v5.793A8.109,8.109,0,0,0,408.082,350h23.391a8.108,8.108,0,0,0,8.109-8.109v-7.932A33.379,33.379,0,0,0,436.108,319.131Z" transform="translate(-129.336 -100.986)" fill="#8b77e8"/>
    <path id="Trazado_25109" data-name="Trazado 25109" d="M465.292,261.566a7.5,7.5,0,0,0-.276-2.692l.009,0-4.414-15.3-14.474,4.171,4.414,15.3.008,0a7.525,7.525,0,0,0,14.733-1.475Z" transform="translate(-148.762 -69.189)" fill="#ffc7bd"/>
    <rect id="Rectángulo_2805" data-name="Rectángulo 2805" width="1.159" height="2.38" transform="matrix(0.961, -0.277, 0.277, 0.961, 312.318, 178.094)" fill="#ff95a9"/>
    <path id="Trazado_25110" data-name="Trazado 25110" d="M463.162,274.77q-.328,0-.661-.026a8.014,8.014,0,0,1-3.6-1.184l.61-.985a6.844,6.844,0,0,0,3.088,1.013,6.933,6.933,0,0,0,7.234-8.85l-.163-.568.008,0-1.939-6.724,1.113-.321,2.268,7.86-.029.008a8.019,8.019,0,0,1,.154,2.325A8.12,8.12,0,0,1,463.162,274.77Z" transform="translate(-154.131 -74.893)" fill="#ff95a9"/>
    <circle id="Elipse_749" data-name="Elipse 749" cx="7.529" cy="7.529" r="7.529" transform="translate(269.407 166.691)" fill="#ffc7bd"/>
    <path id="Trazado_25111" data-name="Trazado 25111" d="M384.38,232.371l-26.724,17.206,5.312,9.541L391.69,245.5Z" transform="translate(-111.528 -64.477)" fill="#ffc7bd"/>
    <circle id="Elipse_750" data-name="Elipse 750" cx="8.109" cy="8.109" r="8.109" transform="translate(294.028 232.792)" fill="#8b77e8"/>
    <circle id="Elipse_751" data-name="Elipse 751" cx="8.109" cy="8.109" r="8.109" transform="translate(270.637 232.792)" fill="#8b77e8"/>
    <path id="Trazado_25112" data-name="Trazado 25112" d="M447.887,559.138h-7.53v5.213h10.549a1.614,1.614,0,0,0,1.614-1.614h0a1.614,1.614,0,0,0-.81-1.4Z" transform="translate(-146.329 -201.982)" fill="#40327a"/>
    <circle id="Elipse_752" data-name="Elipse 752" cx="6.551" cy="6.551" r="6.551" transform="translate(294.028 276.278)" fill="#8b77e8"/>
    <g id="Grupo_14342" data-name="Grupo 14342" transform="translate(294.028 240.901)">
      <path id="Trazado_25113" data-name="Trazado 25113" d="M440.358,358.419v41.928l13.083.493,3.112-41.811Z" transform="translate(-440.357 -358.419)" fill="#ff95a9"/>
    </g>
    <g id="Grupo_14343" data-name="Grupo 14343" transform="translate(287.32 151.821)">
      <rect id="Rectángulo_2806" data-name="Rectángulo 2806" width="12.742" height="15.69" transform="translate(14.586 15.57) rotate(172.892)" fill="#ff95a9"/>
      <path id="Trazado_25114" data-name="Trazado 25114" d="M432.091,229.022a6.371,6.371,0,1,0,5.534-7.111A6.371,6.371,0,0,0,432.091,229.022Z" transform="translate(-430.15 -211.875)" fill="#ff95a9"/>
    </g>
    <path id="Trazado_25115" data-name="Trazado 25115" d="M424.226,193.679l2.873-.359-.716-5.747-2.874.359a2.9,2.9,0,0,0-2.515,3.232h0A2.9,2.9,0,0,0,424.226,193.679Z" transform="translate(-138.172 -45.625)" fill="#ff95a9"/>
    <path id="Trazado_25116" data-name="Trazado 25116" d="M445.592,164.553l-21.6,2.693,3.477,27.882,13.415-1.673a9.387,9.387,0,0,0,8.064-11.049Z" transform="translate(-139.443 -35.938)" fill="#ff95a9"/>
    <path id="Trazado_25117" data-name="Trazado 25117" d="M424.424,174.462l-.575.072-2.07-16.6,17.109-2.133a8.244,8.244,0,0,1,9.2,7.161l.041.326-.575.071a22.661,22.661,0,0,0-12.991,6.238h0a17.687,17.687,0,0,1-10.138,4.868Z" transform="translate(-138.512 -32.228)" fill="#40327a"/>
    <path id="Trazado_25118" data-name="Trazado 25118" d="M441.4,246.172l1.083-13.355-20.362-1.652Z" transform="translate(-138.655 -63.969)" fill="#ff95a9"/>
    <path id="Trazado_25119" data-name="Trazado 25119" d="M453.44,431.308l-5.564,74.115-7.519-.286V430.81Z" transform="translate(-146.33 -147.981)" fill="#ff95a9"/>
    <path id="Trazado_25120" data-name="Trazado 25120" d="M399.423,327.124a2.9,2.9,0,1,1-2.554-3.2A2.9,2.9,0,0,1,399.423,327.124Z" transform="translate(-126.674 -102.994)" fill="#ff95a9"/>
    <path id="Trazado_25121" data-name="Trazado 25121" d="M404.07,332.772a4.04,4.04,0,0,1-1.282-.368v0l-6.281-2.977,1.566-5.5,6.907.779a4.054,4.054,0,0,1-.909,8.058Z" transform="translate(-127.877 -103.007)" fill="#ff95a9"/>
    <circle id="Elipse_753" data-name="Elipse 753" cx="5.471" cy="5.471" r="5.471" transform="translate(243.545 184.306) rotate(-0.83)" fill="#ffc7bd"/>
    <path id="Trazado_25122" data-name="Trazado 25122" d="M355.052,271.318l22.882,32.627,4.935-3.01-18.494-35.3Z" transform="translate(-110.433 -78.473)" fill="#ff95a9"/>
    <path id="Trazado_25123" data-name="Trazado 25123" d="M374.836,299.529l5.53-3.374-15.992-30.527-9.325,5.689Z" transform="translate(-110.431 -78.471)" fill="#ffc7bd"/>
    <path id="Trazado_25124" data-name="Trazado 25124" d="M385.969,356.1,366.429,473.072l7.371,1.518,28.045-115.224Z" transform="translate(-115.22 -116.541)" fill="#ff95a9"/>
    <path id="Trazado_25125" data-name="Trazado 25125" d="M362.973,559.138h7.53v5.213H359.953a1.614,1.614,0,0,1-1.614-1.614h0a1.614,1.614,0,0,1,.81-1.4Z" transform="translate(-111.816 -201.982)" fill="#40327a"/>
    <path id="Trazado_25126" data-name="Trazado 25126" d="M455.246,199.477a3.186,3.186,0,0,1-6.305.92Z" transform="translate(-149.942 -50.635)" fill="#fff"/>
    <rect id="Rectángulo_2807" data-name="Rectángulo 2807" width="3.393" height="1.158" transform="translate(251.162 353.295) rotate(-80.5)" fill="#624ac9"/>
    <rect id="Rectángulo_2808" data-name="Rectángulo 2808" width="1.158" height="3.746" transform="translate(293.449 265.892)" fill="#624ac9"/>
    <rect id="Rectángulo_2809" data-name="Rectángulo 2809" width="2.479" height="1.158" transform="translate(259.171 190.335) rotate(-25.365)" fill="#ff95a9"/>
    <rect id="Rectángulo_2810" data-name="Rectángulo 2810" width="15.565" height="1.158" transform="matrix(0.904, -0.428, 0.428, 0.904, 263.486, 188.289)" fill="#ff95a9"/>
    <path id="Trazado_25127" data-name="Trazado 25127" d="M388.82,395.432h43.263l2.783-37.38L395.391,356.1Z" transform="translate(-124.642 -116.541)" fill="#8b77e8"/>
    <rect id="Rectángulo_2811" data-name="Rectángulo 2811" width="105.903" height="1.158" transform="matrix(0.165, -0.986, 0.986, 0.165, 252.048, 347.897)" fill="#624ac9"/>
    <rect id="Rectángulo_2812" data-name="Rectángulo 2812" width="1.158" height="67.999" transform="translate(293.449 285.392)" fill="#624ac9"/>
    <rect id="Rectángulo_2813" data-name="Rectángulo 2813" width="1.158" height="6.546" transform="translate(329.08 204.813) rotate(-82.064)" fill="#ff95a9"/>
    <rect id="Rectángulo_2814" data-name="Rectángulo 2814" width="1.158" height="23.302" transform="translate(337.85 206.036) rotate(-82.06)" fill="#ff95a9"/>
  </g>
</svg>
