<svg xmlns="http://www.w3.org/2000/svg" width="241.021" height="199.662" viewBox="0 0 241.021 199.662">
  <g id="Grupo_12971" data-name="Grupo 12971" transform="translate(-8925.709 -441.629)">
    <g id="Color" transform="translate(8926.868 548.04)">
      <g id="Grupo_12481" data-name="Grupo 12481" transform="translate(168.226 50.757)">
        <path id="Trazado_20277" data-name="Trazado 20277" d="M10031.8,1458.765l-4.37,7.087h-5.524v23.98h64.142v-23.98h-44.443Z" transform="translate(-10021.91 -1458.765)" fill="#ff5a5a"/>
      </g>
      <g id="Grupo_12486" data-name="Grupo 12486" transform="translate(0 0)">
        <g id="Grupo_12482" data-name="Grupo 12482" transform="translate(5.154 80.863)">
          <rect id="Rectángulo_2312" data-name="Rectángulo 2312" width="26.735" height="11.229" fill="#ffd571"/>
        </g>
        <g id="Grupo_12483" data-name="Grupo 12483" transform="translate(5.154 61.147)">
          <rect id="Rectángulo_2313" data-name="Rectángulo 2313" width="26.735" height="11.229" fill="#ffd571"/>
        </g>
        <g id="Grupo_12484" data-name="Grupo 12484" transform="translate(5.154 41.432)">
          <rect id="Rectángulo_2314" data-name="Rectángulo 2314" width="26.735" height="11.229" fill="#ffd571"/>
        </g>
        <g id="Grupo_12485" data-name="Grupo 12485">
          <path id="Trazado_20278" data-name="Trazado 20278" d="M8933.209,1158.67h4.895v4.945h26.887v-4.945h5.262l-18.521-28.388Z" transform="translate(-8933.209 -1130.282)" fill="#ffd571"/>
        </g>
      </g>
    </g>
    <g id="CONTRACT" transform="translate(8925.709 441.629)">
      <g id="Grupo_12518" data-name="Grupo 12518" transform="translate(57.972 0)">
        <g id="Grupo_12512" data-name="Grupo 12512">
          <g id="Grupo_12487" data-name="Grupo 12487">
            <path id="Trazado_20279" data-name="Trazado 20279" d="M9302.041,593.889a1.2,1.2,0,0,1-.818-.378,1.254,1.254,0,0,1-.34-.858V455.186a13.538,13.538,0,1,1,21.1,11.223h100.039a1.16,1.16,0,0,1,1.16,1.159,1.144,1.144,0,0,1-.1.47,1.223,1.223,0,0,1,.021.225V592.575a1.193,1.193,0,0,1-1.158,1.2l-119.908.116Zm12.381-149.942a11.237,11.237,0,0,0-11.223,11.226v136.32l117.59-.076V468.727H9314.422a1.159,1.159,0,1,1,0-2.318,11.231,11.231,0,0,0,0-22.463Z" transform="translate(-9300.883 -441.629)" fill="#1e243a"/>
          </g>
          <g id="Grupo_12488" data-name="Grupo 12488" transform="translate(119.971 0.005)">
            <path id="Trazado_20280" data-name="Trazado 20280" d="M10078.452,468.737a1.159,1.159,0,0,1,0-2.318,11.221,11.221,0,1,0,0-22.443,1.159,1.159,0,0,1,0-2.318,13.539,13.539,0,1,1,0,27.078Z" transform="translate(-10077.294 -441.659)" fill="#1e243a"/>
          </g>
          <g id="Grupo_12489" data-name="Grupo 12489" transform="translate(12.439 0.057)">
            <path id="Trazado_20281" data-name="Trazado 20281" d="M9490.089,444.318H9382.543a1.159,1.159,0,1,1,0-2.318h107.546a1.159,1.159,0,0,1,0,2.318Z" transform="translate(-9381.383 -442)" fill="#1e243a"/>
          </g>
          <g id="Grupo_12511" data-name="Grupo 12511" transform="translate(19.275 35.825)">
            <g id="Grupo_12496" data-name="Grupo 12496">
              <g id="Grupo_12492" data-name="Grupo 12492">
                <g id="Grupo_12490" data-name="Grupo 12490" transform="translate(3.993 1.983)">
                  <path id="Trazado_20282" data-name="Trazado 20282" d="M9455.522,695.51a1.157,1.157,0,0,1-.819-.339l-2.9-2.9a1.158,1.158,0,0,1,1.638-1.639l2.082,2.082,6.064-6.064a1.159,1.159,0,0,1,1.639,1.639l-6.884,6.884A1.153,1.153,0,0,1,9455.522,695.51Z" transform="translate(-9451.463 -686.309)" fill="#1e243a"/>
                </g>
                <g id="Grupo_12491" data-name="Grupo 12491">
                  <path id="Trazado_20283" data-name="Trazado 20283" d="M9433.938,690.1a8.314,8.314,0,0,1,0-16.628,1.159,1.159,0,1,1,0,2.318,6,6,0,1,0,6,6,1.159,1.159,0,1,1,2.317,0A8.323,8.323,0,0,1,9433.938,690.1Z" transform="translate(-9425.624 -673.476)" fill="#1e243a"/>
                </g>
              </g>
              <g id="Grupo_12495" data-name="Grupo 12495" transform="translate(21.286 3.789)">
                <g id="Grupo_12493" data-name="Grupo 12493">
                  <path id="Trazado_20284" data-name="Trazado 20284" d="M9601.317,700.318h-36.774a1.159,1.159,0,1,1,0-2.318h36.774a1.159,1.159,0,1,1,0,2.318Z" transform="translate(-9563.384 -698)" fill="#1e243a"/>
                </g>
                <g id="Grupo_12494" data-name="Grupo 12494" transform="translate(0 6.953)">
                  <path id="Trazado_20285" data-name="Trazado 20285" d="M9624.649,745.318h-60.106a1.159,1.159,0,1,1,0-2.318h60.106a1.159,1.159,0,1,1,0,2.318Z" transform="translate(-9563.384 -743)" fill="#1e243a"/>
                </g>
              </g>
            </g>
            <g id="Grupo_12503" data-name="Grupo 12503" transform="translate(0 29.41)">
              <g id="Grupo_12499" data-name="Grupo 12499">
                <g id="Grupo_12497" data-name="Grupo 12497" transform="translate(3.993 1.983)">
                  <path id="Trazado_20286" data-name="Trazado 20286" d="M9455.522,885.844a1.156,1.156,0,0,1-.819-.339l-2.9-2.9a1.158,1.158,0,0,1,1.638-1.639l2.082,2.081,6.064-6.064a1.159,1.159,0,0,1,1.639,1.639l-6.884,6.884A1.153,1.153,0,0,1,9455.522,885.844Z" transform="translate(-9451.463 -876.642)" fill="#1e243a"/>
                </g>
                <g id="Grupo_12498" data-name="Grupo 12498">
                  <path id="Trazado_20287" data-name="Trazado 20287" d="M9433.938,880.436a8.314,8.314,0,0,1,0-16.627,1.159,1.159,0,1,1,0,2.318,6,6,0,1,0,6,6,1.159,1.159,0,1,1,2.317,0A8.323,8.323,0,0,1,9433.938,880.436Z" transform="translate(-9425.624 -863.809)" fill="#1e243a"/>
                </g>
              </g>
              <g id="Grupo_12502" data-name="Grupo 12502" transform="translate(21.286 3.738)">
                <g id="Grupo_12500" data-name="Grupo 12500">
                  <path id="Trazado_20288" data-name="Trazado 20288" d="M9601.317,890.318h-36.774a1.159,1.159,0,1,1,0-2.318h36.774a1.159,1.159,0,1,1,0,2.318Z" transform="translate(-9563.384 -888)" fill="#1e243a"/>
                </g>
                <g id="Grupo_12501" data-name="Grupo 12501" transform="translate(0 6.953)">
                  <path id="Trazado_20289" data-name="Trazado 20289" d="M9624.649,935.318h-60.106a1.159,1.159,0,1,1,0-2.318h60.106a1.159,1.159,0,1,1,0,2.318Z" transform="translate(-9563.384 -933)" fill="#1e243a"/>
                </g>
              </g>
            </g>
            <g id="Grupo_12510" data-name="Grupo 12510" transform="translate(0 58.821)">
              <g id="Grupo_12506" data-name="Grupo 12506">
                <g id="Grupo_12504" data-name="Grupo 12504" transform="translate(3.993 1.983)">
                  <path id="Trazado_20290" data-name="Trazado 20290" d="M9455.522,1076.177a1.157,1.157,0,0,1-.819-.339l-2.9-2.9a1.159,1.159,0,0,1,1.638-1.639l2.082,2.082,6.064-6.064a1.159,1.159,0,0,1,1.639,1.639l-6.884,6.884A1.153,1.153,0,0,1,9455.522,1076.177Z" transform="translate(-9451.463 -1066.976)" fill="#1e243a"/>
                </g>
                <g id="Grupo_12505" data-name="Grupo 12505">
                  <path id="Trazado_20291" data-name="Trazado 20291" d="M9433.938,1070.77a8.314,8.314,0,0,1,0-16.628,1.159,1.159,0,1,1,0,2.318,6,6,0,1,0,6,6,1.159,1.159,0,1,1,2.317,0A8.323,8.323,0,0,1,9433.938,1070.77Z" transform="translate(-9425.624 -1054.142)" fill="#1e243a"/>
                </g>
              </g>
              <g id="Grupo_12509" data-name="Grupo 12509" transform="translate(21.286 3.841)">
                <g id="Grupo_12507" data-name="Grupo 12507">
                  <path id="Trazado_20292" data-name="Trazado 20292" d="M9601.317,1081.318h-36.774a1.159,1.159,0,1,1,0-2.318h36.774a1.159,1.159,0,1,1,0,2.318Z" transform="translate(-9563.384 -1079)" fill="#1e243a"/>
                </g>
                <g id="Grupo_12508" data-name="Grupo 12508" transform="translate(0 6.953)">
                  <path id="Trazado_20293" data-name="Trazado 20293" d="M9624.649,1126.318h-60.106a1.159,1.159,0,1,1,0-2.318h60.106a1.159,1.159,0,1,1,0,2.318Z" transform="translate(-9563.384 -1124)" fill="#1e243a"/>
                </g>
              </g>
            </g>
          </g>
        </g>
        <g id="Grupo_12513" data-name="Grupo 12513" transform="translate(1.159 126.764)">
          <path id="Trazado_20294" data-name="Trazado 20294" d="M9428.215,1264.318H9309.543a1.159,1.159,0,1,1,0-2.318h118.672a1.159,1.159,0,0,1,0,2.318Z" transform="translate(-9308.384 -1262)" fill="#1e243a"/>
        </g>
        <g id="Grupo_12514" data-name="Grupo 12514" transform="translate(6.026 132.79)">
          <path id="Trazado_20295" data-name="Trazado 20295" d="M9362.6,1313.593a1.159,1.159,0,0,1-1.159,1.159h-20.4a1.159,1.159,0,0,1-1.159-1.159v-11.435a1.159,1.159,0,0,1,1.159-1.159h20.4a1.159,1.159,0,0,1,1.159,1.159Zm-20.4-1.159h18.08v-9.117H9342.2Z" transform="translate(-9339.882 -1301)" fill="#1e243a"/>
        </g>
        <g id="Grupo_12517" data-name="Grupo 12517" transform="translate(35.617 134.953)">
          <g id="Grupo_12515" data-name="Grupo 12515" transform="translate(0 0)">
            <path id="Trazado_20296" data-name="Trazado 20296" d="M9585.078,1317.318h-52.535a1.159,1.159,0,1,1,0-2.318h52.535a1.159,1.159,0,1,1,0,2.318Z" transform="translate(-9531.383 -1315)" fill="#1e243a"/>
          </g>
          <g id="Grupo_12516" data-name="Grupo 12516" transform="translate(0 7.262)">
            <path id="Trazado_20297" data-name="Trazado 20297" d="M9608.256,1364.318h-75.713a1.159,1.159,0,1,1,0-2.318h75.713a1.159,1.159,0,1,1,0,2.318Z" transform="translate(-9531.383 -1362)" fill="#1e243a"/>
          </g>
        </g>
      </g>
      <g id="Grupo_12523" data-name="Grupo 12523" transform="translate(0 105.175)">
        <g id="Grupo_12519" data-name="Grupo 12519" transform="translate(5.154 80.94)">
          <path id="Trazado_20298" data-name="Trazado 20298" d="M8986.961,1659.645h-26.735a1.158,1.158,0,0,1-1.159-1.159v-11.229a1.158,1.158,0,0,1,1.159-1.159h26.735a1.159,1.159,0,0,1,1.158,1.159v11.229A1.159,1.159,0,0,1,8986.961,1659.645Zm-25.576-2.318H8985.8v-8.911h-24.417Z" transform="translate(-8959.066 -1646.098)" fill="#1e243a"/>
        </g>
        <g id="Grupo_12520" data-name="Grupo 12520" transform="translate(5.154 61.225)">
          <path id="Trazado_20299" data-name="Trazado 20299" d="M8986.961,1532.055h-26.735a1.158,1.158,0,0,1-1.159-1.159v-11.229a1.158,1.158,0,0,1,1.159-1.159h26.735a1.158,1.158,0,0,1,1.158,1.159V1530.9A1.159,1.159,0,0,1,8986.961,1532.055Zm-25.576-2.318H8985.8v-8.911h-24.417Z" transform="translate(-8959.066 -1518.508)" fill="#1e243a"/>
        </g>
        <g id="Grupo_12521" data-name="Grupo 12521" transform="translate(5.154 41.509)">
          <path id="Trazado_20300" data-name="Trazado 20300" d="M8986.961,1404.464h-26.735a1.158,1.158,0,0,1-1.159-1.159v-11.229a1.158,1.158,0,0,1,1.159-1.159h26.735a1.159,1.159,0,0,1,1.158,1.159V1403.3A1.159,1.159,0,0,1,8986.961,1404.464Zm-25.576-2.318H8985.8v-8.911h-24.417Z" transform="translate(-8959.066 -1390.917)" fill="#1e243a"/>
        </g>
        <g id="Grupo_12522" data-name="Grupo 12522">
          <path id="Trazado_20301" data-name="Trazado 20301" d="M8958.726,1157.933h-26.887a1.159,1.159,0,0,1-1.159-1.159v-3.786h-3.811a1.159,1.159,0,0,1-.972-1.792l18.522-28.388a1.159,1.159,0,0,1,1.941,0l18.522,28.388a1.16,1.16,0,0,1-.972,1.792h-4.027v3.786A1.159,1.159,0,0,1,8958.726,1157.933ZM8933,1155.615h24.569v-3.786a1.158,1.158,0,0,1,1.158-1.159h3.047l-16.383-25.108-16.382,25.108h2.831a1.159,1.159,0,0,1,1.159,1.159Z" transform="translate(-8925.71 -1122.282)" fill="#1e243a"/>
        </g>
      </g>
      <g id="Grupo_12529" data-name="Grupo 12529" transform="translate(168.072 155.854)">
        <g id="Grupo_12524" data-name="Grupo 12524">
          <path id="Trazado_20302" data-name="Trazado 20302" d="M10078.865,1483.958h-64.142a1.313,1.313,0,0,1-1.313-1.313v-23.98a1.313,1.313,0,0,1,1.313-1.313h4.791l3.986-6.463a1.312,1.312,0,0,1,1.886-.375l9.46,6.838h44.019a1.314,1.314,0,0,1,1.314,1.313v23.98A1.314,1.314,0,0,1,10078.865,1483.958Zm-62.828-2.627h61.516v-21.353h-43.131a1.318,1.318,0,0,1-.77-.249l-8.658-6.259-3.628,5.884a1.313,1.313,0,0,1-1.119.624h-4.21Z" transform="translate(-10013.41 -1450.264)" fill="#1e243a"/>
        </g>
        <g id="Grupo_12525" data-name="Grupo 12525" transform="translate(6.181 13.268)">
          <path id="Trazado_20303" data-name="Trazado 20303" d="M10118.865,1562.737h-64.143a1.313,1.313,0,0,1-1.312-1.313v-5.055a1.313,1.313,0,1,1,2.627,0v3.741h61.515v-21.353H10114a1.313,1.313,0,0,1,0-2.627h4.86a1.314,1.314,0,0,1,1.313,1.313v23.98A1.314,1.314,0,0,1,10118.865,1562.737Z" transform="translate(-10053.41 -1536.13)" fill="#1e243a"/>
        </g>
        <g id="Grupo_12528" data-name="Grupo 12528" transform="translate(8.494 15.566)">
          <g id="Grupo_12526" data-name="Grupo 12526">
            <path id="Trazado_20304" data-name="Trazado 20304" d="M10116.825,1553.627H10069.7a1.313,1.313,0,1,1,0-2.627h47.129a1.313,1.313,0,0,1,0,2.627Z" transform="translate(-10068.383 -1551)" fill="#1e243a"/>
          </g>
          <g id="Grupo_12527" data-name="Grupo 12527" transform="translate(0 7.108)">
            <path id="Trazado_20305" data-name="Trazado 20305" d="M10096.428,1599.627H10069.7a1.313,1.313,0,1,1,0-2.627h26.731a1.313,1.313,0,0,1,0,2.627Z" transform="translate(-10068.383 -1597)" fill="#1e243a"/>
          </g>
        </g>
      </g>
      <g id="Grupo_12535" data-name="Grupo 12535" transform="translate(18.569 24.781)">
        <g id="Grupo_12530" data-name="Grupo 12530" transform="translate(0 70.847)">
          <path id="Trazado_20306" data-name="Trazado 20306" d="M9047.041,1064.672a1.159,1.159,0,0,1-1.159-1.159v-1.854a1.159,1.159,0,1,1,2.317,0v1.854A1.159,1.159,0,0,1,9047.041,1064.672Z" transform="translate(-9045.882 -1060.5)" fill="#1e243a"/>
        </g>
        <g id="Grupo_12531" data-name="Grupo 12531" transform="translate(0 8.576)">
          <path id="Trazado_20307" data-name="Trazado 20307" d="M9047.041,715.291a1.159,1.159,0,0,1-1.159-1.159v-3.708a1.159,1.159,0,1,1,2.317,0v3.708A1.159,1.159,0,0,1,9047.041,715.291Zm0-10.353a1.159,1.159,0,0,1-1.159-1.159V700.07a1.159,1.159,0,1,1,2.317,0v3.708A1.159,1.159,0,0,1,9047.041,704.938Zm0-10.353a1.159,1.159,0,0,1-1.159-1.159v-3.708a1.159,1.159,0,1,1,2.317,0v3.708A1.159,1.159,0,0,1,9047.041,694.585Zm0-10.353a1.159,1.159,0,0,1-1.159-1.159v-3.708a1.159,1.159,0,1,1,2.317,0v3.708A1.159,1.159,0,0,1,9047.041,684.232Zm0-10.353a1.159,1.159,0,0,1-1.159-1.159v-3.708a1.159,1.159,0,1,1,2.317,0v3.708A1.159,1.159,0,0,1,9047.041,673.879Zm0-10.353a1.159,1.159,0,0,1-1.159-1.159v-3.708a1.159,1.159,0,1,1,2.317,0v3.708A1.159,1.159,0,0,1,9047.041,663.526Z" transform="translate(-9045.882 -657.5)" fill="#1e243a"/>
        </g>
        <g id="Grupo_12532" data-name="Grupo 12532">
          <path id="Trazado_20308" data-name="Trazado 20308" d="M9047.041,606.249a1.159,1.159,0,0,1-1.159-1.159v-1.931a1.159,1.159,0,0,1,1.159-1.159h1.932a1.159,1.159,0,0,1,0,2.318h-.773v.773A1.159,1.159,0,0,1,9047.041,606.249Z" transform="translate(-9045.882 -602)" fill="#1e243a"/>
        </g>
        <g id="Grupo_12533" data-name="Grupo 12533" transform="translate(7.649)">
          <path id="Trazado_20309" data-name="Trazado 20309" d="M9108.749,604.318H9105.5a1.159,1.159,0,0,1,0-2.318h3.245a1.159,1.159,0,0,1,0,2.318Zm-8.962,0h-3.244a1.159,1.159,0,1,1,0-2.318h3.244a1.159,1.159,0,1,1,0,2.318Z" transform="translate(-9095.383 -602)" fill="#1e243a"/>
        </g>
        <g id="Grupo_12534" data-name="Grupo 12534" transform="translate(25.573)">
          <path id="Trazado_20310" data-name="Trazado 20310" d="M9214.55,604.318h-2.009a1.159,1.159,0,0,1,0-2.318h2.009a1.159,1.159,0,1,1,0,2.318Z" transform="translate(-9211.383 -602)" fill="#1e243a"/>
        </g>
      </g>
      <g id="Grupo_12541" data-name="Grupo 12541" transform="translate(182.901 72.527)">
        <g id="Grupo_12536" data-name="Grupo 12536" transform="translate(20.319 80.119)">
          <path id="Trazado_20311" data-name="Trazado 20311" d="M10242.041,1433.672a1.159,1.159,0,0,1-1.158-1.159v-1.854a1.159,1.159,0,1,1,2.317,0v1.854A1.16,1.16,0,0,1,10242.041,1433.672Z" transform="translate(-10240.883 -1429.5)" fill="#1e243a"/>
        </g>
        <g id="Grupo_12537" data-name="Grupo 12537" transform="translate(20.319 7.649)">
          <path id="Trazado_20312" data-name="Trazado 20312" d="M10242.041,1028.643a1.159,1.159,0,0,1-1.158-1.159v-3.708a1.159,1.159,0,1,1,2.317,0v3.708A1.159,1.159,0,0,1,10242.041,1028.643Zm0-10.353a1.159,1.159,0,0,1-1.158-1.159v-3.708a1.159,1.159,0,1,1,2.317,0v3.708A1.159,1.159,0,0,1,10242.041,1018.29Zm0-10.353a1.159,1.159,0,0,1-1.158-1.159v-3.708a1.159,1.159,0,1,1,2.317,0v3.708A1.159,1.159,0,0,1,10242.041,1007.938Zm0-10.353a1.159,1.159,0,0,1-1.158-1.159v-3.708a1.159,1.159,0,1,1,2.317,0v3.708A1.159,1.159,0,0,1,10242.041,997.585Zm0-10.353a1.159,1.159,0,0,1-1.158-1.159v-3.708a1.159,1.159,0,1,1,2.317,0v3.708A1.159,1.159,0,0,1,10242.041,987.232Zm0-10.353a1.159,1.159,0,0,1-1.158-1.159v-3.708a1.159,1.159,0,1,1,2.317,0v3.708A1.159,1.159,0,0,1,10242.041,976.879Zm0-10.353a1.159,1.159,0,0,1-1.158-1.159v-3.708a1.159,1.159,0,1,1,2.317,0v3.708A1.159,1.159,0,0,1,10242.041,966.526Z" transform="translate(-10240.883 -960.5)" fill="#1e243a"/>
        </g>
        <g id="Grupo_12538" data-name="Grupo 12538" transform="translate(18.388)">
          <path id="Trazado_20313" data-name="Trazado 20313" d="M10231.473,915.249a1.158,1.158,0,0,1-1.157-1.159v-.773h-.774a1.159,1.159,0,0,1,0-2.318h1.933a1.159,1.159,0,0,1,1.159,1.159v1.931A1.16,1.16,0,0,1,10231.473,915.249Z" transform="translate(-10228.384 -911)" fill="#1e243a"/>
        </g>
        <g id="Grupo_12539" data-name="Grupo 12539" transform="translate(8.344)">
          <path id="Trazado_20314" data-name="Trazado 20314" d="M10168.1,913.318h-3.554a1.159,1.159,0,1,1,0-2.318h3.554a1.159,1.159,0,1,1,0,2.318Z" transform="translate(-10163.383 -911)" fill="#1e243a"/>
        </g>
        <g id="Grupo_12540" data-name="Grupo 12540">
          <path id="Trazado_20315" data-name="Trazado 20315" d="M10112.4,913.318h-1.855a1.159,1.159,0,0,1,0-2.318h1.855a1.159,1.159,0,0,1,0,2.318Z" transform="translate(-10109.383 -911)" fill="#1e243a"/>
        </g>
      </g>
      <g id="Grupo_12542" data-name="Grupo 12542" transform="translate(226.203 5.062)">
        <path id="Trazado_20316" data-name="Trazado 20316" d="M10393.811,488.765a1.545,1.545,0,0,1-.746-2.054h0a1.544,1.544,0,0,1,2.053-.746h0a1.544,1.544,0,0,1,.748,2.054h0a1.547,1.547,0,0,1-1.4.892h0A1.54,1.54,0,0,1,10393.811,488.765Zm4.5-.782a1.547,1.547,0,0,1,.686-2.074h0a1.546,1.546,0,0,1,2.076.686h0a1.545,1.545,0,0,1-.686,2.074h0a1.533,1.533,0,0,1-.693.165h0A1.546,1.546,0,0,1,10398.309,487.983Zm-8.648-4.314a1.545,1.545,0,0,1,1.15-1.859h0a1.542,1.542,0,0,1,1.857,1.148h0a1.546,1.546,0,0,1-1.148,1.859h0a1.563,1.563,0,0,1-.355.042h0A1.547,1.547,0,0,1,10389.66,483.669Zm12.9.987a1.546,1.546,0,0,1-1.2-1.825h0v0h0a1.547,1.547,0,0,1,1.826-1.2h0a1.546,1.546,0,0,1,1.2,1.825h0a1.547,1.547,0,0,1-1.51,1.235h0A1.55,1.55,0,0,1,10402.561,484.656Zm-11.225-5.232a1.547,1.547,0,0,1-.25-2.171h0a1.544,1.544,0,0,1,2.17-.252h0a1.547,1.547,0,0,1,.254,2.169h0a1.549,1.549,0,0,1-1.215.587h0A1.548,1.548,0,0,1,10391.336,479.424Zm9.072-.354v0h0a1.545,1.545,0,0,1,.191-2.177h0a1.542,1.542,0,0,1,2.176.188h0a1.543,1.543,0,0,1-.189,2.177h0a1.541,1.541,0,0,1-.992.362h0A1.543,1.543,0,0,1,10400.408,479.07Zm-4.955-3.135a1.546,1.546,0,0,1,1.545-1.545h0a1.546,1.546,0,0,1,1.547,1.545h0a1.545,1.545,0,0,1-1.547,1.545h0A1.545,1.545,0,0,1,10395.453,475.935Z" transform="translate(-10389.619 -474.39)" fill="#1e243a"/>
      </g>
      <g id="Grupo_12543" data-name="Grupo 12543" transform="translate(221.268 133.204)">
        <path id="Trazado_20317" data-name="Trazado 20317" d="M10361.871,1318.055a1.544,1.544,0,0,1-.745-2.053h0a1.543,1.543,0,0,1,2.054-.746h0a1.544,1.544,0,0,1,.745,2.053h0a1.542,1.542,0,0,1-1.4.892h0A1.536,1.536,0,0,1,10361.871,1318.055Zm4.5-.782a1.548,1.548,0,0,1,.687-2.075h0a1.549,1.549,0,0,1,2.076.686h0a1.547,1.547,0,0,1-.687,2.075h0a1.536,1.536,0,0,1-.7.165h0A1.546,1.546,0,0,1,10366.37,1317.273Zm-8.647-4.316a1.544,1.544,0,0,1,1.146-1.859h0a1.545,1.545,0,0,1,1.859,1.149h0a1.545,1.545,0,0,1-1.149,1.859h0a1.569,1.569,0,0,1-.355.042h0A1.541,1.541,0,0,1,10357.723,1312.958Zm12.9.989a1.545,1.545,0,0,1-1.2-1.825h0a1.545,1.545,0,0,1,1.824-1.2h0a1.546,1.546,0,0,1,1.2,1.825h0a1.544,1.544,0,0,1-1.513,1.233h0A1.528,1.528,0,0,1,10370.622,1313.946Zm-11.224-5.233a1.544,1.544,0,0,1-.251-2.171h0a1.544,1.544,0,0,1,2.169-.252h0a1.547,1.547,0,0,1,.252,2.171h0a1.545,1.545,0,0,1-1.212.586h0A1.528,1.528,0,0,1,10359.4,1308.713Zm9.072-.352a1.543,1.543,0,0,1,.188-2.177h0a1.545,1.545,0,0,1,2.177.19h0a1.546,1.546,0,0,1-.189,2.177h0a1.543,1.543,0,0,1-.992.361h0A1.535,1.535,0,0,1,10368.471,1308.36Zm-4.956-3.135a1.545,1.545,0,0,1,1.546-1.545h0a1.547,1.547,0,0,1,1.545,1.545h0a1.546,1.546,0,0,1-1.545,1.545h0A1.545,1.545,0,0,1,10363.515,1305.225Z" transform="translate(-10357.681 -1303.68)" fill="#1e243a"/>
      </g>
      <g id="Grupo_12544" data-name="Grupo 12544" transform="translate(49.612 171.247)">
        <path id="Trazado_20318" data-name="Trazado 20318" d="M9250.972,1564.255a1.548,1.548,0,0,1-.746-2.055h0a1.547,1.547,0,0,1,2.056-.745h0a1.547,1.547,0,0,1,.746,2.053h0a1.547,1.547,0,0,1-1.4.892h0A1.544,1.544,0,0,1,9250.972,1564.255Zm4.5-.782a1.545,1.545,0,0,1,.686-2.075h0a1.546,1.546,0,0,1,2.074.686h0a1.545,1.545,0,0,1-.686,2.075h0a1.537,1.537,0,0,1-.693.165h0A1.542,1.542,0,0,1,9255.473,1563.473Zm-8.65-4.316a1.544,1.544,0,0,1,1.148-1.859h0a1.544,1.544,0,0,1,1.858,1.15h0a1.544,1.544,0,0,1-1.146,1.859h0a1.609,1.609,0,0,1-.359.042h0A1.544,1.544,0,0,1,9246.822,1559.158Zm12.9.989a1.545,1.545,0,0,1-1.2-1.825h0a1.545,1.545,0,0,1,1.824-1.2h0a1.545,1.545,0,0,1,1.2,1.825h0a1.547,1.547,0,0,1-1.513,1.234h0A1.547,1.547,0,0,1,9259.723,1560.146Zm-11.225-5.234a1.542,1.542,0,0,1-.251-2.17h0a1.546,1.546,0,0,1,2.17-.253h0a1.543,1.543,0,0,1,.251,2.171h0a1.537,1.537,0,0,1-1.21.586h0A1.539,1.539,0,0,1,9248.5,1554.913Zm9.072-.352a1.544,1.544,0,0,1,.19-2.177h0a1.545,1.545,0,0,1,2.177.19h0a1.547,1.547,0,0,1-.189,2.177h0a1.541,1.541,0,0,1-.992.361h0A1.541,1.541,0,0,1,9257.57,1554.56Zm-4.955-3.135a1.547,1.547,0,0,1,1.547-1.545h0a1.546,1.546,0,0,1,1.545,1.545h0a1.546,1.546,0,0,1-1.545,1.545h0A1.547,1.547,0,0,1,9252.615,1551.425Z" transform="translate(-9246.78 -1549.88)" fill="#1e243a"/>
      </g>
      <g id="Grupo_12545" data-name="Grupo 12545" transform="translate(34.956 69.545)">
        <path id="Trazado_20319" data-name="Trazado 20319" d="M9156.122,906.075a1.544,1.544,0,0,1-.747-2.054h0a1.544,1.544,0,0,1,2.054-.746h0a1.547,1.547,0,0,1,.746,2.054h0a1.544,1.544,0,0,1-1.4.892h0A1.525,1.525,0,0,1,9156.122,906.075Zm4.5-.782a1.544,1.544,0,0,1,.687-2.074h0a1.544,1.544,0,0,1,2.074.686h0a1.546,1.546,0,0,1-.686,2.074h0a1.534,1.534,0,0,1-.694.165h0A1.542,1.542,0,0,1,9160.62,905.293Zm-8.649-4.316a1.544,1.544,0,0,1,1.148-1.857h0a1.544,1.544,0,0,1,1.859,1.148h0a1.545,1.545,0,0,1-1.148,1.859h0a1.568,1.568,0,0,1-.356.042h0A1.546,1.546,0,0,1,9151.971,900.977Zm12.9.989a1.544,1.544,0,0,1-1.2-1.823h0a1.544,1.544,0,0,1,1.824-1.2h0a1.546,1.546,0,0,1,1.2,1.825h0a1.546,1.546,0,0,1-1.513,1.235h0A1.54,1.54,0,0,1,9164.871,901.966Zm-11.223-5.234a1.543,1.543,0,0,1-.253-2.169h0a1.544,1.544,0,0,1,2.169-.253h0a1.546,1.546,0,0,1,.255,2.171h0a1.548,1.548,0,0,1-1.213.586h0A1.526,1.526,0,0,1,9153.648,896.733Zm9.071-.352a1.544,1.544,0,0,1,.188-2.177h0a1.545,1.545,0,0,1,2.177.19h0a1.545,1.545,0,0,1-.189,2.177h0a1.537,1.537,0,0,1-.992.362h0A1.535,1.535,0,0,1,9162.72,896.38Zm-4.955-3.135a1.545,1.545,0,0,1,1.546-1.545h0a1.546,1.546,0,0,1,1.544,1.545h0a1.546,1.546,0,0,1-1.544,1.545h0A1.545,1.545,0,0,1,9157.765,893.245Z" transform="translate(-9151.93 -891.7)" fill="#1e243a"/>
      </g>
      <g id="Grupo_12546" data-name="Grupo 12546" transform="translate(133.289 165.632)">
        <path id="Trazado_20320" data-name="Trazado 20320" d="M9792.5,1527.915a1.545,1.545,0,0,1-.745-2.053h0a1.546,1.546,0,0,1,2.054-.746h0a1.546,1.546,0,0,1,.746,2.055h0a1.548,1.548,0,0,1-1.4.891h0A1.542,1.542,0,0,1,9792.5,1527.915Zm4.5-.78a1.545,1.545,0,0,1,.686-2.075h0a1.546,1.546,0,0,1,2.075.686h0a1.547,1.547,0,0,1-.687,2.075h0a1.544,1.544,0,0,1-.693.164h0A1.544,1.544,0,0,1,9797,1527.135Zm-8.648-4.316a1.543,1.543,0,0,1,1.147-1.859h0a1.545,1.545,0,0,1,1.859,1.148h0a1.545,1.545,0,0,1-1.147,1.859h0a1.505,1.505,0,0,1-.357.042h0A1.542,1.542,0,0,1,9788.351,1522.819Zm12.9.987a1.545,1.545,0,0,1-1.2-1.823h0a1.546,1.546,0,0,1,1.825-1.2h0a1.547,1.547,0,0,1,1.2,1.825h0a1.549,1.549,0,0,1-1.515,1.235h0A1.571,1.571,0,0,1,9801.249,1523.806Zm-11.222-5.232a1.547,1.547,0,0,1-.254-2.171h0a1.545,1.545,0,0,1,2.171-.252h0a1.546,1.546,0,0,1,.252,2.171h0a1.542,1.542,0,0,1-1.211.586h0A1.538,1.538,0,0,1,9790.027,1518.574Zm9.069-.354a1.543,1.543,0,0,1,.19-2.176h0a1.545,1.545,0,0,1,2.177.189h0a1.544,1.544,0,0,1-.189,2.177h0a1.532,1.532,0,0,1-.992.362h0A1.542,1.542,0,0,1,9799.1,1518.22Zm-4.953-3.134a1.545,1.545,0,0,1,1.545-1.547h0a1.546,1.546,0,0,1,1.545,1.547h0a1.545,1.545,0,0,1-1.545,1.544h0A1.545,1.545,0,0,1,9794.144,1515.087Z" transform="translate(-9788.309 -1513.54)" fill="#1e243a"/>
      </g>
      <g id="Grupo_12549" data-name="Grupo 12549" transform="translate(228.33 69.051)">
        <g id="Grupo_12547" data-name="Grupo 12547" transform="translate(3.94)">
          <path id="Trazado_20321" data-name="Trazado 20321" d="M10430.041,898.7a1.159,1.159,0,0,1-1.159-1.159v-7.88a1.159,1.159,0,1,1,2.317,0v7.88A1.159,1.159,0,0,1,10430.041,898.7Z" transform="translate(-10428.882 -888.5)" fill="#1e243a"/>
        </g>
        <g id="Grupo_12548" data-name="Grupo 12548" transform="translate(0 3.94)">
          <path id="Trazado_20322" data-name="Trazado 20322" d="M10412.422,916.318h-7.881a1.159,1.159,0,0,1,0-2.318h7.881a1.159,1.159,0,0,1,0,2.318Z" transform="translate(-10403.383 -914)" fill="#1e243a"/>
        </g>
      </g>
      <g id="Grupo_12552" data-name="Grupo 12552" transform="translate(90.189 187.722)">
        <g id="Grupo_12550" data-name="Grupo 12550" transform="translate(3.94)">
          <path id="Trazado_20323" data-name="Trazado 20323" d="M9536.041,1666.7a1.159,1.159,0,0,1-1.159-1.159v-7.88a1.159,1.159,0,1,1,2.317,0v7.88A1.159,1.159,0,0,1,9536.041,1666.7Z" transform="translate(-9534.882 -1656.5)" fill="#1e243a"/>
        </g>
        <g id="Grupo_12551" data-name="Grupo 12551" transform="translate(0 3.94)">
          <path id="Trazado_20324" data-name="Trazado 20324" d="M9518.422,1684.318h-7.88a1.159,1.159,0,1,1,0-2.318h7.88a1.159,1.159,0,1,1,0,2.318Z" transform="translate(-9509.383 -1682)" fill="#1e243a"/>
        </g>
      </g>
      <g id="Grupo_12555" data-name="Grupo 12555" transform="translate(7.212 1.525)">
        <g id="Grupo_12553" data-name="Grupo 12553" transform="translate(3.94)">
          <path id="Trazado_20325" data-name="Trazado 20325" d="M8999.041,461.7a1.159,1.159,0,0,1-1.159-1.159v-7.88a1.159,1.159,0,1,1,2.317,0v7.88A1.159,1.159,0,0,1,8999.041,461.7Z" transform="translate(-8997.882 -451.5)" fill="#1e243a"/>
        </g>
        <g id="Grupo_12554" data-name="Grupo 12554" transform="translate(0 3.94)">
          <path id="Trazado_20326" data-name="Trazado 20326" d="M8981.422,479.318h-7.88a1.159,1.159,0,1,1,0-2.318h7.88a1.159,1.159,0,0,1,0,2.318Z" transform="translate(-8972.383 -477)" fill="#1e243a"/>
        </g>
      </g>
      <g id="Grupo_12558" data-name="Grupo 12558" transform="translate(196.19 40.773)">
        <g id="Grupo_12556" data-name="Grupo 12556" transform="translate(3.94)">
          <path id="Trazado_20327" data-name="Trazado 20327" d="M10222.041,715.7a1.159,1.159,0,0,1-1.159-1.159v-7.88a1.159,1.159,0,1,1,2.317,0v7.88A1.159,1.159,0,0,1,10222.041,715.7Z" transform="translate(-10220.882 -705.5)" fill="#1e243a"/>
        </g>
        <g id="Grupo_12557" data-name="Grupo 12557" transform="translate(0 3.94)">
          <path id="Trazado_20328" data-name="Trazado 20328" d="M10204.424,733.318h-7.881a1.159,1.159,0,1,1,0-2.318h7.881a1.159,1.159,0,0,1,0,2.318Z" transform="translate(-10195.384 -731)" fill="#1e243a"/>
        </g>
      </g>
    </g>
  </g>
</svg>
