<svg xmlns="http://www.w3.org/2000/svg" width="390.32" height="311.416" viewBox="0 0 390.32 311.416">
  <g id="Grupo_12219" data-name="Grupo 12219" transform="translate(-1083.414 -38.607)">
    <g id="Grupo_12217" data-name="Grupo 12217" transform="translate(8 23)">
      <path id="Trazado_12269" data-name="Trazado 12269" d="M317.345,239.884c61.252,57.756,130.818-1.284,185.961,90.277C585.474,466.6,405.971,541.489,310.978,522.488c-77.07-15.417-115.591-41.571-160.711-115.924C85.97,300.608,226.218,153.959,317.345,239.884Z" transform="translate(941.471 -198.382)" fill="rgba(58,27,141,0.15)" style="mix-blend-mode: multiply;isolation: isolate"/>
      <g id="Grupo_8694" data-name="Grupo 8694" transform="translate(2774 1749)">
        <g id="Grupo_8656" data-name="Grupo 8656" transform="translate(-1448.552 -1458.01)">
          <path id="Trazado_18103" data-name="Trazado 18103" d="M604.031,331.587H496.021V322.2a4.7,4.7,0,0,1,4.7-4.7h98.618a4.7,4.7,0,0,1,4.7,4.7Zm-103.314-4.7h98.618v-4.7H500.717Z" transform="translate(-496.021 -317.499)" fill="#fff"/>
        </g>
        <g id="Grupo_8658" data-name="Grupo 8658" transform="translate(-1446.643 -1632.065)">
          <rect id="Rectángulo_2077" data-name="Rectángulo 2077" width="104" height="57" transform="translate(-0.357 0.065)" fill="#ffd571"/>
        </g>
        <g id="Grupo_8659" data-name="Grupo 8659" transform="translate(-1436.524 -1645.978)">
          <rect id="Rectángulo_2078" data-name="Rectángulo 2078" width="85" height="10" transform="translate(-0.476 -0.022)" fill="#ff5a5a"/>
        </g>
        <g id="Grupo_8662" data-name="Grupo 8662" transform="translate(-1448.552 -1676.378)">
          <path id="Trazado_18105" data-name="Trazado 18105" d="M604.031,257.372H496.021V224.5h108.01Zm-103.314-4.7h98.618V229.2H500.717Z" transform="translate(-496.021 -224.499)" fill="#fff"/>
        </g>
        <g id="Grupo_8663" data-name="Grupo 8663" transform="translate(-1439.16 -1648.202)">
          <path id="Trazado_18106" data-name="Trazado 18106" d="M589.247,325.725H500.021V236.5h89.226Zm-84.53-4.7h79.834V241.2H504.717Z" transform="translate(-500.021 -236.499)" fill="#fff"/>
        </g>
        <g id="Grupo_8664" data-name="Grupo 8664" transform="translate(-1448.552 -1563.672)">
          <path id="Trazado_18107" data-name="Trazado 18107" d="M604.031,305.372H496.021V272.5h108.01Zm-103.314-4.7h98.618V277.2H500.717Z" transform="translate(-496.021 -272.499)" fill="#fff"/>
        </g>
        <g id="Grupo_8665" data-name="Grupo 8665" transform="translate(-1443.856 -1690.467)">
          <path id="Trazado_18108" data-name="Trazado 18108" d="M596.639,237.283H498.021v-7.044a11.754,11.754,0,0,1,11.74-11.74H584.9a11.754,11.754,0,0,1,11.74,11.74Zm-93.922-4.7h89.226v-2.348A7.053,7.053,0,0,0,584.9,223.2H509.761a7.053,7.053,0,0,0-7.044,7.044Z" transform="translate(-498.021 -218.499)" fill="#fff"/>
        </g>
        <g id="Grupo_8666" data-name="Grupo 8666" transform="translate(-1443.856 -1535.496)">
          <path id="Trazado_18109" data-name="Trazado 18109" d="M584.9,303.283H509.761a11.754,11.754,0,0,1-11.74-11.74V284.5h98.618v7.044a11.754,11.754,0,0,1-11.74,11.74M502.717,289.2v2.348a7.053,7.053,0,0,0,7.044,7.044H584.9a7.053,7.053,0,0,0,7.044-7.044V289.2Z" transform="translate(-498.021 -284.499)" fill="#fff"/>
        </g>
        <g id="Grupo_8667" data-name="Grupo 8667" transform="translate(-1636.396 -1624.721)">
          <path id="Trazado_18110" data-name="Trazado 18110" d="M617.953,284.068l-7.375-.023-32.708-4.673H425.413a9.4,9.4,0,0,1-9.392-9.392v-9.392a9.4,9.4,0,0,1,9.392-9.392H577.87l33.039-4.7h7.044Zm-6.877-4.7h2.181V251.2h-2.181l-33.039,4.7H425.413a4.7,4.7,0,0,0-4.7,4.7v9.392a4.7,4.7,0,0,0,4.7,4.7l152.954.024Z" transform="translate(-416.021 -246.499)" fill="#fff"/>
        </g>
        <g id="Grupo_8669" data-name="Grupo 8669" transform="translate(-1397.314 -1716.811)">
          <rect id="Rectángulo_2081" data-name="Rectángulo 2081" width="5" height="22" transform="translate(0.314 -0.189)" fill="#273045"/>
        </g>
        <g id="Grupo_8670" data-name="Grupo 8670" transform="translate(-1383.4 -1716.811)">
          <rect id="Rectángulo_2082" data-name="Rectángulo 2082" width="5" height="22" transform="translate(0.4 -0.189)" fill="#273045"/>
        </g>
        <g id="Grupo_8671" data-name="Grupo 8671" transform="translate(-1411.227 -1716.811)">
          <rect id="Rectángulo_2083" data-name="Rectángulo 2083" width="5" height="22" transform="translate(0.227 -0.189)" fill="#273045"/>
        </g>
        <g id="Grupo_8672" data-name="Grupo 8672" transform="translate(-1397.314 -1725.665)">
          <rect id="Rectángulo_2084" data-name="Rectángulo 2084" width="5" height="5" transform="translate(0.314 -0.335)" fill="#273045"/>
        </g>
        <g id="Grupo_8673" data-name="Grupo 8673" transform="translate(-1383.4 -1725.665)">
          <rect id="Rectángulo_2085" data-name="Rectángulo 2085" width="5" height="5" transform="translate(0.4 -0.335)" fill="#273045"/>
        </g>
        <g id="Grupo_8674" data-name="Grupo 8674" transform="translate(-1411.227 -1725.665)">
          <rect id="Rectángulo_2086" data-name="Rectángulo 2086" width="5" height="5" transform="translate(0.227 -0.335)" fill="#273045"/>
        </g>
        <g id="Grupo_8675" data-name="Grupo 8675" transform="translate(-1453.248 -1448.618)">
          <path id="Trazado_18112" data-name="Trazado 18112" d="M611.423,344.979h-117.4V326.2a4.7,4.7,0,0,1,4.7-4.7h108.01a4.7,4.7,0,0,1,4.7,4.7Zm-112.706-4.7h108.01V326.2H498.717Z" transform="translate(-494.021 -321.499)" fill="#fff"/>
        </g>
        <g id="Grupo_8676" data-name="Grupo 8676" transform="translate(-1563.604 -1540.203)">
          <path id="Trazado_18113" data-name="Trazado 18113" d="M477.542,341.207h-4.7a7.053,7.053,0,0,0-7.044-7.044h-18.78V282.494H465.8a11.754,11.754,0,0,1,11.74,11.74v6.654h-4.7v-6.654a7.053,7.053,0,0,0-7.044-7.044H451.718v42.277H465.8a11.729,11.729,0,0,1,9.392,4.7,11.729,11.729,0,0,1,9.392-4.7h18.782v4.7H484.586a7.053,7.053,0,0,0-7.044,7.044" transform="translate(-447.022 -282.494)" fill="#fff"/>
        </g>
        <g id="Grupo_8677" data-name="Grupo 8677" transform="translate(-1537.778 -1540.203)">
          <path id="Trazado_18114" data-name="Trazado 18114" d="M488.541,305.977h-4.7V287.19H469.761a7.053,7.053,0,0,0-7.044,7.044v11.731h-4.7V294.234a11.754,11.754,0,0,1,11.74-11.74h18.78Z" transform="translate(-458.021 -282.494)" fill="#fff"/>
        </g>
        <g id="Grupo_8678" data-name="Grupo 8678" transform="translate(-1572.999 -1533.157)">
          <path id="Trazado_18115" data-name="Trazado 18115" d="M518.156,339.5H443.021V285.495h11.743v4.7h-7.047V334.8h65.745l.007-9.395,4.7,0Z" transform="translate(-443.021 -285.495)" fill="#fff"/>
        </g>
        <g id="Grupo_8679" data-name="Grupo 8679" transform="translate(-1509.564 -1533.157)">
          <path id="Trazado_18116" data-name="Trazado 18116" d="M481.768,301.934l-4.7,0,.009-11.738h-7.044v-4.7h11.745Z" transform="translate(-470.037 -285.495)" fill="#fff"/>
        </g>
        <g id="Grupo_8680" data-name="Grupo 8680" transform="translate(-1554.157 -1525.816)">
          <rect id="Rectángulo_2087" data-name="Rectángulo 2087" width="11" height="4" transform="translate(0.157 -0.184)" fill="#fff"/>
        </g>
        <g id="Grupo_8681" data-name="Grupo 8681" transform="translate(-1554.157 -1516.962)">
          <rect id="Rectángulo_2088" data-name="Rectángulo 2088" width="11" height="5" transform="translate(0.157 -0.038)" fill="#fff"/>
        </g>
        <g id="Grupo_8682" data-name="Grupo 8682" transform="translate(-1554.157 -1506.843)">
          <rect id="Rectángulo_2089" data-name="Rectángulo 2089" width="5" height="4" transform="translate(0.157 -0.157)" fill="#fff"/>
        </g>
        <g id="Grupo_8683" data-name="Grupo 8683" transform="translate(-1528.86 -1525.816)">
          <rect id="Rectángulo_2090" data-name="Rectángulo 2090" width="13" height="4" transform="translate(-0.14 -0.184)" fill="#fff"/>
        </g>
        <g id="Grupo_8684" data-name="Grupo 8684" transform="translate(-1545.799 -1512.034)">
          <path id="Trazado_18117" data-name="Trazado 18117" d="M495.494,308.579H461.649l-7.044-7.044,7.044-7.044h33.845a7.044,7.044,0,0,1,0,14.088m-31.9-4.7h31.9a2.348,2.348,0,0,0,0-4.7h-31.9l-2.348,2.348Z" transform="translate(-454.605 -294.491)" fill="#fff"/>
        </g>
        <g id="Grupo_8685" data-name="Grupo 8685" transform="translate(-1540.243 -1678.865)">
          <rect id="Rectángulo_2091" data-name="Rectángulo 2091" width="5" height="19" transform="translate(0.243 -0.135)" fill="#fff"/>
        </g>
        <g id="Grupo_8686" data-name="Grupo 8686" transform="translate(-1546.568 -1671.276)">
          <rect id="Rectángulo_2092" data-name="Rectángulo 2092" width="18" height="4" transform="translate(-0.432 0.275)" fill="#fff"/>
        </g>
        <g id="Grupo_8687" data-name="Grupo 8687" transform="translate(-1594.131 -1575.412)">
          <path id="Trazado_18118" data-name="Trazado 18118" d="M443.413,286.283a9.392,9.392,0,1,1,9.392-9.392,9.393,9.393,0,0,1-9.392,9.392m0-14.088a4.7,4.7,0,1,0,4.7,4.7,4.695,4.695,0,0,0-4.7-4.7" transform="translate(-434.021 -267.499)" fill="#fede31"/>
        </g>
        <g id="Grupo_8688" data-name="Grupo 8688" transform="translate(-1500.209 -1462.706)">
          <path id="Trazado_18119" data-name="Trazado 18119" d="M483.413,334.283a9.392,9.392,0,1,1,9.392-9.392,9.393,9.393,0,0,1-9.392,9.392m0-14.088a4.7,4.7,0,1,0,4.7,4.7,4.695,4.695,0,0,0-4.7-4.7" transform="translate(-474.021 -315.499)" fill="#5fe0ed"/>
        </g>
        <g id="Grupo_8689" data-name="Grupo 8689" transform="translate(-1357.199 -1500.275)">
          <rect id="Rectángulo_2093" data-name="Rectángulo 2093" width="4.696" height="18.784" fill="#5fe0ed"/>
        </g>
        <g id="Grupo_8690" data-name="Grupo 8690" transform="translate(-1364.243 -1493.231)">
          <rect id="Rectángulo_2094" data-name="Rectángulo 2094" width="18.784" height="4.696" fill="#5fe0ed"/>
        </g>
        <g id="Grupo_8691" data-name="Grupo 8691" transform="translate(-1500.209 -1575.412)">
          <path id="Trazado_18120" data-name="Trazado 18120" d="M478.717,267.5a4.7,4.7,0,1,1-4.7,4.7,4.695,4.695,0,0,1,4.7-4.7" transform="translate(-474.021 -267.499)" fill="#5fe0ed"/>
        </g>
        <g id="Grupo_8692" data-name="Grupo 8692" transform="translate(-1425.072 -1504.971)">
          <path id="Trazado_18121" data-name="Trazado 18121" d="M510.717,297.5a4.7,4.7,0,1,1-4.7,4.7,4.695,4.695,0,0,1,4.7-4.7" transform="translate(-506.021 -297.499)" fill="#dededd"/>
        </g>
        <g id="Grupo_8693" data-name="Grupo 8693" transform="translate(-1382.807 -1476.794)">
          <path id="Trazado_18122" data-name="Trazado 18122" d="M528.717,309.5a4.7,4.7,0,1,1-4.7,4.7,4.695,4.695,0,0,1,4.7-4.7" transform="translate(-524.021 -309.499)" fill="#dededd"/>
        </g>
      </g>
    </g>
  </g>
</svg>
