<svg xmlns="http://www.w3.org/2000/svg" width="198" height="200" viewBox="0 0 198 200">
  <g id="Grupo_14377" data-name="Grupo 14377" transform="translate(-839 -6663)">
    <g id="Grupo_14369" data-name="Grupo 14369">
      <g id="Grupo_13887" data-name="Grupo 13887" transform="translate(1 -128)">
        <g id="Elipse_644" data-name="Elipse 644" transform="translate(869 6791)" fill="#fdf8eb" stroke="#6278aa" stroke-width="3">
          <circle cx="68" cy="68" r="68" stroke="none"/>
          <circle cx="68" cy="68" r="66.5" fill="none"/>
        </g>
        <g id="Grupo_12123" data-name="Grupo 12123" transform="translate(486.586 6671.139)">
          <g id="Grupo_12118" data-name="Grupo 12118" transform="translate(431.002 144.023)">
            <g id="Grupo_12117" data-name="Grupo 12117">
              <path id="Trazado_19980" data-name="Trazado 19980" d="M441.647,162.068h-2.216a1.29,1.29,0,0,1,0-2.58h2.216a1.29,1.29,0,0,1,0,2.58Z" transform="translate(-420.799 -139.541)" fill="#6278aa"/>
              <g id="Grupo_12116" data-name="Grupo 12116" transform="translate(11.801)">
                <path id="Trazado_19981" data-name="Trazado 19981" d="M441.784,162.118c-4.674,0-7.939-3.721-7.939-9.047s3.265-9.048,7.939-9.048,7.939,3.721,7.939,9.048S446.458,162.118,441.784,162.118Zm0-15.515c-3.956,0-5.359,3.485-5.359,6.468s1.4,6.467,5.359,6.467,5.359-3.484,5.359-6.467S445.74,146.6,441.784,146.6Z" transform="translate(-433.845 -144.023)" fill="#6278aa"/>
              </g>
              <path id="Trazado_19982" data-name="Trazado 19982" d="M440.29,174.258a1.289,1.289,0,0,1-1.29-1.29v-12.19a1.29,1.29,0,1,1,2.58,0v12.19A1.289,1.289,0,0,1,440.29,174.258Z" transform="translate(-420.55 -139.541)" fill="#6278aa"/>
              <path id="Trazado_19983" data-name="Trazado 19983" d="M431.171,175.614a1.29,1.29,0,0,1-1.045-2.046l1.341-1.859a2.842,2.842,0,0,1,3.2-1.194l4.316.81c1.243-.139,7.529-.751,12.092.584l-.3-3.021a1.289,1.289,0,0,1,1.156-1.41,1.27,1.27,0,0,1,1.411,1.157l.506,5.121a1.29,1.29,0,0,1-1.9,1.261c-4.04-2.175-12.768-1.12-12.856-1.109a1.413,1.413,0,0,1-.4-.012l-4.629-.868a1.291,1.291,0,0,1-.276-.085c.014.021-.133.13-.236.275l-1.343,1.86A1.286,1.286,0,0,1,431.171,175.614Z" transform="translate(-423.193 -137.227)" fill="#6278aa"/>
              <path id="Trazado_19984" data-name="Trazado 19984" d="M457.58,184.321h-8.234a11.839,11.839,0,0,1-2.99-.542c-.04.006-.08.013-.121.015l-6.373.521-10.8.005a1.191,1.191,0,0,1-.135-.008,4.327,4.327,0,0,1-3.026-1.7,6.551,6.551,0,0,1-1.123-4.9l1.873-10.8c.823-4.041,5.3-7.424,9.779-7.424h1.358a1.291,1.291,0,0,1,1.176.761l5.474,12.154,5.471-12.154a1.291,1.291,0,0,1,1.176-.761h.792a9.043,9.043,0,0,1,8.679,7.387l1.562,11.679a5.068,5.068,0,0,1-1.161,4.087A4.551,4.551,0,0,1,457.58,184.321ZM446.14,180.97a11.023,11.023,0,0,0,3.205.771h8.234a1.986,1.986,0,0,0,1.408-.767,2.514,2.514,0,0,0,.578-2.038L458.013,167.3a6.441,6.441,0,0,0-6.094-5.235L446.588,173.9a2.432,2.432,0,0,1-2.153,1.344h0a2.4,2.4,0,0,1-2.11-1.263l-5.371-11.915h-.524c-3.281,0-6.667,2.488-7.245,5.322l-1.861,10.734a4.034,4.034,0,0,0,.618,2.912,1.749,1.749,0,0,0,1.2.706h10.618l2.576-.213c-2.509-1.537-6.556-3.605-9.739-3.288a1.27,1.27,0,0,1-1.09-.426,1.292,1.292,0,0,1-.3-1.134l1.221-5.578a1.29,1.29,0,1,1,2.52.552l-.878,4.01C439.368,176.088,445.236,180.3,446.14,180.97Z" transform="translate(-424.696 -139.541)" fill="#6278aa"/>
            </g>
          </g>
          <g id="Grupo_12122" data-name="Grupo 12122" transform="translate(402.937 195.586)">
            <g id="Grupo_12119" data-name="Grupo 12119" transform="translate(36.195)">
              <path id="Trazado_19985" data-name="Trazado 19985" d="M442.608,207.216a11.608,11.608,0,1,1,3.114-22.792,1.289,1.289,0,1,1-.69,2.484,9.03,9.03,0,1,0,6.605,8.7,1.29,1.29,0,1,1,2.58,0A11.62,11.62,0,0,1,442.608,207.216Z" transform="translate(-431 -184)" fill="#ff5a5a"/>
              <path id="Trazado_19986" data-name="Trazado 19986" d="M441.339,201.026a1.283,1.283,0,0,1-.89-.357l-4.674-4.464a1.289,1.289,0,1,1,1.78-1.865l3.6,3.437,9.456-13.236a1.289,1.289,0,1,1,2.1,1.5l-10.32,14.446a1.286,1.286,0,0,1-.927.535C441.419,201.024,441.379,201.026,441.339,201.026Z" transform="translate(-429.732 -184)" fill="#ff5a5a"/>
            </g>
            <g id="Grupo_12120" data-name="Grupo 12120" transform="translate(60.541 3.029)">
              <path id="Trazado_19987" data-name="Trazado 19987" d="M463,206.7a1.282,1.282,0,0,1-.6-.148l-5.193-2.729-5.194,2.729a1.289,1.289,0,0,1-1.87-1.359l.989-5.771-1.255-1.19,1.773-1.872,1.755,1.664a1.287,1.287,0,0,1,.384,1.154l-.664,3.875,3.481-1.829a1.287,1.287,0,0,1,1.2,0l3.481,1.829-.664-3.875a1.291,1.291,0,0,1,.37-1.141l2.816-2.743-3.89-.566a1.29,1.29,0,0,1-.971-.706l-1.74-3.525-1.74,3.525a1.294,1.294,0,0,1-.984.708l-2.605.351-.346-2.556,1.926-.259,2.593-5.253a1.343,1.343,0,0,1,2.313,0l2.6,5.261,5.8.844a1.289,1.289,0,0,1,.715,2.2l-4.2,4.1.991,5.782A1.289,1.289,0,0,1,463,206.7Z" transform="translate(-449.875 -186.348)" fill="#ff5a5a"/>
              <path id="Trazado_19988" data-name="Trazado 19988" d="M464.62,206.7a1.289,1.289,0,0,1-1.27-1.508l.985-5.746-1.208-1.081,1.718-1.924,1.742,1.557a1.3,1.3,0,0,1,.411,1.18l-.666,3.875,3.48-1.829a1.289,1.289,0,0,1,1.2,0l3.48,1.829-.663-3.875a1.291,1.291,0,0,1,.37-1.141l2.816-2.743-3.89-.566a1.287,1.287,0,0,1-.971-.706l-1.741-3.525-1.739,3.525a1.286,1.286,0,0,1-.974.706l-2.081.3-.366-2.553,1.408-.2,2.6-5.26a1.343,1.343,0,0,1,2.313,0l2.6,5.261,5.805.844a1.29,1.29,0,0,1,.716,2.2l-4.2,4.094.992,5.782a1.289,1.289,0,0,1-1.87,1.359l-5.194-2.729-5.193,2.729A1.285,1.285,0,0,1,464.62,206.7Z" transform="translate(-446.035 -186.348)" fill="#ff5a5a"/>
            </g>
            <g id="Grupo_12121" data-name="Grupo 12121" transform="translate(0 2.97)">
              <path id="Trazado_19989" data-name="Trazado 19989" d="M432.612,206.71a1.285,1.285,0,0,1-.6-.148l-5.193-2.729-5.194,2.729a1.289,1.289,0,0,1-1.87-1.359l.992-5.782-4.2-4.094a1.29,1.29,0,0,1,.716-2.2l5.805-.844,2.6-5.261a1.289,1.289,0,0,1,1.157-.718h0a1.287,1.287,0,0,1,1.156.718l2.593,5.253,1.926.259-.344,2.556-2.607-.351a1.294,1.294,0,0,1-.984-.708l-1.739-3.525-1.741,3.525a1.287,1.287,0,0,1-.971.706l-3.889.566,2.814,2.743a1.287,1.287,0,0,1,.37,1.141l-.663,3.875,3.48-1.829a1.289,1.289,0,0,1,1.2,0l3.48,1.829-.666-3.875a1.291,1.291,0,0,1,.384-1.154l1.757-1.665,1.773,1.874-1.255,1.189.989,5.771a1.289,1.289,0,0,1-1.27,1.508Z" transform="translate(-399.107 -186.303)" fill="#ff5a5a"/>
              <path id="Trazado_19990" data-name="Trazado 19990" d="M407.807,206.7a1.29,1.29,0,0,1-1.272-1.508l.993-5.782-4.2-4.094a1.29,1.29,0,0,1,.716-2.2l5.805-.844,2.6-5.261a1.343,1.343,0,0,1,2.313,0l2.6,5.26,1.408.2-.365,2.553-2.081-.3a1.283,1.283,0,0,1-.974-.706l-1.741-3.525-1.74,3.525a1.285,1.285,0,0,1-.971.706L407,195.29l2.814,2.743a1.292,1.292,0,0,1,.371,1.141l-.666,3.875,3.48-1.829a1.289,1.289,0,0,1,1.2,0l3.48,1.829-.664-3.875a1.293,1.293,0,0,1,.413-1.18l1.741-1.557,1.718,1.924-1.209,1.081.985,5.746a1.29,1.29,0,0,1-1.872,1.359L413.6,203.82l-5.193,2.729A1.285,1.285,0,0,1,407.807,206.7Z" transform="translate(-402.937 -186.29)" fill="#ff5a5a"/>
            </g>
          </g>
        </g>
      </g>
      <g id="Trazado_25218" data-name="Trazado 25218" transform="translate(839 6818)" fill="#ffd571">
        <path d="M 175.5 44 L 22.5 44 C 19.59707450866699 44 16.78152465820312 43.43167495727539 14.13154983520508 42.31082534790039 C 11.57145023345947 41.22800064086914 9.272049903869629 39.67765045166016 7.297200202941895 37.70280075073242 C 5.322350025177002 35.72795104980469 3.772000074386597 33.42855072021484 2.689174890518188 30.86845016479492 C 1.568325042724609 28.21847534179688 1 25.40292549133301 1 22.5 C 1 19.59707450866699 1.568325042724609 16.78152465820312 2.689174890518188 14.13154983520508 C 3.772000074386597 11.57145023345947 5.322350025177002 9.272049903869629 7.297200202941895 7.297200202941895 C 9.272049903869629 5.322350025177002 11.57145023345947 3.772000074386597 14.13154983520508 2.689174890518188 C 16.78152465820312 1.568325042724609 19.59707450866699 1 22.5 1 L 175.5 1 C 178.4029235839844 1 181.2184753417969 1.568325042724609 183.8684539794922 2.689174890518188 C 186.4285430908203 3.772000074386597 188.7279510498047 5.322350025177002 190.7028045654297 7.297200202941895 C 192.6776428222656 9.272049903869629 194.2279968261719 11.57145023345947 195.3108215332031 14.13154983520508 C 196.4316711425781 16.78152465820312 197 19.59707450866699 197 22.5 C 197 25.40292549133301 196.4316711425781 28.21847534179688 195.3108215332031 30.86845016479492 C 194.2279968261719 33.42855072021484 192.6776428222656 35.72795104980469 190.7028045654297 37.70280075073242 C 188.7279510498047 39.67765045166016 186.4285430908203 41.22800064086914 183.8684539794922 42.31082534790039 C 181.2184753417969 43.43167495727539 178.4029235839844 44 175.5 44 Z" stroke="none"/>
        <path d="M 22.5 2 C 19.73162841796875 2 17.04713439941406 2.541736602783203 14.52107238769531 3.610183715820312 C 12.08018493652344 4.642578125 9.88763427734375 6.120975494384766 8.004318237304688 8.004314422607422 C 6.1209716796875 9.887657165527344 4.642578125 12.0802116394043 3.610153198242188 14.52110481262207 C 2.541732788085938 17.04715728759766 2 19.73163223266602 2 22.5 C 2 25.26836776733398 2.541732788085938 27.95284271240234 3.610153198242188 30.47889518737793 C 4.642578125 32.9197883605957 6.1209716796875 35.11234283447266 8.004318237304688 36.99568557739258 C 9.88763427734375 38.8790283203125 12.08018493652344 40.357421875 14.52107238769531 41.38981628417969 C 17.04713439941406 42.4582633972168 19.73162841796875 43 22.5 43 L 175.5 43 C 178.2683715820312 43 180.9528503417969 42.4582633972168 183.4788970947266 41.38981628417969 C 185.9197845458984 40.357421875 188.1123352050781 38.8790283203125 189.9956817626953 36.99568557739258 C 191.8790283203125 35.11234283447266 193.357421875 32.9197883605957 194.3898162841797 30.47889518737793 C 195.4582672119141 27.95284271240234 196 25.26836776733398 196 22.5 C 196 19.73163223266602 195.4582672119141 17.04715728759766 194.3898162841797 14.52110481262207 C 193.357421875 12.0802116394043 191.8790283203125 9.887657165527344 189.9956817626953 8.004314422607422 C 188.1123352050781 6.120975494384766 185.9197845458984 4.642578125 183.4788970947266 3.610183715820312 C 180.9528503417969 2.541736602783203 178.2683715820312 2 175.5 2 L 22.5 2 M 22.5 0 L 175.5 0 C 187.9263916015625 0 198 10.07360458374023 198 22.5 C 198 34.92639541625977 187.9263916015625 45 175.5 45 L 22.5 45 C 10.07357788085938 45 0 34.92639541625977 0 22.5 C 0 10.07360458374023 10.07357788085938 0 22.5 0 Z" stroke="none" fill="#6278aa"/>
      </g>
    </g>
    <path id="Trazado_25225" data-name="Trazado 25225" d="M9.619-17.639A5.308,5.308,0,0,1,13.684-16a5.711,5.711,0,0,1,1.538,4.059A5.571,5.571,0,0,1,13.7-7.9,5.4,5.4,0,0,1,9.619-6.323H5.945V0H2.283V-17.639Zm-.61,8.252a2.691,2.691,0,0,0,2.014-.69,2.623,2.623,0,0,0,.671-1.91,2.6,2.6,0,0,0-.677-1.886,2.667,2.667,0,0,0-2.008-.7H5.945v5.188ZM21.2-10.559a4.074,4.074,0,0,1,1.648-1.508,5.028,5.028,0,0,1,2.454-.629v3.137a4.754,4.754,0,0,0-3,.757,3.3,3.3,0,0,0-.928,2.686V0h-3.54V-12.549H21.2ZM33.142.244A7.891,7.891,0,0,1,29.59-.525a5.748,5.748,0,0,1-2.435-2.258,6.73,6.73,0,0,1-.885-3.5,6.138,6.138,0,0,1,1.9-4.761,7.065,7.065,0,0,1,4.968-1.746,7.082,7.082,0,0,1,4.98,1.746,6.138,6.138,0,0,1,1.9,4.761,6.173,6.173,0,0,1-1.9,4.779A7.067,7.067,0,0,1,33.142.244Zm-.037-2.8A3.221,3.221,0,0,0,35.59-3.577a3.838,3.838,0,0,0,.946-2.71A3.838,3.838,0,0,0,35.59-9a3.221,3.221,0,0,0-2.484-1.025A3.1,3.1,0,0,0,30.695-8.99a3.874,3.874,0,0,0-.934,2.7,3.874,3.874,0,0,0,.934,2.7A3.1,3.1,0,0,0,33.105-2.551ZM49.719-15.942h-.073q-.342,0-.519.006t-.5.043a2.026,2.026,0,0,0-.507.11,2.582,2.582,0,0,0-.421.226,1.124,1.124,0,0,0-.366.366,2.213,2.213,0,0,0-.22.543,2.836,2.836,0,0,0-.092.757v1.343h2.7v2.7h-2.7V0h-3.5V-9.851H41.064v-2.7h2.454V-13.9a7.339,7.339,0,0,1,.159-1.6,4.866,4.866,0,0,1,.427-1.215,2.843,2.843,0,0,1,.714-.873,4.214,4.214,0,0,1,.928-.586A5.3,5.3,0,0,1,46.9-18.53a10.118,10.118,0,0,1,1.324-.177q.653-.043,1.5-.043ZM63.464-6.458l-.037.842h-9.3a3.249,3.249,0,0,0,1,2.295,3.2,3.2,0,0,0,2.209.793A3.085,3.085,0,0,0,58.99-2.96a2.664,2.664,0,0,0,1.056-1.263l3.223.476a5.479,5.479,0,0,1-2.2,2.942A6.533,6.533,0,0,1,57.361.244a6.794,6.794,0,0,1-4.889-1.727,6.3,6.3,0,0,1-1.813-4.791,6.34,6.34,0,0,1,1.819-4.791,6.592,6.592,0,0,1,4.773-1.752,6.3,6.3,0,0,1,4.5,1.6A6.273,6.273,0,0,1,63.464-6.458Zm-6.189-3.87A2.778,2.778,0,0,0,54.224-7.91h5.762A2.643,2.643,0,0,0,59.119-9.7,2.747,2.747,0,0,0,57.275-10.327ZM70.557.244a7.013,7.013,0,0,1-3.662-.879A3.715,3.715,0,0,1,65.1-3.247l2.942-.83a2.364,2.364,0,0,0,2.515,1.868A2.6,2.6,0,0,0,71.838-2.5a1,1,0,0,0,.5-.97,1.027,1.027,0,0,0-.208-.647,1.644,1.644,0,0,0-.641-.464,7.984,7.984,0,0,0-.854-.33q-.421-.134-1.117-.323t-1.16-.36a7.768,7.768,0,0,1-1.1-.47,4.712,4.712,0,0,1-.916-.647,2.608,2.608,0,0,1-.684-.983,3.545,3.545,0,0,1-.238-1.343,3.206,3.206,0,0,1,1.361-2.808,6.081,6.081,0,0,1,3.558-.952,6.235,6.235,0,0,1,3.284.806,3.646,3.646,0,0,1,1.685,2.515l-2.722.61a2.132,2.132,0,0,0-2.234-1.587,2.446,2.446,0,0,0-1.233.281.9.9,0,0,0-.488.83.951.951,0,0,0,.073.378.749.749,0,0,0,.256.305,3.739,3.739,0,0,0,.354.232,2.671,2.671,0,0,0,.5.2q.33.1.549.159T71-7.9l.653.171q.671.183,1.178.366a6.9,6.9,0,0,1,1.08.513,3.877,3.877,0,0,1,.946.739,3.294,3.294,0,0,1,.616,1.038,3.832,3.832,0,0,1,.244,1.4A3.775,3.775,0,0,1,75.3-1.855,3.161,3.161,0,0,1,74.146-.629a5.615,5.615,0,0,1-1.63.659A8.454,8.454,0,0,1,70.557.244Zm9.485-14.673a1.974,1.974,0,0,1-1.44-.592,1.943,1.943,0,0,1-.6-1.434,1.92,1.92,0,0,1,.6-1.422,1.98,1.98,0,0,1,1.434-.592,1.945,1.945,0,0,1,1.416.592,1.929,1.929,0,0,1,.6,1.422,1.943,1.943,0,0,1-.6,1.434A1.945,1.945,0,0,1,80.042-14.429ZM78.247,0V-12.549h3.54V0ZM91.272.244A7.891,7.891,0,0,1,87.72-.525a5.748,5.748,0,0,1-2.435-2.258,6.73,6.73,0,0,1-.885-3.5,6.138,6.138,0,0,1,1.9-4.761,7.065,7.065,0,0,1,4.968-1.746,7.082,7.082,0,0,1,4.98,1.746,6.138,6.138,0,0,1,1.9,4.761,6.173,6.173,0,0,1-1.9,4.779A7.067,7.067,0,0,1,91.272.244Zm-.037-2.8a3.221,3.221,0,0,0,2.484-1.025,3.838,3.838,0,0,0,.946-2.71A3.838,3.838,0,0,0,93.719-9a3.221,3.221,0,0,0-2.484-1.025A3.1,3.1,0,0,0,88.824-8.99a3.874,3.874,0,0,0-.934,2.7,3.874,3.874,0,0,0,.934,2.7A3.1,3.1,0,0,0,91.235-2.551Zm16.943-10.242a4.892,4.892,0,0,1,3.467,1.129,4.187,4.187,0,0,1,1.208,3.217V0h-3.528V-7.69a2.186,2.186,0,0,0-.629-1.733,2.369,2.369,0,0,0-1.617-.549,3.3,3.3,0,0,0-1.05.159,2.7,2.7,0,0,0-.879.494,2.185,2.185,0,0,0-.629.946,4.375,4.375,0,0,0-.238,1.453V0h-3.516V-12.549h3.516v1.392A4.835,4.835,0,0,1,108.179-12.793ZM126.55-3.406a11.74,11.74,0,0,0,.305,3.064V0h-3.284l-.281-1.367a4.08,4.08,0,0,1-1.758,1.208,6.478,6.478,0,0,1-2.271.4,5.97,5.97,0,0,1-1.172-.11,3.984,3.984,0,0,1-1.056-.372,3.2,3.2,0,0,1-.873-.653,2.864,2.864,0,0,1-.586-.995,3.963,3.963,0,0,1-.22-1.361,3.774,3.774,0,0,1,.232-1.361,3.19,3.19,0,0,1,.61-1.019,3.7,3.7,0,0,1,.989-.745,7.565,7.565,0,0,1,1.245-.537,14.877,14.877,0,0,1,1.489-.391l2.063-.464a2.275,2.275,0,0,0,.934-.4.791.791,0,0,0,.275-.629A1.3,1.3,0,0,0,122.577-10a2.878,2.878,0,0,0-1.5-.366,2.152,2.152,0,0,0-2.454,1.917l-3.113-.562a4.214,4.214,0,0,1,1.819-2.863,7.229,7.229,0,0,1,3.943-.922q5.273,0,5.273,4.529Zm-6.189,1.27a2.827,2.827,0,0,0,2.173-.909,3.832,3.832,0,0,0,.842-2.692L120.4-4.9a3.52,3.52,0,0,0-1.251.513,1.053,1.053,0,0,0-.433.9,1.169,1.169,0,0,0,.464.995A1.92,1.92,0,0,0,120.361-2.136ZM129.968,0V-18.75h3.552V0Z" transform="translate(873 6849)" fill="#00223d"/>
  </g>
</svg>
