<svg xmlns="http://www.w3.org/2000/svg" width="177" height="200" viewBox="0 0 177 200">
  <g id="Grupo_14376" data-name="Grupo 14376" transform="translate(-651 -6663)">
    <g id="Grupo_14368" data-name="Grupo 14368">
      <g id="Grupo_13886" data-name="Grupo 13886" transform="translate(15 -129)">
        <g id="Elipse_643" data-name="Elipse 643" transform="translate(657 6792)" fill="#fdf8eb" stroke="#6278aa" stroke-width="3">
          <circle cx="68" cy="68" r="68" stroke="none"/>
          <circle cx="68" cy="68" r="66.5" fill="none"/>
        </g>
        <g id="Grupo_9723" data-name="Grupo 9723" transform="translate(414 6690.002)">
          <g id="Grupo_9720" data-name="Grupo 9720">
            <g id="Grupo_9718" data-name="Grupo 9718">
              <path id="Trazado_19942" data-name="Trazado 19942" d="M303.271,175.323c-.031,0-.063,0-.1-.005a1,1,0,0,1-.9-1.09l.056-.584a8.033,8.033,0,0,1,2.351-4.665,7.889,7.889,0,0,0-.32-11.483,8.015,8.015,0,0,0-13.286,4.88,7.878,7.878,0,0,0,2.385,6.725,7.5,7.5,0,0,1,2.271,4.983l.013.162a1,1,0,1,1-1.994.154l-.014-.177a5.515,5.515,0,0,0-1.659-3.677,9.856,9.856,0,0,1-2.986-8.417,10,10,0,0,1,19.913,1.26,9.837,9.837,0,0,1-2.909,7,6.031,6.031,0,0,0-1.779,3.476l-.051.547A1,1,0,0,1,303.271,175.323Z" fill="#ff5a5a"/>
            </g>
            <path id="Trazado_19943" data-name="Trazado 19943" d="M298.826,151.466a1,1,0,0,1-1-1V147a1,1,0,0,1,2,0v3.466A1,1,0,0,1,298.826,151.466Z" fill="#ff5a5a"/>
            <path id="Trazado_19944" data-name="Trazado 19944" d="M315,165.33h-3.537a1,1,0,0,1,0-2H315a1,1,0,0,1,0,2Z" fill="#ff5a5a"/>
            <path id="Trazado_19945" data-name="Trazado 19945" d="M309.8,154.932a1,1,0,0,1-.707-1.707l2.31-2.31a1,1,0,1,1,1.414,1.414l-2.31,2.31A1,1,0,0,1,309.8,154.932Z" fill="#ff5a5a"/>
            <path id="Trazado_19946" data-name="Trazado 19946" d="M287.852,154.932a1,1,0,0,1-.708-.293l-2.31-2.31a1,1,0,1,1,1.414-1.414l2.311,2.31a1,1,0,0,1-.707,1.707Z" fill="#ff5a5a"/>
            <g id="Grupo_9719" data-name="Grupo 9719">
              <path id="Trazado_19947" data-name="Trazado 19947" d="M286.189,165.33h-3.538a1,1,0,0,1,0-2h3.538a1,1,0,0,1,0,2Z" fill="#ff5a5a"/>
            </g>
            <path id="Trazado_19948" data-name="Trazado 19948" d="M303.412,179.1h-8.933a1,1,0,0,1,0-2h8.933a1,1,0,0,1,0,2Z" fill="#ff5a5a"/>
            <path id="Trazado_19949" data-name="Trazado 19949" d="M301.737,182.867h-5.583a1,1,0,0,1,0-2h5.583a1,1,0,0,1,0,2Z" fill="#ff5a5a"/>
          </g>
          <g id="Grupo_9721" data-name="Grupo 9721">
            <path id="Trazado_19950" data-name="Trazado 19950" d="M305,204a1,1,0,0,1-1-1V191a1,1,0,0,1,1-1h11a4,4,0,0,0,4-4V176a1,1,0,0,1,1-1h5.615l-6.646-19.031a.984.984,0,0,1-.052-.245,21.2,21.2,0,0,0-18.85-19.624,20.781,20.781,0,0,0-16.152,5.36A21.043,21.043,0,0,0,278,157v46a1,1,0,0,1-2,0V157a23.052,23.052,0,0,1,7.57-17.021,22.744,22.744,0,0,1,17.691-5.869A23.191,23.191,0,0,1,321.9,155.434l6.552,18.945A1.954,1.954,0,0,1,326.615,177H322v9a6.006,6.006,0,0,1-6,6H306v11A1,1,0,0,1,305,204Z" fill="#6278aa"/>
          </g>
          <g id="Grupo_9722" data-name="Grupo 9722">
            <path id="Trazado_19951" data-name="Trazado 19951" d="M327,204a1,1,0,0,1-1-1V191a1,1,0,0,1,1-1h11a4,4,0,0,0,4-4V176a1,1,0,0,1,1-1h5.615l-6.646-19.031a.984.984,0,0,1-.052-.245,21.2,21.2,0,0,0-18.85-19.624,20.864,20.864,0,0,0-8.747,1,1,1,0,0,1-.64-1.895,22.823,22.823,0,0,1,9.581-1.091A23.191,23.191,0,0,1,343.9,155.434l6.552,18.945A1.954,1.954,0,0,1,348.615,177H344v9a6.006,6.006,0,0,1-6,6H328v11A1,1,0,0,1,327,204Z" fill="#6278aa"/>
          </g>
        </g>
      </g>
      <g id="Trazado_25216" data-name="Trazado 25216" transform="translate(651 6818)" fill="#ffd571">
        <path d="M 154.5 44 L 22.5 44 C 19.59706878662109 44 16.78152275085449 43.43168258666992 14.1315450668335 42.31084060668945 C 11.57145500183105 41.22800064086914 9.272045135498047 39.67763519287109 7.297204494476318 37.70279693603516 C 5.32236385345459 35.72795486450195 3.772000074386597 33.42854690551758 2.689159154891968 30.86845397949219 C 1.568318128585815 28.21847724914551 1 25.40293121337891 1 22.5 C 1 19.59706878662109 1.568318128585815 16.78152275085449 2.689159154891968 14.1315450668335 C 3.772000074386597 11.57145500183105 5.32236385345459 9.272045135498047 7.297204494476318 7.297204494476318 C 9.272045135498047 5.32236385345459 11.57145500183105 3.772000074386597 14.1315450668335 2.689159154891968 C 16.78152275085449 1.568318128585815 19.59706878662109 1 22.5 1 L 154.5 1 C 157.4029388427734 1 160.2184753417969 1.568318128585815 162.8684539794922 2.689159154891968 C 165.4285430908203 3.772000074386597 167.7279510498047 5.32236385345459 169.7027893066406 7.297204494476318 C 171.6776428222656 9.272045135498047 173.2279968261719 11.57145500183105 174.3108367919922 14.1315450668335 C 175.4316864013672 16.78152275085449 176 19.59706878662109 176 22.5 C 176 25.40293121337891 175.4316864013672 28.21847724914551 174.3108367919922 30.86845397949219 C 173.2279968261719 33.42854690551758 171.6776428222656 35.72795486450195 169.7027893066406 37.70279693603516 C 167.7279510498047 39.67763519287109 165.4285430908203 41.22800064086914 162.8684539794922 42.31084060668945 C 160.2184753417969 43.43168258666992 157.4029388427734 44 154.5 44 Z" stroke="none"/>
        <path d="M 22.5 2 C 19.73164367675781 2 17.04714965820312 2.541736602783203 14.52108764648438 3.61016845703125 C 12.08021545410156 4.642570495605469 9.887649536132812 6.120975494384766 8.004302978515625 8.004310607910156 C 6.1209716796875 9.887641906738281 4.642578125 12.08021545410156 3.61016845703125 14.52109527587891 C 2.541732788085938 17.04714202880859 2 19.73164367675781 2 22.5 C 2 25.26835632324219 2.541732788085938 27.95285797119141 3.61016845703125 30.47890472412109 C 4.642578125 32.91978454589844 6.1209716796875 35.11235809326172 8.004302978515625 36.99568939208984 C 9.887649536132812 38.87902450561523 12.08021545410156 40.35742950439453 14.52108764648438 41.38983154296875 C 17.04714965820312 42.4582633972168 19.73164367675781 43 22.5 43 L 154.5 43 C 157.2683563232422 43 159.9528503417969 42.4582633972168 162.4789123535156 41.38983154296875 C 164.9197845458984 40.35742950439453 167.1123504638672 38.87902450561523 168.9956970214844 36.99568939208984 C 170.8790283203125 35.11235809326172 172.357421875 32.91978454589844 173.3898315429688 30.47890472412109 C 174.4582672119141 27.95285797119141 175 25.26835632324219 175 22.5 C 175 19.73164367675781 174.4582672119141 17.04714202880859 173.3898315429688 14.52109527587891 C 172.357421875 12.08021545410156 170.8790283203125 9.887641906738281 168.9956970214844 8.004310607910156 C 167.1123504638672 6.120975494384766 164.9197845458984 4.642570495605469 162.4789123535156 3.61016845703125 C 159.9528503417969 2.541736602783203 157.2683563232422 2 154.5 2 L 22.5 2 M 22.5 0 L 154.5 0 C 166.9264068603516 0 177 10.0735969543457 177 22.5 C 177 34.92640686035156 166.9264068603516 45 154.5 45 L 22.5 45 C 10.07359313964844 45 0 34.92640686035156 0 22.5 C 0 10.0735969543457 10.07359313964844 0 22.5 0 Z" stroke="none" fill="#6278aa"/>
      </g>
    </g>
    <path id="Trazado_25224" data-name="Trazado 25224" d="M14.087,0,12.805-3.638H5.4L4.114,0H.366L6.86-17.639h4.48L17.834,0ZM6.47-6.7h5.261L9.106-14.185ZM24.438.244a7.013,7.013,0,0,1-3.662-.879,3.715,3.715,0,0,1-1.794-2.612l2.942-.83a2.364,2.364,0,0,0,2.515,1.868A2.6,2.6,0,0,0,25.72-2.5a1,1,0,0,0,.5-.97,1.027,1.027,0,0,0-.208-.647,1.644,1.644,0,0,0-.641-.464,7.984,7.984,0,0,0-.854-.33Q24.1-5.042,23.4-5.231t-1.16-.36a7.768,7.768,0,0,1-1.1-.47,4.712,4.712,0,0,1-.916-.647,2.608,2.608,0,0,1-.684-.983A3.545,3.545,0,0,1,19.3-9.033a3.206,3.206,0,0,1,1.361-2.808,6.081,6.081,0,0,1,3.558-.952,6.235,6.235,0,0,1,3.284.806,3.646,3.646,0,0,1,1.685,2.515l-2.722.61a2.132,2.132,0,0,0-2.234-1.587A2.446,2.446,0,0,0,23-10.168a.9.9,0,0,0-.488.83.951.951,0,0,0,.073.378.749.749,0,0,0,.256.305,3.739,3.739,0,0,0,.354.232,2.671,2.671,0,0,0,.5.2q.33.1.549.159t.641.165l.653.171q.671.183,1.178.366a6.9,6.9,0,0,1,1.08.513,3.877,3.877,0,0,1,.946.739,3.294,3.294,0,0,1,.616,1.038,3.832,3.832,0,0,1,.244,1.4,3.775,3.775,0,0,1-.421,1.819A3.161,3.161,0,0,1,28.027-.629,5.615,5.615,0,0,1,26.4.031,8.454,8.454,0,0,1,24.438.244Zm19.495-6.7-.037.842h-9.3a3.249,3.249,0,0,0,1,2.295,3.2,3.2,0,0,0,2.209.793,3.085,3.085,0,0,0,1.654-.433,2.664,2.664,0,0,0,1.056-1.263l3.223.476a5.479,5.479,0,0,1-2.2,2.942A6.533,6.533,0,0,1,37.83.244a6.794,6.794,0,0,1-4.889-1.727,6.3,6.3,0,0,1-1.813-4.791,6.34,6.34,0,0,1,1.819-4.791,6.592,6.592,0,0,1,4.773-1.752,6.3,6.3,0,0,1,4.5,1.6A6.273,6.273,0,0,1,43.933-6.458Zm-6.189-3.87A2.778,2.778,0,0,0,34.692-7.91h5.762A2.643,2.643,0,0,0,39.587-9.7,2.747,2.747,0,0,0,37.744-10.327ZM51.025.244a7.013,7.013,0,0,1-3.662-.879,3.715,3.715,0,0,1-1.794-2.612l2.942-.83a2.364,2.364,0,0,0,2.515,1.868A2.6,2.6,0,0,0,52.307-2.5a1,1,0,0,0,.5-.97,1.027,1.027,0,0,0-.208-.647,1.644,1.644,0,0,0-.641-.464,7.984,7.984,0,0,0-.854-.33q-.421-.134-1.117-.323t-1.16-.36a7.768,7.768,0,0,1-1.1-.47,4.712,4.712,0,0,1-.916-.647,2.608,2.608,0,0,1-.684-.983,3.545,3.545,0,0,1-.238-1.343,3.206,3.206,0,0,1,1.361-2.808,6.081,6.081,0,0,1,3.558-.952,6.235,6.235,0,0,1,3.284.806,3.646,3.646,0,0,1,1.685,2.515l-2.722.61a2.132,2.132,0,0,0-2.234-1.587,2.446,2.446,0,0,0-1.233.281.9.9,0,0,0-.488.83.951.951,0,0,0,.073.378.749.749,0,0,0,.256.305,3.739,3.739,0,0,0,.354.232,2.671,2.671,0,0,0,.5.2q.33.1.549.159t.641.165l.653.171q.671.183,1.178.366a6.9,6.9,0,0,1,1.08.513,3.877,3.877,0,0,1,.946.739,3.294,3.294,0,0,1,.616,1.038,3.832,3.832,0,0,1,.244,1.4,3.775,3.775,0,0,1-.421,1.819A3.161,3.161,0,0,1,54.614-.629a5.615,5.615,0,0,1-1.63.659A8.454,8.454,0,0,1,51.025.244Zm13.538,0a7.891,7.891,0,0,1-3.552-.769,5.748,5.748,0,0,1-2.435-2.258,6.73,6.73,0,0,1-.885-3.5,6.138,6.138,0,0,1,1.9-4.761,7.065,7.065,0,0,1,4.968-1.746,7.082,7.082,0,0,1,4.98,1.746,6.138,6.138,0,0,1,1.9,4.761,6.173,6.173,0,0,1-1.9,4.779A7.067,7.067,0,0,1,64.563.244Zm-.037-2.8A3.221,3.221,0,0,0,67.01-3.577a3.838,3.838,0,0,0,.946-2.71A3.838,3.838,0,0,0,67.01-9a3.221,3.221,0,0,0-2.484-1.025A3.1,3.1,0,0,0,62.115-8.99a3.874,3.874,0,0,0-.934,2.7,3.874,3.874,0,0,0,.934,2.7A3.1,3.1,0,0,0,64.526-2.551Zm12.9-8.008a4.074,4.074,0,0,1,1.648-1.508,5.028,5.028,0,0,1,2.454-.629v3.137a4.754,4.754,0,0,0-3,.757A3.3,3.3,0,0,0,77.6-6.116V0H74.06V-12.549h3.369Z" transform="translate(698 6849)" fill="#00223d"/>
  </g>
</svg>
