<svg xmlns="http://www.w3.org/2000/svg" width="216.461" height="173.321" viewBox="0 0 216.461 173.321">
  <g id="Grupo_14013" data-name="Grupo 14013" transform="translate(-795 -784)">
    <g id="Grupo_13923" data-name="Grupo 13923" transform="translate(-198 -2870.465)">
      <g id="Grupo_13003" data-name="Grupo 13003" transform="translate(1043.067 3681.345)">
        <g id="Grupo_13015" data-name="Grupo 13015" transform="translate(0 20.899)">
          <g id="Grupo_13008" data-name="Grupo 13008" transform="translate(0 0)">
            <g id="Grupo_13003-2" data-name="Grupo 13003" transform="translate(34.525)">
              <rect id="Rectángulo_2398" data-name="Rectángulo 2398" width="112.629" height="18.882" rx="9.441" fill="#c3e7fd"/>
            </g>
            <g id="Grupo_13004" data-name="Grupo 13004" transform="translate(0 37.764)">
              <rect id="Rectángulo_2399" data-name="Rectángulo 2399" width="166.394" height="18.882" rx="9.441" fill="#c3e7fd"/>
            </g>
            <g id="Grupo_13005" data-name="Grupo 13005" transform="translate(6.643 75.529)">
              <path id="Trazado_23833" data-name="Trazado 23833" d="M197.9,404.832H68.089a9.469,9.469,0,0,1-9.441-9.441h0a9.469,9.469,0,0,1,9.441-9.441H197.9a9.469,9.469,0,0,1,9.441,9.441h0A9.469,9.469,0,0,1,197.9,404.832Z" transform="translate(-58.648 -385.95)" fill="#c3e7fd"/>
            </g>
            <g id="Grupo_13006" data-name="Grupo 13006" transform="translate(47.876 18.882)">
              <path id="Trazado_23834" data-name="Trazado 23834" d="M262.043,216.554a9.469,9.469,0,0,1,9.441-9.441h-82.66a9.441,9.441,0,1,1,0,18.882h82.66A9.469,9.469,0,0,1,262.043,216.554Z" transform="translate(-188.824 -207.113)" fill="#c3e7fd"/>
            </g>
            <g id="Grupo_13007" data-name="Grupo 13007" transform="translate(30.769 56.647)">
              <path id="Trazado_23835" data-name="Trazado 23835" d="M220.1,335.779a9.469,9.469,0,0,1,9.441-9.441H134.815a9.441,9.441,0,1,1,0,18.882h94.731A9.469,9.469,0,0,1,220.1,335.779Z" transform="translate(-134.815 -326.338)" fill="#c3e7fd"/>
            </g>
          </g>
          <g id="Grupo_13009" data-name="Grupo 13009" transform="translate(3.707 55.496)">
            <path id="Trazado_23836" data-name="Trazado 23836" d="M52.891,329.726a.633.633,0,0,1-.633-.633,2.246,2.246,0,0,0-2.244-2.243.633.633,0,1,1,0-1.267,2.246,2.246,0,0,0,2.244-2.244.634.634,0,0,1,1.267,0,2.246,2.246,0,0,0,2.243,2.244.633.633,0,1,1,0,1.267,2.246,2.246,0,0,0-2.243,2.243A.634.634,0,0,1,52.891,329.726Zm-.867-3.51a3.547,3.547,0,0,1,.867.867,3.547,3.547,0,0,1,.867-.867,3.547,3.547,0,0,1-.867-.867A3.547,3.547,0,0,1,52.023,326.216Z" transform="translate(-49.38 -322.705)" fill="#fff"/>
          </g>
          <g id="Grupo_13010" data-name="Grupo 13010" transform="translate(19.162 72.597)">
            <path id="Trazado_23837" data-name="Trazado 23837" d="M101.682,383.713a.633.633,0,0,1-.634-.633,2.246,2.246,0,0,0-2.244-2.244.633.633,0,1,1,0-1.267,2.246,2.246,0,0,0,2.244-2.243.634.634,0,1,1,1.267,0,2.246,2.246,0,0,0,2.243,2.243.633.633,0,1,1,0,1.267,2.246,2.246,0,0,0-2.243,2.244A.634.634,0,0,1,101.682,383.713Zm-.867-3.511a3.549,3.549,0,0,1,.867.868,3.549,3.549,0,0,1,.867-.868,3.541,3.541,0,0,1-.867-.867A3.541,3.541,0,0,1,100.814,380.2Z" transform="translate(-98.171 -376.692)" fill="#fff"/>
          </g>
          <g id="Grupo_13011" data-name="Grupo 13011" transform="translate(152.532 52.561)">
            <path id="Trazado_23838" data-name="Trazado 23838" d="M522.739,320.461a.634.634,0,0,1-.634-.634,2.246,2.246,0,0,0-2.243-2.243.634.634,0,1,1,0-1.267,2.246,2.246,0,0,0,2.243-2.243.634.634,0,1,1,1.267,0,2.246,2.246,0,0,0,2.244,2.243.634.634,0,1,1,0,1.267,2.246,2.246,0,0,0-2.244,2.243A.633.633,0,0,1,522.739,320.461Zm-.867-3.511a3.542,3.542,0,0,1,.867.868,3.552,3.552,0,0,1,.868-.868,3.546,3.546,0,0,1-.868-.867A3.536,3.536,0,0,1,521.872,316.95Z" transform="translate(-519.229 -313.44)" fill="#fff"/>
          </g>
          <g id="Grupo_13012" data-name="Grupo 13012" transform="translate(155.409 96.777)">
            <path id="Trazado_23839" data-name="Trazado 23839" d="M531.822,460.051a.634.634,0,0,1-.634-.634,2.246,2.246,0,0,0-2.244-2.244.633.633,0,0,1,0-1.267,2.246,2.246,0,0,0,2.244-2.243.633.633,0,1,1,1.267,0,2.246,2.246,0,0,0,2.244,2.243.633.633,0,0,1,0,1.267,2.246,2.246,0,0,0-2.244,2.244A.633.633,0,0,1,531.822,460.051Zm-.867-3.511a3.538,3.538,0,0,1,.867.868,3.543,3.543,0,0,1,.868-.868,3.542,3.542,0,0,1-.868-.867A3.536,3.536,0,0,1,530.954,456.54Z" transform="translate(-528.311 -453.03)" fill="#fff"/>
          </g>
          <g id="Grupo_13013" data-name="Grupo 13013" transform="translate(3.014 95.966)">
            <path id="Trazado_23840" data-name="Trazado 23840" d="M50.7,457.492a3.51,3.51,0,1,1,3.51-3.511A3.515,3.515,0,0,1,50.7,457.492Zm0-5.754a2.243,2.243,0,1,0,2.243,2.243A2.246,2.246,0,0,0,50.7,451.738Z" transform="translate(-47.192 -450.471)" fill="#fff"/>
          </g>
          <g id="Grupo_13014" data-name="Grupo 13014" transform="translate(142.229 76.152)">
            <path id="Trazado_23841" data-name="Trazado 23841" d="M490.21,394.936a3.51,3.51,0,1,1,3.51-3.511A3.515,3.515,0,0,1,490.21,394.936Zm0-5.754a2.243,2.243,0,1,0,2.243,2.243A2.246,2.246,0,0,0,490.21,389.182Z" transform="translate(-486.699 -387.915)" fill="#fff"/>
          </g>
        </g>
        <g id="Grupo_13020" data-name="Grupo 13020" transform="translate(1.441 137.813)">
          <g id="Grupo_13016" data-name="Grupo 13016" transform="translate(0 0.634)">
            <path id="Trazado_23842" data-name="Trazado 23842" d="M201.728,526.6H46.221a4,4,0,0,1-4-4h0a4,4,0,0,1,4-4H201.728a4,4,0,0,1,4,4h0A4,4,0,0,1,201.728,526.6Z" transform="translate(-42.224 -518.607)" fill="#c3e7fd"/>
          </g>
          <g id="Grupo_13017" data-name="Grupo 13017" transform="translate(26.545)">
            <path id="Trazado_23843" data-name="Trazado 23843" d="M235.37,517.873H126.66a.633.633,0,1,1,0-1.267H235.37a.633.633,0,1,1,0,1.267Z" transform="translate(-126.027 -516.606)" fill="#0f467e"/>
          </g>
          <g id="Grupo_13018" data-name="Grupo 13018" transform="translate(6.359)">
            <path id="Trazado_23844" data-name="Trazado 23844" d="M77.54,517.873H62.934a.633.633,0,1,1,0-1.267H77.54a.633.633,0,1,1,0,1.267Z" transform="translate(-62.3 -516.606)" fill="#0f467e"/>
          </g>
          <g id="Grupo_13019" data-name="Grupo 13019" transform="translate(141.589)">
            <path id="Trazado_23845" data-name="Trazado 23845" d="M504.47,517.873H489.863a.633.633,0,1,1,0-1.267H504.47a.633.633,0,1,1,0,1.267Z" transform="translate(-489.229 -516.606)" fill="#0f467e"/>
          </g>
        </g>
        <g id="Grupo_13067" data-name="Grupo 13067" transform="translate(27.304 0)">
          <g id="Grupo_13021" data-name="Grupo 13021" transform="translate(47.048 70.981)">
            <path id="Trazado_23846" data-name="Trazado 23846" d="M289.887,305.613h-17.48v8.507l8.74,3.727,8.74-3.727Z" transform="translate(-272.408 -305.613)" fill="#fae7cd"/>
          </g>
          <g id="Grupo_13022" data-name="Grupo 13022" transform="translate(1.955 80.253)">
            <path id="Trazado_23847" data-name="Trazado 23847" d="M226.885,393.079l-2.217-37.014a14.645,14.645,0,0,0-11.009-13.318L196.1,338.281H171.661l-16.5,4.226a14.571,14.571,0,0,0-9.366,7.5l-1.82,3.57L144.2,334.9l-14.075-.016-.073,53.628a6.335,6.335,0,0,0,12,2.847L155.5,364.674h0l-.622,28.405Z" transform="translate(-130.047 -334.885)" fill="#fff"/>
          </g>
          <g id="Grupo_13023" data-name="Grupo 13023" transform="translate(15.887 91.003)">
            <path id="Trazado_23848" data-name="Trazado 23848" d="M175.851,373.194l-1.82,3.57v22.957l5.236-30.9A14.565,14.565,0,0,0,175.851,373.194Z" transform="translate(-174.031 -368.824)" fill="#ebebeb"/>
          </g>
          <g id="Grupo_13024" data-name="Grupo 13024" transform="translate(81.712 87.165)">
            <path id="Trazado_23849" data-name="Trazado 23849" d="M396.709,370.975A14.645,14.645,0,0,0,385.7,357.657l-3.855-.95c6.176,1.571,10.628,7.906,11.009,14.268l2.217,37.014h3.855Z" transform="translate(-381.845 -356.707)" fill="#ebebeb"/>
          </g>
          <g id="Grupo_13025" data-name="Grupo 13025" transform="translate(26.785 110.042)">
            <path id="Trazado_23850" data-name="Trazado 23850" d="M212.345,457.335h-3.907l.622-28.405Z" transform="translate(-208.438 -428.93)" fill="#ebebeb"/>
          </g>
          <g id="Grupo_13026" data-name="Grupo 13026" transform="translate(80.144 110.181)">
            <path id="Trazado_23851" data-name="Trazado 23851" d="M376.893,457.636h4.223l-1.686-28.266Z" transform="translate(-376.893 -429.37)" fill="#ebebeb"/>
          </g>
          <g id="Grupo_13027" data-name="Grupo 13027" transform="translate(1.321 79.62)">
            <path id="Trazado_23852" data-name="Trazado 23852" d="M135.017,394.123a6.971,6.971,0,0,1-6.97-6.977l.074-53.628a.634.634,0,0,1,.633-.633h0l14.075.016a.633.633,0,0,1,.633.641l-.185,15.967.59-1.158a15.209,15.209,0,0,1,9.773-7.824l16.5-4.226a.638.638,0,0,1,.157-.02h24.437a.634.634,0,0,1,.156.02l17.561,4.467a15.227,15.227,0,0,1,11.485,13.894l2.217,37.014a.633.633,0,0,1-.632.671H153.511a.633.633,0,0,1-.633-.647l.56-25.606-12.194,24.186A6.93,6.93,0,0,1,135.017,394.123Zm-5.631-59.97-.073,52.995a5.7,5.7,0,0,0,10.8,2.562l13.455-26.688a.633.633,0,0,1,1.2.3l-.608,27.758h70.687l-2.177-36.343A13.964,13.964,0,0,0,212.136,342l-17.484-4.447H170.375l-16.42,4.206A13.941,13.941,0,0,0,145,348.926l-1.82,3.57a.633.633,0,0,1-1.2-.3l.209-18.034Z" transform="translate(-128.047 -332.885)" fill="#0f467e"/>
          </g>
          <g id="Grupo_13028" data-name="Grupo 13028" transform="translate(49.686 91.149)">
            <path id="Trazado_23853" data-name="Trazado 23853" d="M288.719,369.283h-3.8l-4.183,36.333,6.2,4.9,6.135-4.665Z" transform="translate(-280.735 -369.283)" fill="#ee927e"/>
          </g>
          <g id="Grupo_13029" data-name="Grupo 13029" transform="translate(53.464 91.149)">
            <path id="Trazado_23854" data-name="Trazado 23854" d="M297.307,373.3l-.437-4.021h-3.8l-.4,3.991.031.031a3.234,3.234,0,0,0,4.579.031Z" transform="translate(-292.665 -369.283)" fill="#e6816c"/>
          </g>
          <g id="Grupo_13030" data-name="Grupo 13030" transform="translate(49.052 90.515)">
            <path id="Trazado_23855" data-name="Trazado 23855" d="M285.57,409.783a.63.63,0,0,1-.393-.137l-6.2-4.9a.634.634,0,0,1-.237-.569l4.183-36.333a.633.633,0,0,1,.629-.561h3.8a.634.634,0,0,1,.629.559l4.353,36.567a.634.634,0,0,1-.246.579l-6.135,4.666A.632.632,0,0,1,285.57,409.783Zm-5.532-5.812,5.539,4.377,5.456-4.149L286.79,368.55h-2.674Z" transform="translate(-278.735 -367.283)" fill="#0f467e"/>
          </g>
          <g id="Grupo_13031" data-name="Grupo 13031" transform="translate(49.528 82.75)">
            <path id="Trazado_23856" data-name="Trazado 23856" d="M280.239,349.111l3.967,4.031a3.234,3.234,0,0,0,4.579.031l4.107-4.062-6.412-6.343Z" transform="translate(-280.239 -342.768)" fill="#ee927e"/>
          </g>
          <g id="Grupo_13032" data-name="Grupo 13032" transform="translate(49.528 82.75)">
            <path id="Trazado_23857" data-name="Trazado 23857" d="M291.365,350.621l1.527-1.511-6.412-6.343-6.241,6.343,1.5,1.526,4.739-5.782Z" transform="translate(-280.239 -342.768)" fill="#e6816c"/>
          </g>
          <g id="Grupo_13033" data-name="Grupo 13033" transform="translate(48.895 82.117)">
            <path id="Trazado_23858" data-name="Trazado 23858" d="M285.145,353.375h-.027a3.84,3.84,0,0,1-2.73-1.155l-3.967-4.031a.633.633,0,0,1,0-.888l6.241-6.343a.633.633,0,0,1,.447-.189.617.617,0,0,1,.45.183l6.412,6.342a.633.633,0,0,1,0,.9l-4.107,4.062A3.842,3.842,0,0,1,285.145,353.375Zm-5.384-5.631,3.53,3.587a2.582,2.582,0,0,0,1.836.777h.018a2.581,2.581,0,0,0,1.828-.752l3.652-3.612-5.505-5.445Z" transform="translate(-278.239 -340.769)" fill="#0f467e"/>
          </g>
          <g id="Grupo_13036" data-name="Grupo 13036" transform="translate(25.804)">
            <g id="Grupo_13034" data-name="Grupo 13034" transform="translate(0.641 0.63)">
              <path id="Trazado_23859" data-name="Trazado 23859" d="M210.439,122.674s-6.059-26.044-1.167-39.109c2.628,6.31,8.42,9.226,20.054,4.208,8.261-3.563,23.528-9,26.795,3.713,14.406-6.023,7.121,31.124,7.121,31.124Z" transform="translate(-207.365 -83.512)" fill="#948876"/>
            </g>
            <g id="Grupo_13035" data-name="Grupo 13035">
              <path id="Trazado_23860" data-name="Trazado 23860" d="M209.056,121.948a.634.634,0,0,1-.617-.49,142.558,142.558,0,0,1-2.43-14.729c-1.21-10.908-.777-19.233,1.287-24.746a.634.634,0,0,1,1.178-.022,9.744,9.744,0,0,0,5.243,5.651c3.372,1.364,8.074.765,13.975-1.78,10.217-4.408,17.484-5.422,22.214-3.1a10.22,10.22,0,0,1,5.254,6.558c2.249-.776,4.134-.561,5.61.643,6.713,5.475,1.919,30.384,1.711,31.442a.633.633,0,0,1-.621.512l-52.8.064ZM207.995,83.9c-3.544,12.1.809,33.293,1.569,36.783l51.769-.062a117.733,117.733,0,0,0,1.586-12.846c.56-9-.46-14.828-2.95-16.859-1.247-1.017-2.879-1.083-4.987-.2a.633.633,0,0,1-.858-.427,9.249,9.249,0,0,0-4.776-6.417c-6.505-3.191-17.532,1.565-21.155,3.128-6.224,2.685-11.255,3.288-14.953,1.791A10.394,10.394,0,0,1,207.995,83.9Z" transform="translate(-205.34 -81.522)" fill="#0f467e"/>
            </g>
          </g>
          <g id="Grupo_13037" data-name="Grupo 13037" transform="translate(77.872 38.901)">
            <circle id="Elipse_667" data-name="Elipse 667" cx="4.382" cy="4.382" r="4.382" transform="translate(0 0)" fill="#fae7cd"/>
          </g>
          <g id="Grupo_13038" data-name="Grupo 13038" transform="translate(77.238 38.267)">
            <path id="Trazado_23861" data-name="Trazado 23861" d="M372.737,212.365a5.016,5.016,0,1,1,5.016-5.016A5.021,5.021,0,0,1,372.737,212.365Zm0-8.764a3.749,3.749,0,1,0,3.749,3.748A3.753,3.753,0,0,0,372.737,203.6Z" transform="translate(-367.721 -202.334)" fill="#0f467e"/>
          </g>
          <g id="Grupo_13039" data-name="Grupo 13039" transform="translate(25.138 38.901)">
            <circle id="Elipse_668" data-name="Elipse 668" cx="4.382" cy="4.382" r="4.382" transform="translate(0 0)" fill="#fae7cd"/>
          </g>
          <g id="Grupo_13040" data-name="Grupo 13040" transform="translate(24.505 38.267)">
            <path id="Trazado_23862" data-name="Trazado 23862" d="M206.253,212.365a5.016,5.016,0,1,1,5.016-5.016A5.021,5.021,0,0,1,206.253,212.365Zm0-8.764A3.749,3.749,0,1,0,210,207.349,3.753,3.753,0,0,0,206.253,203.6Z" transform="translate(-201.238 -202.334)" fill="#0f467e"/>
          </g>
          <g id="Grupo_13041" data-name="Grupo 13041" transform="translate(47.048 70.981)">
            <path id="Trazado_23863" data-name="Trazado 23863" d="M272.408,309.287a27.394,27.394,0,0,0,8.839,1.471h0a27.387,27.387,0,0,0,8.64-1.4v-3.74h-17.48Z" transform="translate(-272.408 -305.613)" fill="#f0d6b2"/>
          </g>
          <g id="Grupo_13042" data-name="Grupo 13042" transform="translate(46.414 70.031)">
            <path id="Trazado_23864" data-name="Trazado 23864" d="M279.781,316.114a.633.633,0,0,1-.249-.051l-8.74-3.727a.633.633,0,0,1-.385-.583v-8.507a.634.634,0,0,1,.633-.633h17.48a.634.634,0,0,1,.634.633v8.507a.633.633,0,0,1-.385.583l-8.74,3.727A.633.633,0,0,1,279.781,316.114Zm-8.106-4.779,8.106,3.457,8.106-3.457V303.88H271.675Z" transform="translate(-270.408 -302.613)" fill="#0f467e"/>
          </g>
          <g id="Grupo_13043" data-name="Grupo 13043" transform="translate(30.981 20.056)">
            <path id="Trazado_23865" data-name="Trazado 23865" d="M246.59,197.6h0c-13.755,0-24.906-11.151-24.906-23.153V150.809c0-1.854,0-1.954.01-2.053a4.313,4.313,0,0,1,5.513-3.75c3.193.9,12.438,3.339,19.383,3.339s16.19-2.435,19.383-3.339a4.313,4.313,0,0,1,5.513,3.75c.007.1.01.2.01,2.053v23.641C271.5,186.452,260.345,197.6,246.59,197.6Z" transform="translate(-221.684 -144.839)" fill="#fae7cd"/>
          </g>
          <g id="Grupo_13044" data-name="Grupo 13044" transform="translate(30.347 19.431)">
            <path id="Trazado_23866" data-name="Trazado 23866" d="M245.224,196.888a26.1,26.1,0,0,1-18.048-7.25,23.173,23.173,0,0,1-7.492-16.537V149.461c0-1.924,0-1.978.011-2.1a4.757,4.757,0,0,1,2.048-3.588,5.02,5.02,0,0,1,4.3-.706c3.382.99,12.022,3.292,19.178,3.292s15.8-2.3,19.178-3.292a5.018,5.018,0,0,1,4.3.706,4.755,4.755,0,0,1,2.048,3.588c.008.116.012.17.012,2.1V173.1a23.173,23.173,0,0,1-7.491,16.537A26.1,26.1,0,0,1,245.224,196.888Zm-20.6-52.754a3.765,3.765,0,0,0-2.158.682,3.5,3.5,0,0,0-1.51,2.634c-.005.08-.009.22-.009,2.01V173.1a21.9,21.9,0,0,0,7.1,15.618,24.821,24.821,0,0,0,34.349,0,21.9,21.9,0,0,0,7.1-15.618V149.461c0-1.792,0-1.931-.009-2.01a3.5,3.5,0,0,0-1.509-2.634,3.758,3.758,0,0,0-3.221-.529c-3.435,1.005-12.214,3.343-19.533,3.343s-16.1-2.338-19.533-3.343A3.781,3.781,0,0,0,224.627,144.134Z" transform="translate(-219.684 -142.867)" fill="#0f467e"/>
          </g>
          <g id="Grupo_13049" data-name="Grupo 13049" transform="translate(44.79 51.448)">
            <g id="Grupo_13045" data-name="Grupo 13045" transform="translate(0.633 0.634)">
              <path id="Trazado_23867" data-name="Trazado 23867" d="M267.3,247.564a10.384,10.384,0,0,0,.071,2.05,10.463,10.463,0,0,0,20.836-1.38q0-.345-.022-.684a1.722,1.722,0,0,0-1.72-1.6H269.021A1.726,1.726,0,0,0,267.3,247.564Z" transform="translate(-267.279 -245.946)" fill="#b36e5f"/>
            </g>
            <g id="Grupo_13046" data-name="Grupo 13046" transform="translate(0.634 0.634)">
              <path id="Trazado_23868" data-name="Trazado 23868" d="M286.465,245.946H269.022a1.726,1.726,0,0,0-1.721,1.618,5.725,5.725,0,0,0,.021,1.251h20.842a1.732,1.732,0,0,0,.043-.581q0-.345-.022-.684A1.722,1.722,0,0,0,286.465,245.946Z" transform="translate(-267.28 -245.946)" fill="#fff"/>
            </g>
            <g id="Grupo_13047" data-name="Grupo 13047" transform="translate(3.552 7.009)">
              <path id="Trazado_23869" data-name="Trazado 23869" d="M284.039,266.075a10.629,10.629,0,0,0-7.545,3.132,10.426,10.426,0,0,0,15.1.014A10.629,10.629,0,0,0,284.039,266.075Z" transform="translate(-276.494 -266.075)" fill="#ee927e"/>
            </g>
            <g id="Grupo_13048" data-name="Grupo 13048">
              <path id="Trazado_23870" data-name="Trazado 23870" d="M276.381,257.965q-.2,0-.4-.007a11.205,11.205,0,0,1-10.6-9.626,11.032,11.032,0,0,1-.074-2.175,2.366,2.366,0,0,1,2.353-2.211H285.1a2.36,2.36,0,0,1,2.352,2.2c.016.242.024.486.024.725a11.1,11.1,0,0,1-11.093,11.1Zm-8.726-12.752a1.1,1.1,0,0,0-1.089,1.025h0a9.763,9.763,0,0,0,.066,1.925,9.926,9.926,0,0,0,9.39,8.528,9.831,9.831,0,0,0,10.185-9.824c0-.212-.007-.428-.022-.642a1.09,1.09,0,0,0-1.087-1.012Zm-1.721.984h0Z" transform="translate(-265.279 -243.946)" fill="#0f467e"/>
            </g>
          </g>
          <g id="Grupo_13050" data-name="Grupo 13050" transform="translate(55.135 77.691)">
            <path id="Trazado_23871" data-name="Trazado 23871" d="M309.685,328.8l3.406,4.919-1.431,11.1-11.719-11.592Z" transform="translate(-299.307 -328.164)" fill="#fff"/>
            <path id="Trazado_23872" data-name="Trazado 23872" d="M310.293,344.082a.633.633,0,0,1-.445-.183l-11.719-11.592a.633.633,0,0,1,.183-1.027l9.743-4.425a.634.634,0,0,1,.783.216l3.407,4.919a.633.633,0,0,1,.107.442l-1.43,11.1a.633.633,0,0,1-.628.552Zm-10.62-12.029L309.829,342.1l1.236-9.587-2.967-4.284Z" transform="translate(-297.941 -326.798)" fill="#0f467e"/>
          </g>
          <g id="Grupo_13051" data-name="Grupo 13051" transform="translate(42.222 77.691)">
            <path id="Trazado_23873" data-name="Trazado 23873" d="M262.342,328.8l-3.17,4.919,1.194,11.1,11.719-11.592Z" transform="translate(-258.539 -328.164)" fill="#fff"/>
            <path id="Trazado_23874" data-name="Trazado 23874" d="M259,344.082a.634.634,0,0,1-.63-.566l-1.194-11.1a.632.632,0,0,1,.1-.411l3.17-4.919a.634.634,0,0,1,.795-.234l9.743,4.425a.634.634,0,0,1,.184,1.027L259.446,343.9A.633.633,0,0,1,259,344.082Zm-.54-11.577,1.03,9.568,10.131-10.02-8.408-3.819Z" transform="translate(-257.172 -326.798)" fill="#0f467e"/>
          </g>
          <g id="Grupo_13052" data-name="Grupo 13052" transform="translate(82.048 109.547)">
            <path id="Trazado_23875" data-name="Trazado 23875" d="M385.223,456.9a.634.634,0,0,1-.632-.6l-1.686-28.266a.633.633,0,0,1,.595-.67.626.626,0,0,1,.67.595l1.686,28.266a.634.634,0,0,1-.595.67Z" transform="translate(-382.904 -427.368)" fill="#0f467e"/>
          </g>
          <g id="Grupo_13053" data-name="Grupo 13053" transform="translate(40.895 35.343)">
            <ellipse id="Elipse_669" data-name="Elipse 669" cx="2.264" cy="4.374" rx="2.264" ry="4.374" fill="#0f467e"/>
          </g>
          <g id="Grupo_13054" data-name="Grupo 13054" transform="translate(66.351 35.343)">
            <ellipse id="Elipse_670" data-name="Elipse 670" cx="2.264" cy="4.374" rx="2.264" ry="4.374" fill="#0f467e"/>
          </g>
          <g id="Grupo_13055" data-name="Grupo 13055" transform="translate(15.253 98.31)">
            <path id="Trazado_23876" data-name="Trazado 23876" d="M172.665,416.116a.633.633,0,0,1-.633-.634V392.525a.634.634,0,0,1,1.267,0v22.957A.634.634,0,0,1,172.665,416.116Z" transform="translate(-172.031 -391.892)" fill="#0f467e"/>
          </g>
          <g id="Grupo_13056" data-name="Grupo 13056" transform="translate(3.148 72.85)">
            <rect id="Rectángulo_2400" data-name="Rectángulo 2400" width="10.395" height="6.77" transform="translate(0.634 0.633)" fill="#fae7cd"/>
            <path id="Trazado_23877" data-name="Trazado 23877" d="M144.844,319.55h-10.4a.634.634,0,0,1-.633-.634v-6.77a.633.633,0,0,1,.633-.634h10.4a.633.633,0,0,1,.633.634v6.77A.634.634,0,0,1,144.844,319.55Zm-9.762-1.267h9.128v-5.5h-9.128Z" transform="translate(-133.815 -311.513)" fill="#0f467e"/>
          </g>
          <g id="Grupo_13066" data-name="Grupo 13066" transform="translate(0 54.32)">
            <g id="Grupo_13059" data-name="Grupo 13059" transform="translate(9.791)">
              <g id="Grupo_13057" data-name="Grupo 13057" transform="translate(0.634 0.633)">
                <path id="Rectángulo_2401" data-name="Rectángulo 2401" d="M2.043,0h0A2.043,2.043,0,0,1,4.086,2.043V14.42a2.043,2.043,0,0,1-2.043,2.043h0A2.043,2.043,0,0,1,0,14.42V2.043A2.043,2.043,0,0,1,2.043,0Z" fill="#fae7cd"/>
              </g>
              <g id="Grupo_13058" data-name="Grupo 13058">
                <path id="Trazado_23878" data-name="Trazado 23878" d="M157.463,270.743a2.68,2.68,0,0,1-2.677-2.677V255.69a2.677,2.677,0,0,1,5.353,0v12.377A2.679,2.679,0,0,1,157.463,270.743Zm0-16.463a1.411,1.411,0,0,0-1.41,1.41v12.377a1.41,1.41,0,0,0,2.819,0V255.69A1.411,1.411,0,0,0,157.463,254.28Z" transform="translate(-154.786 -253.013)" fill="#0f467e"/>
              </g>
            </g>
            <g id="Grupo_13062" data-name="Grupo 13062" transform="translate(0 7.661)">
              <g id="Grupo_13060" data-name="Grupo 13060" transform="translate(0 0)">
                <rect id="Rectángulo_2402" data-name="Rectángulo 2402" width="11.566" height="10.8" rx="5.4" transform="matrix(0.961, -0.275, 0.275, 0.961, 0, 3.186)" fill="#fae7cd"/>
              </g>
              <g id="Grupo_13061" data-name="Grupo 13061" transform="translate(0.44 0.439)">
                <path id="Trazado_23879" data-name="Trazado 23879" d="M130.91,291.275a5.176,5.176,0,0,1-4.969-3.745l-.477-1.666a5.173,5.173,0,0,1,3.544-6.391l2.4-.688a5.173,5.173,0,0,1,6.39,3.544l.477,1.666a5.173,5.173,0,0,1-3.544,6.391l-2.4.688A5.173,5.173,0,0,1,130.91,291.275Zm1.921-11.422a3.884,3.884,0,0,0-1.073.151l-2.4.688a3.9,3.9,0,0,0-2.675,4.824l.477,1.665a3.906,3.906,0,0,0,4.824,2.675l2.4-.688a3.9,3.9,0,0,0,2.675-4.824l-.477-1.665A3.907,3.907,0,0,0,132.831,279.852Zm1.728,9.925h0Z" transform="translate(-125.263 -278.585)" fill="#0f467e"/>
              </g>
            </g>
            <g id="Grupo_13065" data-name="Grupo 13065" transform="translate(8.598 13.476)">
              <g id="Grupo_13063" data-name="Grupo 13063" transform="translate(0.634 0.634)">
                <path id="Trazado_23880" data-name="Trazado 23880" d="M159.141,302.624l-2.824.809a2.59,2.59,0,0,1-3.195-1.772h0a2.591,2.591,0,0,1,1.772-3.2l2.824-.809a2.591,2.591,0,0,1,3.2,1.772h0A2.591,2.591,0,0,1,159.141,302.624Z" transform="translate(-153.023 -297.557)" fill="#fae7cd"/>
              </g>
              <g id="Grupo_13064" data-name="Grupo 13064">
                <path id="Trazado_23881" data-name="Trazado 23881" d="M154.239,302.8a3.218,3.218,0,0,1-.887-6.31l2.824-.809a3.217,3.217,0,0,1,1.772,6.185l-2.824.809A3.21,3.21,0,0,1,154.239,302.8Zm2.822-5.976a1.941,1.941,0,0,0-.536.076l-2.824.809a1.949,1.949,0,0,0,1.074,3.748l2.824-.809a1.958,1.958,0,0,0,1.337-2.411A1.953,1.953,0,0,0,157.061,296.823Z" transform="translate(-151.021 -295.556)" fill="#0f467e"/>
              </g>
            </g>
          </g>
        </g>
      </g>
    </g>
    <g id="Grupo_14012" data-name="Grupo 14012" transform="translate(634.87 751.87)">
      <g id="Grupo_13924" data-name="Grupo 13924" transform="translate(164.633 32)">
        <rect id="Rectángulo_2588" data-name="Rectángulo 2588" width="2" height="74" transform="translate(0.497 0.13)" fill="#6b8ad3"/>
      </g>
      <g id="Grupo_13925" data-name="Grupo 13925" transform="translate(160 99.18)">
        <rect id="Rectángulo_2589" data-name="Rectángulo 2589" width="74" height="2" transform="translate(0.13 -0.05)" fill="#6b8ad3"/>
      </g>
      <g id="Grupo_13927" data-name="Grupo 13927" transform="translate(169.266 103.814)">
        <g id="Grupo_13926" data-name="Grupo 13926">
          <rect id="Rectángulo_2590" data-name="Rectángulo 2590" width="2" height="2" transform="translate(-0.136 0.317)" fill="#a8a7a5"/>
        </g>
      </g>
      <g id="Grupo_13929" data-name="Grupo 13929" transform="translate(173.899 103.814)">
        <g id="Grupo_13928" data-name="Grupo 13928">
          <rect id="Rectángulo_2591" data-name="Rectángulo 2591" width="2" height="2" transform="translate(0.231 0.317)" fill="#a8a7a5"/>
        </g>
      </g>
      <g id="Grupo_13931" data-name="Grupo 13931" transform="translate(178.533 103.814)">
        <g id="Grupo_13930" data-name="Grupo 13930">
          <rect id="Rectángulo_2592" data-name="Rectángulo 2592" width="3" height="2" transform="translate(-0.402 0.317)" fill="#a8a7a5"/>
        </g>
      </g>
      <g id="Grupo_13933" data-name="Grupo 13933" transform="translate(183.166 103.814)">
        <g id="Grupo_13932" data-name="Grupo 13932">
          <rect id="Rectángulo_2593" data-name="Rectángulo 2593" width="2" height="2" transform="translate(-0.035 0.317)" fill="#a8a7a5"/>
        </g>
      </g>
      <g id="Grupo_13935" data-name="Grupo 13935" transform="translate(187.799 103.814)">
        <g id="Grupo_13934" data-name="Grupo 13934">
          <rect id="Rectángulo_2594" data-name="Rectángulo 2594" width="2" height="2" transform="translate(0.331 0.317)" fill="#a8a7a5"/>
        </g>
      </g>
      <g id="Grupo_13937" data-name="Grupo 13937" transform="translate(192.432 103.814)">
        <g id="Grupo_13936" data-name="Grupo 13936">
          <rect id="Rectángulo_2595" data-name="Rectángulo 2595" width="3" height="2" transform="translate(-0.302 0.317)" fill="#a8a7a5"/>
        </g>
      </g>
      <g id="Grupo_13939" data-name="Grupo 13939" transform="translate(197.065 103.814)">
        <g id="Grupo_13938" data-name="Grupo 13938">
          <rect id="Rectángulo_2596" data-name="Rectángulo 2596" width="2" height="2" transform="translate(0.065 0.317)" fill="#a8a7a5"/>
        </g>
      </g>
      <g id="Grupo_13941" data-name="Grupo 13941" transform="translate(201.698 103.814)">
        <g id="Grupo_13940" data-name="Grupo 13940">
          <rect id="Rectángulo_2597" data-name="Rectángulo 2597" width="2" height="2" transform="translate(0.432 0.317)" fill="#a8a7a5"/>
        </g>
      </g>
      <g id="Grupo_13943" data-name="Grupo 13943" transform="translate(206.331 103.814)">
        <g id="Grupo_13942" data-name="Grupo 13942">
          <rect id="Rectángulo_2598" data-name="Rectángulo 2598" width="3" height="2" transform="translate(-0.201 0.317)" fill="#a8a7a5"/>
        </g>
      </g>
      <g id="Grupo_13945" data-name="Grupo 13945" transform="translate(210.964 103.814)">
        <g id="Grupo_13944" data-name="Grupo 13944">
          <rect id="Rectángulo_2599" data-name="Rectángulo 2599" width="2" height="2" transform="translate(0.166 0.317)" fill="#a8a7a5"/>
        </g>
      </g>
      <g id="Grupo_13947" data-name="Grupo 13947" transform="translate(215.598 103.814)">
        <g id="Grupo_13946" data-name="Grupo 13946">
          <rect id="Rectángulo_2600" data-name="Rectángulo 2600" width="3" height="2" transform="translate(-0.468 0.317)" fill="#a8a7a5"/>
        </g>
      </g>
      <g id="Grupo_13949" data-name="Grupo 13949" transform="translate(220.231 103.814)">
        <g id="Grupo_13948" data-name="Grupo 13948">
          <rect id="Rectángulo_2601" data-name="Rectángulo 2601" width="2" height="2" transform="translate(-0.101 0.317)" fill="#a8a7a5"/>
        </g>
      </g>
      <g id="Grupo_13951" data-name="Grupo 13951" transform="translate(224.864 103.814)">
        <g id="Grupo_13950" data-name="Grupo 13950">
          <rect id="Rectángulo_2602" data-name="Rectángulo 2602" width="2" height="2" transform="translate(0.266 0.317)" fill="#a8a7a5"/>
        </g>
      </g>
      <g id="Grupo_13953" data-name="Grupo 13953" transform="translate(229.497 103.814)">
        <g id="Grupo_13952" data-name="Grupo 13952">
          <rect id="Rectángulo_2603" data-name="Rectángulo 2603" width="3" height="2" transform="translate(-0.367 0.317)" fill="#a8a7a5"/>
        </g>
      </g>
      <g id="Grupo_13955" data-name="Grupo 13955" transform="translate(160 34.317)">
        <g id="Grupo_13954" data-name="Grupo 13954">
          <rect id="Rectángulo_2604" data-name="Rectángulo 2604" width="2" height="3" transform="translate(0.13 -0.186)" fill="#a8a7a5"/>
        </g>
      </g>
      <g id="Grupo_13957" data-name="Grupo 13957" transform="translate(160 38.95)">
        <g id="Grupo_13956" data-name="Grupo 13956">
          <rect id="Rectángulo_2605" data-name="Rectángulo 2605" width="2" height="2" transform="translate(0.13 0.18)" fill="#a8a7a5"/>
        </g>
      </g>
      <g id="Grupo_13959" data-name="Grupo 13959" transform="translate(160 43.583)">
        <g id="Grupo_13958" data-name="Grupo 13958">
          <rect id="Rectángulo_2606" data-name="Rectángulo 2606" width="2" height="3" transform="translate(0.13 -0.453)" fill="#a8a7a5"/>
        </g>
      </g>
      <g id="Grupo_13961" data-name="Grupo 13961" transform="translate(160 48.216)">
        <g id="Grupo_13960" data-name="Grupo 13960">
          <rect id="Rectángulo_2607" data-name="Rectángulo 2607" width="2" height="2" transform="translate(0.13 -0.086)" fill="#a8a7a5"/>
        </g>
      </g>
      <g id="Grupo_13963" data-name="Grupo 13963" transform="translate(160 52.849)">
        <g id="Grupo_13962" data-name="Grupo 13962">
          <rect id="Rectángulo_2608" data-name="Rectángulo 2608" width="2" height="2" transform="translate(0.13 0.281)" fill="#a8a7a5"/>
        </g>
      </g>
      <g id="Grupo_13965" data-name="Grupo 13965" transform="translate(160 57.482)">
        <g id="Grupo_13964" data-name="Grupo 13964">
          <rect id="Rectángulo_2609" data-name="Rectángulo 2609" width="2" height="3" transform="translate(0.13 -0.352)" fill="#a8a7a5"/>
        </g>
      </g>
      <g id="Grupo_13967" data-name="Grupo 13967" transform="translate(160 62.115)">
        <g id="Grupo_13966" data-name="Grupo 13966">
          <rect id="Rectángulo_2610" data-name="Rectángulo 2610" width="2" height="2" transform="translate(0.13 0.015)" fill="#a8a7a5"/>
        </g>
      </g>
      <g id="Grupo_13969" data-name="Grupo 13969" transform="translate(160 66.748)">
        <g id="Grupo_13968" data-name="Grupo 13968">
          <rect id="Rectángulo_2611" data-name="Rectángulo 2611" width="2" height="2" transform="translate(0.13 0.382)" fill="#a8a7a5"/>
        </g>
      </g>
      <g id="Grupo_13971" data-name="Grupo 13971" transform="translate(160 71.382)">
        <g id="Grupo_13970" data-name="Grupo 13970">
          <rect id="Rectángulo_2612" data-name="Rectángulo 2612" width="2" height="3" transform="translate(0.13 -0.252)" fill="#a8a7a5"/>
        </g>
      </g>
      <g id="Grupo_13973" data-name="Grupo 13973" transform="translate(160 76.015)">
        <g id="Grupo_13972" data-name="Grupo 13972">
          <rect id="Rectángulo_2613" data-name="Rectángulo 2613" width="2" height="2" transform="translate(0.13 0.115)" fill="#a8a7a5"/>
        </g>
      </g>
      <g id="Grupo_13975" data-name="Grupo 13975" transform="translate(160 80.648)">
        <g id="Grupo_13974" data-name="Grupo 13974">
          <rect id="Rectángulo_2614" data-name="Rectángulo 2614" width="2" height="2" transform="translate(0.13 0.482)" fill="#a8a7a5"/>
        </g>
      </g>
      <g id="Grupo_13977" data-name="Grupo 13977" transform="translate(160 85.281)">
        <g id="Grupo_13976" data-name="Grupo 13976">
          <rect id="Rectángulo_2615" data-name="Rectángulo 2615" width="2" height="2" transform="translate(0.13 -0.151)" fill="#a8a7a5"/>
        </g>
      </g>
      <g id="Grupo_13979" data-name="Grupo 13979" transform="translate(160 89.914)">
        <g id="Grupo_13978" data-name="Grupo 13978">
          <rect id="Rectángulo_2616" data-name="Rectángulo 2616" width="2" height="2" transform="translate(0.13 0.216)" fill="#a8a7a5"/>
        </g>
      </g>
      <g id="Grupo_13981" data-name="Grupo 13981" transform="translate(160 94.547)">
        <g id="Grupo_13980" data-name="Grupo 13980">
          <rect id="Rectángulo_2617" data-name="Rectángulo 2617" width="2" height="3" transform="translate(0.13 -0.417)" fill="#a8a7a5"/>
        </g>
      </g>
      <g id="Grupo_13982" data-name="Grupo 13982" transform="translate(169.266 89.914)">
        <path id="Trazado_24235" data-name="Trazado 24235" d="M214.331,88.95H168V82h46.331Zm-44.015-2.317h41.7V84.317h-41.7Z" transform="translate(-168 -82)" fill="#2d2d2e"/>
      </g>
      <g id="Grupo_13983" data-name="Grupo 13983" transform="translate(169.266 80.648)">
        <path id="Trazado_24236" data-name="Trazado 24236" d="M223.6,80.95H168V74h55.6Zm-53.281-2.317h50.964V76.317H170.317Z" transform="translate(-168 -74)" fill="#2d2d2e"/>
      </g>
      <g id="Grupo_13984" data-name="Grupo 13984" transform="translate(169.266 71.382)">
        <path id="Trazado_24237" data-name="Trazado 24237" d="M218.964,72.95H168V66h50.964Zm-48.648-2.317h46.331V68.317H170.317Z" transform="translate(-168 -66)" fill="#2d2d2e"/>
      </g>
      <g id="Grupo_13985" data-name="Grupo 13985" transform="translate(169.266 62.115)">
        <path id="Trazado_24238" data-name="Trazado 24238" d="M232.864,64.95H168V58h64.864Zm-62.547-2.317h60.231V60.317H170.317Z" transform="translate(-168 -58)" fill="#2d2d2e"/>
      </g>
      <g id="Grupo_13986" data-name="Grupo 13986" transform="translate(169.266 52.849)">
        <path id="Trazado_24239" data-name="Trazado 24239" d="M209.7,56.95H168V50h41.7Zm-39.382-2.317h37.065V52.317H170.317Z" transform="translate(-168 -50)" fill="#2d2d2e"/>
      </g>
      <g id="Grupo_13987" data-name="Grupo 13987" transform="translate(169.266 43.583)">
        <path id="Trazado_24240" data-name="Trazado 24240" d="M225.914,48.95H168V42h57.914Zm-55.6-2.317H223.6V44.317H170.317Z" transform="translate(-168 -42)" fill="#2d2d2e"/>
      </g>
      <g id="Grupo_13988" data-name="Grupo 13988" transform="translate(169.266 34.317)">
        <path id="Trazado_24241" data-name="Trazado 24241" d="M214.331,40.95H168V34h46.331Zm-44.015-2.317h41.7V36.317h-41.7Z" transform="translate(-168 -34)" fill="#2d2d2e"/>
      </g>
      <g id="Grupo_13989" data-name="Grupo 13989" transform="translate(197.065 36.633)">
        <rect id="Rectángulo_2618" data-name="Rectángulo 2618" width="16" height="2" transform="translate(0.065 0.497)" fill="#ffd571"/>
      </g>
      <g id="Grupo_13990" data-name="Grupo 13990" transform="translate(206.331 45.899)">
        <rect id="Rectángulo_2619" data-name="Rectángulo 2619" width="19" height="2" transform="translate(-0.201 0.231)" fill="#5fe0ed"/>
      </g>
      <g id="Grupo_13991" data-name="Grupo 13991" transform="translate(183.166 55.166)">
        <rect id="Rectángulo_2620" data-name="Rectángulo 2620" width="26" height="2" transform="translate(-0.035 -0.036)" fill="#fff"/>
      </g>
      <g id="Grupo_13992" data-name="Grupo 13992" transform="translate(194.749 35.475)">
        <rect id="Rectángulo_2621" data-name="Rectángulo 2621" width="2" height="5" transform="translate(0.382 -0.345)" fill="#2d2d2e"/>
      </g>
      <g id="Grupo_13993" data-name="Grupo 13993" transform="translate(204.015 44.741)">
        <rect id="Rectángulo_2622" data-name="Rectángulo 2622" width="2" height="4" transform="translate(0.115 0.389)" fill="#2d2d2e"/>
      </g>
      <g id="Grupo_13994" data-name="Grupo 13994" transform="translate(180.849 54.007)">
        <rect id="Rectángulo_2623" data-name="Rectángulo 2623" width="2" height="5" transform="translate(0.281 0.123)" fill="#2d2d2e"/>
      </g>
      <g id="Grupo_13995" data-name="Grupo 13995" transform="translate(187.799 63.274)">
        <rect id="Rectángulo_2624" data-name="Rectángulo 2624" width="2" height="5" transform="translate(0.331 -0.143)" fill="#2d2d2e"/>
      </g>
      <g id="Grupo_13996" data-name="Grupo 13996" transform="translate(204.015 72.54)">
        <rect id="Rectángulo_2625" data-name="Rectángulo 2625" width="2" height="5" transform="translate(0.115 -0.41)" fill="#2d2d2e"/>
      </g>
      <g id="Grupo_13997" data-name="Grupo 13997" transform="translate(192.432 81.806)">
        <rect id="Rectángulo_2626" data-name="Rectángulo 2626" width="3" height="4" transform="translate(-0.302 0.324)" fill="#2d2d2e"/>
      </g>
      <g id="Grupo_13998" data-name="Grupo 13998" transform="translate(178.533 91.072)">
        <rect id="Rectángulo_2627" data-name="Rectángulo 2627" width="3" height="5" transform="translate(-0.402 0.058)" fill="#2d2d2e"/>
      </g>
      <g id="Grupo_13999" data-name="Grupo 13999" transform="translate(222.547 63.274)">
        <rect id="Rectángulo_2628" data-name="Rectángulo 2628" width="3" height="5" transform="translate(-0.417 -0.143)" fill="#2d2d2e"/>
      </g>
      <g id="Grupo_14000" data-name="Grupo 14000" transform="translate(171.583 36.633)">
        <rect id="Rectángulo_2629" data-name="Rectángulo 2629" width="24" height="2" transform="translate(-0.453 0.497)" fill="#5fe0ed"/>
      </g>
      <g id="Grupo_14001" data-name="Grupo 14001" transform="translate(171.583 55.166)">
        <rect id="Rectángulo_2630" data-name="Rectángulo 2630" width="10" height="2" transform="translate(-0.453 -0.036)" fill="#ffd571"/>
      </g>
      <g id="Grupo_14002" data-name="Grupo 14002" transform="translate(224.864 64.432)">
        <rect id="Rectángulo_2631" data-name="Rectángulo 2631" width="7" height="3" transform="translate(0.266 -0.302)" fill="#ffd571"/>
      </g>
      <g id="Grupo_14003" data-name="Grupo 14003" transform="translate(171.583 73.698)">
        <rect id="Rectángulo_2632" data-name="Rectángulo 2632" width="33" height="2" transform="translate(-0.453 0.432)" fill="#5fe0ed"/>
      </g>
      <g id="Grupo_14004" data-name="Grupo 14004" transform="translate(171.583 45.899)">
        <rect id="Rectángulo_2633" data-name="Rectángulo 2633" width="33" height="2" transform="translate(-0.453 0.231)" fill="#a8a7a5"/>
      </g>
      <g id="Grupo_14005" data-name="Grupo 14005" transform="translate(171.583 82.964)">
        <rect id="Rectángulo_2634" data-name="Rectángulo 2634" width="21" height="2" transform="translate(20.547 2.166) rotate(180)" fill="#ffd571"/>
      </g>
      <g id="Grupo_14006" data-name="Grupo 14006" transform="translate(171.583 92.231)">
        <rect id="Rectángulo_2635" data-name="Rectángulo 2635" width="7" height="2" transform="translate(6.547 1.899) rotate(180)" fill="#5fe0ed"/>
      </g>
      <g id="Grupo_14007" data-name="Grupo 14007" transform="translate(194.749 82.964)">
        <rect id="Rectángulo_2636" data-name="Rectángulo 2636" width="27" height="2" transform="translate(0.382 0.166)" fill="#a8a7a5"/>
      </g>
      <g id="Grupo_14008" data-name="Grupo 14008" transform="translate(190.115 64.432)">
        <rect id="Rectángulo_2637" data-name="Rectángulo 2637" width="32" height="3" transform="translate(0.015 -0.302)" fill="#a8a7a5"/>
      </g>
      <g id="Grupo_14009" data-name="Grupo 14009" transform="translate(171.583 64.432)">
        <rect id="Rectángulo_2638" data-name="Rectángulo 2638" width="17" height="3" transform="translate(-0.453 -0.302)" fill="#fff"/>
      </g>
      <g id="Grupo_14010" data-name="Grupo 14010" transform="translate(206.331 73.698)">
        <rect id="Rectángulo_2639" data-name="Rectángulo 2639" width="12" height="2" transform="translate(-0.201 0.432)" fill="#ffd571"/>
      </g>
      <g id="Grupo_14011" data-name="Grupo 14011" transform="translate(180.849 92.231)">
        <rect id="Rectángulo_2640" data-name="Rectángulo 2640" width="32" height="2" transform="translate(0.281 -0.101)" fill="#fff"/>
      </g>
    </g>
  </g>
</svg>
