<svg xmlns="http://www.w3.org/2000/svg" width="240.815" height="167.328" viewBox="0 0 240.815 167.328">
  <g id="Grupo_13832" data-name="Grupo 13832" transform="translate(-84.555 -282.736)">
    <g id="Grupo_13817" data-name="Grupo 13817" transform="translate(84.555 282.736)">
      <rect id="Rectángulo_2556" data-name="Rectángulo 2556" width="162.439" height="25.394" rx="12.697" transform="translate(58.607 0)" fill="#c3e7fd"/>
      <rect id="Rectángulo_2557" data-name="Rectángulo 2557" width="240.815" height="25.394" rx="12.697" transform="translate(0 50.788)" fill="#c3e7fd"/>
      <path id="Trazado_24148" data-name="Trazado 24148" d="M296.108,479.224H117.142a12.735,12.735,0,0,1-12.7-12.7h0a12.734,12.734,0,0,1,12.7-12.7H296.108a12.734,12.734,0,0,1,12.7,12.7h0A12.734,12.734,0,0,1,296.108,479.224Z" transform="translate(-91.379 -352.254)" fill="#c3e7fd"/>
      <path id="Trazado_24149" data-name="Trazado 24149" d="M297.664,350.558a12.734,12.734,0,0,1,12.7-12.7H195.538a12.7,12.7,0,1,1,0,25.394H310.361A12.735,12.735,0,0,1,297.664,350.558Z" transform="translate(-122.631 -312.467)" fill="#c3e7fd"/>
      <path id="Trazado_24150" data-name="Trazado 24150" d="M275.218,427.87a12.734,12.734,0,0,1,12.7-12.7h-127.4a12.7,12.7,0,0,1,0,25.394h127.4A12.734,12.734,0,0,1,275.218,427.87Z" transform="translate(-110.616 -338.991)" fill="#c3e7fd"/>
    </g>
    <path id="Trazado_24154" data-name="Trazado 24154" d="M319.044,548.894H93.639a4.813,4.813,0,0,1-4.813-4.813h0a4.813,4.813,0,0,1,4.813-4.813H319.044a4.813,4.813,0,0,1,4.813,4.813h0A4.813,4.813,0,0,1,319.044,548.894Z" transform="translate(-1.465 -98.83)" fill="#c3e7fd"/>
    <g id="Grupo_13820" data-name="Grupo 13820" transform="translate(237.955 381.423)">
      <path id="Trazado_24155" data-name="Trazado 24155" d="M321.874,506.766l-.887-9.494c20.853-1.946,23.929-6.186,24.375-7.438.378-1.061.3-3.758-4.465-9.9-4.171-5.374-10.7-11.793-17.607-18.589-1.71-1.682-3.457-3.4-5.22-5.154l6.722-6.764c1.751,1.742,3.487,3.448,5.185,5.119,7.143,7.026,13.891,13.663,18.453,19.541,3.726,4.8,8.393,11.985,5.916,18.941C351.62,500.688,341.605,504.924,321.874,506.766Z" transform="translate(-318.07 -449.431)" fill="#fae7cd"/>
    </g>
    <g id="Grupo_13821" data-name="Grupo 13821" transform="translate(236.097 379.566)">
      <path id="Trazado_24156" data-name="Trazado 24156" d="M319.718,507.226l-1.131-12.111,1.308-.122c21.392-2,23.193-6.385,23.259-6.571.079-.221.629-2.345-4.265-8.65-4.12-5.307-10.614-11.7-17.49-18.459-1.711-1.682-3.459-3.4-5.225-5.157l-.932-.926,8.575-8.627.931.926c1.75,1.739,3.484,3.444,5.181,5.113,7.179,7.062,13.954,13.726,18.569,19.671,3.915,5.043,8.809,12.623,6.116,20.188-2.921,8.2-13.28,12.706-33.587,14.6Zm1.729-9.743.642,6.878c18.288-1.845,27.575-5.793,30.048-12.74,2.261-6.349-2.179-13.14-5.715-17.695-4.508-5.807-11.222-12.411-18.331-19.4q-2.1-2.069-4.263-4.2l-4.87,4.9q2.169,2.146,4.283,4.223c6.94,6.826,13.5,13.274,17.724,18.72,3.927,5.059,5.5,8.808,4.665,11.142C344.832,491.544,340.61,495.538,321.447,497.483Z" transform="translate(-315.241 -446.604)" fill="#0f467e"/>
    </g>
    <g id="Grupo_13822" data-name="Grupo 13822" transform="translate(251.1 384.657)">
      <path id="Trazado_24157" data-name="Trazado 24157" d="M340.08,475.873l10.648-8.9-10.648-10.62Z" transform="translate(-338.766 -455.04)" fill="#4eb2e6"/>
      <path id="Trazado_24158" data-name="Trazado 24158" d="M339.394,476.5a1.313,1.313,0,0,1-1.314-1.314V455.668a1.313,1.313,0,0,1,2.241-.93l10.648,10.62a1.313,1.313,0,0,1-.085,1.938l-10.647,8.9A1.316,1.316,0,0,1,339.394,476.5Zm1.314-17.667v13.543L348.1,466.2Z" transform="translate(-338.08 -454.354)" fill="#0f467e"/>
    </g>
    <g id="Grupo_13823" data-name="Grupo 13823" transform="translate(165.112 294.72)">
      <path id="Trazado_24159" data-name="Trazado 24159" d="M213.213,364.684s-7.91-28.122-1.523-45.18c3.431,8.238,10.993,12.047,26.183,5.494,10.787-4.653,30.719-11.744,34.984,4.848,18.808-7.865,9.3,34.754,9.3,34.754Z" transform="translate(-207.875 -318.128)" fill="#948876"/>
      <path id="Trazado_24160" data-name="Trazado 24160" d="M212.522,365.316a1.314,1.314,0,0,1-1.265-.958,125.847,125.847,0,0,1-3.2-16.381c-1.592-12.374-1.019-22.338,1.706-29.615a1.314,1.314,0,0,1,1.206-.853,1.331,1.331,0,0,1,1.237.809c1.5,3.6,3.652,5.929,6.58,7.114,4.277,1.73,10.29.949,17.871-2.321,13.48-5.814,23.1-7.135,29.411-4.041a13.657,13.657,0,0,1,6.957,8.377c3.19-1.015,5.833-.668,7.872,1.04,3.52,2.947,4.88,9.921,4.041,20.726a119.265,119.265,0,0,1-2.2,14.993,1.314,1.314,0,0,1-1.281,1.027l-68.942.083Zm-1.232-43.058c-3.871,14.736,1.041,35.721,2.244,40.429l66.869-.08c1.715-8.269,4.344-27.474-1.189-32.107-1.532-1.282-3.671-1.322-6.542-.123a1.313,1.313,0,0,1-1.779-.885c-1.016-3.951-2.971-6.588-5.979-8.063-8.292-4.069-22.533,2.075-27.213,4.094-8.25,3.559-14.944,4.346-19.9,2.344A13.711,13.711,0,0,1,211.29,322.258Z" transform="translate(-207.183 -317.447)" fill="#0f467e"/>
    </g>
    <circle id="Elipse_683" data-name="Elipse 683" cx="5.721" cy="5.721" r="5.721" transform="translate(233.58 340.111)" fill="#fae7cd"/>
    <path id="Trazado_24161" data-name="Trazado 24161" d="M316.446,398.615a7.035,7.035,0,1,1,7.035-7.036A7.044,7.044,0,0,1,316.446,398.615Zm0-11.443a4.408,4.408,0,1,0,4.407,4.407A4.413,4.413,0,0,0,316.446,387.172Z" transform="translate(-77.144 -45.747)" fill="#0f467e"/>
    <circle id="Elipse_684" data-name="Elipse 684" cx="5.721" cy="5.721" r="5.721" transform="translate(164.729 340.111)" fill="#fae7cd"/>
    <path id="Trazado_24162" data-name="Trazado 24162" d="M211.637,398.615a7.035,7.035,0,1,1,7.035-7.036A7.044,7.044,0,0,1,211.637,398.615Zm0-11.443a4.408,4.408,0,1,0,4.407,4.407A4.413,4.413,0,0,0,211.637,387.172Z" transform="translate(-41.186 -45.747)" fill="#0f467e"/>
    <path id="Trazado_24163" data-name="Trazado 24163" d="M283.25,418.762H218.214V363.548c0-.131,0-.262.013-.391a5.631,5.631,0,0,1,7.2-4.9c4.169,1.18,16.24,4.359,25.307,4.359s21.138-3.179,25.307-4.359a5.631,5.631,0,0,1,7.2,4.9c.009.129.013.26.013.391Z" transform="translate(-45.856 -36.655)" fill="#fae7cd"/>
    <path id="Trazado_24164" data-name="Trazado 24164" d="M283.878,419.4H216.214V362.868c0-.163.005-.323.016-.484a6.692,6.692,0,0,1,2.881-5.048,7.041,7.041,0,0,1,6.032-.991c4.395,1.287,15.618,4.279,24.9,4.279s20.508-2.992,24.9-4.279a7.035,7.035,0,0,1,6.032.99,6.7,6.7,0,0,1,2.882,5.05c.011.16.016.319.016.481Zm-65.036-2.628H281.25v-53.9c0-.1,0-.2-.01-.3a4.082,4.082,0,0,0-1.764-3.072,4.426,4.426,0,0,0-3.79-.623c-4.5,1.318-16.016,4.384-25.64,4.384s-21.137-3.066-25.64-4.384a4.426,4.426,0,0,0-3.79.623,4.082,4.082,0,0,0-1.764,3.073c-.007.1-.01.2-.01.3Z" transform="translate(-45.17 -35.974)" fill="#0f467e"/>
    <path id="Trazado_24165" data-name="Trazado 24165" d="M268.381,408.286a1.314,1.314,0,0,1-1.314-1.314,1.517,1.517,0,1,0-3.034,0,1.314,1.314,0,1,1-2.628,0,4.144,4.144,0,1,1,8.289,0A1.314,1.314,0,0,1,268.381,408.286Z" transform="translate(-60.675 -52.02)" fill="#0f467e"/>
    <path id="Trazado_24166" data-name="Trazado 24166" d="M261.94,426.889c1.743-2.385,7.308-2.316,3.055-8.534-3.214-4.7-6.365,2.358-9.316.44-1.042-.677-3.737-3.111-4.507-.958-.712,1.991,2.913,2.287,2.148,5.778l-1.334,6.954h9.308Z" transform="translate(-57.131 -56.782)" fill="#dbcbb3"/>
    <rect id="Rectángulo_2558" data-name="Rectángulo 2558" width="102.916" height="68.395" rx="5.806" transform="translate(153.418 372.044)" fill="#e6e6e6"/>
    <path id="Trazado_24167" data-name="Trazado 24167" d="M288.484,435.154H193.2a3.815,3.815,0,0,0-3.815,3.814v3.021a3.814,3.814,0,0,1,3.815-3.814h95.287a3.814,3.814,0,0,1,3.815,3.814v-3.021A3.815,3.815,0,0,0,288.484,435.154Z" transform="translate(-35.964 -63.11)" fill="#fff"/>
    <path id="Trazado_24168" data-name="Trazado 24168" d="M287.8,504.177H192.511a5.134,5.134,0,0,1-5.129-5.129V438.282a5.134,5.134,0,0,1,5.129-5.128H287.8a5.134,5.134,0,0,1,5.129,5.128v60.766A5.134,5.134,0,0,1,287.8,504.177Zm-95.287-68.395a2.5,2.5,0,0,0-2.5,2.5v60.766a2.5,2.5,0,0,0,2.5,2.5H287.8a2.5,2.5,0,0,0,2.5-2.5V438.282a2.5,2.5,0,0,0-2.5-2.5Z" transform="translate(-35.278 -62.424)" fill="#0f467e"/>
    <circle id="Elipse_685" data-name="Elipse 685" cx="7.415" cy="7.415" r="7.415" transform="translate(196.31 412.291) rotate(-80.23)" fill="#fff"/>
    <path id="Trazado_24169" data-name="Trazado 24169" d="M307.011,539.9H137.96a1.314,1.314,0,0,1,0-2.628H307.011a1.314,1.314,0,0,1,0,2.628Z" transform="translate(-17.872 -98.144)" fill="#0f467e"/>
    <path id="Trazado_24170" data-name="Trazado 24170" d="M118.547,539.9h-17.59a1.314,1.314,0,1,1,0-2.628h17.59a1.314,1.314,0,1,1,0,2.628Z" transform="translate(-5.177 -98.144)" fill="#0f467e"/>
    <path id="Trazado_24171" data-name="Trazado 24171" d="M424.5,539.9h-17.59a1.314,1.314,0,0,1,0-2.628H424.5a1.314,1.314,0,0,1,0,2.628Z" transform="translate(-110.145 -98.144)" fill="#0f467e"/>
    <circle id="Elipse_686" data-name="Elipse 686" cx="2.814" cy="2.814" r="2.814" transform="translate(185.03 338.441)" fill="#0f467e"/>
    <circle id="Elipse_687" data-name="Elipse 687" cx="2.814" cy="2.814" r="2.814" transform="translate(219.093 338.441)" fill="#0f467e"/>
    <g id="Grupo_13824" data-name="Grupo 13824" transform="translate(194.984 356.863)">
      <path id="Trazado_24172" data-name="Trazado 24172" d="M265.525,424.234c1.744-2.385,7.308-2.316,3.056-8.534-3.215-4.7-6.366,2.358-9.317.44-1.042-.677-3.737-3.111-4.507-.958-.712,1.99,2.913,2.287,2.148,5.778l-1.334,6.954h9.308Z" transform="translate(-253.346 -412.734)" fill="#fae7cd"/>
      <path id="Trazado_24173" data-name="Trazado 24173" d="M264.191,428.539h-9.308a1.313,1.313,0,0,1-1.29-1.561l1.333-6.954a2.353,2.353,0,0,0-.945-2.535c-.694-.709-1.742-1.781-1.149-3.438a2.455,2.455,0,0,1,1.6-1.635c1.544-.477,3.17.711,4.359,1.578.193.141.364.265.5.356.5.324,1.171-.029,2.473-.856,1.743-1.108,4.658-2.959,7.212.776,1.489,2.176,2.031,3.884,1.707,5.374-.386,1.77-1.891,2.678-3.1,3.407a7.776,7.776,0,0,0-1.512,1.067l-.585,3.336A1.313,1.313,0,0,1,264.191,428.539Zm-7.718-2.628h6.615l.455-2.594a1.3,1.3,0,0,1,.233-.548,7.977,7.977,0,0,1,2.45-1.969c1.087-.654,1.755-1.1,1.89-1.715.107-.491-.034-1.468-1.308-3.332-1.024-1.5-1.565-1.357-3.634-.041-1.41.9-3.34,2.122-5.314.841-.17-.111-.38-.263-.617-.436a8.559,8.559,0,0,0-1.933-1.161,2.43,2.43,0,0,0,.55.694,4.909,4.909,0,0,1,1.641,4.9Z" transform="translate(-252.658 -412.044)" fill="#0f467e"/>
    </g>
    <g id="Grupo_13825" data-name="Grupo 13825" transform="translate(139.183 339.354)">
      <circle id="Elipse_688" data-name="Elipse 688" cx="4.874" cy="4.874" r="4.874" transform="translate(1.314 1.314)" fill="#fff"/>
      <path id="Trazado_24174" data-name="Trazado 24174" d="M173.9,397.768a6.188,6.188,0,1,1,6.189-6.187A6.195,6.195,0,0,1,173.9,397.768Zm0-9.749a3.561,3.561,0,1,0,3.561,3.561A3.565,3.565,0,0,0,173.9,388.02Z" transform="translate(-167.713 -385.392)" fill="#0f467e"/>
    </g>
    <g id="Grupo_13826" data-name="Grupo 13826" transform="translate(153.252 346.84)">
      <path id="Trazado_24175" data-name="Trazado 24175" d="M196.419,401.432a2.644,2.644,0,1,1-2.644-2.644A2.644,2.644,0,0,1,196.419,401.432Z" transform="translate(-189.816 -397.474)" fill="#fff"/>
      <path id="Trazado_24176" data-name="Trazado 24176" d="M193.089,404.7a3.958,3.958,0,1,1,3.958-3.958A3.963,3.963,0,0,1,193.089,404.7Zm0-5.289a1.331,1.331,0,1,0,1.33,1.331A1.332,1.332,0,0,0,193.089,399.415Z" transform="translate(-189.13 -396.787)" fill="#0f467e"/>
    </g>
    <g id="Grupo_13827" data-name="Grupo 13827" transform="translate(117.659 416.227)">
      <rect id="Rectángulo_2559" data-name="Rectángulo 2559" width="18.252" height="22.897" rx="1.92" transform="translate(1.314 1.314)" fill="#ffd571"/>
      <path id="Trazado_24177" data-name="Trazado 24177" d="M153.253,527.938h-15.73a2.578,2.578,0,0,1-2.575-2.575V504.987a2.578,2.578,0,0,1,2.575-2.575h15.73a2.578,2.578,0,0,1,2.575,2.575v20.376A2.578,2.578,0,0,1,153.253,527.938Zm-15.677-2.628H153.2V505.04H137.576Zm15.677-20.27h0Z" transform="translate(-134.948 -502.412)" fill="#0f467e"/>
    </g>
    <g id="Grupo_13828" data-name="Grupo 13828" transform="translate(109.9 419.401)">
      <path id="Trazado_24178" data-name="Trazado 24178" d="M132.9,520.755a3.751,3.751,0,0,1,0-7.5v-4.008a7.759,7.759,0,1,0,0,15.519Z" transform="translate(-123.822 -507.931)" fill="#ffd571"/>
      <path id="Trazado_24179" data-name="Trazado 24179" d="M132.209,525.391a9.073,9.073,0,1,1,0-18.147,1.314,1.314,0,0,1,1.314,1.314v4.009a1.314,1.314,0,0,1-1.314,1.314,2.437,2.437,0,0,0,0,4.874,1.313,1.313,0,0,1,1.314,1.314v4.008A1.313,1.313,0,0,1,132.209,525.391ZM130.9,510.006a6.446,6.446,0,0,0,0,12.622V521.21a5.066,5.066,0,0,1,0-9.785Z" transform="translate(-123.136 -507.244)" fill="#0f467e"/>
    </g>
    <g id="Grupo_13829" data-name="Grupo 13829" transform="translate(120.622 401.303)">
      <path id="Trazado_24180" data-name="Trazado 24180" d="M141.028,490.7h0a1.575,1.575,0,0,1-1.57-1.571v-7.863a1.575,1.575,0,0,1,1.57-1.57h0a1.575,1.575,0,0,1,1.571,1.57v7.863A1.575,1.575,0,0,1,141.028,490.7Z" transform="translate(-139.458 -479.694)" fill="#fff"/>
    </g>
    <g id="Grupo_13830" data-name="Grupo 13830" transform="translate(126.529 392.63)">
      <path id="Trazado_24181" data-name="Trazado 24181" d="M150.021,491.244h0a1.575,1.575,0,0,1-1.57-1.57V475.505a1.575,1.575,0,0,1,1.57-1.57h0a1.575,1.575,0,0,1,1.57,1.57v14.169A1.575,1.575,0,0,1,150.021,491.244Z" transform="translate(-148.451 -469.046)" fill="#fff"/>
      <path id="Trazado_24182" data-name="Trazado 24182" d="M151.591,468.062a1.57,1.57,0,1,1-1.57-1.57A1.57,1.57,0,0,1,151.591,468.062Z" transform="translate(-148.451 -466.492)" fill="#fff"/>
    </g>
    <g id="Grupo_13831" data-name="Grupo 13831" transform="translate(132.436 399.202)">
      <path id="Trazado_24183" data-name="Trazado 24183" d="M159.013,488.952h0a1.575,1.575,0,0,1-1.57-1.57v-9.316a1.574,1.574,0,0,1,1.57-1.57h0a1.575,1.575,0,0,1,1.57,1.57v9.316A1.575,1.575,0,0,1,159.013,488.952Z" transform="translate(-157.443 -476.495)" fill="#fff"/>
    </g>
  </g>
</svg>
