<svg xmlns="http://www.w3.org/2000/svg" width="348.868" height="286.504" viewBox="0 0 348.868 286.504">
  <g id="Grupo_14192" data-name="Grupo 14192" transform="translate(-609.057 -192.945)">
    <path id="Trazado_24456" data-name="Trazado 24456" d="M998.978,465.613,753.223,379.764l17.7-186.819,246.354,79.527Z" transform="translate(-83.113 0)" fill="#a8c4e5"/>
    <path id="Trazado_24457" data-name="Trazado 24457" d="M1034.036,302.84,824.35,230.305l-1,10.041-.023-.008-14.8,148.313,209.686,72.534,1-10.041.023.008Z" transform="translate(-114.999 -21.539)" fill="#dcdce0"/>
    <path id="Trazado_24458" data-name="Trazado 24458" d="M1022.375,310.6,812.689,238.066l-1,10.041-.023-.008-14.8,148.313,209.686,72.534,1-10.041.023.008Z" transform="translate(-108.276 -26.013)" fill="#e8e8ef"/>
    <path id="Trazado_24459" data-name="Trazado 24459" d="M1007.945,310.66,798.258,238.126l-1,10.041-.023-.008-14.8,148.313,209.686,72.534,1-10.041.023.008Z" transform="translate(-99.957 -26.047)" fill="#fff"/>
    <ellipse id="Elipse_726" data-name="Elipse 726" cx="5.189" cy="6.426" rx="5.189" ry="6.426" transform="translate(719.813 231.406) rotate(-49.675)" fill="#a8c4e5"/>
    <path id="Trazado_24460" data-name="Trazado 24460" d="M1245.526,398.1a4.518,4.518,0,0,1-4.671,5.66,7.551,7.551,0,0,1-6.981-5.817,4.518,4.518,0,0,1,4.671-5.66A7.551,7.551,0,0,1,1245.526,398.1Z" transform="translate(-360.149 -114.922)" fill="#a8c4e5"/>
    <g id="Grupo_14170" data-name="Grupo 14170" transform="translate(691.076 252.705)">
      <line id="Línea_28" data-name="Línea 28" x2="193.193" y2="64.733" transform="translate(10.753)" fill="none" stroke="#a8c4e5" stroke-miterlimit="10" stroke-width="1.666"/>
      <line id="Línea_29" data-name="Línea 29" x2="193.193" y2="64.733" transform="translate(8.065 23.881)" fill="none" stroke="#a8c4e5" stroke-miterlimit="10" stroke-width="1.666"/>
      <line id="Línea_30" data-name="Línea 30" x2="193.193" y2="64.733" transform="translate(5.377 47.761)" fill="none" stroke="#a8c4e5" stroke-miterlimit="10" stroke-width="1.666"/>
      <line id="Línea_31" data-name="Línea 31" x2="193.193" y2="64.733" transform="translate(2.688 71.642)" fill="none" stroke="#a8c4e5" stroke-miterlimit="10" stroke-width="1.666"/>
      <line id="Línea_32" data-name="Línea 32" x2="193.193" y2="64.733" transform="translate(0 95.523)" fill="none" stroke="#a8c4e5" stroke-miterlimit="10" stroke-width="1.666"/>
      <path id="Trazado_24461" data-name="Trazado 24461" d="M861.426,371.224l-25.94-8.692,2.688-23.881,25.94,8.692Z" transform="translate(-821.616 -336.706)" fill="none" stroke="#a8c4e5" stroke-miterlimit="10" stroke-width="1.666"/>
      <path id="Trazado_24462" data-name="Trazado 24462" d="M922.68,391.748l-25.94-8.692,2.688-23.881,25.94,8.692Z" transform="translate(-856.929 -348.539)" fill="none" stroke="#a8c4e5" stroke-miterlimit="10" stroke-width="1.666"/>
      <path id="Trazado_24463" data-name="Trazado 24463" d="M983.934,412.272l-25.94-8.692,2.688-23.881,25.94,8.692Z" transform="translate(-892.242 -360.371)" fill="none" stroke="#a8c4e5" stroke-miterlimit="10" stroke-width="1.666"/>
      <path id="Trazado_24464" data-name="Trazado 24464" d="M1045.188,432.8l-25.94-8.692,2.688-23.881,25.94,8.692Z" transform="translate(-927.556 -372.203)" fill="none" stroke="#a8c4e5" stroke-miterlimit="10" stroke-width="1.666"/>
      <path id="Trazado_24465" data-name="Trazado 24465" d="M1106.441,453.32l-25.94-8.692,2.688-23.881,25.94,8.692Z" transform="translate(-962.87 -384.036)" fill="none" stroke="#a8c4e5" stroke-miterlimit="10" stroke-width="1.666"/>
      <path id="Trazado_24466" data-name="Trazado 24466" d="M1167.695,473.844l-25.94-8.692,2.688-23.881,25.94,8.692Z" transform="translate(-998.183 -395.868)" fill="none" stroke="#a8c4e5" stroke-miterlimit="10" stroke-width="1.666"/>
      <path id="Trazado_24467" data-name="Trazado 24467" d="M1228.949,494.368l-25.94-8.692L1205.7,461.8l25.94,8.692Z" transform="translate(-1033.497 -407.7)" fill="none" stroke="#a8c4e5" stroke-miterlimit="10" stroke-width="1.666"/>
      <path id="Trazado_24468" data-name="Trazado 24468" d="M855.079,427.614l-25.94-8.692,2.688-23.881,25.94,8.692Z" transform="translate(-817.956 -369.216)" fill="none" stroke="#a8c4e5" stroke-miterlimit="10" stroke-width="1.666"/>
      <path id="Trazado_24469" data-name="Trazado 24469" d="M916.332,448.138l-25.94-8.692,2.688-23.881,25.94,8.692Z" transform="translate(-853.269 -381.048)" fill="none" stroke="#a8c4e5" stroke-miterlimit="10" stroke-width="1.666"/>
      <path id="Trazado_24470" data-name="Trazado 24470" d="M977.586,468.662l-25.94-8.692,2.688-23.881,25.94,8.692Z" transform="translate(-888.583 -392.881)" fill="none" stroke="#a8c4e5" stroke-miterlimit="10" stroke-width="1.666"/>
      <path id="Trazado_24471" data-name="Trazado 24471" d="M1038.839,489.186l-25.94-8.692,2.688-23.881,25.94,8.692Z" transform="translate(-923.896 -404.713)" fill="none" stroke="#a8c4e5" stroke-miterlimit="10" stroke-width="1.666"/>
      <path id="Trazado_24472" data-name="Trazado 24472" d="M1100.093,509.711l-25.94-8.692,2.688-23.881,25.94,8.692Z" transform="translate(-959.21 -416.546)" fill="none" stroke="#a8c4e5" stroke-miterlimit="10" stroke-width="1.666"/>
      <path id="Trazado_24473" data-name="Trazado 24473" d="M1161.347,530.235l-25.94-8.692,2.688-23.881,25.94,8.692Z" transform="translate(-994.523 -428.378)" fill="none" stroke="#a8c4e5" stroke-miterlimit="10" stroke-width="1.666"/>
      <path id="Trazado_24474" data-name="Trazado 24474" d="M1222.6,550.759l-25.94-8.692,2.688-23.881,25.94,8.692Z" transform="translate(-1029.837 -440.21)" fill="none" stroke="#a8c4e5" stroke-miterlimit="10" stroke-width="1.666"/>
      <path id="Trazado_24475" data-name="Trazado 24475" d="M848.731,484l-25.94-8.692,2.688-23.881,25.94,8.692Z" transform="translate(-814.296 -401.726)" fill="none" stroke="#a8c4e5" stroke-miterlimit="10" stroke-width="1.666"/>
      <path id="Trazado_24476" data-name="Trazado 24476" d="M909.984,504.529l-25.94-8.692,2.688-23.881,25.94,8.692Z" transform="translate(-849.61 -413.558)" fill="none" stroke="#a8c4e5" stroke-miterlimit="10" stroke-width="1.666"/>
      <path id="Trazado_24477" data-name="Trazado 24477" d="M971.238,525.053l-25.94-8.692,2.688-23.881,25.94,8.692Z" transform="translate(-884.923 -425.39)" fill="none" stroke="#a8c4e5" stroke-miterlimit="10" stroke-width="1.666"/>
      <path id="Trazado_24478" data-name="Trazado 24478" d="M1032.492,545.577l-25.94-8.692L1009.24,513l25.94,8.692Z" transform="translate(-920.237 -437.223)" fill="none" stroke="#a8c4e5" stroke-miterlimit="10" stroke-width="1.666"/>
      <path id="Trazado_24479" data-name="Trazado 24479" d="M1093.745,566.1l-25.94-8.692,2.688-23.881,25.94,8.692Z" transform="translate(-955.55 -449.055)" fill="none" stroke="#a8c4e5" stroke-miterlimit="10" stroke-width="1.666"/>
      <path id="Trazado_24480" data-name="Trazado 24480" d="M1155,586.625l-25.94-8.692,2.688-23.881,25.94,8.692Z" transform="translate(-990.864 -460.888)" fill="none" stroke="#a8c4e5" stroke-miterlimit="10" stroke-width="1.666"/>
      <path id="Trazado_24481" data-name="Trazado 24481" d="M1216.253,607.149l-25.94-8.692L1193,574.577l25.94,8.692Z" transform="translate(-1026.177 -472.72)" fill="none" stroke="#a8c4e5" stroke-miterlimit="10" stroke-width="1.666"/>
      <path id="Trazado_24482" data-name="Trazado 24482" d="M842.383,540.395l-25.94-8.692,2.688-23.881,25.94,8.692Z" transform="translate(-810.636 -434.235)" fill="none" stroke="#a8c4e5" stroke-miterlimit="10" stroke-width="1.666"/>
      <path id="Trazado_24483" data-name="Trazado 24483" d="M903.636,560.919l-25.94-8.692,2.688-23.881,25.94,8.692Z" transform="translate(-845.95 -446.068)" fill="none" stroke="#a8c4e5" stroke-miterlimit="10" stroke-width="1.666"/>
      <path id="Trazado_24484" data-name="Trazado 24484" d="M964.89,581.443l-25.94-8.692,2.688-23.881,25.94,8.692Z" transform="translate(-881.264 -457.9)" fill="none" stroke="#a8c4e5" stroke-miterlimit="10" stroke-width="1.666"/>
      <path id="Trazado_24485" data-name="Trazado 24485" d="M1026.144,601.967l-25.94-8.692,2.688-23.881,25.94,8.692Z" transform="translate(-916.577 -469.733)" fill="none" stroke="#a8c4e5" stroke-miterlimit="10" stroke-width="1.666"/>
      <path id="Trazado_24486" data-name="Trazado 24486" d="M1087.4,622.491l-25.94-8.692,2.688-23.881,25.94,8.692Z" transform="translate(-951.891 -481.565)" fill="none" stroke="#a8c4e5" stroke-miterlimit="10" stroke-width="1.666"/>
      <path id="Trazado_24487" data-name="Trazado 24487" d="M1148.651,643.015l-25.94-8.692,2.688-23.881,25.94,8.692Z" transform="translate(-987.204 -493.397)" fill="none" stroke="#a8c4e5" stroke-miterlimit="10" stroke-width="1.666"/>
      <path id="Trazado_24488" data-name="Trazado 24488" d="M1209.9,663.539l-25.94-8.692,2.688-23.881,25.94,8.692Z" transform="translate(-1022.518 -505.23)" fill="none" stroke="#a8c4e5" stroke-miterlimit="10" stroke-width="1.666"/>
    </g>
    <path id="Trazado_24489" data-name="Trazado 24489" d="M1027.764,603.009l-20.594-6.9,2.134-18.959,20.594,6.9Z" transform="translate(-229.517 -221.498)" fill="#a8c4e5"/>
    <path id="Trazado_24490" data-name="Trazado 24490" d="M924.3,392.961l-20.594-6.9L905.84,367.1l20.594,6.9Z" transform="translate(-169.869 -100.403)" fill="#a8c4e5"/>
    <path id="Trazado_24491" data-name="Trazado 24491" d="M869.963,330.915l-10.9-3.7a1.782,1.782,0,0,1-1.146-1.918h0a1.219,1.219,0,0,1,1.643-.972l10.9,3.7a1.782,1.782,0,0,1,1.146,1.918h0A1.219,1.219,0,0,1,869.963,330.915Z" transform="translate(-143.459 -75.7)" fill="#a8c4e5"/>
    <path id="Trazado_24492" data-name="Trazado 24492" d="M853.809,367.148l-8.171-2.771a1.336,1.336,0,0,1-.859-1.438h0a.914.914,0,0,1,1.232-.729l8.171,2.771a1.335,1.335,0,0,1,.859,1.438h0A.914.914,0,0,1,853.809,367.148Z" transform="translate(-135.887 -97.551)" fill="#1c4591"/>
    <path id="Trazado_24493" data-name="Trazado 24493" d="M860,356.8l-8.171-2.771c-.023-.008-.045-.01-.068-.016l-5.147-1.746a.914.914,0,0,0-1.232.729,1.335,1.335,0,0,0,.859,1.438l8.171,2.772c.023.008.045.009.068.016l5.147,1.746a.914.914,0,0,0,1.232-.729A1.337,1.337,0,0,0,860,356.8Z" transform="translate(-136.237 -91.817)" fill="#60bfff"/>
    <path id="Trazado_24494" data-name="Trazado 24494" d="M931.228,351.737l-10.9-3.7a1.782,1.782,0,0,1-1.146-1.918h0a1.219,1.219,0,0,1,1.643-.972l10.9,3.7a1.783,1.783,0,0,1,1.146,1.918h0A1.219,1.219,0,0,1,931.228,351.737Z" transform="translate(-178.779 -87.704)" fill="#a8c4e5"/>
    <path id="Trazado_24495" data-name="Trazado 24495" d="M992.493,372.559l-10.9-3.7a1.782,1.782,0,0,1-1.146-1.918h0a1.219,1.219,0,0,1,1.643-.972l10.9,3.7a1.782,1.782,0,0,1,1.146,1.918h0A1.219,1.219,0,0,1,992.493,372.559Z" transform="translate(-214.099 -99.709)" fill="#a8c4e5"/>
    <path id="Trazado_24496" data-name="Trazado 24496" d="M1053.759,393.381l-10.9-3.7a1.782,1.782,0,0,1-1.146-1.918h0a1.219,1.219,0,0,1,1.643-.972l10.9,3.7a1.783,1.783,0,0,1,1.146,1.918h0A1.22,1.22,0,0,1,1053.759,393.381Z" transform="translate(-249.419 -111.713)" fill="#a8c4e5"/>
    <path id="Trazado_24497" data-name="Trazado 24497" d="M1120.365,414.642l-10.9-3.7a1.782,1.782,0,0,1-1.146-1.918h0a1.219,1.219,0,0,1,1.643-.972l10.9,3.7a1.782,1.782,0,0,1,1.146,1.918h0A1.219,1.219,0,0,1,1120.365,414.642Z" transform="translate(-287.819 -123.97)" fill="#a8c4e5"/>
    <path id="Trazado_24498" data-name="Trazado 24498" d="M1181.233,434.018l-10.9-3.7a1.781,1.781,0,0,1-1.146-1.918h0a1.219,1.219,0,0,1,1.643-.972l10.9,3.7a1.782,1.782,0,0,1,1.146,1.918h0A1.219,1.219,0,0,1,1181.233,434.018Z" transform="translate(-322.91 -135.14)" fill="#a8c4e5"/>
    <path id="Trazado_24499" data-name="Trazado 24499" d="M1237.553,455.847l-10.9-3.7a1.783,1.783,0,0,1-1.146-1.918h0a1.219,1.219,0,0,1,1.643-.972l10.9,3.7a1.782,1.782,0,0,1,1.146,1.918h0A1.219,1.219,0,0,1,1237.553,455.847Z" transform="translate(-355.379 -147.725)" fill="#a8c4e5"/>
    <path id="Trazado_24500" data-name="Trazado 24500" d="M967.393,566.291l.866,2.767a1.554,1.554,0,0,0,.815.943l2.521,1.152a1.381,1.381,0,0,1,.412,2.308l-2.076,1.336a1.1,1.1,0,0,0-.469.995l.128,2.8a1.066,1.066,0,0,1-1.874.794l-2.149-1.942a1.246,1.246,0,0,0-1.1-.329l-2.442.576a1.456,1.456,0,0,1-1.571-1.818l.748-2.536a1.45,1.45,0,0,0-.214-1.2l-1.638-2.441c-.621-.926-.087-2.059.9-1.917l2.612.374a.983.983,0,0,0,.973-.412l1.43-2.084C965.806,564.866,967.064,565.241,967.393,566.291Z" transform="translate(-201.792 -214.628)" fill="#ffd22d"/>
    <path id="Trazado_24501" data-name="Trazado 24501" d="M849.169,373.763a1.1,1.1,0,0,0-.727-.82l-3.412-1.157a.914.914,0,0,0-1.232.729,1.335,1.335,0,0,0,.859,1.438L847.73,375a1.093,1.093,0,0,0,1.439-1.232Z" transform="translate(-135.321 -103.071)" fill="#1c4591"/>
    <path id="Trazado_24502" data-name="Trazado 24502" d="M846.075,473.836l-10.9-3.7a1.782,1.782,0,0,1-1.146-1.918h0a1.219,1.219,0,0,1,1.643-.972l10.9,3.7a1.781,1.781,0,0,1,1.146,1.918h0A1.219,1.219,0,0,1,846.075,473.836Z" transform="translate(-129.687 -158.096)" fill="#45446c"/>
    <path id="Trazado_24503" data-name="Trazado 24503" d="M839.887,482.66a1.464,1.464,0,0,0-.97-1.094l-4.552-1.544a1.219,1.219,0,0,0-1.643.972,1.782,1.782,0,0,0,1.146,1.918l4.1,1.39a1.457,1.457,0,0,0,1.92-1.643Z" transform="translate(-128.933 -165.46)" fill="#45446c"/>
    <path id="Trazado_24504" data-name="Trazado 24504" d="M1035.134,422.773l6.13,10.829,4.116-4.747" transform="translate(-245.638 -132.498)" fill="none" stroke="#fff" stroke-miterlimit="10" stroke-width="3.212"/>
    <path id="Trazado_24505" data-name="Trazado 24505" d="M1333.536,573.876l42.061-30.244-23.764-162.9Z" transform="translate(-417.671 -108.264)" fill="#1c4591"/>
    <g id="Grupo_14173" data-name="Grupo 14173" transform="translate(785.19 302.847)">
      <path id="Trazado_24506" data-name="Trazado 24506" d="M1074.545,549.368l-9.877,14.861h0l-4.187-9.81-7.936-4.63c3.428,13.547,5.062,21.308,7.983,23.8,1.2,1.034,2.663,1.654,3.991.767,3.3-2.2,9.1-6.166,10.075-7.389,4.83-6.065,9.987-11.28,9.987-11.28l-9.374-7.313Z" transform="translate(-1040.866 -507.755)" fill="#ffaa82" fill-rule="evenodd"/>
      <g id="Grupo_14172" data-name="Grupo 14172" transform="translate(0 20.049)">
        <path id="Trazado_24507" data-name="Trazado 24507" d="M1095.806,536.84h0c1.228-1.02,2.519-3.576,1.765-4.783l-1.83-1.757-4.4-1.782c-1.228,1.019-1.217,4.657-.463,5.864l1.324,2.118A2.352,2.352,0,0,0,1095.806,536.84Z" transform="translate(-1062.664 -516.357)" fill="#ffaa82"/>
        <g id="Grupo_14171" data-name="Grupo 14171">
          <path id="Trazado_24508" data-name="Trazado 24508" d="M1025.269,508.637a.951.951,0,0,1,.242-.15l17.11-7.389a1.784,1.784,0,0,1,1.977.664l15.622,20.712a1.661,1.661,0,0,1,.137.216l.267.284-.17.633a.873.873,0,0,1-.485.493l-17.11,7.389a1.783,1.783,0,0,1-1.977-.664l-15.622-20.712a1.258,1.258,0,0,1-.277-.983l.127-.507Z" transform="translate(-1024.966 -500.493)" fill="#1c4591"/>
          <path id="Trazado_24509" data-name="Trazado 24509" d="M1043.166,530.289l17.11-7.388c.615-.266.727-.993.25-1.625L1044.9,500.563a1.784,1.784,0,0,0-1.977-.664l-17.11,7.388c-.615.266-.727.993-.25,1.625l15.622,20.712A1.782,1.782,0,0,0,1043.166,530.289Z" transform="translate(-1025.142 -499.802)" fill="#4367c7"/>
          <path id="Trazado_24510" data-name="Trazado 24510" d="M1045.011,529.875l16.45-7.1L1045.7,502.412l-16.45,7.1Z" transform="translate(-1027.434 -501.307)" fill="#fff"/>
          <path id="Trazado_24511" data-name="Trazado 24511" d="M1038.344,509.067h0a1.846,1.846,0,0,0,2.083.536l6.388-2.758a1,1,0,0,0,.416-1.616h0a1.847,1.847,0,0,0-2.083-.537l-.378.163a1.774,1.774,0,0,0-2-.516l-3.046,1.315a.964.964,0,0,0-.4,1.552h0l-.562.243A1,1,0,0,0,1038.344,509.067Z" transform="translate(-1032.533 -502.347)" fill="#a8c4e5" style="mix-blend-mode: multiply;isolation: isolate"/>
          <path id="Trazado_24512" data-name="Trazado 24512" d="M1038.715,507.626h0a1.846,1.846,0,0,0,2.083.537l6.388-2.759a1,1,0,0,0,.416-1.616h0a1.847,1.847,0,0,0-2.083-.537l-.378.163a1.773,1.773,0,0,0-2-.515l-3.046,1.315a.965.965,0,0,0-.4,1.552h0l-.562.243A1,1,0,0,0,1038.715,507.626Z" transform="translate(-1032.747 -501.517)" fill="#e1eaf4"/>
          <path id="Trazado_24513" data-name="Trazado 24513" d="M1043.191,507.321l4.686-2.1a.359.359,0,0,0,.133-.491h0a.175.175,0,0,0-.225-.064l-4.686,2.1a.359.359,0,0,0-.133.491h0A.176.176,0,0,0,1043.191,507.321Z" transform="translate(-1035.315 -502.596)" fill="#fff"/>
        </g>
        <path id="Trazado_24514" data-name="Trazado 24514" d="M1092.847,540.017l4.578.773,2.292,1.118-.451,1.714s-3.937-.849-4.863-1.132S1090.62,540.841,1092.847,540.017Z" transform="translate(-1063.622 -522.987)" fill="#ffaa82"/>
        <path id="Trazado_24515" data-name="Trazado 24515" d="M1043.929,519.97l11.691-5.114-1.013-1.43-11.692,5.114Z" transform="translate(-1035.315 -507.656)" fill="#e9f5ff"/>
        <path id="Trazado_24516" data-name="Trazado 24516" d="M1049.272,527.76l11.691-5.114-1.013-1.43-11.691,5.114Z" transform="translate(-1038.395 -512.147)" fill="#e9f5ff"/>
        <path id="Trazado_24517" data-name="Trazado 24517" d="M1054.891,536.335l11.692-5.114-1.013-1.43-11.691,5.114Z" transform="translate(-1041.634 -517.091)" fill="#e9f5ff"/>
        <path id="Trazado_24518" data-name="Trazado 24518" d="M1064.5,550.623l4.828-2.112,1.013,1.43-4.828,2.112Z" transform="translate(-1047.758 -527.884)" fill="#e9f5ff"/>
      </g>
      <ellipse id="Elipse_727" data-name="Elipse 727" cx="9.323" cy="21.096" rx="9.323" ry="21.096" transform="translate(25.491 176.422) rotate(-89.755)" fill="#a7bcf5" opacity="0.39" style="mix-blend-mode: multiply;isolation: isolate"/>
      <path id="Trazado_24519" data-name="Trazado 24519" d="M1137.181,713.88c.094,3.98,4.828,3.279,5.142.276-1.273-16.115,1.713-28.349-.155-33.509l4.618-46.822-22.1-2.179,6.865,53.2Z" transform="translate(-1082.455 -555.763)" fill="#ffaa82"/>
      <path id="Trazado_24520" data-name="Trazado 24520" d="M1146.539,828.313l.49,2.758c.444,1.514-3.261,3.9-3.261,3.9s-10.474-.179-10.607-2.845c-.093-1.868,12.192-5.152,12.192-5.152Z" transform="translate(-1087.341 -668.374)" fill="#1c4591"/>
      <path id="Trazado_24521" data-name="Trazado 24521" d="M1145.489,814.985s-1.649,6.256-4.5,8.046c-.944.593-1.531,1.466.265,1.6,3.538.26,6.855-1.377,7.651-4.166l.83-.993Z" transform="translate(-1091.339 -661.461)" fill="#ffaa82"/>
      <path id="Trazado_24522" data-name="Trazado 24522" d="M1154.435,812.124s2.459-.144,2.107,6.7a9.468,9.468,0,0,1-.328,1.633c-3.547-2.109-2.589.435-2.589.435-3.338.834-6.66,2.878-8.058,2.119a8.014,8.014,0,0,0,6.214-7.061C1152.092,813.885,1154.435,812.124,1154.435,812.124Z" transform="translate(-1094.494 -659.811)" fill="#1c4591"/>
      <path id="Trazado_24523" data-name="Trazado 24523" d="M1159.723,831.967l-.288-2.731c.533-1.3,2.713-1.674,2.326-.728a6.232,6.232,0,0,0-.122,3.6c.42,1.536-2.682,3.44-3.482,3.45C1157.759,835.557,1160.7,834.491,1159.723,831.967Z" transform="translate(-1101.73 -668.952)" fill="#173978"/>
      <path id="Trazado_24524" data-name="Trazado 24524" d="M1166.228,819.494l1.15,9.3a.51.51,0,0,1-1,.149l-3.632-7.251a1.178,1.178,0,0,1-.019-.908l.831-2.078C1163.952,817.712,1165.957,818.434,1166.228,819.494Z" transform="translate(-1104.338 -663.333)" fill="#1c4591"/>
      <path id="Trazado_24525" data-name="Trazado 24525" d="M1113.7,715.715c1.18,3.266,4.978,2.222,5.052-.4-.347-15.248,1.978-31.105-1.359-42.489-4.542-15.492,5.365-30.088,10.791-44.932l-18.241-4.326c-2.045,21.021-6.2,32.636-2.752,50.215C1108.915,682.571,1109.972,700.539,1113.7,715.715Z" transform="translate(-1071.608 -551.105)" fill="#ffaa82"/>
      <path id="Trazado_24526" data-name="Trazado 24526" d="M1109.563,839.763l-.221,3.078c.07,1.74-4.614,3.233-4.614,3.233s-11.343-3.169-10.759-6.049c.409-2.017,14.669-2.024,14.669-2.024Z" transform="translate(-1064.735 -674.73)" fill="#1c4591"/>
      <path id="Trazado_24527" data-name="Trazado 24527" d="M1110.268,823.175s-3.154,5.967-6.74,7.064c-1.188.363-2.066,1.126-.148,1.778,3.777,1.283,7.831.482,9.46-2.264l1.174-.823Z" transform="translate(-1069.527 -666.182)" fill="#ffaa82"/>
      <path id="Trazado_24528" data-name="Trazado 24528" d="M1119.315,825.021a1.076,1.076,0,0,1,1.4.113c.777.807,1.654,2.781.368,7.49a10.2,10.2,0,0,1-.743,1.675c-3.4-3.139-2.942-.169-2.942-.169-3.857.076-8.169.34-9.525-.82a7.448,7.448,0,0,0,8.66-4.948A8.664,8.664,0,0,1,1119.315,825.021Z" transform="translate(-1072.764 -667.127)" fill="#1c4591"/>
      <path id="Trazado_24529" data-name="Trazado 24529" d="M1122.037,843.851l.433-2.992c.935-1.235,3.409-1.012,2.729-.115a6.71,6.71,0,0,0-1.116,3.8c.037,1.756-3.858,2.9-4.73,2.686C1118.919,847.119,1122.4,846.818,1122.037,843.851Z" transform="translate(-1079.36 -675.883)" fill="#173978"/>
      <path id="Trazado_24530" data-name="Trazado 24530" d="M1134.171,831.847l-1.291,10.239a.574.574,0,0,1-1.132-.128l-1.968-8.76a1.271,1.271,0,0,1,.227-.973l1.472-1.979C1132.182,829.3,1134.165,830.64,1134.171,831.847Z" transform="translate(-1085.381 -670.075)" fill="#1c4591"/>
      <path id="Trazado_24531" data-name="Trazado 24531" d="M1151.485,748.787s-5.7,6.8-10.07,7.386l-.9-4.281Z" transform="translate(-1091.584 -623.297)" fill="#ea8a6c"/>
      <path id="Trazado_24532" data-name="Trazado 24532" d="M1156.756,653.518a1.8,1.8,0,0,1-1.183-.427,1.559,1.559,0,0,1-.559-1.057c-.091-1.158-.215-2.748-.3-3.883a1.36,1.36,0,0,1,1.414-1.429l1.92-.022a2.139,2.139,0,0,1,2.19,1.866c.081,1.024.179,2.278.256,3.262a1.488,1.488,0,0,1-.43,1.17,1.739,1.739,0,0,1-1.22.5l-2.084.024Z" transform="translate(-1099.762 -564.442)" fill="#ffc2b0" fill-rule="evenodd"/>
      <path id="Trazado_24533" data-name="Trazado 24533" d="M1111.406,469.3c.014.227-.343,1.1-.318,1.441.151,2.03.027,5.844,1.846,6.644,3.734,1.642,6.458,1.383,9.689,1.274,1.285-.044,2.258-1.055,3.139-1.866,4.246-3.913,6.4-6.861,4.443-13.167s-7.337-11.064-11.544-7.76C1114.089,459.454,1110.653,456.87,1111.406,469.3Z" transform="translate(-1074.616 -453.801)" fill="#ffaa82"/>
      <path id="Trazado_24534" data-name="Trazado 24534" d="M1134.036,511.613l.723-.127a4.037,4.037,0,0,0,3.406-4.913l-3.208-12.824a4.8,4.8,0,0,0-5.475-3.358l-.723.127c-2.442.428-4.33,2.534-3.761,4.809,2.453,4.73,3.722,9.806,1.493,12.767C1127.06,510.369,1131.594,512.041,1134.036,511.613Z" transform="translate(-1082.577 -474.287)" fill="#ffaa82"/>
      <path id="Trazado_24535" data-name="Trazado 24535" d="M1136.63,572.159c-.82-5.828-3.636-7.582-4.354-16.209-.436-5.247-.03-8.485,1.672-15.264,3.8-14.467,3.837-24.606-4.868-25.416l-3.595.559a24.938,24.938,0,0,0-5.054.927c-17.027,6.429-16.348,7.209-16.123,16.394-.651,10.442-1.6,9.728-.4,12.573,1.474,3.48,2.472,8.25,1.834,15.828C1108.592,572.241,1132.425,579.267,1136.63,572.159Z" transform="translate(-1070.146 -488.672)" fill="#d9eaff"/>
      <path id="Trazado_24536" data-name="Trazado 24536" d="M1122.928,502.613c3.932-1.98,3.9-4.113.8-6.364,1.06,3.4-1.968,8.114-9.286,4.845,0,0,2.272,1.365,7.551,1.908A1.028,1.028,0,0,0,1122.928,502.613Z" transform="translate(-1076.552 -477.705)" fill="#ea8a6c"/>
      <path id="Trazado_24537" data-name="Trazado 24537" d="M1105.639,607.336l-2.8,55.4s8.023,13.892,28.829,1.245l2.355-25.792c5.052-18.37,3.612-22.594-2.187-33.647C1123.385,610.046,1117.637,609.4,1105.639,607.336Z" transform="translate(-1069.86 -540.136)" fill="#ff80ae"/>
      <path id="Trazado_24538" data-name="Trazado 24538" d="M1167.54,672.776a10.8,10.8,0,0,1-8.583,1.266l7.418,3.484Z" transform="translate(-1102.214 -579.475)" fill="#bc4073"/>
      <path id="Trazado_24539" data-name="Trazado 24539" d="M1126.765,498.311s6.15,2.326,5.655,5.549l6-1.125-4.2-13.4s-3.885,7.959-8.09,8.863Z" transform="translate(-1083.288 -473.717)" fill="#ea8a6c"/>
      <path id="Trazado_24540" data-name="Trazado 24540" d="M1130.29,472.605s.715,1.32-3.633,1.858c-5.361.664-3.56-4.816-9.438-6.609-.471-.144-1.1.548-1.869-.393-.282-.344-.143-4.325-.528-4.616-4.922-3.719-4.965-3.826-3.867-5.78,1.737-3.09,7.305-5.8,13.275-4.053C1130.231,454.772,1140.2,455.393,1130.29,472.605Z" transform="translate(-1074.204 -452.461)" fill="#915a34"/>
      <path id="Trazado_24541" data-name="Trazado 24541" d="M1108.128,488.406c-.282.493.354.833.955,1.082a1.631,1.631,0,0,0,.908.163.651.651,0,0,0,.49-.515c.156-.582.654-1.8-.337-2.167-.407-.152-.287-1.92-.354-1.645A9.672,9.672,0,0,1,1108.128,488.406Z" transform="translate(-1072.87 -471.39)" fill="#ffaa82"/>
      <path id="Trazado_24542" data-name="Trazado 24542" d="M1108.225,493.815a3.367,3.367,0,0,0,1.653.778s.563-.161.222-.584S1109.586,494.638,1108.225,493.815Z" transform="translate(-1072.966 -476.302)" fill="#ea8a6c"/>
      <path id="Trazado_24543" data-name="Trazado 24543" d="M1107.981,580.85l6.5-7.856-6.193,14.789Z" transform="translate(-1072.825 -521.95)" fill="#a2c2e8"/>
      <path id="Trazado_24544" data-name="Trazado 24544" d="M1114.24,465.3s-4.86.975-5.089,5.082c0,0-3.695-2.828-.556-7.5S1114.24,465.3,1114.24,465.3Z" transform="translate(-1072.451 -457.548)" fill="#915a34"/>
      <path id="Trazado_24545" data-name="Trazado 24545" d="M1132.029,480.79a24.473,24.473,0,0,1,.978-2.7c.269-.847-1.417-2.7-1.2-3.56-.259-1.38,1.251-1.183,1.251-1.183l3.479-2.379.755,4.992-.736-7.206,2.5-.9a2.663,2.663,0,0,1,.053-.825,9.046,9.046,0,0,0,.252-2.134c.016-1.15-.405-6.912,5.477-4.27.841.377,2.41,3.124,2.8,8.3a10.055,10.055,0,0,0,2.415,5.9,10.153,10.153,0,0,1,2.83,7.194,5.03,5.03,0,0,1-.529,2.7,4.058,4.058,0,0,1-2.813,2.1.589.589,0,0,1-.223-.041l-.12.125a6.9,6.9,0,0,1-6.95,2.858s-4.965,1.585-5.74-.657c-.185-.533-.5-1.5-.8-2.725a6.108,6.108,0,0,1-3.117-2.009,4.684,4.684,0,0,1-.475-.964A5.32,5.32,0,0,1,1132.029,480.79Z" transform="translate(-1086.547 -456.774)" fill="#915a34"/>
      <path id="Trazado_24546" data-name="Trazado 24546" d="M1092.307,529.389c-3.32,2.148-7.43,4.032-9.2,10.53a18.981,18.981,0,0,1-1.26,3.81L1073.2,555.5c2.1,8.073,1.235,4.558,4.574,7.938,10.12-6.7,13.729-12.135,19.4-21.279Z" transform="translate(-1052.774 -496.811)" fill="#d9eaff"/>
      <path id="Trazado_24547" data-name="Trazado 24547" d="M1123.87,488.2c.477,1.533,1.421,2.551,3.063,2.176a2.968,2.968,0,0,0,2.233-3.637,2.525,2.525,0,0,0-3.185-1.993A2.716,2.716,0,0,0,1123.87,488.2Z" transform="translate(-1081.914 -471.021)" fill="#ffaa82"/>
      <path id="Trazado_24548" data-name="Trazado 24548" d="M1129.248,489.582s.937.135.876.7-.4.66-.4.66a.826.826,0,0,0,1.121-.029,1.324,1.324,0,0,0-.068-2.162C1130.014,488.1,1129.248,489.582,1129.248,489.582Z" transform="translate(-1085.086 -473.288)" fill="#ea8a6c"/>
    </g>
    <g id="Grupo_14185" data-name="Grupo 14185" transform="translate(688.248 283.374)">
      <g id="Grupo_14174" data-name="Grupo 14174" transform="translate(65.387 23.439)">
        <path id="Trazado_24549" data-name="Trazado 24549" d="M998,465.144l3.607-1.814-3.64-1.3Z" transform="translate(-977.845 -461.945)" fill="#bad4ff"/>
        <path id="Trazado_24550" data-name="Trazado 24550" d="M1003.789,465.019l1.06-.534-1.258-.448C1004.144,464.349,1004.184,464.677,1003.789,465.019Z" transform="translate(-981.088 -463.1)" fill="#3b2ad1"/>
        <path id="Trazado_24551" data-name="Trazado 24551" d="M995.981,462.949a1.6,1.6,0,0,1-1.065,2.075,1.776,1.776,0,0,1-2.2-1.04,1.6,1.6,0,0,1,1.065-2.075A1.776,1.776,0,0,1,995.981,462.949Z" transform="translate(-974.762 -461.825)" fill="#1c4591"/>
        <path id="Trazado_24552" data-name="Trazado 24552" d="M971.938,462.127l-16.993,2.145,1.033,3.141,14.33-1.854Z" transform="translate(-953.043 -461.999)" fill="#1c4591"/>
        <path id="Trazado_24553" data-name="Trazado 24553" d="M975.664,465.513a1.788,1.788,0,0,1-.419.078l0,.007-15.129,1.84-.493,1.69,15.822-2.047,0-.007a1.782,1.782,0,0,0,.419-.078,1.614,1.614,0,0,0,1.153-1.7Z" transform="translate(-955.74 -463.825)" fill="#1c4591"/>
        <path id="Trazado_24554" data-name="Trazado 24554" d="M955.487,466.9h0l-1,.138.186.55a1.848,1.848,0,0,0-.027,1.242,1.951,1.951,0,0,0,.816,1.093l.082.241.548-.035,0-.014a1.023,1.023,0,0,0,.272-.033,1.432,1.432,0,0,0,.741-1.909A1.618,1.618,0,0,0,955.487,466.9Z" transform="translate(-952.777 -464.744)" fill="#e1eaf4"/>
        <path id="Trazado_24555" data-name="Trazado 24555" d="M953.377,467.12c-.016,0-.031.011-.047.016v0l-1.016.19.251.824a1.975,1.975,0,0,0,.072.881,2.079,2.079,0,0,0,.429.765l.21.692.945-.18a.962.962,0,0,0,.137-.026,1.432,1.432,0,0,0,.741-1.909A1.575,1.575,0,0,0,953.377,467.12Z" transform="translate(-951.525 -464.858)" fill="#e6558a"/>
        <path id="Trazado_24556" data-name="Trazado 24556" d="M953.01,468.82a1.433,1.433,0,0,1-.741,1.909,1.576,1.576,0,0,1-1.722-1.251,1.433,1.433,0,0,1,.741-1.909A1.575,1.575,0,0,1,953.01,468.82Z" transform="translate(-950.453 -465.117)" fill="#ff80ae"/>
      </g>
      <path id="Trazado_24557" data-name="Trazado 24557" d="M886.261,424.015l-6.2,1.545-4.527-3.741S884.1,418.085,886.261,424.015Z" transform="translate(-841.875 -414.653)" fill="#492817"/>
      <path id="Trazado_24558" data-name="Trazado 24558" d="M860.215,410s-4.111.082-5.022,10.682c-.634,7.374.743,11.444,7.454,12.256,4.269.517,8.619-.391,9.124-4.06.535-2.119.329-6.049.623-8.033.493-3.332.563-4.036-.315-6.651.609-4.425-2.638-2.89-8.008-3.246Z" transform="translate(-830.068 -408.51)" fill="#ffaa82"/>
      <ellipse id="Elipse_728" data-name="Elipse 728" cx="22.54" cy="9.564" rx="22.54" ry="9.564" transform="translate(6.712 153.804) rotate(-0.455)" fill="#a7bcf5" opacity="0.39" style="mix-blend-mode: multiply;isolation: isolate"/>
      <g id="Grupo_14175" data-name="Grupo 14175" transform="translate(41.724 28.852)">
        <path id="Trazado_24559" data-name="Trazado 24559" d="M895.637,491.084c2.879,3.406,16.561,3.952,16.561,3.952s9.708.583,19.212-17.434c2.042-3.87-3.738-4.279-6.137.5-3.177,3.342-11.02,9.448-11.02,9.448s-9.468,1.587-14.773-4.59C896.939,480,892.551,487.434,895.637,491.084Z" transform="translate(-894.578 -474.607)" fill="#ffaa82"/>
      </g>
      <g id="Grupo_14176" data-name="Grupo 14176" transform="translate(0 39.463)">
        <path id="Trazado_24560" data-name="Trazado 24560" d="M812.542,531.26c-2.706-1.154-5.906-2.518-7.93-4.337A4.809,4.809,0,0,1,803,524.867c-.381-.8.123.55-.1-.3-.05-.187-.1-.374-.136-.564-.166-.823-.135-.081-.069-1.1a26.3,26.3,0,0,1,2-7.35c1.565-4.022,3.361-7.965,5.051-11.941,1.674-3.937-4.67-5.646-6.329-1.744-1.852,4.355-3.855,8.671-5.494,13.1-1.041,2.813-2.009,5.876-1.855,8.858.366,7.125,6.987,10.55,12.88,13.065a3.559,3.559,0,0,0,4.593-1.165c.889-1.363.619-3.778-1-4.469Z" transform="translate(-796.053 -499.663)" fill="#ffaa82"/>
      </g>
      <path id="Trazado_24561" data-name="Trazado 24561" d="M811.082,471.673c-4.67,6.138-8.975,18.863-9.926,23.651-.257,1.293,6.154,3.5,7.48,2.867L811,493.14s2.125-7.672,10.277-17.633a4.078,4.078,0,0,0-2.409-5.739h0C816.343,468.927,813.8,468.445,811.082,471.673Z" transform="translate(-798.991 -442.606)" fill="#46a6e8"/>
      <path id="Trazado_24562" data-name="Trazado 24562" d="M803.621,519.719s1.349,1.674,5.438,1.887" transform="translate(-800.416 -471.763)" fill="none" stroke="#fff" stroke-linecap="round" stroke-linejoin="round" stroke-width="2.721"/>
      <path id="Trazado_24563" data-name="Trazado 24563" d="M852.353,454.76l4.364-11.388,5.5,7.686-2.655,8.014C859.1,460.771,851.254,458.658,852.353,454.76Z" transform="translate(-828.45 -427.748)" fill="#f28f70"/>
      <g id="Grupo_14177" data-name="Grupo 14177" transform="translate(10.378 76.428)">
        <path id="Trazado_24564" data-name="Trazado 24564" d="M821.442,587.623c-.425,6.592.648,39.6-.183,44.48-1.677,9.848.25,18.362-.228,28.1-.307,6.259,9.244,6.251,10.146-.094,1.459-10.247.864-18.293,1.684-29.285.372-4.984,1.156-26.327.889-31.188-.471-8.593-1.216-.947-3.329-9.04C828.917,584.839,821.442,587.623,821.442,587.623Z" transform="translate(-820.559 -586.95)" fill="#1c4591"/>
      </g>
      <path id="Trazado_24565" data-name="Trazado 24565" d="M827.808,602.791l.515,2c.943.856,22.721,13.053,23.256,2.451.046-.9.822-14.38,0-14.831-6.419-3.529-16.47-14.412-26-9.391C814.577,588.822,823.3,598.7,827.808,602.791Z" transform="translate(-810.003 -507.507)" fill="#1c4591"/>
      <path id="Trazado_24566" data-name="Trazado 24566" d="M820.529,470.033c-1.908,2.737-2.627,10.316-2.456,13.415.167,3.03.911,1.456,4.171,1.52l33.29.654s3.315-7.665-4.526-13.262c-1.524-1.088-5.312-3.338-7.307-4.508a2.278,2.278,0,0,0-2.412.061c-4.335,2.881-7.5,2.706-8.8-2.324C827.387,466.223,824.1,464.911,820.529,470.033Z" transform="translate(-808.734 -440.556)" fill="#60bfff"/>
      <path id="Trazado_24567" data-name="Trazado 24567" d="M816.244,539.906c2.017-16.7-1.992-24.873,1.233-46.707l35.509,1.154c.2,15.484-4.31,29.465-1.8,47.8-8.151,4.783-19.937,5.342-32.764,1.182A3.2,3.2,0,0,1,816.244,539.906Z" transform="translate(-807.65 -456.474)" fill="#60bfff"/>
      <g id="Grupo_14178" data-name="Grupo 14178" transform="translate(10.102 149.904)">
        <path id="Trazado_24568" data-name="Trazado 24568" d="M835.748,771.577c-.242.114-3.644.926-3.87,1.032-.346.163-1.369.6-1.978.832-1.284.486-4.229,2.56-7.818.434-5.252-3.111,10.085-8.4,10.085-8.4l6.636-1.67a3.443,3.443,0,0,1,2.417.284h0c1.314.705,1.593,2.1.593,3.018C840.1,768.676,839.8,769.676,835.748,771.577Z" transform="translate(-820.529 -762.324)" fill="#2c4482"/>
        <path id="Trazado_24569" data-name="Trazado 24569" d="M834.76,768.332c-.241.113-3.644.926-3.87,1.032-.346.163-1.369.6-1.978.832-1.284.486-4.229,2.56-7.818.434-2.258-1.338-1.029-5,1.47-6.554,3.313-2.056,8.615-1.851,8.615-1.851l6.637-1.67a3.442,3.442,0,0,1,2.417.284h0c1.314.705,1.593,2.1.593,3.018C839.111,765.431,838.813,766.431,834.76,768.332Z" transform="translate(-819.907 -760.453)" fill="#97cbff"/>
        <path id="Trazado_24570" data-name="Trazado 24570" d="M859.272,765.485c.414-.422,1.087-1.234,1.619-1.723,1-.917.625-2.219-.689-2.924a3.442,3.442,0,0,0-2.417-.284l-3.239.815A10.445,10.445,0,0,1,859.272,765.485Z" transform="translate(-839.877 -760.453)" fill="#b8dbff"/>
      </g>
      <g id="Grupo_14180" data-name="Grupo 14180" transform="translate(11.241 150.225)">
        <g id="Grupo_14179" data-name="Grupo 14179">
          <path id="Trazado_24571" data-name="Trazado 24571" d="M831.456,761.3c-2.44,1.9-6.913,2-8.272-.089-.212,1.219-.4,2.435-.553,3.647-.619,4.939,7.774,4.337,8.4-.62C831.148,763.262,831.295,762.282,831.456,761.3Z" transform="translate(-822.598 -761.212)" fill="#e1eaf4"/>
        </g>
      </g>
      <path id="Trazado_24572" data-name="Trazado 24572" d="M818.468,756.553l-.422,3.42a.532.532,0,0,0,.087.386c.45.624,2.273,2.077,6.386,1.47a13.676,13.676,0,0,0,6.341-2.447,1.729,1.729,0,0,0,.472-1l.2-3.6c.027-.515-.544-.734-1.07-.4-1.934,1.224-6.117,3.221-10.748,1.381A1.017,1.017,0,0,0,818.468,756.553Z" transform="translate(-808.729 -606.952)" fill="#2e5cb0"/>
      <g id="Grupo_14181" data-name="Grupo 14181" transform="translate(40.767 11.895)">
        <path id="Trazado_24573" data-name="Trazado 24573" d="M895.764,438.75h0a.753.753,0,0,1-.333.536,5.206,5.206,0,0,1-1.616.933,1.068,1.068,0,0,1-.851.034.9.9,0,0,1-.362-.775c-.047-.8-.738-2.17.223-2.461.395-.12.939-2.784,1.025-2.416A15,15,0,0,0,895.764,438.75Z" transform="translate(-892.318 -434.567)" fill="#ffaa82"/>
      </g>
      <g id="Grupo_14182" data-name="Grupo 14182" transform="translate(25.269 84.344)">
        <path id="Trazado_24574" data-name="Trazado 24574" d="M855.721,614.516c2.811,14.318,3.152,20.368,3.3,37,.084,9.2-.271,21.068-.759,30.207-.321,6,10.472,4.739,10.794-1.284.5-9.411,1.553-19.406,1.86-28.908.424-13.133.461-20.668,1.521-44.2.263-5.845-13.594,4.93-11.814,10.395Z" transform="translate(-855.721 -605.643)" fill="#1c4591"/>
      </g>
      <path id="Trazado_24575" data-name="Trazado 24575" d="M872.033,794.462c-.254.09-3.686.525-3.924.609-.364.129-1.432.467-2.063.636-1.328.355-4.555,2.194-7.62-.531-4.486-3.988,11.29-7.686,11.29-7.686l6.711-.938a3,3,0,0,1,2.278.611h0a2.021,2.021,0,0,1,.01,3.3C876.769,791.92,876.3,792.949,872.033,794.462Z" transform="translate(-831.549 -625.578)" fill="#2c4482"/>
      <path id="Trazado_24576" data-name="Trazado 24576" d="M871.9,792.037c-.253.081-3.684.472-3.921.547-.364.116-1.43.42-2.06.572-1.327.32-4.545,1.973-7.622-.479-2.111-1.682-.13-5.225,2.953-6.476,3.495-1.417,8.3-.436,8.3-.436l6.707-.843a3.259,3.259,0,0,1,2.28.549h0a1.716,1.716,0,0,1,.024,2.965C876.628,789.75,876.159,790.676,871.9,792.037Z" transform="translate(-831.433 -624.64)" fill="#97cbff"/>
      <path id="Trazado_24577" data-name="Trazado 24577" d="M897.925,789.792c.476-.358,1.344-1.027,1.946-1.435,1.131-.766,1.006-2.058-.134-2.886a3.264,3.264,0,0,0-2.281-.549l-3.274.412A9,9,0,0,1,897.925,789.792Z" transform="translate(-852.626 -624.64)" fill="#b8dbff"/>
      <g id="Grupo_14184" data-name="Grupo 14184" transform="translate(27.998 160.688)">
        <g id="Grupo_14183" data-name="Grupo 14183">
          <path id="Trazado_24578" data-name="Trazado 24578" d="M871.149,785.918c-2.432,1.616-6.739,2.282-8.26.2-.155,1.14-.617,1.353-.711,2.49-.382,4.636,8.3,4.716,8.68.063C870.934,787.755,871.034,786.836,871.149,785.918Z" transform="translate(-862.166 -785.918)" fill="#e1eaf4"/>
        </g>
      </g>
      <path id="Trazado_24579" data-name="Trazado 24579" d="M857.55,782.567l-.2,3.2a.554.554,0,0,0,.118.38c.511.659,2.506,2.3,6.733,2.309a12.417,12.417,0,0,0,6.412-1.432,1.254,1.254,0,0,0,.42-.89l-.042-3.408a.762.762,0,0,0-1.138-.535,12.682,12.682,0,0,1-11.062-.21A.861.861,0,0,0,857.55,782.567Z" transform="translate(-831.392 -622.91)" fill="#2e5cb0"/>
      <path id="Trazado_24580" data-name="Trazado 24580" d="M862.4,498.824l-8.393-3.775a143.742,143.742,0,0,0-.852,45.854s.249,6.035-9.405,5.366c-4.22-.4-8.467.205-12.173-.667a73.374,73.374,0,0,0,20.117,5.2c6.629,2.071,8.755-5.108,8.764-6.662C860.51,534.947,857.542,526.084,862.4,498.824Z" transform="translate(-816.534 -457.541)" fill="#46a6e8"/>
      <path id="Trazado_24581" data-name="Trazado 24581" d="M880.75,493.875a75.863,75.863,0,0,0,15.771,8.23,2.222,2.222,0,0,0,2.52-1.426l2.6-6.6a1.26,1.26,0,0,0-.784-1.845c-2.342-.5-6.278-3.089-12.616-6.277-2.055-.512-6.671-.295-8.163,2.022h0C878.524,490.4,878.82,493,880.75,493.875Z" transform="translate(-843.921 -452.169)" fill="#60bfff"/>
      <path id="Trazado_24582" data-name="Trazado 24582" d="M883.378,413.247c-2.433,1.09-2.14,3.163.512,3a7.7,7.7,0,0,1,5.282,2.139.762.762,0,0,0,1.273-.416,8.366,8.366,0,0,0-2.389-6.412C887.1,410.6,886.284,411.946,883.378,413.247Z" transform="translate(-845.438 -409.217)" fill="#492817"/>
      <path id="Trazado_24583" data-name="Trazado 24583" d="M915.586,508.643s3.363-6.5,3.86-9.618" transform="translate(-864.965 -459.832)" fill="none" stroke="#fff" stroke-linecap="round" stroke-linejoin="round" stroke-width="2.451"/>
      <path id="Trazado_24584" data-name="Trazado 24584" d="M896.246,445.822a3.044,3.044,0,0,1-1.51.66s-.482-.17-.151-.549S894.99,446.534,896.246,445.822Z" transform="translate(-852.791 -429.16)" fill="#ea8a6c"/>
      <path id="Trazado_24585" data-name="Trazado 24585" d="M868.084,451.914s-4.111-1.222-4.367-3.745l-.894-5.414s5.773,7.882,9.4,8.874A13.781,13.781,0,0,1,868.084,451.914Z" transform="translate(-834.547 -427.392)" fill="#ea8a6c"/>
      <path id="Trazado_24586" data-name="Trazado 24586" d="M846.879,415.748c1.8-9.758,9.213-8.793,15.025-9.269a9.013,9.013,0,0,1,5.8,2.228c1.768,1.587-.343,4.781-3.675,4.789-3.07.008-.572,4.682-1.453,6.452-.969,1.946-1.5,2.032-3.651,2.667-4.1,1.214-2.245,5.629-4.691,5.923-.974.117-2.887.036-3.569-1.149C850.042,426.3,845.516,423.159,846.879,415.748Z" transform="translate(-825.208 -406.478)" fill="#492817"/>
      <path id="Trazado_24587" data-name="Trazado 24587" d="M874.917,438.345c.307,1.7-.475,3.32-1.745,3.613a1.768,1.768,0,0,1-.416.046,2.85,2.85,0,0,1-2.439-2.6c-.306-1.7.475-3.32,1.745-3.613S874.61,436.642,874.917,438.345Z" transform="translate(-838.829 -423.352)" fill="#ffaa82"/>
      <path id="Trazado_24588" data-name="Trazado 24588" d="M875.909,441.887a.451.451,0,0,0-.083-.694c-.343-.207-.84-.354-1.081.3a1.65,1.65,0,0,0,.65,1.669.1.1,0,0,0,.152-.11.743.743,0,0,1,.086-.884C875.748,442.062,875.837,441.967,875.909,441.887Z" transform="translate(-841.383 -426.39)" fill="#ea8a6c"/>
      <path id="Trazado_24589" data-name="Trazado 24589" d="M862.164,469.136c-8.572.839-14.122,2.187-16.539-3.62h0a2.781,2.781,0,0,1,3.707-.133,7.937,7.937,0,0,0,8.156,1.507,3.673,3.673,0,0,1,3.3.68Z" transform="translate(-824.632 -440.066)" fill="#46a6e8"/>
      <path id="Trazado_24590" data-name="Trazado 24590" d="M975.71,462.421s-.324,2.362-4.157.52c-.06.08-.251.414-.509.883a4.3,4.3,0,0,1,2.367-.96,9.141,9.141,0,0,1,4.163.657l.069.038.014.089a.882.882,0,0,1-.214.661c-.507.631-1.774.838-3.764.617a2.22,2.22,0,0,0-1.726.815,2.271,2.271,0,0,1,1.32-.469,23.426,23.426,0,0,1,4.08.782l.105.029.011.127a.852.852,0,0,1-.237.606,1.274,1.274,0,0,1-.332.262l.064,0,.181.012-.038.212c-.281,1.564-1.729,1.507-2.786,1.465-.137-.006-.27-.011-.4-.013a1.728,1.728,0,0,0-1.5.7,14.929,14.929,0,0,0-1.584,3.207c-.036.148-.546,1.321-.608,1.5-1.164,3.3-4.521,2.162-4.886-1.193,1.467-3.6,2.917-9.1,4.5-10.633l.016-.03S975.7,461.888,975.71,462.421Z" transform="translate(-893.653 -438.574)" fill="#ffaa82"/>
    </g>
    <path id="Trazado_24591" data-name="Trazado 24591" d="M887.988,245.782c0-13.2,7.461-25.527,16.665-27.535,5.752-1.255,10.824,1.818,13.819,7.522" transform="translate(-160.807 -14.426)" fill="none" stroke="#1c4591" stroke-linecap="round" stroke-linejoin="round" stroke-width="6.403"/>
    <path id="Trazado_24592" data-name="Trazado 24592" d="M1244.365,365.523c0-13.2,7.461-25.527,16.665-27.535,5.753-1.255,10.824,1.818,13.819,7.522" transform="translate(-366.263 -83.459)" fill="none" stroke="#1c4591" stroke-linecap="round" stroke-linejoin="round" stroke-width="6.403"/>
    <line id="Línea_33" data-name="Línea 33" x2="10.293" y2="16.633" transform="translate(863.238 361.795)" fill="none" stroke="#a8c4e5" stroke-linecap="round" stroke-linejoin="round" stroke-width="2.134"/>
    <line id="Línea_34" data-name="Línea 34" y1="6.439" x2="12.746" transform="translate(863.238 366.116)" fill="none" stroke="#a8c4e5" stroke-linecap="round" stroke-linejoin="round" stroke-width="2.134"/>
    <line id="Línea_35" data-name="Línea 35" x2="10.293" y2="16.633" transform="translate(790.709 287.267)" fill="none" stroke="#a8c4e5" stroke-linecap="round" stroke-linejoin="round" stroke-width="2.134"/>
    <line id="Línea_36" data-name="Línea 36" y1="6.439" x2="12.746" transform="translate(790.709 291.588)" fill="none" stroke="#a8c4e5" stroke-linecap="round" stroke-linejoin="round" stroke-width="2.134"/>
    <g id="Grupo_14186" data-name="Grupo 14186" transform="translate(663.18 233.926)">
      <path id="Trazado_24593" data-name="Trazado 24593" d="M775.04,321.25l-38.18-11.388c1.555-6.907,1.927-13.787,2.419-20.148l38.18,11.388A124.721,124.721,0,0,1,775.04,321.25Z" transform="translate(-736.86 -289.714)" fill="#ffd22d"/>
      <path id="Trazado_24594" data-name="Trazado 24594" d="M797.557,321.8l-15.932-4.752a2.14,2.14,0,0,1-1.194-2.333h0c.126-1.054.866-1.718,1.652-1.483l15.932,4.752a2.14,2.14,0,0,1,1.194,2.333h0C799.083,321.368,798.344,322.033,797.557,321.8Z" transform="translate(-761.969 -303.244)" fill="#fff"/>
      <path id="Trazado_24595" data-name="Trazado 24595" d="M805.252,341.435l-9.727-2.9a2.141,2.141,0,0,1-1.194-2.333h0c.127-1.054.866-1.718,1.652-1.483l9.727,2.9a2.14,2.14,0,0,1,1.194,2.333h0C806.779,341,806.039,341.669,805.252,341.435Z" transform="translate(-769.982 -315.632)" fill="#fff"/>
    </g>
    <ellipse id="Elipse_729" data-name="Elipse 729" cx="22.719" cy="10.651" rx="22.719" ry="10.651" transform="translate(623.558 381.264) rotate(-1.525)" fill="#a7bcf5" opacity="0.39" style="mix-blend-mode: multiply;isolation: isolate"/>
    <ellipse id="Elipse_730" data-name="Elipse 730" cx="15.436" cy="7.462" rx="15.436" ry="7.462" transform="translate(626.607 388.639) rotate(-1.303)" fill="#95c1f5"/>
    <ellipse id="Elipse_731" data-name="Elipse 731" cx="18.766" cy="9.072" rx="18.766" ry="9.072" transform="translate(622.613 384.308) rotate(-1.302)" fill="#cfe4fa"/>
    <path id="Trazado_24596" data-name="Trazado 24596" d="M619.322,595.268l9.49,30.4,37.336-.438,8.445-30.553Z" transform="translate(-5.918 -231.602)" fill="#cfe4fa"/>
    <path id="Trazado_24597" data-name="Trazado 24597" d="M695.971,603.384l-8.05,21.975h-.005c-1.443,3.018-2.162,4.129-5.192,5.688a30.855,30.855,0,0,1-8.224,2.362,32.615,32.615,0,0,0,17.452-2.377c2.374-1.116,4.3-1.724,5.857-5.281l.642-1.813,7.953-29.263Z" transform="translate(-37.728 -231.602)" fill="#b0cff5"/>
    <ellipse id="Elipse_732" data-name="Elipse 732" cx="28.087" cy="11.955" rx="28.087" ry="11.955" transform="matrix(1, -0.012, 0.012, 1, 612.8, 349.617)" fill="#b4d3fa"/>
    <ellipse id="Elipse_733" data-name="Elipse 733" cx="24.109" cy="10.262" rx="24.109" ry="10.262" transform="translate(616.697 352.158) rotate(-0.68)" fill="#4c89d4"/>
    <path id="Trazado_24598" data-name="Trazado 24598" d="M669.253,590.491c-8.955,4.281-24.2,4.74-34.054,1.023-7.108-2.681-9.6-6.858-6.868-10.5,3.8-5.054,42.46-3.623,43.622-2.832C677.438,581.925,676.643,586.958,669.253,590.491Z" transform="translate(-10.487 -221.628)" fill="#69a5ed"/>
    <path id="Trazado_24599" data-name="Trazado 24599" d="M683.214,588.514c.024,1.029-1.587,1.9-3.6,1.949s-3.661-.749-3.685-1.777,1.586-1.9,3.6-1.949S683.19,587.485,683.214,588.514Z" transform="translate(-38.554 -227.024)" fill="#4c89d4"/>
    <path id="Trazado_24600" data-name="Trazado 24600" d="M626.37,605.961s8.958,7.458,25.821,6.7,23.481-7.42,23.481-7.42" transform="translate(-9.981 -237.692)" fill="none" stroke="#fff" stroke-linecap="round" stroke-linejoin="round" stroke-width="1.009"/>
    <g id="Grupo_14187" data-name="Grupo 14187" transform="translate(639.888 295.043)">
      <path id="Trazado_24601" data-name="Trazado 24601" d="M683.075,501.3a1.225,1.225,0,0,0,1.214-1.236V435.269a1.215,1.215,0,1,0-2.429,0v64.794A1.226,1.226,0,0,0,683.075,501.3Z" transform="translate(-681.86 -434.033)" fill="#1d50cf"/>
    </g>
    <g id="Grupo_14188" data-name="Grupo 14188" transform="translate(640.384 317.365)">
      <path id="Trazado_24602" data-name="Trazado 24602" d="M684.246,501.861a1.2,1.2,0,0,0,.75-.265L700.8,488.95a1.251,1.251,0,0,0,.2-1.735,1.2,1.2,0,0,0-1.705-.208l-15.808,12.645a1.25,1.25,0,0,0-.2,1.735A1.2,1.2,0,0,0,684.246,501.861Z" transform="translate(-683.03 -486.743)" fill="#1d50cf"/>
    </g>
    <g id="Grupo_14189" data-name="Grupo 14189" transform="translate(625.984 305.104)">
      <path id="Trazado_24603" data-name="Trazado 24603" d="M663.958,477.369a1.2,1.2,0,0,0,.767-.279,1.251,1.251,0,0,0,.173-1.739l-13.715-17.106a1.2,1.2,0,0,0-1.709-.176,1.25,1.25,0,0,0-.173,1.739l13.714,17.106A1.2,1.2,0,0,0,663.958,477.369Z" transform="translate(-649.028 -457.791)" fill="#1d50cf"/>
    </g>
    <g id="Grupo_14190" data-name="Grupo 14190" transform="translate(609.057 260.408)">
      <path id="Trazado_24604" data-name="Trazado 24604" d="M660.954,392.8s9.153,9.41,18.639,5.969-1.231-2.282-3.8-4.929-.032-4.191,1.965-4.031,13.41.421,13.038-3.963-7.417,1.867-8.41-1.791-1.144-.372,6.358-3.247c6.157-2.36,7.531-9.6,6.219-10.648-2.322-1.849-6.354,3.558-7.921,2.233s6.711-5.952,5.354-11.511a32.2,32.2,0,0,0-3.271-8.64s-1.719,1.773-6.534,4.077-8.741,3.833-8.108,9.242-3.885,2.183-2.325-3.795-1.624-6.774-3.537-2.033c-1.76,4.361-3.482,9.924-4.284,11.526s-.617,1.7-.424-2.685-3.028-6.155-4.883-4.707-1.04,14.452,3.158,16.525-.422,8.468-4.014.7-4.578-8.94-5.8-3.691S656.693,389.429,660.954,392.8Z" transform="translate(-633.93 -352.248)" fill="#69a5ed"/>
      <path id="Trazado_24605" data-name="Trazado 24605" d="M679.994,435.437c5.364-2.018,16.909-5,20.076.094.08.128-7.581,3.054-8.8,2.957-2-.16-1.531.808,1.039,3.454s7.536-3.4-1.949.044c-6.483,2.351-12.34-.18-15.7-2.728A17.353,17.353,0,0,1,679.994,435.437Z" transform="translate(-646.88 -398.639)" fill="#478bde"/>
      <path id="Trazado_24606" data-name="Trazado 24606" d="M614.966,463.9c5.115-2.211,4.916-.226,3.833-3.308-.469-1.334-1.745-1.054-3.183-.432-6.316,4.132-6.406-4.068.829-5.828,2.861-.88,5.814-.359,6.749-.46,2.053-.222,4.56-2.276,1.771-4.463-1.27-1-4.222-.867-6.164-.933a1,1,0,0,1-.949-1.166h0a1,1,0,0,1,.425-.656c.6-.4,1.415-.9,2.5-1.507,9.507-5.312,19.44,2.46,19.44,2.46,4.564,2.6,10.644,8.391,9.706,13.945s-2.017,4.553-6.158-2.623-8.49.192-4.068,1.485,6.033,14.312,4.22,16.136-5.218.646-5.28-3.829-3.853-5.584-4.579-3.807,2.773,7.873,3.112,13.046-7.809,5.6-6.568-.754-5.481-12.916-4.51-7.558.322,10.86-4.471,14.121a56.424,56.424,0,0,0-7.823,6.353,25.4,25.4,0,0,1-3.068-5.879C607.292,476.439,609.372,468.833,614.966,463.9Z" transform="translate(-609.057 -404.735)" fill="#86baf7"/>
      <path id="Trazado_24607" data-name="Trazado 24607" d="M689.393,443.146c-1.4,2.819,1.425,3,3.069,2.65s8.494.35,10.2,3.622c2.042,3.9-8.164,3.172-7.5,5.355.784,2.568,1.5,3.527,6.724,2.432,6.805-1.427,11.9,4.688,10.158,6.372s-9.293.612-10.232,2.051,4.112,1.957,5.9,7.216c2.033,5.97-.326,11.923-.537,12.683-.785.078-7.12,1.45-12.658-1.568-4.878-2.658-5.923-8.637-7.5-7.956s-.41,9.214-2.366,10.649-7.117-4.629-4.555-11.093c1.967-4.963,1.6-7.384-.8-8.593-2.039-1.027-2.873,7.536-6.944,5.849s-.894-10.135-.273-11.7.484-3.717-2.532-2.817-2.988,11.715-6.769,3.148c-1.633-3.7.1-10.348,5.059-16.484a15.433,15.433,0,0,1,6.571-4.751c5.364-2.018,15.2-5.311,18.139-2.779C697.319,441.535,690.792,440.326,689.393,443.146Z" transform="translate(-639.692 -400.831)" fill="#97cbff"/>
      <path id="Trazado_24608" data-name="Trazado 24608" d="M719.454,492.505s-17.494-33.722-34.884-44.04" transform="translate(-652.591 -407.718)" fill="none" stroke="#fff" stroke-linecap="round" stroke-linejoin="round" stroke-width="1.089"/>
    </g>
    <g id="Grupo_14191" data-name="Grupo 14191" transform="translate(751.654 421.905)">
      <path id="Trazado_24609" data-name="Trazado 24609" d="M994.265,749.725c-8.174-4.565-21.555-4.771-29.888-.462s-8.461,11.5-.287,16.068,21.409,4.775,29.9.553C1003.315,761.243,1002.438,754.289,994.265,749.725Z" transform="translate(-952.849 -740.84)" fill="#a7bcf5" opacity="0.39" style="mix-blend-mode: multiply;isolation: isolate"/>
      <path id="Trazado_24610" data-name="Trazado 24610" d="M980.821,747.594c-7.763-4.335-20.471-4.532-28.385-.439s-8.036,10.925-.273,15.26,20.333,4.535,28.392.525C989.416,758.533,988.584,751.929,980.821,747.594Z" transform="translate(-946.148 -739.715)" fill="#edba00"/>
      <path id="Trazado_24611" data-name="Trazado 24611" d="M980.179,736.981c-7.763-4.335-20.471-4.531-28.385-.439s-8.036,10.925-.273,15.26,20.333,4.535,28.392.526C988.774,747.92,987.942,741.316,980.179,736.981Z" transform="translate(-945.778 -733.597)" fill="#ffd22d"/>
      <path id="Trazado_24612" data-name="Trazado 24612" d="M980.68,746.474l-2.236,7.151,18.109-3.816" transform="translate(-964.611 -741.021)" fill="none" stroke="#fff" stroke-linecap="round" stroke-linejoin="round" stroke-width="9.17"/>
    </g>
    <path id="Trazado_24613" data-name="Trazado 24613" d="M1362.232,589.709c-10.321.168-19.971-1.1-27.486-6.946l2.287-18.125c8.162,5.927,17.36,8.114,27.487,6.946Z" transform="translate(-418.369 -214.285)" fill="#ffd252"/>
    <path id="Trazado_24614" data-name="Trazado 24614" d="M1371.584,522.16c-11.331-2.582-20.561-7.171-26.251-15.143l2.288-18.125c5.815,8.241,14.476,13.386,26.251,15.142Z" transform="translate(-424.472 -170.617)" fill="#ebf5ff"/>
  </g>
</svg>
