<svg xmlns="http://www.w3.org/2000/svg" width="268.214" height="260.352" viewBox="0 0 268.214 260.352">
  <g id="Grupo_14358" data-name="Grupo 14358" transform="translate(-1131.969 -5079.761)">
    <g id="Grupo_14357" data-name="Grupo 14357" transform="translate(1131.969 5079.761)">
      <path id="Trazado_25129" data-name="Trazado 25129" d="M342.784,211.928c0,34.487-17.67,57.734-40.27,80.334s-48.429,32.409-82.916,32.409-73.264-20.985-95.864-43.585-31.329-13.568-31.329-48.055,14.581-86.812,37.181-109.412A124.5,124.5,0,0,1,217.9,87.04c34.487,0,31.2,46.279,53.8,68.879S342.784,177.441,342.784,211.928Z" transform="translate(-74.571 -64.319)" fill="#eaf4fe"/>
      <g id="Grupo_14346" data-name="Grupo 14346" transform="translate(160.738 35.587)">
        <path id="Trazado_25130" data-name="Trazado 25130" d="M448.344,384.8a1.2,1.2,0,0,1-1.2-1.2V373.548a1.2,1.2,0,0,1,2.395,0v10.058A1.2,1.2,0,0,1,448.344,384.8Z" transform="translate(-391.826 -225.791)" fill="#c1c1c1"/>
        <path id="Trazado_25131" data-name="Trazado 25131" d="M449.78,383.746H440.2a1.2,1.2,0,1,1,0-2.395h9.579a1.2,1.2,0,1,1,0,2.395Z" transform="translate(-388.234 -229.762)" fill="#c1c1c1"/>
        <path id="Trazado_25132" data-name="Trazado 25132" d="M357.486,122.04a1.2,1.2,0,0,1-1.2-1.2v-9.579a1.2,1.2,0,0,1,2.395,0v9.579A1.2,1.2,0,0,1,357.486,122.04Z" transform="translate(-351.739 -110.066)" fill="#fe9595"/>
        <path id="Trazado_25133" data-name="Trazado 25133" d="M358.923,120.6h-9.579a1.2,1.2,0,1,1,0-2.395h9.579a1.2,1.2,0,1,1,0,2.395Z" transform="translate(-348.146 -113.658)" fill="#fe9595"/>
      </g>
      <path id="Trazado_25134" data-name="Trazado 25134" d="M71.935,69.274a.958.958,0,0,1-.923-.7c-1.847-6.689-3.133-7.974-9.821-9.822a.958.958,0,0,1,0-1.846c6.689-1.847,7.974-3.132,9.821-9.821a.958.958,0,0,1,1.847,0c1.847,6.689,3.133,7.974,9.821,9.821a.958.958,0,0,1,0,1.846c-6.689,1.848-7.974,3.133-9.821,9.822A.958.958,0,0,1,71.935,69.274ZM64.673,57.826c4.047,1.456,5.807,3.216,7.262,7.263,1.456-4.047,3.215-5.806,7.263-7.263-4.047-1.455-5.807-3.215-7.263-7.262C70.48,54.612,68.72,56.371,64.673,57.826Z" transform="translate(-60.488 -46.379)" fill="#ffd599"/>
      <g id="Grupo_14356" data-name="Grupo 14356" transform="translate(6.87 52.912)">
        <g id="chat" transform="translate(52.712 7.006)">
          <g id="Grupo_14347" data-name="Grupo 14347" transform="translate(0 60.908)">
            <path id="Trazado_25135" data-name="Trazado 25135" d="M292.506,300.813l-.039,13.266-.213,73.826-26.173-26.173H187.567a17.448,17.448,0,0,1-17.451-17.445V283.217a17.448,17.448,0,0,1,17.451-17.445l20.681-.056,33.125-.089,6.99-.017Z" transform="translate(-168.439 -263.934)" fill="#a4e4ff"/>
            <path id="Trazado_25136" data-name="Trazado 25136" d="M290.931,388.258a1.676,1.676,0,0,1-1.186-.491l-25.682-25.682H186.242a19.146,19.146,0,0,1-19.127-19.121V281.894a19.146,19.146,0,0,1,19.127-19.121l60.792-.162h0a1.675,1.675,0,0,1,1.045.365l44.144,35.2a1.676,1.676,0,0,1,.631,1.315l-.252,87.092a1.676,1.676,0,0,1-1.676,1.671ZM246.453,265.965l-60.206.16a15.791,15.791,0,0,0-15.779,15.768v61.069a15.79,15.79,0,0,0,15.774,15.769h78.515a1.678,1.678,0,0,1,1.185.491l23.324,23.323L289.5,300.3Z" transform="translate(-167.115 -262.611)" fill="#3a5c91"/>
          </g>
          <g id="Grupo_14348" data-name="Grupo 14348" transform="translate(27.753 90.781)">
            <path id="Trazado_25137" data-name="Trazado 25137" d="M266.514,321.659H219.576a2.794,2.794,0,0,1,0-5.588h46.938a2.794,2.794,0,0,1,0,5.588Z" transform="translate(-216.782 -316.071)" fill="#3a5c91"/>
            <path id="Trazado_25138" data-name="Trazado 25138" d="M266.514,352.659H219.576a2.794,2.794,0,1,1,0-5.588h46.938a2.794,2.794,0,0,1,0,5.588Z" transform="translate(-216.782 -329.749)" fill="#3a5c91"/>
            <path id="Trazado_25139" data-name="Trazado 25139" d="M266.514,383.659H219.576a2.794,2.794,0,1,1,0-5.588h46.938a2.794,2.794,0,1,1,0,5.588Z" transform="translate(-216.782 -343.426)" fill="#3a5c91"/>
          </g>
          <path id="Trazado_25140" data-name="Trazado 25140" d="M348.77,300.813l-.039,13.266H326.178L300.5,339.755a1.67,1.67,0,0,1-1.19.492,1.7,1.7,0,0,1-.637-.123,1.682,1.682,0,0,1-1.034-1.553V265.627l6.99-.017Z" transform="translate(-224.703 -203.026)" opacity="0.2"/>
          <g id="Grupo_14349" data-name="Grupo 14349" transform="translate(78.518)">
            <path id="Trazado_25141" data-name="Trazado 25141" d="M415.319,252.573H336.8l-26.172,26.172V174.057a17.447,17.447,0,0,1,17.448-17.448h87.24a17.447,17.447,0,0,1,17.448,17.448v61.068A17.448,17.448,0,0,1,415.319,252.573Z" transform="translate(-308.955 -154.933)" fill="#fff"/>
            <path id="Trazado_25142" data-name="Trazado 25142" d="M309.307,279.1a1.677,1.677,0,0,1-1.676-1.676V172.733a19.146,19.146,0,0,1,19.124-19.124H414a19.146,19.146,0,0,1,19.124,19.124V233.8A19.146,19.146,0,0,1,414,252.926H336.174l-25.681,25.681A1.676,1.676,0,0,1,309.307,279.1Zm17.449-122.136a15.789,15.789,0,0,0-15.772,15.772V273.375l23.31-23.31a1.674,1.674,0,0,1,1.185-.491H414A15.79,15.79,0,0,0,429.767,233.8V172.733A15.789,15.789,0,0,0,414,156.962Z" transform="translate(-307.631 -153.609)" fill="#3a5c91"/>
          </g>
          <circle id="Elipse_754" data-name="Elipse 754" cx="8.661" cy="8.661" r="8.661" transform="translate(164.92 43.341)" opacity="0.2"/>
          <circle id="Elipse_755" data-name="Elipse 755" cx="8.661" cy="8.661" r="8.661" transform="translate(133.069 43.341)" opacity="0.2"/>
          <circle id="Elipse_756" data-name="Elipse 756" cx="8.661" cy="8.661" r="8.661" transform="translate(101.219 43.341)" opacity="0.2"/>
          <g id="Grupo_14350" data-name="Grupo 14350" transform="translate(101.4 42.223)">
            <circle id="Elipse_757" data-name="Elipse 757" cx="6.985" cy="6.985" r="6.985" transform="translate(1.676 1.677)" fill="#a4e4ff"/>
            <path id="Trazado_25143" data-name="Trazado 25143" d="M357.242,246.493a8.661,8.661,0,1,1,8.661-8.661A8.671,8.671,0,0,1,357.242,246.493Zm0-13.97a5.308,5.308,0,1,0,5.308,5.308A5.315,5.315,0,0,0,357.242,232.524Z" transform="translate(-348.581 -229.171)" fill="#3a5c91"/>
          </g>
          <g id="Grupo_14351" data-name="Grupo 14351" transform="translate(133.16 42.223)">
            <circle id="Elipse_758" data-name="Elipse 758" cx="6.985" cy="6.985" r="6.985" transform="translate(1.677 1.677)" fill="#a4e4ff"/>
            <path id="Trazado_25144" data-name="Trazado 25144" d="M414.079,246.493a8.661,8.661,0,1,1,8.661-8.661A8.671,8.671,0,0,1,414.079,246.493Zm0-13.97a5.308,5.308,0,1,0,5.308,5.308A5.315,5.315,0,0,0,414.079,232.524Z" transform="translate(-405.418 -229.171)" fill="#3a5c91"/>
          </g>
          <g id="Grupo_14352" data-name="Grupo 14352" transform="translate(164.92 42.223)">
            <circle id="Elipse_759" data-name="Elipse 759" cx="6.985" cy="6.985" r="6.985" transform="translate(1.676 1.677)" fill="#a4e4ff"/>
            <path id="Trazado_25145" data-name="Trazado 25145" d="M470.917,246.493a8.661,8.661,0,1,1,8.661-8.661A8.671,8.671,0,0,1,470.917,246.493Zm0-13.97a5.308,5.308,0,1,0,5.308,5.308A5.315,5.315,0,0,0,470.917,232.524Z" transform="translate(-462.256 -229.171)" fill="#3a5c91"/>
          </g>
        </g>
        <path id="Trazado_25146" data-name="Trazado 25146" d="M208.247,265.8a31.126,31.126,0,0,1-38.131,29.04V283.3a17.448,17.448,0,0,1,17.451-17.445Z" transform="translate(-115.727 -196.104)" opacity="0.2"/>
        <g id="Grupo_14353" data-name="Grupo 14353" transform="translate(30.336 32.858)">
          <circle id="Elipse_760" data-name="Elipse 760" cx="29.429" cy="29.429" r="29.429" transform="translate(1.676 1.676)" fill="#ff525d"/>
          <path id="Trazado_25147" data-name="Trazado 25147" d="M158.178,262.085a31.105,31.105,0,1,1,31.106-31.106A31.141,31.141,0,0,1,158.178,262.085Zm0-58.858a27.753,27.753,0,1,0,27.753,27.753A27.784,27.784,0,0,0,158.178,203.227Z" transform="translate(-127.072 -199.874)" fill="#3a5c91"/>
        </g>
        <g id="Grupo_14354" data-name="Grupo 14354" transform="translate(57.82 45.663)" opacity="0.2">
          <path id="Trazado_25148" data-name="Trazado 25148" d="M179.749,283.343a3.5,3.5,0,1,1,2.466-1.026A3.376,3.376,0,0,1,179.749,283.343Z" transform="translate(-176.257 -246.425)"/>
          <path id="Trazado_25149" data-name="Trazado 25149" d="M179.749,250.052a3.5,3.5,0,0,1-3.492-3.492V226.282a3.492,3.492,0,0,1,6.985,0v20.277a3.5,3.5,0,0,1-3.492,3.492Z" transform="translate(-176.257 -222.79)"/>
        </g>
        <g id="Grupo_14355" data-name="Grupo 14355" transform="translate(57.261 43.987)">
          <path id="Trazado_25150" data-name="Trazado 25150" d="M178.749,280.343a3.5,3.5,0,1,1,2.466-1.026A3.376,3.376,0,0,1,178.749,280.343Z" transform="translate(-175.257 -243.425)" fill="#fff"/>
          <path id="Trazado_25151" data-name="Trazado 25151" d="M178.749,247.052a3.5,3.5,0,0,1-3.492-3.492V223.282a3.492,3.492,0,0,1,6.985,0v20.277a3.5,3.5,0,0,1-3.492,3.492Z" transform="translate(-175.257 -219.79)" fill="#fff"/>
        </g>
        <path id="Trazado_25152" data-name="Trazado 25152" d="M180.458,167.334a1.676,1.676,0,0,1-1.676-1.676v-22.91a1.676,1.676,0,1,1,3.353,0v22.91A1.677,1.677,0,0,1,180.458,167.334Z" transform="translate(-119.551 -141.071)" fill="#3a5c91"/>
        <path id="Trazado_25153" data-name="Trazado 25153" d="M120.789,195.264a1.673,1.673,0,0,1-1.1-.413l-14.726-12.84a1.676,1.676,0,0,1,2.2-2.527l14.726,12.84a1.677,1.677,0,0,1-1.1,2.94Z" transform="translate(-86.727 -157.837)" fill="#3a5c91"/>
        <path id="Trazado_25154" data-name="Trazado 25154" d="M96.251,255.424H74.458a1.676,1.676,0,0,1,0-3.353H96.251a1.676,1.676,0,1,1,0,3.353Z" transform="translate(-72.782 -190.046)" fill="#3a5c91"/>
      </g>
    </g>
  </g>
</svg>
