<svg xmlns="http://www.w3.org/2000/svg" width="382.258" height="434.998" viewBox="0 0 382.258 434.998">
  <g id="Grupo_14254" data-name="Grupo 14254" transform="translate(-1020.321 -6229.305)">
    <g id="Grupo_14218" data-name="Grupo 14218" transform="translate(1095.076 6256.183)">
      <g id="Grupo_14195" data-name="Grupo 14195" transform="translate(93.931 0)">
        <path id="Trazado_24617" data-name="Trazado 24617" d="M929.123,172.393h-7.489V191.8H927.9V177.45h19.408V191.8h6.264V172.393H929.123Z" transform="translate(-921.634 -172.393)" fill="#7ab6f5"/>
      </g>
      <g id="Grupo_14215" data-name="Grupo 14215" transform="translate(0 27.335)">
        <g id="Grupo_14196" data-name="Grupo 14196">
          <rect id="Rectángulo_2744" data-name="Rectángulo 2744" width="219.799" height="278.684" rx="7" fill="#3d4166"/>
        </g>
        <g id="Grupo_14197" data-name="Grupo 14197" transform="translate(8.422 9.164)">
          <rect id="Rectángulo_2745" data-name="Rectángulo 2745" width="202.955" height="260.357" fill="#fefefe"/>
        </g>
        <g id="Grupo_14199" data-name="Grupo 14199" transform="translate(8.422 9.164)">
          <g id="Grupo_14198" data-name="Grupo 14198">
            <path id="Trazado_24618" data-name="Trazado 24618" d="M716.231,284.908l202.915-1.177V260.085H716.191Z" transform="translate(-716.191 -260.085)" fill="#7ab6f5"/>
          </g>
        </g>
        <g id="Grupo_14202" data-name="Grupo 14202" transform="translate(62.943 44.584)">
          <g id="Grupo_14200" data-name="Grupo 14200" transform="translate(8.234 11.33)">
            <rect id="Rectángulo_2746" data-name="Rectángulo 2746" width="77.445" height="5.148" fill="#b4d3ff"/>
          </g>
          <g id="Grupo_14201" data-name="Grupo 14201">
            <rect id="Rectángulo_2747" data-name="Rectángulo 2747" width="93.914" height="5.148" fill="#b4d3ff"/>
          </g>
        </g>
        <g id="Grupo_14214" data-name="Grupo 14214" transform="translate(23.549 75.696)">
          <g id="Grupo_14203" data-name="Grupo 14203" transform="translate(55.452 19.705)">
            <rect id="Rectángulo_2748" data-name="Rectángulo 2748" width="117.249" height="3.442" fill="#b4d3ff"/>
            <rect id="Rectángulo_2749" data-name="Rectángulo 2749" width="93.414" height="3.442" transform="translate(0 7.252)" fill="#b4d3ff"/>
            <rect id="Rectángulo_2750" data-name="Rectángulo 2750" width="51.424" height="3.442" transform="translate(0 14.503)" fill="#b4d3ff"/>
          </g>
          <g id="Grupo_14204" data-name="Grupo 14204" transform="translate(55.452 79.831)">
            <rect id="Rectángulo_2751" data-name="Rectángulo 2751" width="117.249" height="3.442" fill="#b4d3ff"/>
            <rect id="Rectángulo_2752" data-name="Rectángulo 2752" width="93.414" height="3.442" transform="translate(0 7.252)" fill="#b4d3ff"/>
            <rect id="Rectángulo_2753" data-name="Rectángulo 2753" width="51.424" height="3.442" transform="translate(0 14.503)" fill="#b4d3ff"/>
          </g>
          <g id="Grupo_14205" data-name="Grupo 14205" transform="translate(55.452 139.957)">
            <rect id="Rectángulo_2754" data-name="Rectángulo 2754" width="117.249" height="3.442" fill="#b4d3ff"/>
            <rect id="Rectángulo_2755" data-name="Rectángulo 2755" width="93.414" height="3.442" transform="translate(0 7.252)" fill="#b4d3ff"/>
            <rect id="Rectángulo_2756" data-name="Rectángulo 2756" width="51.424" height="3.442" transform="translate(0 14.503)" fill="#b4d3ff"/>
          </g>
          <g id="Grupo_14206" data-name="Grupo 14206" transform="translate(4.725 7.747)">
            <path id="Trazado_24619" data-name="Trazado 24619" d="M804.255,480.409H765.384a1.5,1.5,0,0,1-1.495-1.5V440.042a1.5,1.5,0,0,1,1.495-1.495h38.872a1.494,1.494,0,0,1,1.495,1.495v38.872A1.5,1.5,0,0,1,804.255,480.409Zm-37.377-2.99h35.883V441.537H766.878Z" transform="translate(-763.889 -438.547)" fill="#b4d3ff"/>
          </g>
          <g id="Grupo_14207" data-name="Grupo 14207" transform="translate(4.725 67.873)">
            <path id="Trazado_24620" data-name="Trazado 24620" d="M804.255,624.867H765.384a1.5,1.5,0,0,1-1.495-1.5V584.5a1.5,1.5,0,0,1,1.495-1.495h38.872a1.494,1.494,0,0,1,1.495,1.495v38.872A1.5,1.5,0,0,1,804.255,624.867Zm-37.377-2.99h35.883V585.994H766.878Z" transform="translate(-763.889 -583.005)" fill="#b4d3ff"/>
          </g>
          <g id="Grupo_14208" data-name="Grupo 14208" transform="translate(4.725 127.998)">
            <path id="Trazado_24621" data-name="Trazado 24621" d="M804.255,769.324H765.384a1.5,1.5,0,0,1-1.495-1.495V728.957a1.5,1.5,0,0,1,1.495-1.5h38.872a1.5,1.5,0,0,1,1.495,1.5v38.872A1.494,1.494,0,0,1,804.255,769.324Zm-37.377-2.99h35.883V730.452H766.878Z" transform="translate(-763.889 -727.462)" fill="#b4d3ff"/>
          </g>
          <g id="Grupo_14210" data-name="Grupo 14210" transform="translate(0 120.252)">
            <g id="Grupo_14209" data-name="Grupo 14209">
              <path id="Trazado_24622" data-name="Trazado 24622" d="M775.841,751.7a3.466,3.466,0,0,1-2.436-1L753.566,731.1a3.465,3.465,0,1,1,4.871-4.93l17.013,16.813,24.524-32.74a3.465,3.465,0,1,1,5.547,4.155l-26.906,35.921a3.465,3.465,0,0,1-2.516,1.378C776.012,751.7,775.926,751.7,775.841,751.7Z" transform="translate(-752.536 -708.85)" fill="#fa7070"/>
            </g>
          </g>
          <g id="Grupo_14211" data-name="Grupo 14211">
            <path id="Trazado_24623" data-name="Trazado 24623" d="M775.841,462.786a3.466,3.466,0,0,1-2.436-1L753.566,442.18a3.465,3.465,0,1,1,4.871-4.929l17.013,16.813,24.524-32.74a3.465,3.465,0,1,1,5.547,4.155L778.615,461.4a3.465,3.465,0,0,1-2.516,1.378C776.012,462.784,775.926,462.786,775.841,462.786Z" transform="translate(-752.536 -419.935)" fill="#fa7070"/>
          </g>
          <g id="Grupo_14213" data-name="Grupo 14213" transform="translate(0 59.023)">
            <g id="Grupo_14212" data-name="Grupo 14212">
              <path id="Trazado_24624" data-name="Trazado 24624" d="M775.841,604.595a3.464,3.464,0,0,1-2.436-1l-19.839-19.606a3.465,3.465,0,0,1,4.871-4.93l17.013,16.813,24.524-32.74a3.465,3.465,0,1,1,5.547,4.155l-26.906,35.921a3.466,3.466,0,0,1-2.516,1.379Q775.969,604.595,775.841,604.595Z" transform="translate(-752.536 -561.743)" fill="#fa7070"/>
            </g>
          </g>
        </g>
      </g>
      <g id="Grupo_14216" data-name="Grupo 14216" transform="translate(68.959 13.804)">
        <rect id="Rectángulo_2757" data-name="Rectángulo 2757" width="84.33" height="20.365" fill="#7ab6f5"/>
      </g>
      <g id="Grupo_14217" data-name="Grupo 14217" transform="translate(67.735 34.169)">
        <rect id="Rectángulo_2758" data-name="Rectángulo 2758" width="84.33" height="15.035" fill="#3d4166"/>
      </g>
    </g>
    <g id="Grupo_14227" data-name="Grupo 14227" transform="translate(1038.453 6460.563)">
      <g id="Grupo_14224" data-name="Grupo 14224" transform="translate(3.552 47.705)">
        <path id="Trazado_24625" data-name="Trazado 24625" d="M562.484,954.941c0,1.537-13.667,2.784-30.527,2.784s-30.527-1.247-30.527-2.784,13.667-2.784,30.527-2.784S562.484,953.4,562.484,954.941Z" transform="translate(-499.325 -801.691)" fill="#d3d8f6"/>
        <path id="Trazado_24626" data-name="Trazado 24626" d="M566.567,647.6l.9-2.026h7.786l.694,1.887Z" transform="translate(-537.351 -622.711)" fill="#fff"/>
        <path id="Trazado_24627" data-name="Trazado 24627" d="M534.4,950.941H518.967a1.369,1.369,0,0,1-.616-1.4c.063-.694,1.758-2.789,2.854-4.235h10.086c1.154,1.252,3.088,3.351,3.079,4.128A14.142,14.142,0,0,0,534.4,950.941Z" transform="translate(-509.198 -797.691)" fill="#212145"/>
        <path id="Trazado_24628" data-name="Trazado 24628" d="M609.327,950.849s-18.6.373-19.146-.385c-.361-.5.309-3.319.8-5.159h9.09a5.958,5.958,0,0,0,2.786,1.842c1.836.45,5.953.094,6.273,1.5A6.464,6.464,0,0,1,609.327,950.849Z" transform="translate(-551.076 -797.691)" fill="#212145"/>
        <path id="Trazado_24629" data-name="Trazado 24629" d="M571.53,655.968c-1.125.427-3.672,1.955-3.815,2.357a.38.38,0,0,0-.019.107.065.065,0,0,0,0,.016,3.957,3.957,0,0,0,.5,1.392v0l-.061.147c-.094.226-.293.7-.579,1.36-1.82,4.173-7.163,15.574-11.208,15.555-4.953-.024-9.764-4.645-9.764-4.645s.569,10.692.8,13.039,2.275,6.753,2.008,7.322c-.2.423-.779.679-1.016,1.061h0a.633.633,0,0,0-.1.449c.106.675.13,29.311.225,32.061s-.569,17.44-.806,19.715-1.789,24.182-2.322,24.644c-.395.341-.626.294-.687.414l-7.963-.414a2.391,2.391,0,0,1-.853-1.067,140.743,140.743,0,0,1-.555-14.643c.176-4.479,1.384-12.37,1.029-16.138s-1.777-23.314-2.489-25.258c-2.322,6.349-7.109,18.956-8.341,24.358s-1.327,13.222-2.417,17.014-4.218,15.521-4.882,15.663a.9.9,0,0,0-.525.261h-8.408c-.095-.426-1.257-.663-1.091-1.351s2.015-9.407,2.63-12.393,4.266-23.459,4.74-27.061,5.71-34.738,5.71-35.733c0-.033,0-.07,0-.11.016-1.135.253-4.679.39-6.431a19.615,19.615,0,0,0,.179-4.371c-.179-1.956-1.885-15.5-1.885-15.5s-7.108,12.405-11.8,12.405-5.9-11.055-6.007-13.827c-.084-2.187-.035-6.762-.011-8.6.007-.491.011-.786.011-.786a28.247,28.247,0,0,1-4.088-3.858c-.853-1.3-2.025-3.714-1.617-4.319s2.577,2.222,3.234,2.312a14.273,14.273,0,0,0,2.258-.089s-.872-1.938-.445-2.2,4.656,3.109,5.047,4.55a3.289,3.289,0,0,1,.214,1.485v0c-.014.043-.03.055-.033.057h0a.778.778,0,0,1,.75.666c.064.436.158,1.063.275,1.79.484,3.024,1.351,7.792,2.014,7.84.971.072,5.213-15.023,11.374-15.758a89.6,89.6,0,0,1,13.056-.379s7.133.071,9.265,1.612,11.126,15.888,12.156,15.888c.876,0,6.161-7,7.733-9.109l.394-.529.048-.066a3.285,3.285,0,0,1,.32-1.492c.32-.408,3.424-3.555,3.626-3.886.176-.291,1.046-.245,1.025.338a.89.89,0,0,1-.037.107c-.261.641-.726,1.314-.691,1.649-.026.18.037.3.26.311a6.688,6.688,0,0,0,2.974-.367.592.592,0,0,0,.082-.082l.044-.031c.359-.284.671-1.564,1.135-2.229a.511.511,0,0,1,.517-.169C573.924,651.275,572.656,655.541,571.53,655.968Z" transform="translate(-496.372 -624.554)" fill="#0a1237"/>
        <path id="Trazado_24630" data-name="Trazado 24630" d="M534.462,942.334a8.337,8.337,0,0,0,.843.966H525.219a4.9,4.9,0,0,0,.915-1.429h8.408A.526.526,0,0,0,534.462,942.334Z" transform="translate(-513.212 -795.687)" fill="#f5c3b8"/>
        <path id="Trazado_24631" data-name="Trazado 24631" d="M601.342,943.036h-9.09c.249-.935.454-1.617.454-1.617l7.963.414a.335.335,0,0,0,0,.214A3.151,3.151,0,0,0,601.342,943.036Z" transform="translate(-552.345 -795.423)" fill="#f5c3b8"/>
        <path id="Trazado_24632" data-name="Trazado 24632" d="M521.256,663.536l.033-.057C521.276,663.522,521.26,663.534,521.256,663.536Z" transform="translate(-510.899 -633.166)" fill="#f5c3b8"/>
        <path id="Trazado_24633" data-name="Trazado 24633" d="M576.254,660.223l-.061.147c-.017.043-.039.094-.064.154-.012.028-.024.059-.038.091-.09.216-.217.516-.376.884-.025.056-.05.114-.075.174-.008.018-.017.038-.025.057-1.408,3.228-4.918,10.768-8.308,14.018a4.515,4.515,0,0,1-2.9,1.536c-4.953-.024-9.764-4.645-9.764-4.645s.569,10.692.8,13.039,2.275,6.754,2.008,7.322c-.2.423-.779.679-1.016,1.061h0s-15.735,1.448-27.1.41c.016-1.135.253-4.679.39-6.431.078-.991.177-1.622.222-2.309h0a12.743,12.743,0,0,0-.043-2.061c-.179-1.956-1.885-15.5-1.885-15.5s-7.108,12.405-11.8,12.405-5.9-11.055-6.007-13.827c-.084-2.187-.035-6.762-.011-8.6.007-.491.011-.786.011-.786l4.568-2.062a.778.778,0,0,1,.75.666c.064.436.158,1.063.275,1.79.484,3.024,1.351,7.792,2.014,7.84.971.072,5.213-15.023,11.374-15.758a89.587,89.587,0,0,1,13.056-.379s7.133.071,9.265,1.612,11.126,15.888,12.157,15.888c.876,0,6.161-7,7.733-9.109.252-.338.408-.55.437-.588l0-.005,0,0,3.893,1.638a1.375,1.375,0,0,1,.264.2.956.956,0,0,1,.25,1.122Z" transform="translate(-504.424 -624.935)" fill="#fff"/>
        <g id="Grupo_14220" data-name="Grupo 14220" transform="translate(5.741 24.444)" opacity="0.2">
          <g id="Grupo_14219" data-name="Grupo 14219">
            <path id="Trazado_24634" data-name="Trazado 24634" d="M530.325,665.6c.971.072,5.213-15.023,11.374-15.758a76.48,76.48,0,0,1,8.272-.462,80.678,80.678,0,0,0-9.645.462c-5.134.612-9.4,12.045-11.09,15.515C529.451,666.02,530.131,665.588,530.325,665.6Z" transform="translate(-521.299 -649.379)" fill="#10172a"/>
            <path id="Trazado_24635" data-name="Trazado 24635" d="M639.787,678.481c.876,0,6.721-7.461,8.294-9.571l.129-.173-1.06-.422v0l0,.005c-.029.037-.185.25-.437.588a111.71,111.71,0,0,1-7.549,9.065C639.455,678.3,639.672,678.481,639.787,678.481Z" transform="translate(-585.47 -660.434)" fill="#10172a"/>
            <path id="Trazado_24636" data-name="Trazado 24636" d="M511.585,675.064c-.083-2.187-.035-6.762-.011-8.6.007-.491.011-.786.011-.786l3.816-1.722a.8.8,0,0,0-.124-.144.774.774,0,0,0-.5-.2l-4.568,2.062s0,.3-.011.786c-.024,1.835-.072,6.41.011,8.6.107,2.772,1.315,13.827,6.007,13.827a3.062,3.062,0,0,0,.689-.083C512.782,687.8,511.686,677.7,511.585,675.064Z" transform="translate(-510.166 -657.692)" fill="#10172a"/>
            <path id="Trazado_24637" data-name="Trazado 24637" d="M556.079,720.832c.016-1.135.253-4.679.39-6.431.078-.991.177-1.622.222-2.309h0a12.73,12.73,0,0,0-.043-2.061c-.179-1.956-1.885-15.5-1.885-15.5s-.427.744-1.138,1.866c.474,3.783,1.513,12.129,1.651,13.632a12.752,12.752,0,0,1,.043,2.061h0c-.045.688-.144,1.318-.222,2.309-.137,1.752-.374,5.3-.39,6.431,3.215.294,6.78.388,10.24.373C561.926,721.192,558.871,721.087,556.079,720.832Z" transform="translate(-535.536 -675.739)" fill="#10172a"/>
          </g>
          <path id="Trazado_24638" data-name="Trazado 24638" d="M628.793,692.835a4.517,4.517,0,0,1-2.9,1.536c-4.953-.024-9.764-4.645-9.764-4.645l-.639-11.078c2.843,1.86,1.6,6.078,3.8,7.108a6.225,6.225,0,0,1,3.377,4.586c.427,1.705,2.1,2.167,4.3,1.883A1.983,1.983,0,0,1,628.793,692.835Z" transform="translate(-571.652 -666.467)" fill="#10172a"/>
          <path id="Trazado_24639" data-name="Trazado 24639" d="M554.99,705.212a12.737,12.737,0,0,0-.043-2.061c-.178-1.956-1.885-15.5-1.885-15.5l2.418-3.341,1.084-1.563s-1.155,6.469-.978,8.388,2.986,2.807,3.555,6.612C559.492,700.1,556.971,703.189,554.99,705.212Z" transform="translate(-535.208 -668.86)" fill="#10172a"/>
        </g>
        <path id="Trazado_24640" data-name="Trazado 24640" d="M525.219,943.3a4.9,4.9,0,0,0,.915-1.429h8.408a.526.526,0,0,0-.08.462,8.337,8.337,0,0,0,.843.966Z" transform="translate(-513.212 -795.687)" fill="#fff"/>
        <path id="Trazado_24641" data-name="Trazado 24641" d="M601.342,943.036h-9.09c.249-.935.454-1.617.454-1.617l7.963.414a.335.335,0,0,0,0,.214A3.151,3.151,0,0,0,601.342,943.036Z" transform="translate(-552.345 -795.423)" fill="#fff"/>
        <path id="Trazado_24642" data-name="Trazado 24642" d="M506.764,654.864v0c-.014.043-.03.055-.033.057h0l-4.568,2.062a28.247,28.247,0,0,1-4.088-3.858c-.853-1.3-2.025-3.714-1.617-4.319s2.577,2.222,3.234,2.312a14.273,14.273,0,0,0,2.258-.089s-.872-1.938-.445-2.2,4.656,3.109,5.047,4.55A3.289,3.289,0,0,1,506.764,654.864Z" transform="translate(-496.372 -624.554)" fill="#f5c3b8"/>
        <path id="Trazado_24643" data-name="Trazado 24643" d="M666.028,659.169c-1.125.427-3.672,1.955-3.816,2.357a.384.384,0,0,0-.019.106.325.325,0,0,0,0,.033.468.468,0,0,0,0,.068l-3.956-1.587.048-.066a3.284,3.284,0,0,1,.32-1.493c.32-.408,3.424-3.554,3.626-3.886.176-.29,1.046-.245,1.025.339a.89.89,0,0,1-.037.106c-.261.641-.726,1.314-.691,1.649.013.122.092.2.274.213a7.294,7.294,0,0,0,3.042-.351l.044-.031c.359-.284.671-1.564,1.135-2.229a.511.511,0,0,1,.517-.169C668.422,654.477,667.153,658.743,666.028,659.169Z" transform="translate(-590.869 -627.755)" fill="#f5c3b8"/>
        <path id="Trazado_24644" data-name="Trazado 24644" d="M582,654.709h-.312l-.382,1.968.777.625.583-.479-.34-2.114Z" transform="translate(-545.953 -628.047)" fill="#2a2b7d"/>
        <path id="Trazado_24645" data-name="Trazado 24645" d="M567.632,645.57l5.927,3.8-.694,1.968-6.016-4.011Z" transform="translate(-537.515 -622.711)" fill="#fff"/>
        <path id="Trazado_24646" data-name="Trazado 24646" d="M584.829,645.57l-1.859,3.8.583,1.3,1.9-3.417Z" transform="translate(-546.926 -622.711)" fill="#fff"/>
        <path id="Trazado_24647" data-name="Trazado 24647" d="M582.967,660.018l5.508,24.2-2.222,4.5-3.231-4.2-1-24.507Z" transform="translate(-546.374 -631.146)" fill="#fc6e6d"/>
        <path id="Trazado_24648" data-name="Trazado 24648" d="M582.387,660.34l5.508,24.2-2.066,4.707-3.5-4.4-.551-25.03Z" transform="translate(-546.231 -631.031)" fill="#10172a" opacity="0.2"/>
        <path id="Trazado_24649" data-name="Trazado 24649" d="M582.967,660.018l5.508,24.2-2.222,4.5-3.231-4.2-1-24.507Z" transform="translate(-546.374 -631.146)" fill="#2a2b7d"/>
        <g id="Grupo_14223" data-name="Grupo 14223" transform="translate(26.262)">
          <g id="Grupo_14221" data-name="Grupo 14221" transform="translate(0.086 4.166)">
            <path id="Trazado_24650" data-name="Trazado 24650" d="M576.321,634.786v5.542c-.2.591-.909.855-1.826.9-.1,0-.206.006-.313.005h0c-2.565-.019-6.406-1.54-5.958-2.53a2.772,2.772,0,0,0,.112-.3,50.164,50.164,0,0,0,.962-6.779Z" transform="translate(-564.645 -618.733)" fill="#f5c3b8"/>
            <path id="Trazado_24651" data-name="Trazado 24651" d="M570.439,633.411c.105.207.214.413.33.614a6.256,6.256,0,0,0,5.008,3.39,4.584,4.584,0,0,0,1.859-.094v-2.537l-7.024-3.167C570.608,631.593,570.547,632.362,570.439,633.411Z" transform="translate(-565.96 -618.732)" fill="#ca9d97"/>
            <path id="Trazado_24652" data-name="Trazado 24652" d="M566.592,612.262a9.559,9.559,0,0,0,.5,2.139c.219.453.439.9.69,1.341a6.872,6.872,0,0,0,5.5,3.724,4.483,4.483,0,0,0,3.021-.528,5.493,5.493,0,0,0,2.044-3.022,18.934,18.934,0,0,0,.834-4.391,73.493,73.493,0,0,0,.447-7.4l-11.281-.546Z" transform="translate(-563.712 -602.361)" fill="#f5c3b8"/>
            <path id="Trazado_24653" data-name="Trazado 24653" d="M575.914,603.1a6.854,6.854,0,0,0-.375-1.656,7.458,7.458,0,0,0-.337-.784,6.816,6.816,0,0,1,.3,1.432c.08.823-.847,1.156-1.484,1.326a6.2,6.2,0,0,1-2.946.133,12.868,12.868,0,0,1-2.411-.964,10.136,10.136,0,0,0-2.234-.746,3.355,3.355,0,0,0-2.207.089,1.907,1.907,0,0,0-.714,1.347,22.56,22.56,0,0,0-.334,2.824c0,.036,0,.072-.007.108a2.431,2.431,0,0,0-.97-.2,2.255,2.255,0,0,0-2.138,1.4,3.394,3.394,0,0,1-.38-.506,3.387,3.387,0,0,0,.332.867l.049.087c.016.028.033.055.05.082s.033.052.05.078l.053.078c.021.031.043.06.066.089s.052.068.079.1l.075.089c.019.022.038.042.058.064l.074.078.058.058c.035.034.07.067.107.1l.055.047c.039.033.078.065.118.1l.057.042c.035.026.069.051.1.075l.056.037c.05.033.1.065.154.1l.017.01c.053.03.107.059.163.087l.054.026c.043.021.087.041.131.06l.055.023c.061.025.123.049.186.07.913.311,1.75.515,1.693.194a10.261,10.261,0,0,1,.014-2.425q.019-.315.046-.629a20.944,20.944,0,0,1,.288-2.2,1.906,1.906,0,0,1,.714-1.346,3.351,3.351,0,0,1,2.207-.089,10.117,10.117,0,0,1,2.234.746,12.892,12.892,0,0,0,2.411.964,6.2,6.2,0,0,0,2.946-.133C575.067,604.255,575.994,603.921,575.914,603.1Z" transform="translate(-559.677 -600.659)" fill="#020711" opacity="0.25"/>
            <path id="Trazado_24654" data-name="Trazado 24654" d="M565.844,617.519a2.27,2.27,0,1,1-2.261-2.067A2.171,2.171,0,0,1,565.844,617.519Z" transform="translate(-560.637 -609.295)" fill="#f5c3b8"/>
          </g>
          <g id="Grupo_14222" data-name="Grupo 14222">
            <path id="Trazado_24655" data-name="Trazado 24655" d="M575.793,597.256a6.85,6.85,0,0,0-.375-1.656,7.789,7.789,0,0,0-7.978-4.934c-2.7.159-6.17,1.429-7.192,4.18a16.187,16.187,0,0,0-.779,5.409,3.382,3.382,0,0,0,2.287,3.239c.1.035.2.068.3.1a10.762,10.762,0,0,0,.681,4.627,12.326,12.326,0,0,0,5.291,4.215,7.812,7.812,0,0,0,6.108-.939,1.072,1.072,0,0,0,.067-.96h0a19.023,19.023,0,0,0-.342-4.129l0,0a2.235,2.235,0,0,0-.794-1,2.15,2.15,0,0,0-1.116-.291c-.127,0-.253,0-.378,0a3.126,3.126,0,0,0-1.175.224,2.151,2.151,0,0,0-.878.73h0a5.143,5.143,0,0,0-1.247,3.284,5.275,5.275,0,0,1-2.223-1.361,8.453,8.453,0,0,1-1.5-3.023c-.3-.825-.559-1.674-.788-2.523a8.909,8.909,0,0,1-.234-1.187c-.014-.107-.025-.216-.035-.324a21.732,21.732,0,0,1,.31-2.493,1.907,1.907,0,0,1,.714-1.346,3.351,3.351,0,0,1,2.207-.089,10.119,10.119,0,0,1,2.234.746,12.887,12.887,0,0,0,2.411.964,6.2,6.2,0,0,0,2.946-.133C574.945,598.412,575.873,598.078,575.793,597.256Zm-6.447,10.517c.052-.441.152-1.359.717-1.383a28.186,28.186,0,0,1,3.131-.019c.156.011.309.019.371.166a1.477,1.477,0,0,1,.053.316,10.882,10.882,0,0,1,.16,1.406,1.427,1.427,0,0,1-.241,1.148,1.571,1.571,0,0,1-.648.355,4.608,4.608,0,0,1-1.751.162l-.186-.018c-.271-.029-.541-.072-.808-.123-.161-.031-.772-.064-.787-.252C569.308,608.937,569.346,608.365,569.346,607.773Z" transform="translate(-559.47 -590.65)" fill="#2d3053"/>
          </g>
        </g>
        <path id="Trazado_24656" data-name="Trazado 24656" d="M567.369,646.1l6.025,3.583-.59,2.53-6.237-4.308Z" transform="translate(-537.351 -623.021)" fill="#10172a" opacity="0.2"/>
        <path id="Trazado_24657" data-name="Trazado 24657" d="M567.632,645.57l5.927,3.8-.694,1.968-6.016-4.011Z" transform="translate(-537.515 -622.711)" fill="#fff"/>
        <path id="Trazado_24658" data-name="Trazado 24658" d="M585.45,649.628l-2.48,2.115.68,2.53,1.924-4.641Z" transform="translate(-546.926 -625.081)" fill="#10172a" opacity="0.2"/>
        <path id="Trazado_24659" data-name="Trazado 24659" d="M584.951,645.837l-1.981,3.693.666,2.114,1.887-4.226Z" transform="translate(-546.926 -622.867)" fill="#fff"/>
      </g>
      <g id="Grupo_14226" data-name="Grupo 14226" transform="translate(0)">
        <g id="Grupo_14225" data-name="Grupo 14225">
          <path id="Trazado_24660" data-name="Trazado 24660" d="M503.516,690.71,497.375,525.7l-9.538.337,6.14,165.007Z" transform="translate(-487.838 -505.03)" fill="#7ab6f5"/>
          <path id="Trazado_24661" data-name="Trazado 24661" d="M526.43,689.9l-6.14-165.007-9.537.337,6.14,165.007Z" transform="translate(-501.215 -504.558)" fill="#b4d3ff"/>
          <path id="Trazado_24662" data-name="Trazado 24662" d="M506.913,508.592l-5.9-11.7-8.138.3-5.035,12.1Z" transform="translate(-487.839 -488.212)" fill="#fff"/>
          <path id="Trazado_24663" data-name="Trazado 24663" d="M508.074,484.716l-4.39-8.683-3.748,8.979Z" transform="translate(-494.901 -476.034)" fill="#3d4166"/>
        </g>
        <rect id="Rectángulo_2759" data-name="Rectángulo 2759" width="19.087" height="3.233" transform="matrix(0.999, -0.036, 0.036, 0.999, 6.141, 186.038)" fill="#3d4166"/>
        <path id="Trazado_24664" data-name="Trazado 24664" d="M509.444,944.191l7-.255a6.041,6.041,0,0,0,5.817-6.257l-.312-8.578-19.074.694.312,8.578A6.041,6.041,0,0,0,509.444,944.191Z" transform="translate(-496.616 -740.526)" fill="#fa8796"/>
      </g>
      <path id="Trazado_24665" data-name="Trazado 24665" d="M495.358,644.706c-.079-.613-4.229-2.211-4.229-2.211s-.461-.184-.554-.132-1.067,4.321.745,5.38a6.664,6.664,0,0,0,1.923.953C494.189,648.936,495.438,645.318,495.358,644.706Z" transform="translate(-489.235 -573.129)" fill="#f5c3b8"/>
    </g>
    <g id="Grupo_14241" data-name="Grupo 14241" transform="translate(1227.806 6444.568)">
      <path id="Trazado_24672" data-name="Trazado 24672" d="M1067.76,978.138c0,1.333-11.844,2.412-26.454,2.412s-26.454-1.08-26.454-2.412,11.844-2.412,26.454-2.412S1067.76,976.806,1067.76,978.138Z" transform="translate(-1014.852 -829.75)" fill="#d3d8f6"/>
      <g id="Grupo_14240" data-name="Grupo 14240" transform="translate(5.247)">
        <path id="Trazado_24673" data-name="Trazado 24673" d="M1064.52,796.969c-.2-2.569-.578-6.675-.845-9.468l-25-.1c-.626,3.079-5.425,24.294-6.927,31.8a24.069,24.069,0,0,0-.687,6.106c.2,3.484,1.576,7.03,2.539,10.368.857,2.973,1.737,5.941,2.608,8.911.861,2.935,1.8,5.886,2.613,8.862h8.2c-1.62-6.425-6.638-26.623-5.954-29.461.773-3.209,10.081-23.2,10.081-23.2s2.648,27.467,2.772,30.492c.076,2,.071,13.73.024,22.173h8.474c-.145-10.131-.127-26.437-.127-28.161C1062.292,822.785,1064.84,801.165,1064.52,796.969Z" transform="translate(-1029.549 -719.807)" fill="#2a2b7d"/>
        <g id="Grupo_14237" data-name="Grupo 14237" transform="translate(21.606 79.282)" opacity="0.2">
          <path id="Trazado_24674" data-name="Trazado 24674" d="M1081.047,817.177s-2.5-5.362-1.395,3.018c.691,7.22,2.384,25.07,2.483,27.474.076,2,.071,13.73.024,22.173h1.684c.047-8.443.052-20.174-.024-22.173C1083.695,844.644,1081.047,817.177,1081.047,817.177Z" transform="translate(-1079.369 -815.488)" fill="#020711"/>
        </g>
        <path id="Trazado_24675" data-name="Trazado 24675" d="M1046.048,953.379h-8.171c.239,1,.456,2.012.645,3.025a5.829,5.829,0,0,1,.247,1.85.841.841,0,0,1-.093.268c-1.011,1.756-10.087,4.24-10.621,5.87s18.375,1.573,19.449.789c.6-.439.178-3.669-.424-6.9C1046.743,956.488,1046.352,954.692,1046.048,953.379Z" transform="translate(-1027.8 -816.704)" fill="#fff"/>
        <path id="Trazado_24676" data-name="Trazado 24676" d="M1094.264,958.337a24.319,24.319,0,0,1-.323-3.252q-.025-.853-.042-1.705h-8.55c-.019,2.212-.039,3.972-.062,4.925-.007.255-.013.453-.02.585a35.01,35.01,0,0,0-.361,5.047,1.961,1.961,0,0,0,.956,1.627,2.554,2.554,0,0,0,.966.177c1.4.073,2.794.145,4.194.163.7.009,1.4.005,2.1-.02.426-.015,1.557.131,1.824-.282a1.1,1.1,0,0,0,.136-.453,14.662,14.662,0,0,0-.474-5.047C1094.474,959.5,1094.36,958.919,1094.264,958.337Z" transform="translate(-1060.974 -816.704)" fill="#fff"/>
        <path id="Trazado_24677" data-name="Trazado 24677" d="M1038.448,964.87a.86.86,0,0,1-.1.274c-1.036,1.8-10.336,4.344-10.883,6.015s18.827,1.611,19.928.808c.612-.45.182-3.759-.434-7.066Z" transform="translate(-1027.459 -823.412)" fill="#27294f"/>
        <path id="Trazado_24678" data-name="Trazado 24678" d="M1094.089,964.7l-9.509-.035c-.007.271-.014.48-.021.62-.083,1.771-.559,3.567-.383,5.346a2.077,2.077,0,0,0,1.013,1.724,2.715,2.715,0,0,0,1.023.187c1.479.077,2.96.154,4.442.172.74.01,1.481.005,2.22-.022.451-.016,1.649.139,1.933-.3a1.166,1.166,0,0,0,.144-.48,15.509,15.509,0,0,0-.5-5.346C1094.311,965.941,1094.19,965.321,1094.089,964.7Z" transform="translate(-1060.547 -823.295)" fill="#27294f"/>
        <g id="Grupo_14238" data-name="Grupo 14238" transform="translate(8.206 24.364)">
          <path id="Trazado_24679" data-name="Trazado 24679" d="M1075.334,685.653c-2.906-2.343-11.953-2.113-13.15-2.1-1.636.02-3.084.089-4.369.2-.962.081-1.832.186-2.617.309-7.372,1.16-7.426,3.989-7.853,5.445-.239.813-.195,4.718-.065,8.933l0,0h10.465s-.472,19.5-.908,22.436c-.251,1.7-3.844,5.785-4.756,9.4,10.252,2.609,21.3.134,21.3.134-.13-1.485-.216-2.438-.216-2.438a17.606,17.606,0,0,0,2.906-.662,8.807,8.807,0,0,0,1.89-2.169l-3.913-3.711h0a7,7,0,0,1-1.272.878l0,0s.2-18.031,1.8-21.736l0,0c.183.159,8.027,6.927,8.027,7.79a.656.656,0,0,1-.065.218,73.816,73.816,0,0,1-4.216,6.553c-.639.934-1.276,1.857-1.855,2.7.144.1.3.211.464.32a49.155,49.155,0,0,0,4.714,2.733c.725-.846,1.515-1.769,2.328-2.729,3.985-4.7,8.527-10.213,8.77-11.224C1093.176,705.115,1078.24,687.992,1075.334,685.653Z" transform="translate(-1047.173 -683.542)" fill="#fa8796"/>
        </g>
        <path id="Trazado_24680" data-name="Trazado 24680" d="M1119.342,768.978c-2.113,2.462-3.679,4.252-3.679,4.252l-3.913-3.711a.206.206,0,0,0,.049-.1c.006-.086,1.029-1.564,2.365-3.5.144.1.3.211.464.32A49.127,49.127,0,0,0,1119.342,768.978Z" transform="translate(-1076.667 -707.272)" fill="#b8674c"/>
        <path id="Trazado_24681" data-name="Trazado 24681" d="M1121.894,721.892a3.018,3.018,0,0,1-.923,1.042.652.652,0,0,0,.065-.218c0-.864-7.843-7.631-8.026-7.79.132-1.155.71-6.215.9-6.753.218-.607.957,4.961,2.187,6.253s4.29,2.43,4.755,3.391S1122.29,720.978,1121.894,721.892Z" transform="translate(-1077.401 -673.53)" fill="#10172a" opacity="0.15"/>
        <path id="Trazado_24682" data-name="Trazado 24682" d="M1056.027,721.607s2.968,6.114,2.9,7.267a8.3,8.3,0,0,0,1.344,3.949c.654,1.083.836,4.932-.581,6.555s-2.871,4.522-2.762,6.06a6.812,6.812,0,0,1-1.151,4.03c-.727,1.258-2.277,3.634-2.253,4.426s.581,4.776-.654,5.428a47.156,47.156,0,0,0-4.772,3.774l-3.831-.885,9.064-33.266Z" transform="translate(-1037.269 -681.4)" fill="#10172a" opacity="0.15"/>
        <path id="Trazado_24683" data-name="Trazado 24683" d="M1040.7,803.37a15.729,15.729,0,0,0,4.346,1.862.591.591,0,0,1,.48.616c-.1,1.746-.68,3.271-1.317,3.6-.7.368-.339,1.032.1,1.032h.013a.6.6,0,0,1,.34,1.062c-.965.755-2.845,1.509-5.62-.482a.592.592,0,0,1-.147-.153l-1.426-2.135a.6.6,0,0,1-.058-.555,21.717,21.717,0,0,1,1.944-4.034,5.808,5.808,0,0,0,.588-.665A.578.578,0,0,1,1040.7,803.37Z" transform="translate(-1033.245 -729.084)" fill="#b8674c"/>
        <path id="Trazado_24684" data-name="Trazado 24684" d="M1057.786,719.333s-.471,19.5-.906,22.437a17.531,17.531,0,0,1-.566,2.23,81.442,81.442,0,0,0-8.421-1.986,1.425,1.425,0,0,0-.653-.1c.379-4.836.707-9.969.628-10.827-.083-.875-.384-6.548-.549-11.751l0,0Z" transform="translate(-1039.007 -680.072)" fill="#fa8796"/>
        <path id="Trazado_24685" data-name="Trazado 24685" d="M1054.572,775.666c-.375,1.238-1.278,1.454-1.843,3.008-1.483,4.079-2.887,9.7-3.18,9.828-.49.213-.493.155-2.5-.4a4.7,4.7,0,0,1-2.792-1.96,66.647,66.647,0,0,0,2.134-9.112c.119-1.323-1.012-1.92-.892-3.446a1.426,1.426,0,0,1,.653.1A81.439,81.439,0,0,1,1054.572,775.666Z" transform="translate(-1037.265 -711.738)" fill="#b8674c"/>
        <path id="Trazado_24686" data-name="Trazado 24686" d="M1113.872,778.269a8.814,8.814,0,0,1-1.89,2.169,17.61,17.61,0,0,1-2.906.662l-.395-5.66,0,0,1.272-.879h0Z" transform="translate(-1074.875 -712.312)" fill="#b8674c"/>
        <g id="Grupo_14239" data-name="Grupo 14239" transform="translate(16.229 24.576)" opacity="0.15">
          <path id="Trazado_24687" data-name="Trazado 24687" d="M1084.384,712.091c-.005,0-.163-.042-.167-.042-8.183-.711-12.792-12.274-15.989-20.57a35.792,35.792,0,0,1-1.777-7.119c.785-.124,1.655-.229,2.617-.309a29.014,29.014,0,0,0,1.149,3.847c2.884,7.483,7.667,17.792,14.433,20.231C1084.651,708.128,1084.453,710.315,1084.384,712.091Z" transform="translate(-1066.451 -684.051)" fill="#10172a"/>
        </g>
        <path id="Trazado_24688" data-name="Trazado 24688" d="M1061.619,637.029a19.7,19.7,0,0,0-1.894,3.92c-1.169,3.194-1.756,7.357.782,10.062a4.843,4.843,0,0,0,2,1.258A91.5,91.5,0,0,1,1061.619,637.029Z" transform="translate(-1045.711 -632.025)" fill="#b8674c"/>
        <path id="Trazado_24689" data-name="Trazado 24689" d="M1098.341,667.045l0-.005c.038-.074.077-.152.115-.233l0,0q.058-.124.116-.257h0a10.285,10.285,0,0,0,.436-1.241h0a13.525,13.525,0,0,0-1.8-11.14c-3.7-5.615-10.616-8.046-11.871-11.29a80.646,80.646,0,0,1-2.472-8.45.037.037,0,0,1-.005-.015,15.08,15.08,0,0,0-.949-3.1,11.741,11.741,0,0,0-2.815-4.173,8.132,8.132,0,0,0-8.646-1.5,9.152,9.152,0,0,0-2.847,1.889h0l-.008.008q-.174.169-.342.345l-.06.064c-.106.113-.21.228-.311.346l-.017.019c-.1.121-.206.246-.306.372l-.067.085q-.148.19-.29.385c-.2.279-.391.564-.568.858,0,.015,0,.047,0,.094-.007.27-.027,1.051-.026,2.191h0c0,.2,0,.413,0,.635,0,.075,0,.152,0,.229,0,.38.009.789.017,1.221,0,.091,0,.182.006.275q.011.526.03,1.093v.019c.006.185.013.372.02.563.034.9.081,1.862.147,2.863q.02.306.043.618l0,.049q.023.309.048.622c.01.133.022.266.033.4q.026.308.055.618.051.553.11,1.113.033.31.069.62.065.568.14,1.139.04.3.082.6.052.375.11.749a36.482,36.482,0,0,0,1.818,7.377c.554,1.436,1.149,2.97,1.8,4.529q.354.85.73,1.707.094.214.189.427.287.641.586,1.278c.067.141.134.283.2.423q.2.423.412.842t.425.832c2.878,5.507,6.639,10.2,11.822,10.546q.582.04,1.138.044a15.024,15.024,0,0,0,8.527-2.38,13.49,13.49,0,0,0,3.934-3.9q.057-.089.115-.191l0,0C1098.264,667.189,1098.3,667.119,1098.341,667.045Z" transform="translate(-1049.73 -625.005)" fill="#0a1237"/>
        <ellipse id="Elipse_734" data-name="Elipse 734" cx="1.431" cy="1.452" rx="1.431" ry="1.452" transform="translate(15.364 11.342)" fill="#b8674c"/>
        <path id="Trazado_24690" data-name="Trazado 24690" d="M1053.3,776.225a10.211,10.211,0,0,1-1.633,3.793,1.866,1.866,0,0,1-.765-.041,60.556,60.556,0,0,1-7.978-2.052c-1.5-.512-2.558-1-2.446-1.312.3-.844,1.439-2.913,2.81-3.031a1.427,1.427,0,0,1,.653.1,81.439,81.439,0,0,1,8.421,1.986C1052.937,775.875,1053.3,776.067,1053.3,776.225Z" transform="translate(-1035.054 -711.738)" fill="#fff"/>
        <path id="Trazado_24691" data-name="Trazado 24691" d="M1124.414,763.112a7.705,7.705,0,0,1-1.929,2.46,1.453,1.453,0,0,1-.554-.182c-.2-.09-.457-.211-.742-.355a49.161,49.161,0,0,1-4.714-2.733c-.164-.109-.32-.218-.464-.32-.741-.53-1.2-.956-1.079-1.128.385-.559,1.617-1.851,2.646-1.666a1.053,1.053,0,0,1,.288.1,1.019,1.019,0,0,1,.172.1s3.721,1.787,5.478,2.916c.114.073.219.144.316.211C1124.216,762.784,1124.442,763,1124.414,763.112Z" transform="translate(-1078.514 -703.329)" fill="#fff"/>
        <path id="Trazado_24692" data-name="Trazado 24692" d="M1098.389,774.7s1.32,6.575,1.265,7.686-.667,1.236-.667,1.236l-7.957-.8Z" transform="translate(-1064.57 -712.394)" fill="#fa8796"/>
      </g>
      <path id="Trazado_24693" data-name="Trazado 24693" d="M1049.735,946.08l.806,3.038h8.171l-.775-3.038Z" transform="translate(-1035.216 -812.443)" fill="#b8674c"/>
      <path id="Trazado_24694" data-name="Trazado 24694" d="M1086.022,949.117l.021-3.038h8.475l.055,3.038Z" transform="translate(-1056.4 -812.443)" fill="#b8674c"/>
    </g>
    <g id="Grupo_14244" data-name="Grupo 14244" transform="translate(1332.536 6439.763)">
      <path id="Trazado_24695" data-name="Trazado 24695" d="M1319.827,673.436c-2.005-1.729-12.182-2.516-12.182-2.516-2.041-.08-1.488.476-7.779.785s-14.862,16.705-15.83,16.568-8.229-10.013-8.229-10.013-.131-.164-.323-.427a15.751,15.751,0,0,1-.992-1.509c-.553-.979-2.441-2.754-2.914-2.42s.9,2.339.9,2.339a7.845,7.845,0,0,1-2.559.011c-1.324-.229-2.671-2.478-3.259-2.328s.367,1.983.611,3.609,3.435,2.143,3.71,2.409a2.538,2.538,0,0,1,.368,1.139v0c.126.247,8.219,16.043,12.061,17.072,3.871,1.036,9.678-4.527,9.678-4.527s-.343,9.125-.482,11.509-1.695,6.429-2.007,7.571.727,2.867.727,2.867-5.117,18.044-5.945,20.947-4.01,18.666-4.01,21.292,12.974,31.663,12.974,31.755a7.594,7.594,0,0,1-.755.869h8.448c-.2-.6-.344-1.007-.344-1.007a6.252,6.252,0,0,0,.644-2.027c-.044-.622-2.649-10.371-3.478-13.135s-2.489-8.387-3.366-11.2a21.717,21.717,0,0,1-.552-8.848c.414-1.474,7.975-21.063,8.572-20.541s2.536,17.638,2.764,19.988.094,17.788.324,19.724.761,14.808.985,15.394,1.105.777,1.105.777-.261.35-.64.875h9.287c-.53-.46-.943-.8-1.074-.9l-.042-.035h0l.031-.011.014-.005a2.824,2.824,0,0,0,1.028-.65c.368-.426-.047-14.22.091-17.123s-.346-23.574-.138-27.168c.2-3.4.682-25.026.772-28.967,0-.224.009-.392.011-.494,1.27-.382,4.034-2.961,4.034-2.961h1.058c.9,0,12.652-16.662,13.343-18.528S1321.832,675.163,1319.827,673.436Zm6.76,22.048c-.414.946-7.535,12.629-8,12.927a4.586,4.586,0,0,1-1.336.463s.092-12.306.324-14.012,1.012-7.051,1.012-7.051S1327,694.542,1326.587,695.484Z" transform="translate(-1266.474 -647)" fill="#f5c3b8"/>
      <path id="Trazado_24696" data-name="Trazado 24696" d="M1375.3,962.317a1.968,1.968,0,0,1-1.4,1.781h-13.484s-1.416-.414-.655-1.972a37.155,37.155,0,0,1,2.626-4.033h9.287C1373.076,959.308,1375.3,961.382,1375.3,962.317Z" transform="translate(-1320.802 -814.651)" fill="#212145"/>
      <path id="Trazado_24697" data-name="Trazado 24697" d="M1327.39,962.78a9.08,9.08,0,0,1-.647,1.318h-18.32s-.3-2.173.807-2.7,5.692-.648,6.59-1.222a16.707,16.707,0,0,0,2.243-2.082h8.448C1326.975,959.518,1327.713,962.032,1327.39,962.78Z" transform="translate(-1290.941 -814.651)" fill="#212145"/>
      <path id="Trazado_24698" data-name="Trazado 24698" d="M1338.2,848.447a2.825,2.825,0,0,1-1.028.65l-.015.005-.031.011-7.529.064s-.879-.191-1.105-.777-.755-13.459-.985-15.394-.091-17.374-.324-19.725-2.165-19.468-2.765-19.988-8.158,19.067-8.572,20.541a21.711,21.711,0,0,0,.552,8.848c.877,2.813,2.536,8.434,3.366,11.2s3.435,12.513,3.478,13.135a6.252,6.252,0,0,1-.644,2.027l-7.35.139c0-.091-12.974-29.127-12.974-31.755s3.18-18.389,4.01-21.292,5.945-20.948,5.945-20.948l10.155-2.167,16.541,2.167c-.089,3.941-.575,25.565-.772,28.967-.208,3.594.277,24.265.138,27.168S1338.571,848.022,1338.2,848.447Z" transform="translate(-1287.375 -706.61)" fill="#3d4166"/>
      <path id="Trazado_24699" data-name="Trazado 24699" d="M1341.844,690.493c-1.285-1.859-2.711-3.624-4.148-5.367q-3.1-3.755-6.349-7.374c-1.476-1.634-2.933-3.676-4.816-4.938a7.3,7.3,0,0,0-1.438-.759,16.348,16.348,0,0,0-4.123-.873c-5.075-.57-10.621-.84-15.608.432a9.893,9.893,0,0,0-5.658,3.629,69.287,69.287,0,0,0-5.074,7.178c-.832,1.352-1.626,2.729-2.463,4.078-.162.261-.864,1.714-1.287,1.654-.967-.139-8.229-10.013-8.229-10.013s-.131-.164-.323-.427l-4.135,3.249v0c.126.247,8.22,16.043,12.061,17.073,3.872,1.036,9.678-4.527,9.678-4.527v0c-.008.2-.344,9.148-.482,11.506a29.861,29.861,0,0,1-1.608,6.322c-.18.541-.325.977-.4,1.249-.31,1.139.727,2.867.727,2.867s17.636,2,26.7,0c0-.224.009-.392.011-.495,1.269-.382,4.034-2.961,4.034-2.961h1.058c.9,0,12.652-16.662,13.343-18.527C1343.616,692.658,1342.247,691.075,1341.844,690.493Zm-8.415,4.871c-.414.946-7.535,12.629-8,12.927a4.584,4.584,0,0,1-1.336.462s.092-12.306.324-14.012,1.012-7.052,1.012-7.052a85.11,85.11,0,0,1,7.32,6.508C1333.24,694.753,1333.511,695.175,1333.428,695.364Z" transform="translate(-1273.315 -646.879)" fill="#7ab6f5"/>
      <path id="Trazado_24700" data-name="Trazado 24700" d="M1393.3,764.72s-2.765,2.579-4.034,2.961l-.783-6.211a4.582,4.582,0,0,0,1.336-.463Z" transform="translate(-1337.698 -699.596)" fill="#f5c3b8"/>
      <g id="Grupo_14242" data-name="Grupo 14242" transform="translate(24.528 34.945)" opacity="0.2">
        <path id="Trazado_24701" data-name="Trazado 24701" d="M1331.655,718.219c.023,2.154.738,6.487-.46,7.524s-2.742,2.626-2.9,4.009-.045,5.162-1.267,5.877a4.337,4.337,0,0,1-1.618.423,29.863,29.863,0,0,0,1.608-6.322c.137-2.357.474-11.3.482-11.506l0,0s6.233-5.5,6.647-5.174S1331.632,716.064,1331.655,718.219Z" transform="translate(-1325.405 -706.534)" fill="#10172a"/>
        <path id="Trazado_24702" data-name="Trazado 24702" d="M1399.008,709.793a85.1,85.1,0,0,0-7.32-6.508s1.153-5.253,1.292-5.807-.232,2.95.713,4.379a7.607,7.607,0,0,0,3.2,2.926,3.464,3.464,0,0,1,2.074,1.891A21.182,21.182,0,0,1,1399.008,709.793Z" transform="translate(-1364.1 -697.42)" fill="#10172a"/>
      </g>
      <path id="Trazado_24703" data-name="Trazado 24703" d="M1340.083,956.68h-8.448a7.594,7.594,0,0,0,.755-.869l7.35-.139S1339.887,956.079,1340.083,956.68Z" transform="translate(-1304.514 -813.238)" fill="#fff"/>
      <path id="Trazado_24704" data-name="Trazado 24704" d="M1375.673,956.777h-9.287c.378-.525.64-.875.64-.875l7.529-.064h0l.042.035Z" transform="translate(-1324.801 -813.335)" fill="#fff"/>
      <g id="Grupo_14243" data-name="Grupo 14243" transform="translate(31.541)">
        <path id="Trazado_24705" data-name="Trazado 24705" d="M1356.285,642.576s.278-.422.688-1.081a5.875,5.875,0,0,1-3.265,1.29c-5.4.156-6.881-4.03-6.881-4.03s-2.077-5.911-3.523-7.791c-.147-.189-.282-.373-.414-.557-.02.356-.045.549-.045.549s-1.536,10.5.34,12.026,5.05.586,5.05.586v4.248a28.9,28.9,0,0,0,8.626.438c-.25-.2-.226-2.553-.258-2.844l-.111-1.041c-.062-.528-.127-1.06-.189-1.589C1356.3,642.711,1356.293,642.645,1356.285,642.576Z" transform="translate(-1342.254 -623.354)" fill="#f5c3b8"/>
        <path id="Trazado_24706" data-name="Trazado 24706" d="M1343.716,620.727c.136.188.278.381.428.574,1.5,1.927,3.652,7.994,3.655,8a6.632,6.632,0,0,0,6.157,4.084,6.738,6.738,0,0,0,4.155-1.321,9.991,9.991,0,0,0,2.229-3.473,12.805,12.805,0,0,0,1.331-6.161,8.535,8.535,0,0,0-3.888-6.661c-2.134-1.484-5.169-2.707-7.8-2.185a8.483,8.483,0,0,0-5.244,4.046,6.912,6.912,0,0,0-.813,1.8C1343.864,619.644,1343.566,620.519,1343.716,620.727Z" transform="translate(-1343.083 -613.461)" fill="#0a1237"/>
        <ellipse id="Elipse_735" data-name="Elipse 735" cx="1.565" cy="1.839" rx="1.565" ry="1.839" transform="translate(2.086 11.154)" fill="#f5c3b8"/>
        <path id="Trazado_24707" data-name="Trazado 24707" d="M1361.493,667.634s-7.239.886-11.337-.124a6.435,6.435,0,0,1-1.519,1.4s5.565,4.381,14.772.361A20.126,20.126,0,0,0,1361.493,667.634Z" transform="translate(-1345.98 -645.014)" fill="#bdd5f9"/>
      </g>
      <path id="Trazado_24708" data-name="Trazado 24708" d="M1281.2,685.2l-5.287,3.634.9,2.667,5.931-3.983Z" transform="translate(-1271.982 -655.341)" fill="#bdd5f9"/>
      <path id="Trazado_24709" data-name="Trazado 24709" d="M1389.512,758.43l4.828,4.561,2.47-1.537-5.322-5.139Z" transform="translate(-1338.302 -696.857)" fill="#bdd5f9"/>
      <ellipse id="Elipse_736" data-name="Elipse 736" cx="31.787" cy="2.899" rx="31.787" ry="2.899" transform="translate(4.74 146.445)" fill="#312783" opacity="0.2"/>
    </g>
    <g id="Grupo_14250" data-name="Grupo 14250" transform="translate(1079.074 6229.305)">
      <g id="Grupo_14248" data-name="Grupo 14248">
        <g id="Grupo_14245" data-name="Grupo 14245">
          <path id="Trazado_24710" data-name="Trazado 24710" d="M201.042,132.271l29.816,13.039-14.226,15.934Z" transform="translate(-201.042 -132.271)" fill="#7ab6f5"/>
        </g>
        <g id="Grupo_14246" data-name="Grupo 14246">
          <path id="Trazado_24711" data-name="Trazado 24711" d="M201.042,132.271,221,146.13l3.853-3.446Z" transform="translate(-201.042 -132.271)" fill="#bdd5f9"/>
        </g>
        <g id="Grupo_14247" data-name="Grupo 14247">
          <path id="Trazado_24712" data-name="Trazado 24712" d="M201.042,132.271l18.14,15.6-5.812,7.314Z" transform="translate(-201.042 -132.271)" fill="#bdd5f9"/>
        </g>
      </g>
      <g id="Grupo_14249" data-name="Grupo 14249" transform="translate(17.334 2.668)">
        <path id="Trazado_24713" data-name="Trazado 24713" d="M426.551,166.132a45.924,45.924,0,0,0-3.613-5.928.832.832,0,1,1,1.352-.971,47.586,47.586,0,0,1,3.745,6.144.832.832,0,0,1-.365,1.119l-.04.019A.833.833,0,0,1,426.551,166.132Zm-8.07-11.257a48.486,48.486,0,0,0-5.183-4.63.832.832,0,1,1,1.017-1.318,50.118,50.118,0,0,1,5.362,4.789.832.832,0,1,1-1.2,1.158ZM407.5,146.41a46.646,46.646,0,0,0-6.291-2.941.832.832,0,1,1,.59-1.557,48.281,48.281,0,0,1,6.516,3.047.832.832,0,1,1-.815,1.451Zm-12.953-4.9a52.543,52.543,0,0,0-6.885-1.011.832.832,0,1,1,.134-1.659,54.224,54.224,0,0,1,7.1,1.044.832.832,0,1,1-.353,1.627Zm-13.858-1.161c-2.256.08-4.6.281-6.964.6a.832.832,0,1,1-.222-1.65c2.419-.326,4.817-.532,7.128-.614a.832.832,0,1,1,.059,1.664Zm-13.859,1.833c-2.214.49-4.5,1.084-6.791,1.766a.832.832,0,0,1-.475-1.6c2.33-.693,4.653-1.3,6.905-1.8a.832.832,0,1,1,.36,1.625Zm-13.462,3.974c-2.087.754-4.236,1.582-6.57,2.534a.832.832,0,1,1-.628-1.542c2.355-.96,4.525-1.8,6.633-2.558a.833.833,0,0,1,.622,1.543ZM327.386,157.2c-2.487,1.1-4.555,2-6.51,2.814a.832.832,0,0,1-.643-1.535c1.943-.814,4-1.7,6.479-2.8a.833.833,0,0,1,.675,1.522Zm5.362-3.311a.833.833,0,0,1,.418-1.1q1.869-.839,3.739-1.672c.917-.405,1.821-.807,2.734-1.206a.832.832,0,0,1,.672,1.523l0,0q-1.313.574-2.623,1.157c-1.282.572-2.557,1.141-3.835,1.715h0A.832.832,0,0,1,332.748,153.891Zm-18.471,8.761c-2.3.867-4.563,1.656-6.72,2.345a.833.833,0,1,1-.507-1.586c2.131-.68,4.365-1.459,6.64-2.316a.832.832,0,0,1,.632,1.539Zm-13.576,4.3c-2.375.593-4.727,1.084-6.99,1.46a.833.833,0,0,1-.273-1.642c2.22-.369,4.528-.851,6.861-1.433a.833.833,0,0,1,.54,1.568A.864.864,0,0,1,300.7,166.952Zm-14.093,2.3a64.043,64.043,0,0,1-7.164.1.832.832,0,0,1,.073-1.663,62.28,62.28,0,0,0,6.976-.1.833.833,0,1,1,.115,1.661Zm-14.3-.666a49.1,49.1,0,0,1-6.969-1.778.832.832,0,1,1,.529-1.579,47.476,47.476,0,0,0,6.732,1.718.832.832,0,1,1-.292,1.639Zm-13.6-4.567a44.368,44.368,0,0,1-6.127-3.791.833.833,0,0,1,.99-1.339,42.729,42.729,0,0,0,5.9,3.648.832.832,0,1,1-.76,1.481Zm-11.522-8.587a35.141,35.141,0,0,1-4.373-5.761.832.832,0,1,1,1.425-.862A33.5,33.5,0,0,0,248.4,154.3a.832.832,0,0,1-.041,1.176.821.821,0,0,1-.23.152A.833.833,0,0,1,247.18,155.435Z" transform="translate(-242.687 -138.681)" fill="#7ab6f5"/>
      </g>
    </g>
    <g id="Grupo_14251" data-name="Grupo 14251" transform="translate(1020.321 6317.114)">
      <path id="Trazado_24715" data-name="Trazado 24715" d="M1635.134,469.426a3.886,3.886,0,0,1-2.748-1.138l-14.479-14.479a3.886,3.886,0,1,1,5.5-5.5l11.433,11.433,15.695-19.3a3.886,3.886,0,0,1,6.029,4.9l-18.412,22.635a3.886,3.886,0,0,1-2.816,1.429C1635.267,469.424,1635.2,469.426,1635.134,469.426Z" transform="translate(-1616.77 -439.018)" fill="#ffd571"/>
    </g>
    <g id="Grupo_14252" data-name="Grupo 14252" transform="translate(1352.231 6356.804)">
      <path id="Trazado_24716" data-name="Trazado 24716" d="M1694.151,713.836l-1.258-10.192.315-.315q11.638-.439,11.639-7.172a5.385,5.385,0,0,0-1.95-4.341,7.967,7.967,0,0,0-5.285-1.636q-5.6,0-10.255,4.97l-4.718-5.032a19.446,19.446,0,0,1,15.162-6.984q6.667,0,10.695,3.492a11.819,11.819,0,0,1,4.027,9.406q0,5.6-3.46,8.65a18.372,18.372,0,0,1-9.186,4.058l-.629,5.1Zm-1.824,13.9v-8.619h8.431v8.619Z" transform="translate(-1682.638 -683.135)" fill="#f49191"/>
    </g>
  </g>
</svg>
