<svg xmlns="http://www.w3.org/2000/svg" width="233.016" height="191.778" viewBox="0 0 233.016 191.778">
  <g id="Grupo_12972" data-name="Grupo 12972" transform="translate(-2490.076 -442.544)">
    <g id="Color" transform="translate(2491.331 443.8)">
      <g id="Grupo_12760" data-name="Grupo 12760" transform="translate(123.854 92.281)">
        <rect id="Rectángulo_2319" data-name="Rectángulo 2319" width="77.331" height="96.986" fill="#ffd571"/>
      </g>
      <g id="Grupo_12761" data-name="Grupo 12761" transform="translate(15.701 41.521)">
        <ellipse id="Elipse_653" data-name="Elipse 653" cx="2.291" cy="2.363" rx="2.291" ry="2.363" fill="#fcd118"/>
      </g>
      <g id="Grupo_12762" data-name="Grupo 12762" transform="translate(0 87.556)">
        <rect id="Rectángulo_2320" data-name="Rectángulo 2320" width="13.48" height="35.35" fill="#ff5a5a"/>
      </g>
      <g id="Grupo_12763" data-name="Grupo 12763" transform="translate(3.717)">
        <rect id="Rectángulo_2321" data-name="Rectángulo 2321" width="6.046" height="6.71" fill="#ff5a5a"/>
      </g>
    </g>
    <g id="CONTRACT" transform="translate(2490.076 442.544)">
      <g id="Grupo_12787" data-name="Grupo 12787" transform="translate(123.854 62.961)">
        <g id="Grupo_12765" data-name="Grupo 12765" transform="translate(0 29.32)">
          <g id="Grupo_12764" data-name="Grupo 12764">
            <path id="Trazado_20477" data-name="Trazado 20477" d="M3407.213,1166.829h-77.332a1.255,1.255,0,0,1-1.255-1.255v-96.986a1.256,1.256,0,0,1,1.255-1.255h77.332a1.256,1.256,0,0,1,1.256,1.255v96.986A1.256,1.256,0,0,1,3407.213,1166.829Zm-76.076-2.511h74.82v-94.475h-74.82Z" transform="translate(-3328.626 -1067.332)" fill="#1e243a"/>
          </g>
        </g>
        <g id="Grupo_12767" data-name="Grupo 12767" transform="translate(14.169 15.151)">
          <g id="Grupo_12766" data-name="Grupo 12766">
            <path id="Trazado_20478" data-name="Trazado 20478" d="M3503.141,1070.9h-13.076a1.255,1.255,0,0,1,0-2.511h11.821V973.914h-74.821v12.019a1.255,1.255,0,1,1-2.511,0V972.659a1.255,1.255,0,0,1,1.255-1.255h77.331a1.255,1.255,0,0,1,1.255,1.255v96.986A1.255,1.255,0,0,1,3503.141,1070.9Z" transform="translate(-3424.554 -971.403)" fill="#1e243a"/>
          </g>
        </g>
        <g id="Grupo_12769" data-name="Grupo 12769" transform="translate(29.32)">
          <g id="Grupo_12768" data-name="Grupo 12768">
            <path id="Trazado_20479" data-name="Trazado 20479" d="M3605.723,968.318h-14.344a1.255,1.255,0,0,1,0-2.511h13.089V871.332h-74.821v13.287a1.255,1.255,0,1,1-2.511,0V870.076a1.256,1.256,0,0,1,1.256-1.255h77.331a1.256,1.256,0,0,1,1.255,1.255v96.986A1.256,1.256,0,0,1,3605.723,968.318Z" transform="translate(-3527.136 -868.821)" fill="#1e243a"/>
          </g>
        </g>
        <g id="Grupo_12771" data-name="Grupo 12771" transform="translate(6.216 106.876)">
          <g id="Grupo_12770" data-name="Grupo 12770">
            <path id="Trazado_20480" data-name="Trazado 20480" d="M3384.882,1607.848h-12.914a1.256,1.256,0,0,1-1.256-1.255v-12.914a1.255,1.255,0,0,1,2.511,0v11.658h11.658a1.255,1.255,0,1,1,0,2.511Z" transform="translate(-3370.713 -1592.423)" fill="#1e243a"/>
          </g>
        </g>
        <g id="Grupo_12773" data-name="Grupo 12773" transform="translate(58.201 35.837)">
          <g id="Grupo_12772" data-name="Grupo 12772">
            <path id="Trazado_20481" data-name="Trazado 20481" d="M3736.846,1126.877a1.256,1.256,0,0,1-1.256-1.255v-11.658h-11.658a1.255,1.255,0,0,1,0-2.511h12.914a1.255,1.255,0,0,1,1.255,1.255v12.914A1.255,1.255,0,0,1,3736.846,1126.877Z" transform="translate(-3722.677 -1111.452)" fill="#1e243a"/>
          </g>
        </g>
        <g id="Grupo_12786" data-name="Grupo 12786" transform="translate(13.553 57.777)">
          <g id="Grupo_12775" data-name="Grupo 12775" transform="translate(0 7.976)">
            <g id="Grupo_12774" data-name="Grupo 12774">
              <path id="Trazado_20482" data-name="Trazado 20482" d="M3472.152,1316.511h-50.513a1.255,1.255,0,0,1,0-2.511h50.513a1.255,1.255,0,0,1,0,2.511Z" transform="translate(-3420.384 -1314)" fill="#1e243a"/>
            </g>
          </g>
          <g id="Grupo_12777" data-name="Grupo 12777">
            <g id="Grupo_12776" data-name="Grupo 12776">
              <path id="Trazado_20483" data-name="Trazado 20483" d="M3472.152,1262.511h-50.513a1.255,1.255,0,0,1,0-2.511h50.513a1.255,1.255,0,0,1,0,2.511Z" transform="translate(-3420.384 -1260)" fill="#1e243a"/>
            </g>
          </g>
          <g id="Grupo_12779" data-name="Grupo 12779" transform="translate(0 15.952)">
            <g id="Grupo_12778" data-name="Grupo 12778">
              <path id="Trazado_20484" data-name="Trazado 20484" d="M3472.152,1370.511h-50.513a1.255,1.255,0,0,1,0-2.511h50.513a1.255,1.255,0,0,1,0,2.511Z" transform="translate(-3420.384 -1368)" fill="#1e243a"/>
            </g>
          </g>
          <g id="Grupo_12781" data-name="Grupo 12781" transform="translate(0 23.927)">
            <g id="Grupo_12780" data-name="Grupo 12780">
              <path id="Trazado_20485" data-name="Trazado 20485" d="M3472.152,1424.511h-50.513a1.255,1.255,0,0,1,0-2.511h50.513a1.255,1.255,0,0,1,0,2.511Z" transform="translate(-3420.384 -1422)" fill="#1e243a"/>
            </g>
          </g>
          <g id="Grupo_12783" data-name="Grupo 12783" transform="translate(0 32.051)">
            <g id="Grupo_12782" data-name="Grupo 12782">
              <path id="Trazado_20486" data-name="Trazado 20486" d="M3472.152,1479.511h-50.513a1.255,1.255,0,0,1,0-2.511h50.513a1.255,1.255,0,0,1,0,2.511Z" transform="translate(-3420.384 -1477)" fill="#1e243a"/>
            </g>
          </g>
          <g id="Grupo_12785" data-name="Grupo 12785" transform="translate(0 40.027)">
            <g id="Grupo_12784" data-name="Grupo 12784">
              <path id="Trazado_20487" data-name="Trazado 20487" d="M3446.9,1533.511h-25.256a1.255,1.255,0,0,1,0-2.511H3446.9a1.255,1.255,0,1,1,0,2.511Z" transform="translate(-3420.384 -1531)" fill="#1e243a"/>
            </g>
          </g>
        </g>
      </g>
      <g id="Grupo_12802" data-name="Grupo 12802" transform="translate(0 0)">
        <g id="Grupo_12789" data-name="Grupo 12789" transform="translate(1.784 6.71)">
          <g id="Grupo_12788" data-name="Grupo 12788">
            <path id="Trazado_20488" data-name="Trazado 20488" d="M2513.322,571.331h-9.912a1.255,1.255,0,0,1-1.255-1.255V489.229a1.255,1.255,0,0,1,1.255-1.255h9.912a1.256,1.256,0,0,1,1.256,1.255v80.846A1.256,1.256,0,0,1,2513.322,571.331Zm-8.656-2.511h7.4V490.485h-7.4Z" transform="translate(-2502.155 -487.974)" fill="#1e243a"/>
          </g>
        </g>
        <g id="Grupo_12791" data-name="Grupo 12791" transform="translate(0 87.556)">
          <g id="Grupo_12790" data-name="Grupo 12790">
            <path id="Trazado_20489" data-name="Trazado 20489" d="M2504.811,1073.2h-13.48a1.255,1.255,0,0,1-1.256-1.255V1036.6a1.255,1.255,0,0,1,1.256-1.255h13.48a1.256,1.256,0,0,1,1.256,1.255v35.35A1.256,1.256,0,0,1,2504.811,1073.2Zm-12.224-2.511h10.969v-32.839h-10.969Z" transform="translate(-2490.076 -1035.344)" fill="#1e243a"/>
          </g>
        </g>
        <g id="Grupo_12793" data-name="Grupo 12793" transform="translate(0.594 122.906)">
          <g id="Grupo_12792" data-name="Grupo 12792">
            <path id="Trazado_20490" data-name="Trazado 20490" d="M2501.5,1295.517a1.256,1.256,0,0,1-1.19-.856l-6.145-18.33a1.255,1.255,0,0,1,2.381-.8l4.955,14.779,4.955-14.779a1.255,1.255,0,1,1,2.38.8l-6.145,18.33A1.255,1.255,0,0,1,2501.5,1295.517Z" transform="translate(-2494.1 -1274.677)" fill="#1e243a"/>
          </g>
        </g>
        <g id="Grupo_12795" data-name="Grupo 12795" transform="translate(5.363 135.36)">
          <g id="Grupo_12794" data-name="Grupo 12794">
            <path id="Trazado_20491" data-name="Trazado 20491" d="M2530.445,1361.511h-2.806a1.255,1.255,0,0,1,0-2.511h2.806a1.255,1.255,0,1,1,0,2.511Z" transform="translate(-2526.383 -1359)" fill="#1e243a"/>
          </g>
        </g>
        <g id="Grupo_12797" data-name="Grupo 12797" transform="translate(3.717)">
          <g id="Grupo_12796" data-name="Grupo 12796">
            <path id="Trazado_20492" data-name="Trazado 20492" d="M2522.543,451.765H2516.5a1.256,1.256,0,0,1-1.256-1.255V443.8a1.256,1.256,0,0,1,1.256-1.255h6.046a1.256,1.256,0,0,1,1.256,1.255v6.71A1.256,1.256,0,0,1,2522.543,451.765Zm-4.791-2.511h3.535v-4.2h-3.535Z" transform="translate(-2515.241 -442.544)" fill="#1e243a"/>
          </g>
        </g>
        <g id="Grupo_12799" data-name="Grupo 12799" transform="translate(11.714 7.157)">
          <g id="Grupo_12798" data-name="Grupo 12798">
            <path id="Trazado_20493" data-name="Trazado 20493" d="M2574.552,530.362a1.256,1.256,0,0,1-1.256-1.255v-35.6h-2.658a1.255,1.255,0,0,1,0-2.511h3.914a1.255,1.255,0,0,1,1.255,1.255v36.851A1.255,1.255,0,0,1,2574.552,530.362Z" transform="translate(-2569.383 -491)" fill="#1e243a"/>
          </g>
        </g>
        <g id="Grupo_12801" data-name="Grupo 12801" transform="translate(15.701 41.521)">
          <g id="Grupo_12800" data-name="Grupo 12800">
            <path id="Trazado_20494" data-name="Trazado 20494" d="M2599.924,730.9a3.62,3.62,0,1,1,3.546-3.619A3.632,3.632,0,0,1,2599.924,730.9Zm0-4.727a1.111,1.111,0,1,0,1.035,1.108A1.132,1.132,0,0,0,2599.924,726.172Z" transform="translate(-2596.378 -723.661)" fill="#1e243a"/>
          </g>
        </g>
      </g>
      <g id="Grupo_12804" data-name="Grupo 12804" transform="translate(6.766 153.454)">
        <g id="Grupo_12803" data-name="Grupo 12803">
          <path id="Trazado_20495" data-name="Trazado 20495" d="M2641.044,1518.5H2537.138a1.255,1.255,0,0,1-1.255-1.255v-34.488a1.255,1.255,0,1,1,2.51,0v33.232h102.651a1.255,1.255,0,1,1,0,2.511Z" transform="translate(-2535.883 -1481.5)" fill="#1e243a"/>
        </g>
      </g>
      <g id="Grupo_12806" data-name="Grupo 12806" transform="translate(19.468 163.94)">
        <g id="Grupo_12805" data-name="Grupo 12805">
          <path id="Trazado_20496" data-name="Trazado 20496" d="M2657.183,1567.787h-34.045a1.255,1.255,0,0,1-1.256-1.255v-12.776a1.255,1.255,0,1,1,2.511,0v11.521h32.789a1.255,1.255,0,1,1,0,2.511Z" transform="translate(-2621.882 -1552.5)" fill="#1e243a"/>
        </g>
      </g>
      <g id="Grupo_12808" data-name="Grupo 12808" transform="translate(32.982 7.157)">
        <g id="Grupo_12807" data-name="Grupo 12807">
          <path id="Trazado_20497" data-name="Trazado 20497" d="M2862.56,541a1.256,1.256,0,0,1-1.255-1.255v-46.23H2714.638a1.255,1.255,0,0,1,0-2.511H2862.56a1.255,1.255,0,0,1,1.255,1.255v47.485A1.255,1.255,0,0,1,2862.56,541Z" transform="translate(-2713.383 -491)" fill="#1e243a"/>
        </g>
      </g>
      <g id="Grupo_12810" data-name="Grupo 12810" transform="translate(99.89 23.109)">
        <g id="Grupo_12809" data-name="Grupo 12809">
          <path id="Trazado_20498" data-name="Trazado 20498" d="M3233.439,618.423a1.255,1.255,0,0,1-1.255-1.255V601.511h-64.545a1.255,1.255,0,1,1,0-2.511h65.8a1.255,1.255,0,0,1,1.255,1.255v16.912A1.255,1.255,0,0,1,3233.439,618.423Z" transform="translate(-3166.383 -599)" fill="#1e243a"/>
        </g>
      </g>
      <g id="Grupo_12812" data-name="Grupo 12812" transform="translate(207.597 3.469)">
        <g id="Grupo_12811" data-name="Grupo 12811">
          <path id="Trazado_20499" data-name="Trazado 20499" d="M3901.989,483.823h0a1.624,1.624,0,0,1-1.086-2.025h0a1.623,1.623,0,0,1,2.025-1.086h0a1.626,1.626,0,0,1,1.086,2.025h0a1.626,1.626,0,0,1-1.555,1.155h0A1.63,1.63,0,0,1,3901.989,483.823Zm4.181-1.217a1.625,1.625,0,0,1,.824-2.145h0a1.625,1.625,0,0,1,2.145.824h0a1.625,1.625,0,0,1-.824,2.145h0a1.632,1.632,0,0,1-.659.14h0A1.626,1.626,0,0,1,3906.17,482.606Zm-9.225-2.617a1.623,1.623,0,0,1,.5-2.242h0a1.625,1.625,0,0,1,2.242.5h0a1.626,1.626,0,0,1-.5,2.244h0a1.619,1.619,0,0,1-.87.253h0A1.622,1.622,0,0,1,3896.945,479.989Zm13.738-.213a1.624,1.624,0,0,1-.774-2.164h0a1.623,1.623,0,0,1,2.162-.774h0a1.625,1.625,0,0,1,.774,2.164h0a1.624,1.624,0,0,1-1.469.931h0A1.613,1.613,0,0,1,3910.683,479.776ZM3897,475.635a1.626,1.626,0,0,1-1.372-1.843h0a1.624,1.624,0,0,1,1.843-1.372h0a1.625,1.625,0,0,1,1.372,1.843h0a1.625,1.625,0,0,1-1.605,1.388h0A1.619,1.619,0,0,1,3897,475.635Zm13.252-2.08h0a1.624,1.624,0,0,1,1.133-2h0a1.623,1.623,0,0,1,2,1.131h0a1.623,1.623,0,0,1-1.131,2h0a1.638,1.638,0,0,1-.434.059h0A1.625,1.625,0,0,1,3910.253,473.555Zm-11.737-3.026a1.625,1.625,0,0,1,.167-2.291h0a1.627,1.627,0,0,1,2.292.167h0a1.625,1.625,0,0,1-.168,2.292h0a1.614,1.614,0,0,1-1.06.394h0A1.619,1.619,0,0,1,3898.517,470.529Zm9.346-.27h0a1.626,1.626,0,0,1-.449-2.254h0a1.625,1.625,0,0,1,2.254-.448h0a1.623,1.623,0,0,1,.447,2.252h0a1.619,1.619,0,0,1-1.352.722h0A1.618,1.618,0,0,1,3907.863,470.259Zm-4.864-2.6a1.624,1.624,0,0,1,1.625-1.625h0a1.625,1.625,0,0,1,1.625,1.625h0a1.626,1.626,0,0,1-1.625,1.625h0A1.625,1.625,0,0,1,3903,467.655Z" transform="translate(-3895.612 -466.03)" fill="#1e243a"/>
        </g>
      </g>
      <g id="Grupo_12814" data-name="Grupo 12814" transform="translate(39.298 59.428)">
        <g id="Grupo_12813" data-name="Grupo 12813">
          <path id="Trazado_20500" data-name="Trazado 20500" d="M2762.52,862.693a1.624,1.624,0,0,1-1.084-2.025h0a1.623,1.623,0,0,1,2.025-1.084h0a1.625,1.625,0,0,1,1.085,2.025h0a1.627,1.627,0,0,1-1.555,1.155h0A1.634,1.634,0,0,1,2762.52,862.693Zm4.181-1.217a1.625,1.625,0,0,1,.824-2.145h0a1.624,1.624,0,0,1,2.145.824h0a1.624,1.624,0,0,1-.824,2.145h0a1.615,1.615,0,0,1-.66.14h0A1.624,1.624,0,0,1,2766.7,861.476Zm-9.225-2.617a1.624,1.624,0,0,1,.5-2.242h0a1.624,1.624,0,0,1,2.242.5h0a1.624,1.624,0,0,1-.5,2.242h0a1.62,1.62,0,0,1-.87.254h0A1.621,1.621,0,0,1,2757.476,858.859Zm13.738-.211a1.625,1.625,0,0,1-.774-2.164h0a1.625,1.625,0,0,1,2.162-.775h0a1.625,1.625,0,0,1,.774,2.164h0a1.624,1.624,0,0,1-1.469.93h0A1.635,1.635,0,0,1,2771.213,858.648Zm-13.681-4.143a1.625,1.625,0,0,1-1.372-1.843h0A1.625,1.625,0,0,1,2758,851.29h0a1.625,1.625,0,0,1,1.372,1.843h0a1.627,1.627,0,0,1-1.605,1.39h0A1.617,1.617,0,0,1,2757.532,854.505Zm13.252-2.078a1.624,1.624,0,0,1,1.133-2h0a1.624,1.624,0,0,1,2,1.131h0a1.623,1.623,0,0,1-1.131,2h0a1.638,1.638,0,0,1-.434.059h0A1.626,1.626,0,0,1,2770.784,852.427Zm-11.737-3.026a1.625,1.625,0,0,1,.167-2.292h0a1.625,1.625,0,0,1,2.292.168h0a1.624,1.624,0,0,1-.168,2.291h0a1.616,1.616,0,0,1-1.06.4h0A1.619,1.619,0,0,1,2759.047,849.4Zm9.346-.272a1.622,1.622,0,0,1-.449-2.252h0a1.623,1.623,0,0,1,2.254-.449h0a1.624,1.624,0,0,1,.448,2.254h0a1.623,1.623,0,0,1-1.351.722h0A1.609,1.609,0,0,1,2768.394,849.129Zm-4.864-2.6a1.624,1.624,0,0,1,1.623-1.625h0a1.625,1.625,0,0,1,1.625,1.625h0a1.624,1.624,0,0,1-1.625,1.625h0A1.623,1.623,0,0,1,2763.53,846.525Z" transform="translate(-2756.143 -844.9)" fill="#1e243a"/>
        </g>
      </g>
      <g id="Grupo_12816" data-name="Grupo 12816" transform="translate(89.114 143.496)">
        <g id="Grupo_12815" data-name="Grupo 12815">
          <path id="Trazado_20501" data-name="Trazado 20501" d="M3099.8,1431.873a1.623,1.623,0,0,1-1.085-2.025h0a1.624,1.624,0,0,1,2.025-1.086h0a1.625,1.625,0,0,1,1.086,2.026h0a1.628,1.628,0,0,1-1.555,1.155h0A1.622,1.622,0,0,1,3099.8,1431.873Zm4.18-1.217a1.624,1.624,0,0,1,.824-2.145h0a1.624,1.624,0,0,1,2.145.824h0a1.625,1.625,0,0,1-.824,2.145h0a1.606,1.606,0,0,1-.659.14h0A1.624,1.624,0,0,1,3103.981,1430.656Zm-9.225-2.617a1.624,1.624,0,0,1,.5-2.242h0a1.625,1.625,0,0,1,2.242.5h0a1.625,1.625,0,0,1-.5,2.244h0a1.617,1.617,0,0,1-.868.253h0A1.624,1.624,0,0,1,3094.755,1428.039Zm13.738-.213a1.623,1.623,0,0,1-.774-2.162h0a1.625,1.625,0,0,1,2.162-.776h0a1.627,1.627,0,0,1,.775,2.164h0a1.626,1.626,0,0,1-1.471.93h0A1.615,1.615,0,0,1,3108.493,1427.827Zm-13.681-4.142a1.626,1.626,0,0,1-1.372-1.843h0a1.625,1.625,0,0,1,1.844-1.372h0a1.625,1.625,0,0,1,1.372,1.843h0a1.625,1.625,0,0,1-1.605,1.39h0A1.606,1.606,0,0,1,3094.812,1423.685Zm13.252-2.078a1.624,1.624,0,0,1,1.133-2h0a1.627,1.627,0,0,1,2,1.131h0a1.625,1.625,0,0,1-1.133,2h0a1.641,1.641,0,0,1-.434.059h0A1.625,1.625,0,0,1,3108.063,1421.607Zm-11.736-3.028a1.625,1.625,0,0,1,.167-2.291h0a1.625,1.625,0,0,1,2.292.168h0a1.624,1.624,0,0,1-.168,2.291h0a1.611,1.611,0,0,1-1.061.394h0A1.618,1.618,0,0,1,3096.327,1418.579Zm9.346-.27h0a1.624,1.624,0,0,1-.449-2.252h0a1.624,1.624,0,0,1,2.254-.449h0a1.625,1.625,0,0,1,.449,2.252h0a1.625,1.625,0,0,1-1.353.724h0A1.613,1.613,0,0,1,3105.673,1418.309Zm-4.864-2.6a1.624,1.624,0,0,1,1.625-1.625h0a1.624,1.624,0,0,1,1.625,1.625h0a1.624,1.624,0,0,1-1.625,1.625h0A1.624,1.624,0,0,1,3100.81,1415.7Z" transform="translate(-3093.422 -1414.08)" fill="#1e243a"/>
        </g>
      </g>
      <g id="Grupo_12821" data-name="Grupo 12821" transform="translate(110.968 46.962)">
        <g id="Grupo_12818" data-name="Grupo 12818" transform="translate(0 3.766)">
          <g id="Grupo_12817" data-name="Grupo 12817">
            <path id="Trazado_20502" data-name="Trazado 20502" d="M3250.319,788.511h-7.68a1.255,1.255,0,1,1,0-2.511h7.68a1.255,1.255,0,0,1,0,2.511Z" transform="translate(-3241.383 -786)" fill="#1e243a"/>
          </g>
        </g>
        <g id="Grupo_12820" data-name="Grupo 12820" transform="translate(3.766)">
          <g id="Grupo_12819" data-name="Grupo 12819">
            <path id="Trazado_20503" data-name="Trazado 20503" d="M3268.138,770.691a1.255,1.255,0,0,1-1.255-1.255v-7.68a1.255,1.255,0,1,1,2.511,0v7.68A1.256,1.256,0,0,1,3268.138,770.691Z" transform="translate(-3266.883 -760.5)" fill="#1e243a"/>
          </g>
        </g>
      </g>
      <g id="Grupo_12826" data-name="Grupo 12826" transform="translate(45.094 136.911)">
        <g id="Grupo_12823" data-name="Grupo 12823" transform="translate(0 3.766)">
          <g id="Grupo_12822" data-name="Grupo 12822">
            <path id="Trazado_20504" data-name="Trazado 20504" d="M2804.319,1397.511h-7.68a1.255,1.255,0,0,1,0-2.511h7.68a1.255,1.255,0,1,1,0,2.511Z" transform="translate(-2795.383 -1395)" fill="#1e243a"/>
          </g>
        </g>
        <g id="Grupo_12825" data-name="Grupo 12825" transform="translate(3.766)">
          <g id="Grupo_12824" data-name="Grupo 12824">
            <path id="Trazado_20505" data-name="Trazado 20505" d="M2822.138,1379.691a1.256,1.256,0,0,1-1.256-1.255v-7.68a1.255,1.255,0,1,1,2.511,0v7.68A1.256,1.256,0,0,1,2822.138,1379.691Z" transform="translate(-2820.882 -1369.5)" fill="#1e243a"/>
          </g>
        </g>
      </g>
    </g>
  </g>
</svg>
