<svg xmlns="http://www.w3.org/2000/svg" width="213.973" height="171.766" viewBox="0 0 213.973 171.766">
  <g id="Grupo_13832" data-name="Grupo 13832" transform="translate(-84.555 -259.647)">
    <g id="Grupo_13817" data-name="Grupo 13817" transform="translate(84.555 282.736)">
      <rect id="Rectángulo_2556" data-name="Rectángulo 2556" width="144.333" height="22.563" rx="11.282" transform="translate(52.075 0)" fill="#c3e7fd"/>
      <rect id="Rectángulo_2557" data-name="Rectángulo 2557" width="213.973" height="22.563" rx="11.282" transform="translate(0 45.127)" fill="#c3e7fd"/>
      <path id="Trazado_24148" data-name="Trazado 24148" d="M274.744,476.393H115.726a11.315,11.315,0,0,1-11.282-11.282h0a11.315,11.315,0,0,1,11.282-11.282H274.744a11.314,11.314,0,0,1,11.282,11.282h0A11.315,11.315,0,0,1,274.744,476.393Z" transform="translate(-92.835 -363.576)" fill="#c3e7fd"/>
      <path id="Trazado_24149" data-name="Trazado 24149" d="M286.281,349.143a11.315,11.315,0,0,1,11.282-11.282H195.538a11.282,11.282,0,1,1,0,22.563H297.562A11.315,11.315,0,0,1,286.281,349.143Z" transform="translate(-130.758 -315.297)" fill="#c3e7fd"/>
      <path id="Trazado_24150" data-name="Trazado 24150" d="M262.433,426.455a11.315,11.315,0,0,1,11.282-11.282h-113.2a11.282,11.282,0,0,1,0,22.564h113.2A11.315,11.315,0,0,1,262.433,426.455Z" transform="translate(-116.178 -347.483)" fill="#c3e7fd"/>
    </g>
    <g id="Grupo_13818" data-name="Grupo 13818" transform="translate(93.993 259.647)">
      <path id="Trazado_24151" data-name="Trazado 24151" d="M177.049,302.784a19.275,19.275,0,0,0-5.469-13.472A19.321,19.321,0,0,0,149.823,267.5a13.207,13.207,0,0,0-22.9,1.676,19.316,19.316,0,0,0-21.81,19.182,19.294,19.294,0,0,0,1.28,6.922,13.2,13.2,0,0,0,6.079,21.875,19.337,19.337,0,0,0,29.556,12.7,13.208,13.208,0,0,0,20.3-8.3A19.349,19.349,0,0,0,177.049,302.784Z" transform="translate(-101.557 -260.48)" fill="#fff"/>
      <path id="Trazado_24152" data-name="Trazado 24152" d="M130.66,333.323a20.5,20.5,0,0,1-20.025-16.078,14.369,14.369,0,0,1-6.411-23.058,20.514,20.514,0,0,1,19.4-27.169c.583,0,1.183.027,1.794.082a14.374,14.374,0,0,1,24.123-1.669,20.487,20.487,0,0,1,22.431,22.646,20.508,20.508,0,0,1-9.5,33.608,14.379,14.379,0,0,1-21.28,8.726A20.436,20.436,0,0,1,130.66,333.323Zm-7.034-63.97a18.179,18.179,0,0,0-16.974,24.681,1.166,1.166,0,0,1-.246,1.225,12.033,12.033,0,0,0,5.54,19.941,1.167,1.167,0,0,1,.843.916,18.171,18.171,0,0,0,27.772,11.937,1.162,1.162,0,0,1,1.288.009,12.041,12.041,0,0,0,18.5-7.562,1.169,1.169,0,0,1,.866-.9,18.171,18.171,0,0,0,8.694-30.308,1.169,1.169,0,0,1-.319-.972,18.421,18.421,0,0,0,.173-2.484,18.2,18.2,0,0,0-18.177-18.177,18.444,18.444,0,0,0-2.442.168,1.166,1.166,0,0,1-1.125-.507,12.04,12.04,0,0,0-20.876,1.528,1.166,1.166,0,0,1-1.2.655A18.5,18.5,0,0,0,123.626,269.353Z" transform="translate(-100.725 -259.647)" fill="#0f467e"/>
    </g>
    <g id="Grupo_13819" data-name="Grupo 13819" transform="translate(119.31 277.444)">
      <path id="Trazado_24153" data-name="Trazado 24153" d="M155.356,324.231a2.626,2.626,0,0,1-2.627-2.627V314.32a7.894,7.894,0,0,1,4.893-7.363,6,6,0,1,0-6.376-9.938,5.947,5.947,0,0,0-1.893,4.376,2.627,2.627,0,1,1-5.253,0,11.3,11.3,0,0,1,3.549-8.2,11.258,11.258,0,1,1,11.959,18.63,2.7,2.7,0,0,0-1.624,2.5V321.6A2.627,2.627,0,0,1,155.356,324.231Z" transform="translate(-144.099 -290.137)" fill="#ffd571"/>
      <circle id="Elipse_682" data-name="Elipse 682" cx="2.549" cy="2.549" r="2.549" transform="translate(7.653 38.744) rotate(-45)" fill="#ffd571"/>
    </g>
    <path id="Trazado_24154" data-name="Trazado 24154" d="M293.383,547.821H93.1a4.277,4.277,0,0,1-4.276-4.277h0a4.277,4.277,0,0,1,4.276-4.277h200.28a4.277,4.277,0,0,1,4.276,4.277h0A4.277,4.277,0,0,1,293.383,547.821Z" transform="translate(-1.778 -116.408)" fill="#c3e7fd"/>
    <g id="Grupo_13820" data-name="Grupo 13820" transform="translate(220.856 370.423)">
      <path id="Trazado_24155" data-name="Trazado 24155" d="M321.45,500.375l-.788-8.436c18.529-1.729,21.262-5.5,21.658-6.609.336-.943.267-3.339-3.967-8.793-3.706-4.775-9.5-10.479-15.644-16.517-1.519-1.494-3.071-3.021-4.639-4.579l5.973-6.01c1.556,1.547,3.1,3.064,4.607,4.548,6.347,6.243,12.342,12.14,16.4,17.362,3.311,4.265,7.457,10.649,5.256,16.83C347.88,494.975,338.982,498.739,321.45,500.375Z" transform="translate(-318.07 -449.431)" fill="#fae7cd"/>
    </g>
    <g id="Grupo_13821" data-name="Grupo 13821" transform="translate(219.205 368.773)">
      <path id="Trazado_24156" data-name="Trazado 24156" d="M319.219,500.469l-1.005-10.761,1.162-.108c19.008-1.774,20.608-5.674,20.667-5.839.07-.2.559-2.084-3.79-7.685-3.66-4.716-9.431-10.392-15.541-16.4-1.521-1.495-3.074-3.024-4.643-4.583l-.828-.823,7.619-7.665.828.822c1.555,1.545,3.1,3.06,4.6,4.543,6.379,6.275,12.4,12.2,16.5,17.479,3.479,4.481,7.827,11.216,5.434,17.938-2.6,7.289-11.8,11.29-29.844,12.974Zm1.536-8.657.571,6.111c16.25-1.64,24.5-5.147,26.7-11.32,2.009-5.641-1.936-11.675-5.078-15.722-4.005-5.16-9.971-11.028-16.287-17.241q-1.87-1.839-3.788-3.734l-4.328,4.354q1.927,1.907,3.806,3.752c6.167,6.065,11.992,11.795,15.748,16.633,3.489,4.5,4.884,7.826,4.145,9.9C341.534,486.534,337.782,490.083,320.755,491.812Z" transform="translate(-315.241 -446.604)" fill="#0f467e"/>
    </g>
    <g id="Grupo_13822" data-name="Grupo 13822" transform="translate(232.536 373.296)">
      <path id="Trazado_24157" data-name="Trazado 24157" d="M340.08,473.7l9.461-7.908-9.461-9.436Z" transform="translate(-338.913 -455.186)" fill="#4eb2e6"/>
      <path id="Trazado_24158" data-name="Trazado 24158" d="M339.247,474.032a1.167,1.167,0,0,1-1.167-1.167V455.522a1.167,1.167,0,0,1,1.992-.827l9.461,9.436a1.167,1.167,0,0,1-.076,1.722L340,473.761A1.169,1.169,0,0,1,339.247,474.032Zm1.167-15.7v12.033l6.564-5.486Z" transform="translate(-338.08 -454.354)" fill="#0f467e"/>
    </g>
    <g id="Grupo_13823" data-name="Grupo 13823" transform="translate(156.132 293.384)">
      <path id="Trazado_24159" data-name="Trazado 24159" d="M212.766,359.641s-7.028-24.987-1.354-40.144c3.049,7.32,9.768,10.7,23.265,4.882,9.584-4.134,27.295-10.435,31.085,4.308,16.712-6.988,8.262,30.88,8.262,30.88Z" transform="translate(-208.022 -318.274)" fill="#948876"/>
      <path id="Trazado_24160" data-name="Trazado 24160" d="M211.927,359.98a1.168,1.168,0,0,1-1.124-.851,111.823,111.823,0,0,1-2.839-14.555c-1.415-10.995-.905-19.848,1.516-26.314a1.168,1.168,0,0,1,1.072-.758,1.183,1.183,0,0,1,1.1.719c1.333,3.2,3.245,5.268,5.846,6.321,3.8,1.537,9.143.843,15.879-2.062,11.977-5.166,20.526-6.34,26.133-3.59a12.134,12.134,0,0,1,6.181,7.443c2.834-.9,5.183-.594,6.995.924,3.127,2.618,4.336,8.815,3.591,18.416a105.973,105.973,0,0,1-1.951,13.322,1.168,1.168,0,0,1-1.138.913l-61.257.074Zm-1.1-38.258c-3.439,13.093.925,31.74,1.994,35.922l59.415-.071c1.524-7.347,3.859-24.412-1.056-28.528-1.361-1.139-3.262-1.175-5.812-.109a1.167,1.167,0,0,1-1.581-.786c-.9-3.51-2.64-5.854-5.312-7.164-7.368-3.615-20.021,1.844-24.18,3.638-7.331,3.162-13.278,3.862-17.679,2.083A12.183,12.183,0,0,1,210.832,321.722Z" transform="translate(-207.183 -317.447)" fill="#0f467e"/>
    </g>
    <circle id="Elipse_683" data-name="Elipse 683" cx="5.084" cy="5.084" r="5.084" transform="translate(216.969 333.716)" fill="#fae7cd"/>
    <path id="Trazado_24161" data-name="Trazado 24161" d="M315.661,397.046a6.251,6.251,0,1,1,6.251-6.251A6.258,6.258,0,0,1,315.661,397.046Zm0-10.167a3.916,3.916,0,1,0,3.916,3.916A3.921,3.921,0,0,0,315.661,386.879Z" transform="translate(-93.609 -51.995)" fill="#0f467e"/>
    <circle id="Elipse_684" data-name="Elipse 684" cx="5.084" cy="5.084" r="5.084" transform="translate(155.792 333.716)" fill="#fae7cd"/>
    <path id="Trazado_24162" data-name="Trazado 24162" d="M210.852,397.046a6.251,6.251,0,1,1,6.251-6.251A6.258,6.258,0,0,1,210.852,397.046Zm0-10.167a3.916,3.916,0,1,0,3.916,3.916A3.921,3.921,0,0,0,210.852,386.879Z" transform="translate(-49.976 -51.995)" fill="#0f467e"/>
    <path id="Trazado_24163" data-name="Trazado 24163" d="M276,411.994H218.214V362.935c0-.117,0-.233.012-.348a5,5,0,0,1,6.4-4.35c3.7,1.048,14.43,3.873,22.486,3.873s18.782-2.825,22.486-3.873a5,5,0,0,1,6.4,4.35c.008.115.012.231.012.348Z" transform="translate(-55.643 -40.963)" fill="#fae7cd"/>
    <path id="Trazado_24164" data-name="Trazado 24164" d="M276.336,412.336H216.214V362.109c0-.145,0-.287.015-.43a5.946,5.946,0,0,1,2.56-4.485,6.256,6.256,0,0,1,5.359-.88c3.9,1.143,13.877,3.8,22.127,3.8s18.222-2.659,22.127-3.8a6.251,6.251,0,0,1,5.359.88,5.949,5.949,0,0,1,2.561,4.487c.009.142.014.284.014.427ZM218.549,410H274V362.109c0-.091,0-.182-.009-.27a3.627,3.627,0,0,0-1.567-2.73,3.933,3.933,0,0,0-3.368-.553c-4,1.171-14.23,3.9-22.782,3.9s-18.781-2.725-22.782-3.9a3.933,3.933,0,0,0-3.368.553,3.627,3.627,0,0,0-1.567,2.731c-.006.09-.009.18-.009.27Z" transform="translate(-54.81 -40.137)" fill="#0f467e"/>
    <path id="Trazado_24165" data-name="Trazado 24165" d="M267.6,407.678a1.167,1.167,0,0,1-1.167-1.167,1.348,1.348,0,1,0-2.7,0,1.167,1.167,0,1,1-2.335,0,3.683,3.683,0,1,1,7.365,0A1.168,1.168,0,0,1,267.6,407.678Z" transform="translate(-73.624 -59.607)" fill="#0f467e"/>
    <path id="Trazado_24166" data-name="Trazado 24166" d="M260.729,425.755c1.549-2.119,6.494-2.057,2.715-7.583-2.856-4.176-5.655,2.095-8.278.391-.926-.6-3.32-2.764-4-.851-.633,1.769,2.589,2.032,1.909,5.134l-1.185,6.179h8.27Z" transform="translate(-69.325 -65.386)" fill="#dbcbb3"/>
    <rect id="Rectángulo_2558" data-name="Rectángulo 2558" width="91.444" height="60.771" rx="5.806" transform="translate(145.742 362.089)" fill="#e6e6e6"/>
    <path id="Trazado_24167" data-name="Trazado 24167" d="M277.437,435.154H192.772a3.389,3.389,0,0,0-3.389,3.389v2.684a3.389,3.389,0,0,1,3.389-3.389h84.666a3.389,3.389,0,0,1,3.39,3.389v-2.684A3.389,3.389,0,0,0,277.437,435.154Z" transform="translate(-43.64 -73.065)" fill="#fff"/>
    <path id="Trazado_24168" data-name="Trazado 24168" d="M276.6,496.26H191.939a4.562,4.562,0,0,1-4.557-4.557V437.71a4.562,4.562,0,0,1,4.557-4.556H276.6a4.562,4.562,0,0,1,4.557,4.556V491.7A4.562,4.562,0,0,1,276.6,496.26Zm-84.666-60.771a2.224,2.224,0,0,0-2.222,2.221V491.7a2.225,2.225,0,0,0,2.222,2.222H276.6a2.225,2.225,0,0,0,2.222-2.222V437.71a2.224,2.224,0,0,0-2.222-2.221Z" transform="translate(-42.808 -72.232)" fill="#0f467e"/>
    <circle id="Elipse_685" data-name="Elipse 685" cx="6.589" cy="6.589" r="6.589" transform="translate(183.853 397.85) rotate(-80.23)" fill="#fff"/>
    <path id="Trazado_24169" data-name="Trazado 24169" d="M288.022,539.6H137.813a1.167,1.167,0,1,1,0-2.335H288.022a1.167,1.167,0,1,1,0,2.335Z" transform="translate(-21.686 -115.576)" fill="#0f467e"/>
    <path id="Trazado_24170" data-name="Trazado 24170" d="M116.44,539.6H100.811a1.167,1.167,0,1,1,0-2.335H116.44a1.167,1.167,0,1,1,0,2.335Z" transform="translate(-6.282 -115.576)" fill="#0f467e"/>
    <path id="Trazado_24171" data-name="Trazado 24171" d="M422.4,539.6H406.768a1.167,1.167,0,0,1,0-2.335H422.4a1.167,1.167,0,0,1,0,2.335Z" transform="translate(-133.654 -115.576)" fill="#0f467e"/>
    <circle id="Elipse_686" data-name="Elipse 686" cx="2.5" cy="2.5" r="2.5" transform="translate(173.831 332.232)" fill="#0f467e"/>
    <circle id="Elipse_687" data-name="Elipse 687" cx="2.5" cy="2.5" r="2.5" transform="translate(204.097 332.232)" fill="#0f467e"/>
    <g id="Grupo_13824" data-name="Grupo 13824" transform="translate(182.675 348.6)">
      <path id="Trazado_24172" data-name="Trazado 24172" d="M264.315,423.1c1.55-2.119,6.494-2.058,2.715-7.583-2.857-4.176-5.656,2.095-8.279.391-.926-.6-3.32-2.764-4-.851-.633,1.768,2.589,2.032,1.909,5.134l-1.185,6.179h8.27Z" transform="translate(-253.493 -412.881)" fill="#fae7cd"/>
      <path id="Trazado_24173" data-name="Trazado 24173" d="M262.906,426.7h-8.27a1.166,1.166,0,0,1-1.146-1.387l1.185-6.179a2.091,2.091,0,0,0-.84-2.253,2.79,2.79,0,0,1-1.021-3.054,2.181,2.181,0,0,1,1.42-1.453c1.372-.424,2.817.632,3.873,1.4.172.125.323.236.446.316.447.288,1.041-.026,2.2-.76,1.549-.985,4.139-2.629,6.408.689,1.323,1.934,1.8,3.451,1.517,4.775-.343,1.573-1.68,2.379-2.756,3.027a6.908,6.908,0,0,0-1.344.948l-.52,2.964A1.167,1.167,0,0,1,262.906,426.7Zm-6.858-2.335h5.878l.4-2.305a1.157,1.157,0,0,1,.207-.487,7.088,7.088,0,0,1,2.177-1.75c.965-.581,1.56-.974,1.679-1.523.1-.436-.03-1.3-1.162-2.961-.91-1.33-1.39-1.205-3.229-.036-1.253.8-2.968,1.885-4.721.748-.151-.1-.338-.234-.549-.387a7.606,7.606,0,0,0-1.718-1.032,2.159,2.159,0,0,0,.489.617,4.362,4.362,0,0,1,1.458,4.355Z" transform="translate(-252.658 -412.044)" fill="#0f467e"/>
    </g>
    <g id="Grupo_13825" data-name="Grupo 13825" transform="translate(133.094 333.044)">
      <circle id="Elipse_688" data-name="Elipse 688" cx="4.331" cy="4.331" r="4.331" transform="translate(1.168 1.167)" fill="#fff"/>
      <path id="Trazado_24174" data-name="Trazado 24174" d="M173.211,396.389a5.5,5.5,0,1,1,5.5-5.5A5.5,5.5,0,0,1,173.211,396.389Zm0-8.662a3.164,3.164,0,1,0,3.164,3.164A3.167,3.167,0,0,0,173.211,387.727Z" transform="translate(-167.713 -385.392)" fill="#0f467e"/>
    </g>
    <g id="Grupo_13826" data-name="Grupo 13826" transform="translate(145.595 339.695)">
      <path id="Trazado_24175" data-name="Trazado 24175" d="M195.829,401.137a2.35,2.35,0,1,1-2.349-2.349A2.349,2.349,0,0,1,195.829,401.137Z" transform="translate(-189.963 -397.62)" fill="#fff"/>
      <path id="Trazado_24176" data-name="Trazado 24176" d="M192.647,403.821a3.517,3.517,0,1,1,3.517-3.517A3.521,3.521,0,0,1,192.647,403.821Zm0-4.7a1.182,1.182,0,1,0,1.182,1.183A1.184,1.184,0,0,0,192.647,399.122Z" transform="translate(-189.13 -396.787)" fill="#0f467e"/>
    </g>
    <g id="Grupo_13827" data-name="Grupo 13827" transform="translate(113.969 401.347)">
      <rect id="Rectángulo_2559" data-name="Rectángulo 2559" width="16.218" height="20.345" rx="1.92" transform="translate(1.167 1.168)" fill="#ffd571"/>
      <path id="Trazado_24177" data-name="Trazado 24177" d="M151.213,525.093H137.236a2.291,2.291,0,0,1-2.288-2.288V504.7a2.291,2.291,0,0,1,2.288-2.288h13.977A2.291,2.291,0,0,1,153.5,504.7v18.1A2.291,2.291,0,0,1,151.213,525.093Zm-13.93-2.335h13.883V504.747H137.283Zm13.93-18.011h0Z" transform="translate(-134.948 -502.412)" fill="#0f467e"/>
    </g>
    <g id="Grupo_13828" data-name="Grupo 13828" transform="translate(107.075 404.168)">
      <path id="Trazado_24178" data-name="Trazado 24178" d="M132.031,519.472a3.333,3.333,0,0,1,0-6.665v-3.562a6.895,6.895,0,1,0,0,13.789Z" transform="translate(-123.969 -508.077)" fill="#ffd571"/>
      <path id="Trazado_24179" data-name="Trazado 24179" d="M131.2,523.368a8.062,8.062,0,1,1,0-16.124,1.167,1.167,0,0,1,1.167,1.167v3.562a1.167,1.167,0,0,1-1.167,1.167,2.166,2.166,0,0,0,0,4.331,1.167,1.167,0,0,1,1.167,1.167V522.2A1.167,1.167,0,0,1,131.2,523.368ZM130.031,509.7a5.728,5.728,0,0,0,0,11.215v-1.26a4.5,4.5,0,0,1,0-8.694Z" transform="translate(-123.136 -507.244)" fill="#0f467e"/>
    </g>
    <g id="Grupo_13829" data-name="Grupo 13829" transform="translate(116.602 388.087)">
      <path id="Trazado_24180" data-name="Trazado 24180" d="M140.853,489.471h0a1.4,1.4,0,0,1-1.4-1.4v-6.987a1.4,1.4,0,0,1,1.4-1.4h0a1.4,1.4,0,0,1,1.4,1.4v6.987A1.4,1.4,0,0,1,140.853,489.471Z" transform="translate(-139.458 -479.694)" fill="#fff"/>
    </g>
    <g id="Grupo_13830" data-name="Grupo 13830" transform="translate(121.851 380.381)">
      <path id="Trazado_24181" data-name="Trazado 24181" d="M149.846,489.315h0a1.4,1.4,0,0,1-1.4-1.4V475.33a1.4,1.4,0,0,1,1.4-1.4h0a1.4,1.4,0,0,1,1.4,1.4v12.59A1.4,1.4,0,0,1,149.846,489.315Z" transform="translate(-148.451 -469.591)" fill="#fff"/>
      <path id="Trazado_24182" data-name="Trazado 24182" d="M151.241,467.887a1.4,1.4,0,1,1-1.4-1.395A1.4,1.4,0,0,1,151.241,467.887Z" transform="translate(-148.451 -466.492)" fill="#fff"/>
    </g>
    <g id="Grupo_13831" data-name="Grupo 13831" transform="translate(127.099 386.22)">
      <path id="Trazado_24183" data-name="Trazado 24183" d="M158.838,487.563h0a1.4,1.4,0,0,1-1.4-1.4V477.89a1.4,1.4,0,0,1,1.4-1.4h0a1.4,1.4,0,0,1,1.4,1.4v8.278A1.4,1.4,0,0,1,158.838,487.563Z" transform="translate(-157.443 -476.495)" fill="#fff"/>
    </g>
  </g>
</svg>
