<svg xmlns="http://www.w3.org/2000/svg" width="224.216" height="155.565" viewBox="0 0 224.216 155.565">
  <g id="Grupo_13882" data-name="Grupo 13882" transform="translate(-70.731 -85.993)">
    <g id="Grupo_13838" data-name="Grupo 13838" transform="translate(70.731 85.993)">
      <g id="Grupo_13833" data-name="Grupo 13833" transform="translate(51.163 0)">
        <rect id="Rectángulo_2560" data-name="Rectángulo 2560" width="141.029" height="23.644" rx="11.822" fill="#c3e7fd"/>
      </g>
      <g id="Grupo_13834" data-name="Grupo 13834" transform="translate(0 47.287)">
        <rect id="Rectángulo_2561" data-name="Rectángulo 2561" width="224.216" height="23.644" rx="11.822" fill="#c3e7fd"/>
      </g>
      <g id="Grupo_13835" data-name="Grupo 13835" transform="translate(16.25 94.574)">
        <path id="Trazado_24184" data-name="Trazado 24184" d="M292.83,387.424H130.284A11.857,11.857,0,0,1,118.462,375.6h0a11.857,11.857,0,0,1,11.822-11.822H292.83A11.857,11.857,0,0,1,304.652,375.6h0A11.857,11.857,0,0,1,292.83,387.424Z" transform="translate(-118.462 -363.78)" fill="#c3e7fd"/>
      </g>
      <g id="Grupo_13836" data-name="Grupo 13836" transform="translate(67.881 23.644)">
        <path id="Trazado_24185" data-name="Trazado 24185" d="M361.8,167.262a11.857,11.857,0,0,1,11.822-11.822h-103.5a11.822,11.822,0,1,1,0,23.643h103.5A11.857,11.857,0,0,1,361.8,167.262Z" transform="translate(-270.114 -155.44)" fill="#c3e7fd"/>
      </g>
      <g id="Grupo_13837" data-name="Grupo 13837" transform="translate(46.46 70.931)">
        <path id="Trazado_24186" data-name="Trazado 24186" d="M313.992,306.155a11.857,11.857,0,0,1,11.822-11.822H207.2a11.822,11.822,0,0,1,0,23.644H325.813A11.856,11.856,0,0,1,313.992,306.155Z" transform="translate(-207.195 -294.333)" fill="#c3e7fd"/>
      </g>
    </g>
    <g id="Grupo_13839" data-name="Grupo 13839" transform="translate(214.717 108.478)">
      <path id="Trazado_24187" data-name="Trazado 24187" d="M499.463,228.122l-5.812-5.744c13.4-13.559,30.668-39.158,38.942-70.342l7.9,2.1a175.57,175.57,0,0,1-19.558,45.8A153.893,153.893,0,0,1,499.463,228.122Z" transform="translate(-493.651 -152.036)" fill="#fae7cd"/>
    </g>
    <g id="Grupo_13841" data-name="Grupo 13841" transform="translate(214.036 107.797)">
      <g id="Grupo_13840" data-name="Grupo 13840">
        <path id="Trazado_24188" data-name="Trazado 24188" d="M498.144,227.484a.682.682,0,0,1-.479-.2l-5.812-5.744a.681.681,0,0,1-.006-.963c13.339-13.5,30.529-38.983,38.769-70.038a.681.681,0,0,1,.833-.484l7.9,2.1a.681.681,0,0,1,.483.833c-10.973,41.357-34.311,67.322-41.2,74.295a.681.681,0,0,1-.48.2Zm-4.85-6.432,4.843,4.786c7.331-7.53,29.487-32.8,40.2-72.543l-6.581-1.747C523.481,182.2,506.591,207.407,493.293,221.051Z" transform="translate(-491.651 -150.035)" fill="#0f467e"/>
      </g>
    </g>
    <g id="Grupo_13842" data-name="Grupo 13842" transform="translate(250.165 98.972)">
      <rect id="Rectángulo_2562" data-name="Rectángulo 2562" width="12.727" height="10.773" rx="5.387" transform="matrix(-0.942, -0.337, 0.337, -0.942, 11.984, 14.429)" fill="#fae7cd"/>
      <path id="Trazado_24189" data-name="Trazado 24189" d="M608.114,139.145a5.4,5.4,0,0,1-1.821-.318l-3.043-1.088a5.442,5.442,0,0,1-3.283-6.94l.43-1.2a5.435,5.435,0,0,1,6.939-3.284l3.043,1.088a5.435,5.435,0,0,1,3.283,6.94l-.43,1.2a5.46,5.46,0,0,1-5.119,3.6Zm-2.6-11.787a4.075,4.075,0,0,0-3.833,2.7l-.43,1.2a4.08,4.08,0,0,0,2.46,5.2l3.043,1.088a4.08,4.08,0,0,0,5.2-2.46l.43-1.2a4.071,4.071,0,0,0-2.46-5.2l-3.043-1.088A4.044,4.044,0,0,0,605.513,127.358Z" transform="translate(-599.01 -125.356)" fill="#0f467e"/>
    </g>
    <g id="Grupo_13843" data-name="Grupo 13843" transform="translate(248.517 104.94)">
      <path id="Trazado_24190" data-name="Trazado 24190" d="M596.641,148.651l2.759.986a2.584,2.584,0,0,0,3.294-1.559h0a2.585,2.585,0,0,0-1.559-3.294l-2.759-.987a2.584,2.584,0,0,0-3.294,1.559h0A2.585,2.585,0,0,0,596.641,148.651Z" transform="translate(-594.251 -142.967)" fill="#fae7cd"/>
      <path id="Trazado_24191" data-name="Trazado 24191" d="M598.943,149.149a3.246,3.246,0,0,1-1.094-.191l-2.759-.987a3.258,3.258,0,0,1,2.194-6.135l2.759.987a3.259,3.259,0,0,1-1.1,6.326Zm-3.394-2.46,2.759.987a1.9,1.9,0,0,0,1.277-3.57l-2.759-.987a1.9,1.9,0,0,0-1.277,3.57Z" transform="translate(-592.93 -141.646)" fill="#0f467e"/>
    </g>
    <g id="Grupo_13844" data-name="Grupo 13844" transform="translate(104.657 165.314)">
      <path id="Trazado_24192" data-name="Trazado 24192" d="M185.59,367.39a10.1,10.1,0,0,1-3.3-.55c-7-2.4-9.259-11.554-10.352-18.231-1.173-7.172-1.662-16.587-1.539-29.63l8.171.077c-.119,12.564.336,21.536,1.432,28.234,1.629,9.956,4.191,11.565,4.938,11.821.831.284,5.606.879,18.06-15.462l6.5,4.953C199.819,361.3,192.11,367.389,185.59,367.39Z" transform="translate(-170.381 -318.978)" fill="#fae7cd"/>
    </g>
    <g id="Grupo_13845" data-name="Grupo 13845" transform="translate(77.941 232.965)">
      <path id="Trazado_24193" data-name="Trazado 24193" d="M297.4,526.277H96.206a4.3,4.3,0,0,1-4.3-4.3h0a4.3,4.3,0,0,1,4.3-4.3H297.4a4.3,4.3,0,0,1,4.3,4.3h0A4.3,4.3,0,0,1,297.4,526.277Z" transform="translate(-91.91 -517.685)" fill="#c3e7fd"/>
    </g>
    <g id="Grupo_13847" data-name="Grupo 13847" transform="translate(103.976 164.633)">
      <g id="Grupo_13846" data-name="Grupo 13846" transform="translate(0)">
        <path id="Trazado_24194" data-name="Trazado 24194" d="M184.271,366.751h0a10.823,10.823,0,0,1-3.521-.587c-7.343-2.518-9.682-11.916-10.8-18.765-1.18-7.211-1.671-16.663-1.548-29.746a.681.681,0,0,1,.681-.674h.006l8.171.077a.681.681,0,0,1,.674.687c-.118,12.524.334,21.459,1.423,28.117,1.642,10.038,4.2,11.189,4.487,11.288.127.043,1.322.371,4.079-1.424,3.55-2.311,8-6.957,13.219-13.807a.681.681,0,0,1,.954-.129l6.5,4.953a.68.68,0,0,1,.129.954C198.813,360.7,191.044,366.751,184.271,366.751Zm-14.516-48.405c-.1,12.651.389,21.826,1.536,28.833,1.064,6.5,3.248,15.416,9.9,17.7a9.475,9.475,0,0,0,3.079.513c6.135,0,13.647-5.884,22.953-17.98l-5.416-4.128c-5.139,6.68-9.56,11.248-13.145,13.583-2.951,1.921-4.564,1.809-5.262,1.571-3.221-1.1-4.843-9.009-5.39-12.356-1.082-6.616-1.543-15.421-1.447-27.669Z" transform="translate(-168.381 -316.978)" fill="#0f467e"/>
      </g>
    </g>
    <g id="Grupo_13848" data-name="Grupo 13848" transform="translate(130.217 183.668)">
      <path id="Trazado_24195" data-name="Trazado 24195" d="M256.959,392.308l-9.5-7.944,9.5-9.479Z" transform="translate(-246.775 -374.205)" fill="#4eb2e6"/>
      <path id="Trazado_24196" data-name="Trazado 24196" d="M255.64,391.67a.683.683,0,0,1-.437-.158l-9.5-7.944a.681.681,0,0,1-.044-1l9.5-9.479a.681.681,0,0,1,1.162.482v17.423a.681.681,0,0,1-.681.681Zm-8.5-8.669,7.814,6.531V375.208Z" transform="translate(-245.455 -372.886)" fill="#0f467e"/>
    </g>
    <g id="Grupo_13849" data-name="Grupo 13849" transform="translate(215.12 164.936)">
      <path id="Trazado_24197" data-name="Trazado 24197" d="M513.865,327.856l-7.963,8.726-9.066-7.958,8.18-8.758Z" transform="translate(-496.155 -319.185)" fill="#4eb2e6"/>
      <path id="Trazado_24198" data-name="Trazado 24198" d="M504.582,335.944a.677.677,0,0,1-.449-.169l-9.065-7.958a.681.681,0,0,1-.049-.976l8.18-8.758a.682.682,0,0,1,.954-.041l8.848,7.99a.681.681,0,0,1,.047.965l-7.963,8.726A.68.68,0,0,1,504.582,335.944Zm-8.088-8.687,8.036,7.054,7.051-7.727-7.843-7.083Z" transform="translate(-494.836 -317.867)" fill="#0f467e"/>
    </g>
    <g id="Grupo_13852" data-name="Grupo 13852" transform="translate(147.831 103.389)">
      <g id="Grupo_13850" data-name="Grupo 13850" transform="translate(0.691 0.677)">
        <path id="Trazado_24199" data-name="Trazado 24199" d="M302.8,179.468s-7.061-25.1-1.36-40.327c3.062,7.354,9.813,10.752,23.371,4.9,9.627-4.153,27.418-10.483,31.226,4.327,16.788-7.02,8.3,31.021,8.3,31.021Z" transform="translate(-299.221 -139.079)" fill="#948876"/>
      </g>
      <g id="Grupo_13851" data-name="Grupo 13851" transform="translate(0 0)">
        <path id="Trazado_24200" data-name="Trazado 24200" d="M301.467,178.837a.681.681,0,0,1-.655-.5,113.961,113.961,0,0,1-2.838-14.551c-1.411-10.965-.908-19.779,1.495-26.2a.681.681,0,0,1,.625-.442.668.668,0,0,1,.641.419,11.411,11.411,0,0,0,6.142,6.616c3.944,1.6,9.438.9,16.33-2.075,11.891-5.129,20.344-6.312,25.84-3.617a11.872,11.872,0,0,1,6.109,7.662c2.889-1.037,5.25-.811,7.028.678,7.071,5.922,1.714,30.361,1.482,31.4a.681.681,0,0,1-.664.533l-61.536.074Zm-1.256-39.192c-4.184,13.735.874,34.374,1.779,37.83l60.461-.073c.747-3.62,4.768-24.579-1.141-29.526-1.522-1.274-3.6-1.335-6.344-.187a.681.681,0,0,1-.922-.459c-.932-3.623-2.814-6.152-5.6-7.516-7.6-3.729-20.472,1.82-24.7,3.644-7.239,3.123-13.087,3.825-17.38,2.087A12.1,12.1,0,0,1,300.211,139.645Z" transform="translate(-297.193 -137.09)" fill="#0f467e"/>
      </g>
    </g>
    <g id="Grupo_13853" data-name="Grupo 13853" transform="translate(208.453 143.416)">
      <circle id="Elipse_689" data-name="Elipse 689" cx="5.107" cy="5.107" r="5.107" fill="#fae7cd"/>
    </g>
    <g id="Grupo_13854" data-name="Grupo 13854" transform="translate(207.772 142.735)">
      <path id="Trazado_24201" data-name="Trazado 24201" d="M479.041,264.233a5.788,5.788,0,1,1,5.788-5.788A5.794,5.794,0,0,1,479.041,264.233Zm0-10.214a4.426,4.426,0,1,0,4.426,4.426A4.431,4.431,0,0,0,479.041,254.019Z" transform="translate(-473.253 -252.657)" fill="#0f467e"/>
    </g>
    <g id="Grupo_13855" data-name="Grupo 13855" transform="translate(146.999 143.416)">
      <circle id="Elipse_690" data-name="Elipse 690" cx="5.107" cy="5.107" r="5.107" transform="translate(0)" fill="#fae7cd"/>
    </g>
    <g id="Grupo_13856" data-name="Grupo 13856" transform="translate(146.318 142.735)">
      <path id="Trazado_24202" data-name="Trazado 24202" d="M298.535,264.233a5.788,5.788,0,1,1,5.788-5.788A5.794,5.794,0,0,1,298.535,264.233Zm0-10.214a4.426,4.426,0,1,0,4.426,4.426A4.431,4.431,0,0,0,298.535,254.019Z" transform="translate(-292.747 -252.657)" fill="#0f467e"/>
    </g>
    <g id="Grupo_13857" data-name="Grupo 13857" transform="translate(153.808 126.704)">
      <path id="Trazado_24203" data-name="Trazado 24203" d="M372.8,259.768h-58.05V210.486c0-.117,0-.234.012-.35a5.026,5.026,0,0,1,6.425-4.37c3.721,1.053,14.5,3.891,22.589,3.891s18.867-2.837,22.588-3.891a5.026,5.026,0,0,1,6.425,4.37q.012.174.012.35Z" transform="translate(-314.747 -205.572)" fill="#fae7cd"/>
    </g>
    <g id="Grupo_13858" data-name="Grupo 13858" transform="translate(153.127 126.034)">
      <path id="Trazado_24204" data-name="Trazado 24204" d="M372.159,259.15H312.747V209.187q0-.2.013-.4a5.486,5.486,0,0,1,2.363-4.138,5.791,5.791,0,0,1,4.965-.815c3.944,1.154,14.019,3.839,22.365,3.839s18.421-2.684,22.365-3.839a5.79,5.79,0,0,1,4.964.815,5.486,5.486,0,0,1,2.363,4.138c.009.131.013.263.013.4Zm-58.05-1.362H370.8v-48.6c0-.1,0-.2-.01-.3A4.13,4.13,0,0,0,369,205.77a4.438,4.438,0,0,0-3.8-.625c-4,1.17-14.226,3.893-22.748,3.893s-18.747-2.723-22.748-3.893a4.437,4.437,0,0,0-3.8.625,4.131,4.131,0,0,0-1.783,3.113c-.007.1-.01.2-.01.3Z" transform="translate(-312.747 -203.602)" fill="#0f467e"/>
    </g>
    <g id="Grupo_13860" data-name="Grupo 13860" transform="translate(194.842 139.924)">
      <g id="Grupo_13859" data-name="Grupo 13859" transform="translate(0 0)">
        <path id="Trazado_24205" data-name="Trazado 24205" d="M440.978,250.7a.681.681,0,0,1-.681-.681c0-1.281-.178-4.261-1.831-4.261s-1.831,2.98-1.831,4.261a.681.681,0,0,1-1.362,0c0-4.892,2-5.623,3.193-5.623s3.193.731,3.193,5.623A.681.681,0,0,1,440.978,250.7Z" transform="translate(-435.273 -244.4)" fill="#0f467e"/>
      </g>
    </g>
    <g id="Grupo_13861" data-name="Grupo 13861" transform="translate(136.903 171.918)">
      <rect id="Rectángulo_2563" data-name="Rectángulo 2563" width="91.86" height="61.047" rx="10" transform="translate(0)" fill="#ffd571"/>
    </g>
    <g id="Grupo_13862" data-name="Grupo 13862" transform="translate(136.903 171.918)">
      <path id="Trazado_24206" data-name="Trazado 24206" d="M353.548,338.376H268.5a3.4,3.4,0,0,0-3.4,3.4v2.7a3.4,3.4,0,0,1,3.4-3.4h85.051a3.4,3.4,0,0,1,3.4,3.4v-2.7A3.4,3.4,0,0,0,353.548,338.376Z" transform="translate(-265.093 -338.376)" fill="#fff"/>
    </g>
    <g id="Grupo_13863" data-name="Grupo 13863" transform="translate(136.222 171.238)">
      <path id="Trazado_24207" data-name="Trazado 24207" d="M352.229,398.785H267.178a4.09,4.09,0,0,1-4.085-4.085V340.461a4.09,4.09,0,0,1,4.085-4.085h85.051a4.09,4.09,0,0,1,4.086,4.085V394.7A4.09,4.09,0,0,1,352.229,398.785Zm-85.051-61.047a2.727,2.727,0,0,0-2.724,2.724V394.7a2.727,2.727,0,0,0,2.724,2.724h85.051a2.727,2.727,0,0,0,2.724-2.724V340.461a2.727,2.727,0,0,0-2.724-2.724Z" transform="translate(-263.093 -336.376)" fill="#0f467e"/>
    </g>
    <g id="Grupo_13864" data-name="Grupo 13864" transform="translate(175.187 194.796)">
      <circle id="Elipse_691" data-name="Elipse 691" cx="6.619" cy="6.619" r="6.619" transform="translate(0 13.045) rotate(-80.23)" fill="#fff"/>
    </g>
    <g id="Grupo_13865" data-name="Grupo 13865" transform="translate(106.473 232.284)">
      <path id="Trazado_24208" data-name="Trazado 24208" d="M327.285,517.047H176.394a.681.681,0,1,1,0-1.362H327.285a.681.681,0,0,1,0,1.362Z" transform="translate(-175.713 -515.685)" fill="#0f467e"/>
    </g>
    <g id="Grupo_13866" data-name="Grupo 13866" transform="translate(84.776 232.284)">
      <path id="Trazado_24209" data-name="Trazado 24209" d="M128.367,517.047h-15.7a.681.681,0,1,1,0-1.362h15.7a.681.681,0,1,1,0,1.362Z" transform="translate(-111.986 -515.685)" fill="#0f467e"/>
    </g>
    <g id="Grupo_13867" data-name="Grupo 13867" transform="translate(264.173 232.284)">
      <path id="Trazado_24210" data-name="Trazado 24210" d="M655.3,517.047H639.6a.681.681,0,0,1,0-1.362h15.7a.681.681,0,0,1,0,1.362Z" transform="translate(-638.915 -515.685)" fill="#0f467e"/>
    </g>
    <g id="Grupo_13868" data-name="Grupo 13868" transform="translate(164.438 139.924)">
      <path id="Trazado_24211" data-name="Trazado 24211" d="M351.675,250.7a.681.681,0,0,1-.681-.681c0-1.281-.178-4.261-1.831-4.261s-1.831,2.98-1.831,4.261a.681.681,0,0,1-1.362,0c0-4.892,2-5.623,3.193-5.623s3.192.731,3.192,5.623A.681.681,0,0,1,351.675,250.7Z" transform="translate(-345.971 -244.4)" fill="#0f467e"/>
    </g>
    <g id="Grupo_13869" data-name="Grupo 13869" transform="translate(87.187 164.226)">
      <path id="Trazado_24212" data-name="Trazado 24212" d="M122.839,323.329a.681.681,0,0,1-.681-.681,2.414,2.414,0,0,0-2.411-2.411.681.681,0,1,1,0-1.362,2.414,2.414,0,0,0,2.411-2.411.681.681,0,0,1,1.362,0,2.414,2.414,0,0,0,2.411,2.411.681.681,0,1,1,0,1.362,2.414,2.414,0,0,0-2.411,2.411A.681.681,0,0,1,122.839,323.329Zm-.932-3.773a3.812,3.812,0,0,1,.932.932,3.812,3.812,0,0,1,.932-.932,3.812,3.812,0,0,1-.932-.932A3.812,3.812,0,0,1,121.907,319.556Z" transform="translate(-119.066 -315.783)" fill="#fff"/>
    </g>
    <g id="Grupo_13870" data-name="Grupo 13870" transform="translate(121.506 182.607)">
      <path id="Trazado_24213" data-name="Trazado 24213" d="M223.642,377.317a.681.681,0,0,1-.681-.681,2.414,2.414,0,0,0-2.411-2.411.681.681,0,1,1,0-1.362,2.414,2.414,0,0,0,2.411-2.411.681.681,0,0,1,1.362,0,2.414,2.414,0,0,0,2.411,2.411.681.681,0,0,1,0,1.362,2.414,2.414,0,0,0-2.411,2.411A.681.681,0,0,1,223.642,377.317Zm-.932-3.773a3.814,3.814,0,0,1,.932.932,3.814,3.814,0,0,1,.932-.932,3.806,3.806,0,0,1-.932-.932A3.806,3.806,0,0,1,222.71,373.544Z" transform="translate(-219.869 -369.771)" fill="#fff"/>
    </g>
    <g id="Grupo_13871" data-name="Grupo 13871" transform="translate(264.173 161.072)">
      <path id="Trazado_24214" data-name="Trazado 24214" d="M642.688,314.065a.681.681,0,0,1-.681-.681,2.414,2.414,0,0,0-2.411-2.411.681.681,0,0,1,0-1.362,2.414,2.414,0,0,0,2.411-2.411.681.681,0,0,1,1.362,0,2.414,2.414,0,0,0,2.411,2.411.681.681,0,0,1,0,1.362,2.414,2.414,0,0,0-2.411,2.411A.681.681,0,0,1,642.688,314.065Zm-.932-3.773a.932.932,0,0,0,1.864,0,.932.932,0,1,0-1.864,0Z" transform="translate(-638.915 -306.519)" fill="#fff"/>
    </g>
    <g id="Grupo_13872" data-name="Grupo 13872" transform="translate(267.265 208.596)">
      <path id="Trazado_24215" data-name="Trazado 24215" d="M651.771,453.654a.681.681,0,0,1-.681-.681,2.414,2.414,0,0,0-2.411-2.411.681.681,0,0,1,0-1.362,2.414,2.414,0,0,0,2.411-2.411.681.681,0,1,1,1.362,0,2.414,2.414,0,0,0,2.411,2.411.681.681,0,1,1,0,1.362,2.414,2.414,0,0,0-2.411,2.411A.681.681,0,0,1,651.771,453.654Zm-.932-3.773a.932.932,0,1,0,1.864,0,.932.932,0,0,0-1.864,0Z" transform="translate(-647.998 -446.108)" fill="#fff"/>
    </g>
    <g id="Grupo_13873" data-name="Grupo 13873" transform="translate(86.442 207.725)">
      <path id="Trazado_24216" data-name="Trazado 24216" d="M120.651,451.1a3.773,3.773,0,1,1,3.773-3.773A3.778,3.778,0,0,1,120.651,451.1Zm0-6.184a2.411,2.411,0,1,0,2.411,2.411A2.414,2.414,0,0,0,120.651,444.911Z" transform="translate(-116.878 -443.549)" fill="#fff"/>
    </g>
    <g id="Grupo_13874" data-name="Grupo 13874" transform="translate(246.289 186.428)">
      <path id="Trazado_24217" data-name="Trazado 24217" d="M590.159,388.539a3.773,3.773,0,1,1,3.773-3.773A3.777,3.777,0,0,1,590.159,388.539Zm0-6.184a2.411,2.411,0,1,0,2.411,2.411A2.414,2.414,0,0,0,590.159,382.355Z" transform="translate(-586.386 -380.993)" fill="#fff"/>
    </g>
    <g id="Grupo_13875" data-name="Grupo 13875" transform="translate(101.076 152.746)">
      <rect id="Rectángulo_2564" data-name="Rectángulo 2564" width="13.714" height="11.608" rx="5.804" transform="translate(0 3.778) rotate(-15.989)" fill="#fae7cd"/>
      <path id="Trazado_24218" data-name="Trazado 24218" d="M167.6,297.5a5.824,5.824,0,0,1-5.575-4.2l-.379-1.323a5.812,5.812,0,0,1,3.976-7.17l3.347-.959a5.8,5.8,0,0,1,7.17,3.976l.379,1.323a5.8,5.8,0,0,1-3.976,7.17h0l-3.347.959A5.785,5.785,0,0,1,167.6,297.5Zm2.964-12.516a4.412,4.412,0,0,0-1.22.172l-3.347.959a4.45,4.45,0,0,0-3.042,5.486l.379,1.323a4.449,4.449,0,0,0,5.485,3.042l3.347-.959a4.441,4.441,0,0,0,3.042-5.486l-.379-1.323A4.444,4.444,0,0,0,170.561,284.982Zm1.79,10.677h0Z" transform="translate(-160.888 -283.09)" fill="#0f467e"/>
    </g>
    <g id="Grupo_13876" data-name="Grupo 13876" transform="translate(109.296 159.35)">
      <path id="Trazado_24219" data-name="Trazado 24219" d="M192.586,308.905l-3.035.87a2.785,2.785,0,0,1-3.434-1.9h0a2.785,2.785,0,0,1,1.9-3.434l3.035-.87a2.785,2.785,0,0,1,3.434,1.9h0A2.784,2.784,0,0,1,192.586,308.905Z" transform="translate(-185.328 -302.778)" fill="#fae7cd"/>
      <path id="Trazado_24220" data-name="Trazado 24220" d="M187.466,309.244a3.459,3.459,0,0,1-.953-6.782l3.035-.87a3.457,3.457,0,0,1,1.9,6.647l-3.035.87A3.46,3.46,0,0,1,187.466,309.244Zm3.033-6.424a2.086,2.086,0,0,0-.576.081l-3.035.87a2.1,2.1,0,0,0,1.154,4.029l3.035-.87a2.1,2.1,0,0,0-.578-4.11Z" transform="translate(-184.007 -301.459)" fill="#0f467e"/>
    </g>
    <g id="Grupo_13881" data-name="Grupo 13881" transform="translate(171.802 149.544)">
      <g id="Grupo_13877" data-name="Grupo 13877" transform="translate(0.681 0.681)">
        <path id="Trazado_24221" data-name="Trazado 24221" d="M369.622,276.257a10.26,10.26,0,0,0,.07,2.028A10.349,10.349,0,0,0,390.3,276.92q0-.341-.022-.676a1.7,1.7,0,0,0-1.7-1.587H371.324A1.707,1.707,0,0,0,369.622,276.257Z" transform="translate(-369.601 -274.657)" fill="#b36e5f"/>
      </g>
      <g id="Grupo_13878" data-name="Grupo 13878" transform="translate(0.681 0.681)">
        <path id="Trazado_24222" data-name="Trazado 24222" d="M388.578,274.657H371.326a1.707,1.707,0,0,0-1.7,1.6,5.7,5.7,0,0,0,.021,1.237h20.614a1.7,1.7,0,0,0,.043-.574q0-.341-.022-.676A1.7,1.7,0,0,0,388.578,274.657Z" transform="translate(-369.603 -274.657)" fill="#fff"/>
      </g>
      <g id="Grupo_13879" data-name="Grupo 13879" transform="translate(3.568 6.987)">
        <path id="Trazado_24223" data-name="Trazado 24223" d="M385.543,293.18a10.512,10.512,0,0,0-7.462,3.1,10.312,10.312,0,0,0,14.938.013A10.513,10.513,0,0,0,385.543,293.18Z" transform="translate(-378.081 -293.18)" fill="#ee927e"/>
      </g>
      <g id="Grupo_13880" data-name="Grupo 13880">
        <path id="Trazado_24224" data-name="Trazado 24224" d="M378.637,286.631q-.2,0-.4-.007a11.138,11.138,0,0,1-10.537-9.568,11.018,11.018,0,0,1-.074-2.162h0a2.394,2.394,0,0,1,2.381-2.237h17.253a2.388,2.388,0,0,1,2.38,2.223c.016.238.024.481.024.721a11.03,11.03,0,0,1-11.026,11.03Zm-9.653-11.649a9.6,9.6,0,0,0,.065,1.894,9.762,9.762,0,0,0,9.235,8.387A9.668,9.668,0,0,0,388.3,275.6q0-.318-.021-.631a1.023,1.023,0,0,0-1.021-.951H370.006a1.029,1.029,0,0,0-1.022.963Z" transform="translate(-367.602 -272.657)" fill="#0f467e"/>
      </g>
    </g>
  </g>
</svg>
