<svg xmlns="http://www.w3.org/2000/svg" width="177" height="200" viewBox="0 0 177 200">
  <g id="Grupo_14375" data-name="Grupo 14375" transform="translate(-466 -6663)">
    <g id="Grupo_14366" data-name="Grupo 14366">
      <g id="Grupo_13885" data-name="Grupo 13885" transform="translate(14 -129)">
        <g id="Elipse_642" data-name="Elipse 642" transform="translate(473 6792)" fill="#fdf8eb" stroke="#6278aa" stroke-width="3">
          <circle cx="68" cy="68" r="68" stroke="none"/>
          <circle cx="68" cy="68" r="66.5" fill="none"/>
        </g>
        <g id="Grupo_9717" data-name="Grupo 9717" transform="translate(479.061 6556.363)">
          <g id="Grupo_9713" data-name="Grupo 9713" transform="translate(18.939 264.696)">
            <g id="Grupo_9712" data-name="Grupo 9712">
              <path id="Trazado_19927" data-name="Trazado 19927" d="M37.693,282.414c-4.638,0-7.755-3.562-7.755-8.862s3.116-8.862,7.755-8.862,7.755,3.56,7.755,8.862S42.331,282.414,37.693,282.414Zm0-15.509c-4.088,0-5.539,3.58-5.539,6.647S33.6,280.2,37.693,280.2s5.539-3.581,5.539-6.647S41.78,266.9,37.693,266.9Z" transform="translate(-17.753 -264.689)" fill="#6278aa"/>
              <path id="Trazado_19928" data-name="Trazado 19928" d="M46.046,342.462a1.108,1.108,0,0,1-1.108-1.108V304.8a1.108,1.108,0,0,1,2.216,0v36.557A1.108,1.108,0,0,1,46.046,342.462Z" transform="translate(-16.137 -260.485)" fill="#6278aa"/>
              <path id="Trazado_19929" data-name="Trazado 19929" d="M28.046,342.462a1.108,1.108,0,0,1-1.108-1.108V304.8a1.108,1.108,0,0,1,2.216,0v36.557A1.108,1.108,0,0,1,28.046,342.462Z" transform="translate(-18.077 -260.485)" fill="#6278aa"/>
              <path id="Trazado_19930" data-name="Trazado 19930" d="M38.261,284.9H36.046a1.108,1.108,0,0,1,0-2.216h2.216a1.108,1.108,0,0,1,0,2.216Z" transform="translate(-17.215 -262.749)" fill="#6278aa"/>
              <path id="Trazado_19931" data-name="Trazado 19931" d="M37.046,297.09a1.108,1.108,0,0,1-1.108-1.108V283.8a1.108,1.108,0,1,1,2.216,0v12.186A1.108,1.108,0,0,1,37.046,297.09Z" transform="translate(-17.107 -262.749)" fill="#6278aa"/>
              <path id="Trazado_19932" data-name="Trazado 19932" d="M52.019,307.149H43.787a11.674,11.674,0,0,1-2.981-.547,1.2,1.2,0,0,1-.143.022l-6.372.522-10.782,0a5.008,5.008,0,0,1-3.722-1.593,3.408,3.408,0,0,1-.81-2.757l2.3-12.847c.8-3.948,5.2-7.263,9.6-7.263h1.358a1.108,1.108,0,0,1,1.01.651l5.671,12.59,5.6-12.59a1.108,1.108,0,0,1,1.01-.651h.791a8.857,8.857,0,0,1,8.5,7.238l1.738,12.884a3.159,3.159,0,0,1-.724,2.615A5.088,5.088,0,0,1,52.019,307.149Zm-11.528-3.012a10.92,10.92,0,0,0,3.3.8h8.232a2.866,2.866,0,0,0,2.1-.914.952.952,0,0,0,.251-.844L52.632,290.3a6.619,6.619,0,0,0-6.317-5.392H46.24l-5.377,11.936a2.237,2.237,0,0,1-1.985,1.235,2.211,2.211,0,0,1-1.951-1.167L31.516,284.9h-.643c-3.36,0-6.827,2.552-7.419,5.464l-2.292,12.787a1.159,1.159,0,0,0,.3.952,2.825,2.825,0,0,0,2.046.826H34.2l3.137-.259c-2.471-1.563-6.866-3.948-10.316-3.6a1.108,1.108,0,0,1-1.192-1.339l1.222-5.578a1.108,1.108,0,0,1,2.165.474l-.923,4.214C33.623,299.164,39.64,303.5,40.491,304.137Z" transform="translate(-18.939 -262.749)" fill="#6278aa"/>
              <path id="Trazado_19933" data-name="Trazado 19933" d="M26.433,299.757a1.107,1.107,0,0,1-.9-1.756l1.34-1.859a2.627,2.627,0,0,1,3-1.123l4.356.815c1.188-.133,7.728-.785,12.3.652l-.325-3.288a1.108,1.108,0,1,1,2.2-.218l.506,5.118a1.109,1.109,0,0,1-1.628,1.085c-4.1-2.208-12.871-1.141-12.96-1.13a1.176,1.176,0,0,1-.341-.01l-4.627-.866a1.12,1.12,0,0,1-.238-.074c-.082-.035-.311.135-.455.336l-1.34,1.859A1.108,1.108,0,0,1,26.433,299.757Z" transform="translate(-18.251 -261.747)" fill="#6278aa"/>
            </g>
          </g>
          <path id="Trazado_19934" data-name="Trazado 19934" d="M37.108,341.156A1.108,1.108,0,0,1,36,340.048v-19.94a1.108,1.108,0,0,1,2.216,0v19.94A1.108,1.108,0,0,1,37.108,341.156Z" transform="translate(1.839 5.861)" fill="#6278aa"/>
          <g id="Grupo_9716" data-name="Grupo 9716" transform="translate(50.829 264.62)">
            <g id="Grupo_9715" data-name="Grupo 9715">
              <path id="Trazado_19935" data-name="Trazado 19935" d="M92.539,302.537a1.108,1.108,0,0,1-.959-1.661A22.734,22.734,0,1,0,49.9,283.672a1.107,1.107,0,1,1-2.139-.573A24.948,24.948,0,1,1,93.5,301.982,1.107,1.107,0,0,1,92.539,302.537Z" transform="translate(-47.726 -264.62)" fill="#ff5a5a"/>
              <path id="Trazado_19936" data-name="Trazado 19936" d="M71.145,310.731a24.928,24.928,0,0,1-16.392-6.142,1.109,1.109,0,0,1,1.458-1.671,22.728,22.728,0,0,0,32.6-2.833,1.108,1.108,0,1,1,1.722,1.4A24.856,24.856,0,0,1,71.145,310.731Z" transform="translate(-47.009 -260.841)" fill="#ff5a5a"/>
              <path id="Trazado_19937" data-name="Trazado 19937" d="M70.363,296.723a8.73,8.73,0,1,1,7.681-4.571,1.108,1.108,0,1,1-1.947-1.058,6.517,6.517,0,1,0-2.354,2.47,1.108,1.108,0,1,1,1.151,1.893A8.725,8.725,0,0,1,70.363,296.723Z" transform="translate(-46.227 -263.043)" fill="#ff5a5a"/>
              <path id="Trazado_19938" data-name="Trazado 19938" d="M71.2,306.14a17.311,17.311,0,1,1,14.988-8.64,1.107,1.107,0,1,1-1.915-1.112,15.115,15.115,0,1,0-2.117,2.829,1.107,1.107,0,1,1,1.606,1.524A17.165,17.165,0,0,1,71.2,306.14Z" transform="translate(-47.062 -263.878)" fill="#ff5a5a"/>
              <g id="Grupo_9714" data-name="Grupo 9714" transform="translate(23.039 23.839)">
                <path id="Trazado_19939" data-name="Trazado 19939" d="M96.282,304.006a1.114,1.114,0,0,1-.554-.148l-5.779-3.337a1.109,1.109,0,0,1,.016-1.929l4.861-2.7a1.11,1.11,0,0,1,1.091.009l5.78,3.337a1.108,1.108,0,0,1-.017,1.929l-4.86,2.7A1.109,1.109,0,0,1,96.282,304.006ZM92.75,299.58l3.543,2.045,2.6-1.445-3.542-2.045Z" transform="translate(-66.273 -285.103)" fill="#ff5a5a"/>
                <path id="Trazado_19940" data-name="Trazado 19940" d="M96.375,309.3a1.113,1.113,0,0,1-.554-.148l-5.779-3.337a1.109,1.109,0,0,1-.554-.941l-.093-5.56a1.108,1.108,0,0,1,1.662-.978l5.779,3.338a1.107,1.107,0,0,1,.554.94l.093,5.559a1.109,1.109,0,0,1-1.108,1.127Zm-4.683-5.09,3.543,2.045-.05-2.975-3.543-2.045Z" transform="translate(-66.273 -284.841)" fill="#ff5a5a"/>
                <path id="Trazado_19941" data-name="Trazado 19941" d="M101.008,306.472a1.105,1.105,0,0,1-.553-.148L69.077,288.208a1.108,1.108,0,0,1,1.108-1.92l31.378,18.117a1.108,1.108,0,0,1-.555,2.067Z" transform="translate(-68.523 -286.14)" fill="#ff5a5a"/>
              </g>
            </g>
          </g>
        </g>
      </g>
      <g id="Trazado_25214" data-name="Trazado 25214" transform="translate(466 6818)" fill="#ffd571">
        <path d="M 154.5 44 L 22.5 44 C 19.59706878662109 44 16.78152275085449 43.43168258666992 14.1315450668335 42.31084060668945 C 11.57145500183105 41.22800064086914 9.272045135498047 39.67763519287109 7.297204494476318 37.70279693603516 C 5.32236385345459 35.72795486450195 3.772000074386597 33.42854690551758 2.689159154891968 30.86845397949219 C 1.568318128585815 28.21847724914551 1 25.40293121337891 1 22.5 C 1 19.59706878662109 1.568318128585815 16.78152275085449 2.689159154891968 14.1315450668335 C 3.772000074386597 11.57145500183105 5.32236385345459 9.272045135498047 7.297204494476318 7.297204494476318 C 9.272045135498047 5.32236385345459 11.57145500183105 3.772000074386597 14.1315450668335 2.689159154891968 C 16.78152275085449 1.568318128585815 19.59706878662109 1 22.5 1 L 154.5 1 C 157.4029388427734 1 160.2184753417969 1.568318128585815 162.8684539794922 2.689159154891968 C 165.4285430908203 3.772000074386597 167.7279510498047 5.32236385345459 169.7027893066406 7.297204494476318 C 171.6776428222656 9.272045135498047 173.2279968261719 11.57145500183105 174.3108367919922 14.1315450668335 C 175.4316864013672 16.78152275085449 176 19.59706878662109 176 22.5 C 176 25.40293121337891 175.4316864013672 28.21847724914551 174.3108367919922 30.86845397949219 C 173.2279968261719 33.42854690551758 171.6776428222656 35.72795486450195 169.7027893066406 37.70279693603516 C 167.7279510498047 39.67763519287109 165.4285430908203 41.22800064086914 162.8684539794922 42.31084060668945 C 160.2184753417969 43.43168258666992 157.4029388427734 44 154.5 44 Z" stroke="none"/>
        <path d="M 22.5 2 C 19.73164367675781 2 17.04714965820312 2.541736602783203 14.52108764648438 3.61016845703125 C 12.08021545410156 4.642570495605469 9.887649536132812 6.120975494384766 8.004302978515625 8.004310607910156 C 6.1209716796875 9.887641906738281 4.642578125 12.08021545410156 3.61016845703125 14.52109527587891 C 2.541732788085938 17.04714202880859 2 19.73164367675781 2 22.5 C 2 25.26835632324219 2.541732788085938 27.95285797119141 3.61016845703125 30.47890472412109 C 4.642578125 32.91978454589844 6.1209716796875 35.11235809326172 8.004302978515625 36.99568939208984 C 9.887649536132812 38.87902450561523 12.08021545410156 40.35742950439453 14.52108764648438 41.38983154296875 C 17.04714965820312 42.4582633972168 19.73164367675781 43 22.5 43 L 154.5 43 C 157.2683563232422 43 159.9528503417969 42.4582633972168 162.4789123535156 41.38983154296875 C 164.9197845458984 40.35742950439453 167.1123504638672 38.87902450561523 168.9956970214844 36.99568939208984 C 170.8790283203125 35.11235809326172 172.357421875 32.91978454589844 173.3898315429688 30.47890472412109 C 174.4582672119141 27.95285797119141 175 25.26835632324219 175 22.5 C 175 19.73164367675781 174.4582672119141 17.04714202880859 173.3898315429688 14.52109527587891 C 172.357421875 12.08021545410156 170.8790283203125 9.887641906738281 168.9956970214844 8.004310607910156 C 167.1123504638672 6.120975494384766 164.9197845458984 4.642570495605469 162.4789123535156 3.61016845703125 C 159.9528503417969 2.541736602783203 157.2683563232422 2 154.5 2 L 22.5 2 M 22.5 0 L 154.5 0 C 166.9264068603516 0 177 10.0735969543457 177 22.5 C 177 34.92640686035156 166.9264068603516 45 154.5 45 L 22.5 45 C 10.07359313964844 45 0 34.92640686035156 0 22.5 C 0 10.0735969543457 10.07359313964844 0 22.5 0 Z" stroke="none" fill="#6278aa"/>
      </g>
    </g>
    <path id="Trazado_25223" data-name="Trazado 25223" d="M2.283,0V-17.639H8.667a9.953,9.953,0,0,1,3.68.635,6.779,6.779,0,0,1,2.637,1.8,7.833,7.833,0,0,1,1.563,2.777,11.466,11.466,0,0,1,.531,3.6,11.508,11.508,0,0,1-.531,3.613,7.833,7.833,0,0,1-1.562,2.777,6.779,6.779,0,0,1-2.637,1.8A9.953,9.953,0,0,1,8.667,0ZM5.945-3.235H8.484a4.333,4.333,0,0,0,3.564-1.434A6.429,6.429,0,0,0,13.22-8.826a6.429,6.429,0,0,0-1.172-4.156,4.333,4.333,0,0,0-3.564-1.434H5.945ZM21.838-14.429a1.974,1.974,0,0,1-1.44-.592,1.943,1.943,0,0,1-.6-1.434,1.92,1.92,0,0,1,.6-1.422,1.98,1.98,0,0,1,1.434-.592,1.945,1.945,0,0,1,1.416.592,1.929,1.929,0,0,1,.6,1.422,1.943,1.943,0,0,1-.6,1.434A1.945,1.945,0,0,1,21.838-14.429ZM20.044,0V-12.549h3.54V0ZM30.591-10.559a4.074,4.074,0,0,1,1.648-1.508,5.028,5.028,0,0,1,2.454-.629v3.137a4.754,4.754,0,0,0-3,.757,3.3,3.3,0,0,0-.928,2.686V0h-3.54V-12.549h3.369Zm17.9,4.1-.037.842h-9.3a3.249,3.249,0,0,0,1,2.295,3.2,3.2,0,0,0,2.209.793,3.085,3.085,0,0,0,1.654-.433,2.664,2.664,0,0,0,1.056-1.263l3.223.476a5.479,5.479,0,0,1-2.2,2.942A6.533,6.533,0,0,1,42.383.244a6.794,6.794,0,0,1-4.889-1.727,6.3,6.3,0,0,1-1.813-4.791A6.34,6.34,0,0,1,37.5-11.066a6.592,6.592,0,0,1,4.773-1.752,6.3,6.3,0,0,1,4.5,1.6A6.273,6.273,0,0,1,48.486-6.458ZM42.3-10.327A2.778,2.778,0,0,0,39.246-7.91h5.762A2.643,2.643,0,0,0,44.141-9.7,2.747,2.747,0,0,0,42.3-10.327ZM56.836.232A6.7,6.7,0,0,1,51.99-1.575a6.24,6.24,0,0,1-1.88-4.712A6.226,6.226,0,0,1,51.984-11a6.725,6.725,0,0,1,4.852-1.794A6.687,6.687,0,0,1,60.9-11.584,5.4,5.4,0,0,1,63-8.179l-3.247.354A2.782,2.782,0,0,0,58.7-9.473a3.192,3.192,0,0,0-1.9-.549A2.878,2.878,0,0,0,54.5-9a4.02,4.02,0,0,0-.879,2.71,4.025,4.025,0,0,0,.879,2.7A2.871,2.871,0,0,0,56.8-2.551,3.164,3.164,0,0,0,58.7-3.1a2.847,2.847,0,0,0,1.056-1.648L63-4.395A5.41,5.41,0,0,1,60.883-.989,6.659,6.659,0,0,1,56.836.232ZM70.178,0a3.79,3.79,0,0,1-2.832-1.019,3.964,3.964,0,0,1-1-2.9V-9.851H63.879v-2.7h.793a2.07,2.07,0,0,0,1.563-.525,2.7,2.7,0,0,0,.5-1.868V-16.6H69.91v4.053H72.5v2.7H69.91V-4.3q0,1.624,1.453,1.624H72.5V0Zm6.836-14.429a1.974,1.974,0,0,1-1.44-.592,1.943,1.943,0,0,1-.6-1.434,1.92,1.92,0,0,1,.6-1.422,1.98,1.98,0,0,1,1.434-.592,1.945,1.945,0,0,1,1.416.592,1.929,1.929,0,0,1,.6,1.422,1.943,1.943,0,0,1-.6,1.434A1.945,1.945,0,0,1,77.014-14.429ZM75.22,0V-12.549h3.54V0ZM90.564-12.549h3.723L88.94,0H85.889L80.6-12.549h3.7l3.125,8.582ZM101.477.244a7.891,7.891,0,0,1-3.552-.769A5.748,5.748,0,0,1,95.49-2.783a6.73,6.73,0,0,1-.885-3.5,6.138,6.138,0,0,1,1.9-4.761,7.065,7.065,0,0,1,4.968-1.746,7.082,7.082,0,0,1,4.98,1.746,6.138,6.138,0,0,1,1.9,4.761,6.173,6.173,0,0,1-1.9,4.779A7.067,7.067,0,0,1,101.477.244Zm-.037-2.8a3.221,3.221,0,0,0,2.484-1.025,3.838,3.838,0,0,0,.946-2.71A3.838,3.838,0,0,0,103.925-9a3.221,3.221,0,0,0-2.484-1.025A3.1,3.1,0,0,0,99.03-8.99a3.874,3.874,0,0,0-.934,2.7,3.874,3.874,0,0,0,.934,2.7A3.1,3.1,0,0,0,101.44-2.551Z" transform="translate(500 6849)" fill="#00223d"/>
  </g>
</svg>
