<svg xmlns="http://www.w3.org/2000/svg" width="1920" height="369" viewBox="0 0 1920 369">
  <g id="Grupo_12216" data-name="Grupo 12216" transform="translate(2606 1835)">
    <path id="Trazado_20054" data-name="Trazado 20054" d="M0,0H1920V369H0Z" transform="translate(-2606 -1835)" fill="#273045" opacity="0.992"/>
    <g id="Grupo_12214" data-name="Grupo 12214" transform="translate(-2623 -1863.758)">
      <g id="Grupo_12162" data-name="Grupo 12162" transform="translate(252.454 302.868)">
        <rect id="Rectángulo_2277" data-name="Rectángulo 2277" width="5.186" height="7.774" fill="#353535"/>
      </g>
      <g id="Grupo_12172" data-name="Grupo 12172" transform="translate(129.604 98.244)">
        <rect id="Rectángulo_2280" data-name="Rectángulo 2280" width="5.186" height="20.744" fill="#fff"/>
      </g>
      <g id="Grupo_12173" data-name="Grupo 12173" transform="translate(121.825 106.023)">
        <rect id="Rectángulo_2281" data-name="Rectángulo 2281" width="20.744" height="5.186" fill="#fff"/>
      </g>
      <g id="Grupo_12203" data-name="Grupo 12203" transform="translate(243.783 150.203)">
        <rect id="Rectángulo_2291" data-name="Rectángulo 2291" width="5" height="21" transform="translate(0.217 -0.445)" fill="#5fe0ed"/>
      </g>
      <g id="Grupo_12204" data-name="Grupo 12204" transform="translate(236.55 158.34)">
        <rect id="Rectángulo_2292" data-name="Rectángulo 2292" width="20" height="4" transform="translate(0.45 0.418)" fill="#5fe0ed"/>
      </g>
      <g id="Grupo_12205" data-name="Grupo 12205" transform="translate(34.354 108.617)">
        <path id="Trazado_20051" data-name="Trazado 20051" d="M812.393,828.243a10.372,10.372,0,1,1,10.372-10.372,10.372,10.372,0,0,1-10.372,10.372m0-15.558a5.186,5.186,0,1,0,5.186,5.186,5.185,5.185,0,0,0-5.186-5.186" transform="translate(-802.021 -807.499)" fill="#fede31"/>
      </g>
      <g id="Grupo_12206" data-name="Grupo 12206" transform="translate(335.146 77.5)">
        <path id="Trazado_20052" data-name="Trazado 20052" d="M928.393,816.243a10.372,10.372,0,1,1,10.372-10.372,10.373,10.373,0,0,1-10.372,10.372m0-15.558a5.186,5.186,0,1,0,5.186,5.186,5.185,5.185,0,0,0-5.186-5.186" transform="translate(-918.021 -795.499)" fill="#ff5a5a"/>
      </g>
      <g id="Grupo_12207" data-name="Grupo 12207" transform="translate(231.425 331.618)">
        <path id="Trazado_20053" data-name="Trazado 20053" d="M888.393,914.243a10.372,10.372,0,1,1,10.372-10.372,10.373,10.373,0,0,1-10.372,10.372m0-15.558a5.186,5.186,0,1,0,5.186,5.186,5.185,5.185,0,0,0-5.186-5.186" transform="translate(-878.021 -893.499)" fill="#fede31"/>
      </g>
    </g>
    <g id="Grupo_12215" data-name="Grupo 12215" transform="translate(-1060 -1835)">
      <g id="Grupo_12162-2" data-name="Grupo 12162" transform="translate(203.45 252.231)">
        <rect id="Rectángulo_2277-2" data-name="Rectángulo 2277" width="4.021" height="6.027" fill="#353535"/>
      </g>
      <g id="Grupo_12172-2" data-name="Grupo 12172" transform="translate(108.203 93.583)">
        <rect id="Rectángulo_2280-2" data-name="Rectángulo 2280" width="4.021" height="16.083" fill="#5fe0ed"/>
      </g>
      <g id="Grupo_12173-2" data-name="Grupo 12173" transform="translate(102.172 99.615)">
        <rect id="Rectángulo_2281-2" data-name="Rectángulo 2281" width="16.083" height="4.021" fill="#5fe0ed"/>
      </g>
      <g id="Grupo_12203-2" data-name="Grupo 12203" transform="translate(197.198 133.792)">
        <rect id="Rectángulo_2291-2" data-name="Rectángulo 2291" width="4" height="16" transform="translate(-0.198 0.208)" fill="#fff"/>
      </g>
      <g id="Grupo_12204-2" data-name="Grupo 12204" transform="translate(191.167 139.823)">
        <rect id="Rectángulo_2292-2" data-name="Rectángulo 2292" width="16" height="4" transform="translate(-0.167 0.177)" fill="#fff"/>
      </g>
      <g id="Grupo_12205-2" data-name="Grupo 12205" transform="translate(34.354 101.625)">
        <path id="Trazado_20051-2" data-name="Trazado 20051" d="M810.063,823.582a8.042,8.042,0,1,1,8.042-8.042,8.042,8.042,0,0,1-8.042,8.042m0-12.062a4.021,4.021,0,1,0,4.021,4.021,4.02,4.02,0,0,0-4.021-4.021" transform="translate(-802.021 -807.499)" fill="#ffd571"/>
      </g>
      <g id="Grupo_12206-2" data-name="Grupo 12206" transform="translate(267.563 77.5)">
        <path id="Trazado_20052-2" data-name="Trazado 20052" d="M926.063,811.582a8.042,8.042,0,1,1,8.042-8.042,8.042,8.042,0,0,1-8.042,8.042m0-12.062a4.021,4.021,0,1,0,4.021,4.021,4.02,4.02,0,0,0-4.021-4.021" transform="translate(-918.021 -795.499)" fill="#ff5a5a"/>
      </g>
      <g id="Grupo_12207-2" data-name="Grupo 12207" transform="translate(187.146 274.521)">
        <path id="Trazado_20053-2" data-name="Trazado 20053" d="M886.063,909.583a8.042,8.042,0,1,1,8.042-8.042,8.042,8.042,0,0,1-8.042,8.042m0-12.063a4.021,4.021,0,1,0,4.021,4.021,4.02,4.02,0,0,0-4.021-4.021" transform="translate(-878.021 -893.499)" fill="#fede31"/>
      </g>
    </g>
  </g>
</svg>
